<?xml  version="1.0" encoding="UTF-8"?>
<!DOCTYPE svg PUBLIC "-//W3C//DTD SVG 1.0//EN" "http://www.w3.org/TR/2001/REC-SVG-20010904/DTD/svg10.dtd" >
<svg xmlns="http://www.w3.org/2000/svg" >
<metadata>
<version>1.0</version>
<id><![CDATA[Minion W08 Bold]]></id>
<vendor>Monotype Imaging Inc.</vendor>
<credits>
<name>Fonts.com WebFonts</name>
<URL>http://webfonts.fonts.com</URL>
<role>Home of the Web fonts</role>
</credits>
<license>
<URL>http://webfonts.fonts.com/Legal</URL>
</license>
<copyright><![CDATA[© 1990, 1991, 1992, 1994, 1997, 1998, 2000, 2002, 2004 Adobe Systems Incorporated. All rights reserved.]]></copyright>
<trademark><![CDATA[Minion is either a registered trademark or a trademark of Adobe Systems Incorporated in the United States and/or other countries.]]></trademark>
<licensee>
<name></name>
</licensee>
</metadata>
<defs >
<font horiz-adv-x="561" id="883a105b-e857-4a51-9031-415b11d29c8c">
<font-face font-family="" panose-1="2 4 7 3 6 3 6 2 2 3" ascent="1032" descent="-360" units-per-em="1000" alphabetic="0">
</font-face>
<missing-glyph horiz-adv-x="500" d="M0 0V700H500V0H0ZM80 650L250 395L420 650H80ZM450 605L280 350L450 95V605ZM420 50L250 305L80 50H420ZM50 95L220 350L50 605V95Z"  />

<glyph unicode="&#xA;" />
<glyph unicode="&#xD;" horiz-adv-x="217" />
<glyph unicode=" " horiz-adv-x="217" />
<glyph unicode="!" horiz-adv-x="285" d="M141 665Q189 665 206 653T223 622Q223 608 221 593T213 549Q199 468 187 387T164 219Q163 214 156 212T141 210T126 212T118 219Q107 306 95 387T69 549Q64 577 62 592T59 622Q59 640 75 652T141 665ZM142 -12Q110 -12 89 10T67 67Q67 101 88 123T142 145Q175 145 197 123T219 67Q219 32 197 10T142 -12Z"  />
<glyph unicode="&quot;" horiz-adv-x="380" d="M157 701Q156 689 152 659T143 590T131 511T121 441L83 422Q76 460 69 502T55 580T43 642T36 674L148 708L157 701ZM340 701Q339 689 335 658T326 588T314 509T303 441L266 422Q259 460 252 502T238 580T226 642T219 674L331 708L340 701Z"  />
<glyph unicode="#" horiz-adv-x="500" d="M457 387H362L332 266H416L403 184H313L272 15H223L264 184H167L127 15H77L117 184H21L32 266H137L166 387H76L86 469H185L220 614H271L236 469H332L367 614H416L381 469H468L457 387ZM217 387L187 266H284L313 387H217Z"  />
<glyph unicode="$" horiz-adv-x="500" d="M313 367Q341 356 368 341T416 305T449 258T462 198Q461 119 411 71T275 12V-71H234V9Q203 9 176 14T128 26T92 39T69 51Q66 60 63 76T56 112T49 153T42 193L74 199Q81 181 93 157T124 111T170 71T234 51V261L204 274Q135 301 96 341T56 439Q56 508 102 555T234 614V689H275V617Q299 617 323 614T367 604Q378 601 386 600T404 596Q409 569 415 539T427 462L394 457Q388 476 380 495T358 530T324 559T275 575V381L313 367ZM234 575Q193 569 174 544T154 488Q154 453 177 432T234 397V575ZM275 53Q310 59 333 82T357 151Q357 160 355 171T346 193T326 217T289 240L275 247V53Z"  />
<glyph unicode="%" horiz-adv-x="764" d="M192 -38L155 -11L564 650L601 624L192 -38ZM196 635Q237 635 266 619T315 577T343 520T352 461Q352 432 343 401T316 345T268 302T196 285Q155 285 126 302T78 344T50 401T41 460Q41 488 50 519T78 576T126 618T196 635ZM198 599Q180 599 169 584T151 548T142 504T139 462Q139 444 141 420T151 373T169 336T198 321Q216 321 227 336T244 374T252 420T254 461Q254 480 252 504T244 549T227 584T198 599ZM570 338Q611 338 640 322T688 279T716 222T725 163Q725 134 717 104T689 47T641 5T570 -12Q529 -12 500 4T451 46T423 103T414 162Q414 191 423 222T451 279T499 321T570 338ZM570 302Q552 302 541 288T524 253T515 208T512 165Q512 147 514 123T523 76T541 39T571 24Q589 24 600 39T617 77T625 123T627 164Q627 183 625 207T617 252T599 287T570 302Z"  />
<glyph unicode="&amp;" horiz-adv-x="715" d="M732 392Q709 389 693 385T663 374T638 355T613 325Q592 299 572 270T529 208Q577 161 622 107T702 -2L696 -14Q621 -14 578 -1T524 22Q514 32 494 55T445 105Q398 44 351 15T252 -14Q201 -14 162 3T97 47T57 107T43 172Q43 203 52 227T80 271T124 311T183 354Q153 383 135 417T116 496Q116 529 130 559T170 613T228 649T298 663Q335 663 366 652T420 622T455 576T468 518Q468 492 457 473T425 436Q410 422 390 408T345 377Q367 358 407 322T501 237Q526 276 550 323Q557 340 559 351T556 370T535 383T495 392V426H732V392ZM289 625Q274 625 262 618T240 598T226 570T221 536Q221 499 243 470T316 400Q336 417 351 447T366 523Q366 542 361 560T347 593T323 616T289 625ZM300 77Q334 77 366 94T419 135Q391 163 367 186T319 232T268 277T209 328Q189 306 178 277T167 218Q167 182 178 156T208 112T251 86T300 77Z"  />
<glyph unicode="&apos;" horiz-adv-x="199" d="M157 701Q156 689 152 659T143 590T132 512T121 441L83 422Q76 460 69 502T54 580T42 642T34 674L148 708L157 701Z"  />
<glyph unicode="(" horiz-adv-x="352" d="M287 -172Q177 -93 127 20T76 272Q76 409 126 521T287 714L314 687Q246 618 209 510T171 271Q171 206 181 145T210 29T255 -70T314 -145L287 -172Z"  />
<glyph unicode=")" horiz-adv-x="352" d="M64 714Q173 634 224 522T275 271Q275 133 224 20T64 -172L38 -146Q71 -113 97 -68T142 31T170 145T180 271Q180 335 170 397T140 514T95 614T38 689L64 714Z"  />
<glyph unicode="*" horiz-adv-x="405" d="M241 455L275 318L248 306L176 434L53 360L35 386L135 482L31 587L50 612L172 533L232 665L261 658L237 518L371 512L372 483L241 455Z"  />
<glyph unicode="+" horiz-adv-x="577" d="M327 221V0H252V221H47V286H252V486H327V286H531V221H327Z"  />
<glyph unicode="&#x2c;" horiz-adv-x="254" d="M101 161Q120 161 140 152T178 127T206 87T217 34Q217 -1 202 -28T163 -77T109 -112T48 -133L35 -98Q81 -79 103 -56T125 -1Q125 25 107 45T52 73Q49 75 44 83T38 109Q38 132 57 146T101 161Z"  />
<glyph unicode="-" horiz-adv-x="342" d="M286 193H41L56 265H302L286 193Z"  />
<glyph unicode="." horiz-adv-x="254" d="M126 -12Q95 -12 74 9T53 64Q53 97 74 118T126 140Q158 140 179 119T201 64Q201 30 180 9T126 -12Z"  />
<glyph unicode="/" horiz-adv-x="327" d="M88 -45H18L234 665H304L88 -45Z"  />
<glyph unicode="0" horiz-adv-x="500" d="M250 635Q313 635 355 605T423 528T460 424T471 312Q471 257 460 200T424 95T356 18T250 -12Q187 -12 145 18T76 95T39 200T28 311Q28 366 39 424T77 528T145 605T250 635ZM249 594Q223 594 207 569T182 505T169 415T165 315Q165 264 169 213T184 121T210 55T252 29Q277 29 293 54T318 119T331 211T335 314Q335 367 331 417T316 507T290 570T249 594Z"  />
<glyph unicode="1" horiz-adv-x="500" d="M102 0V34Q132 36 149 40T176 55T187 81T190 125V488Q190 507 189 519T183 537T169 546T145 550L94 554V583Q144 591 200 604T322 635V125Q322 99 324 83T335 56T361 41T409 34V0H102Z"  />
<glyph unicode="2" horiz-adv-x="500" d="M473 163Q461 119 452 76T434 0H33V26Q73 65 114 106T193 191Q246 254 274 311T303 425Q303 477 277 510T198 544Q175 544 156 537T121 517T90 489T64 455L35 479L99 573Q128 601 165 618T250 635Q287 635 320 623T378 588T417 532T432 457Q432 427 424 400T399 345T356 287T292 222L172 108H335Q357 108 371 109T396 117T416 137T440 175L473 163Z"  />
<glyph unicode="3" horiz-adv-x="500" d="M56 506L105 573Q127 596 162 615T248 635Q326 635 368 597T411 500Q411 480 402 463T379 433Q365 421 348 410T305 382V380Q379 367 416 323T454 222Q454 181 438 148T395 89T337 44T274 13T216 -6T174 -12Q136 -12 107 -2T62 21Q39 40 39 61Q39 75 48 87T68 107Q77 114 86 115T106 108Q114 101 127 90T156 69T192 52T234 44Q272 44 298 76T324 179Q324 215 313 240T285 280T246 302T204 309Q190 309 176 307T150 302L143 336Q206 357 246 388T287 466Q287 515 261 536T201 557Q163 557 136 537T82 482L56 506Z"  />
<glyph unicode="4" horiz-adv-x="500" d="M396 174V111Q396 88 398 75T408 53T433 41T477 34V0H179V34Q211 37 229 41T256 55T267 78T269 116V174H15V215Q96 330 174 435T324 629H396V231H486V174H396ZM269 493H267Q231 443 185 376T90 231H269V493Z"  />
<glyph unicode="5" horiz-adv-x="500" d="M125 361Q162 375 198 384T254 394Q302 394 339 380T401 343T440 289T454 226Q454 179 430 136T353 56Q311 25 261 7T166 -12Q136 -12 108 -3T62 20Q47 32 43 41T38 61Q38 72 47 87T70 112Q86 123 106 106Q115 98 128 88T158 68T194 52T235 45Q282 45 304 81T327 174Q327 241 288 281T179 322Q144 322 115 315T70 303L115 623H432L438 613L406 515H152L125 361Z"  />
<glyph unicode="6" horiz-adv-x="500" d="M229 383Q248 391 262 396T288 402Q331 402 366 389T427 351T466 292T480 215Q480 168 463 127T416 54T343 6T252 -12Q205 -12 164 5T93 56T46 136T28 243Q28 323 53 384T117 491T203 565T294 609Q310 615 330 620T370 629T410 636T443 641L450 603Q428 598 399 589T343 567Q325 558 301 542T254 501T211 441T179 359L229 383ZM235 331Q217 331 202 328T172 320Q169 307 168 283T166 240Q166 190 175 151T200 85T234 44T273 29Q296 29 310 42T333 76T345 122T349 171Q349 242 318 286T235 331Z"  />
<glyph unicode="7" horiz-adv-x="500" d="M485 611Q413 459 340 307T198 0L95 -12L87 1Q176 133 251 262T391 515H178Q152 515 137 513T111 504T92 484T74 449H39Q50 508 55 549T66 623H476L485 611Z"  />
<glyph unicode="8" horiz-adv-x="500" d="M261 635Q302 635 336 624T394 591T431 542T445 480Q445 438 412 406Q400 395 384 383T339 351Q365 337 389 321T431 284T461 237T472 178Q472 130 451 95T397 36T325 0T249 -12Q200 -12 160 0T92 34T48 87T32 157Q32 192 46 212T74 245Q88 257 116 275T167 306Q145 318 125 333T90 368T66 410T57 461Q57 497 72 528T114 583T178 621T261 635ZM247 595Q229 595 215 587T192 567T177 539T172 507Q172 481 181 462T208 427T248 397T301 370Q314 382 326 406T338 475Q338 507 330 530T308 567T278 588T247 595ZM258 28Q301 28 326 57T351 137Q350 164 341 183T313 219T268 251T204 287Q182 270 167 239T152 169Q152 133 162 106T187 62T221 37T258 28Z"  />
<glyph unicode="9" horiz-adv-x="500" d="M252 635Q307 635 348 615T416 560T457 479T471 382Q471 314 452 257T400 153T322 73T224 18Q209 12 187 6T140 -4T93 -12T53 -15L47 21Q102 31 149 54T231 112T290 187T323 274L275 249Q257 239 244 235T217 231Q172 231 137 246T76 286T38 346T24 420Q24 453 38 491T80 561T152 614T252 635ZM233 595Q213 595 199 583T175 552T161 508T156 460Q156 428 164 399T188 348T226 313T275 300Q294 300 306 304T330 313Q333 334 334 352T335 387Q335 424 330 461T313 528T282 576T233 595Z"  />
<glyph unicode=":" horiz-adv-x="254" d="M128 419Q160 419 180 398T201 342Q201 310 181 289T128 268Q96 268 76 289T55 342Q55 377 75 398T128 419ZM127 -12Q96 -12 76 9T55 64Q55 97 75 118T127 139Q159 139 180 118T201 64Q201 30 180 9T127 -12Z"  />
<glyph unicode=";" horiz-adv-x="254" d="M128 419Q160 419 180 398T201 342Q201 310 181 289T128 268Q96 268 76 289T55 342Q55 377 75 398T128 419ZM102 161Q121 161 141 152T179 127T207 87T218 34Q218 -1 203 -28T164 -77T110 -112T48 -133L39 -98Q83 -79 104 -56T126 -1Q126 25 108 45T53 73Q50 74 45 83T39 109Q39 132 58 146T102 161Z"  />
<glyph unicode="&lt;" horiz-adv-x="548" d="M53 219V287L497 506V435L126 254V252L497 70V0L53 219Z"  />
<glyph unicode="=" horiz-adv-x="577" d="M47 313V378H531V313H47ZM47 130V195H531V130H47Z"  />
<glyph unicode="&gt;" horiz-adv-x="548" d="M53 0V70L424 252V254L53 435V506L497 287V219L53 0Z"  />
<glyph unicode="?" horiz-adv-x="399" d="M206 202Q186 209 164 222T123 252T92 291T79 336Q79 365 99 394T176 458Q198 471 218 483T253 507T277 528T286 546Q286 563 275 573T240 583Q215 583 193 572T154 548T124 523T104 512Q96 512 86 517T67 532T52 554T46 580Q46 595 52 603T69 623Q81 634 96 642T127 655T157 662T182 665Q214 665 246 651T304 612T346 556T362 489Q362 459 352 434T303 383Q290 374 273 363T239 338T212 312T201 286Q201 274 206 260T228 226L206 202ZM189 -12Q157 -12 135 10T113 67Q113 100 135 122T189 145Q223 145 244 123T266 67Q266 32 244 10T189 -12Z"  />
<glyph unicode="@" horiz-adv-x="766" d="M565 -46Q516 -76 468 -88T371 -100Q308 -100 251 -81T150 -23T81 74T56 209Q56 296 88 364T173 480T294 552T435 577Q504 577 558 556T649 500T705 420T725 324Q725 272 707 226T655 146T577 92T476 72Q456 72 445 76T428 90T422 112T426 144L434 190L432 191Q420 174 401 153T358 114T312 84T269 72Q249 72 233 94T218 162Q220 206 237 253T297 345Q312 360 331 373T374 397T422 414T471 420Q482 420 498 417T526 412Q539 408 562 408Q555 383 542 324T514 187Q507 152 510 137T527 122Q550 122 575 134T621 171T655 234T669 324Q669 375 651 414T600 480T526 520T436 534Q370 534 315 510T219 443T156 341T133 213Q133 166 147 120T193 35T276 -26T399 -50Q446 -50 486 -40T552 -16L565 -46ZM422 376Q404 376 391 369T365 348Q346 327 333 285T317 197Q316 169 321 159T336 148Q347 148 378 173T441 254Q451 282 458 311T471 363Q447 376 422 376Z"  />
<glyph unicode="A" horiz-adv-x="706" d="M401 0V35Q445 42 453 54T449 100Q441 123 431 152T409 213H217Q209 190 200 163T181 106Q176 88 175 76T179 56T200 43T242 35V0H18L19 35Q44 38 59 42T86 58T108 87T130 138L335 652L386 665Q434 533 481 404T577 144Q590 111 600 91T621 60T648 43T687 35V0H401ZM316 482H313Q292 427 273 374T234 266H390L316 482Z"  />
<glyph unicode="B" horiz-adv-x="637" d="M401 349Q444 344 480 332T541 301T580 256T594 193Q594 142 569 104T500 43Q462 21 407 11T289 0H35V35Q64 38 81 41T107 55T118 83T121 134V516Q121 548 119 566T108 595T84 608T41 615V650H333Q391 650 430 642T498 615Q526 597 541 568T557 501Q557 465 543 440T506 397T456 369T401 353V349ZM276 363Q348 363 381 392T415 484Q415 518 406 541T381 580T347 601T307 608Q290 608 279 605T262 596Q253 587 253 553V363H276ZM253 136Q253 108 257 90T269 61T292 46T326 42Q347 42 368 50T406 76T434 119T445 182Q445 323 273 323H253V136Z"  />
<glyph unicode="C" horiz-adv-x="676" d="M660 170Q655 152 648 130T634 86T618 44T604 11Q594 9 574 5T527 -4T472 -12T418 -15Q318 -15 247 14T130 91T63 198T41 317Q41 394 69 458T150 568T275 639T438 665Q468 665 496 662T549 654T591 645T620 638Q627 596 632 559T643 474L606 467Q594 512 574 541T529 588T476 613T419 621Q365 621 323 598T253 535T209 444T194 337Q194 268 211 212T260 116T335 54T429 32Q492 32 539 71T625 186L660 170Z"  />
<glyph unicode="D" horiz-adv-x="761" d="M342 650Q436 650 508 630T629 563Q666 528 691 475T717 351Q717 259 683 194T592 83Q536 41 460 21T289 0H32V35Q62 38 79 41T106 55T118 83T121 134V516Q121 548 119 566T108 595T84 608T41 615V650H342ZM255 140Q255 113 258 95T271 65T297 48T340 43Q390 43 431 63T503 120T549 211T566 331Q566 403 546 458T492 547Q460 578 420 593T329 609Q302 609 287 605T266 595Q259 588 257 575T255 540V140Z"  />
<glyph unicode="E" horiz-adv-x="581" d="M571 166Q569 149 564 125T554 77T544 32T536 0H26V35Q58 38 77 41T105 54T118 82T121 133V517Q121 550 119 568T108 596T83 609T40 615V650H511Q511 643 512 628T514 592T517 547T521 500L485 495Q477 521 468 544T444 581Q431 595 409 600T344 606H296Q268 606 262 601T255 571V359H322Q353 359 372 361T403 370T421 393T433 434H469V232H433Q428 259 422 274T405 296T374 306T322 308H255V135Q255 100 259 81T279 53Q293 47 316 45T369 43Q407 43 434 49T480 75Q507 107 536 173L571 166Z"  />
<glyph unicode="F" horiz-adv-x="554" d="M489 491Q481 520 472 541T449 577Q433 594 410 600T345 606H295Q282 606 274 605T262 601T257 590T256 571V350H337Q371 350 390 352T421 362T438 384T448 423H484V224H448Q444 249 439 264T422 287T391 297T337 300H256V142Q256 107 258 87T271 56T299 42T351 35V0H39V35Q66 38 82 41T108 55T119 86T122 142V511Q122 545 120 564T108 594T83 608T39 614V650H513Q513 644 514 628T516 590T520 544T524 498L489 491Z"  />
<glyph unicode="G" horiz-adv-x="727" d="M703 276Q684 272 673 269T656 257T649 235T647 195V116Q647 89 648 66T653 22Q630 16 603 10T547 -2T486 -11T425 -15Q338 -15 268 8T148 75T71 180T44 317Q44 402 76 467T162 576T289 642T440 665Q470 665 499 662T554 654T600 645T635 637Q637 611 641 571T651 471L614 464Q595 548 543 585T420 623Q375 623 335 604T263 547T214 456T196 335Q196 278 210 223T253 125T327 54T434 27Q449 27 464 29T490 39Q501 46 507 58T513 94V189Q513 215 511 230T498 255T465 268T403 276V310H703V276Z"  />
<glyph unicode="H" horiz-adv-x="783" d="M746 615Q717 612 700 609T675 595T664 567T662 517V132Q662 100 664 82T675 55T700 42T746 35V0H441V35Q471 38 488 41T514 55T525 83T528 133V319H255V133Q255 101 257 83T268 55T293 42T337 35V0H39V35Q66 38 82 41T107 54T118 82T121 133V517Q121 549 119 567T107 595T81 608T35 615V650H335V615Q308 612 292 609T268 595T258 567T255 517V370H528V517Q528 549 526 567T515 595T490 608T446 615V650H746V615Z"  />
<glyph unicode="I" horiz-adv-x="378" d="M38 0V35Q66 38 82 41T107 55T118 83T121 133V516Q121 548 119 566T108 595T83 608T38 615V650H338V615Q310 612 294 609T269 595T258 567T255 516V133Q255 101 257 83T268 55T293 42T338 35V0H38Z"  />
<glyph unicode="J" horiz-adv-x="366" d="M338 615Q312 612 296 609T272 595T262 567T259 516V186Q259 142 256 103T243 28T212 -40T157 -101Q127 -127 96 -141T35 -163L20 -126Q61 -109 83 -81T114 -5Q121 37 123 85T125 190V516Q125 548 122 566T110 595T84 608T39 615V650H338V615Z"  />
<glyph unicode="K" horiz-adv-x="703" d="M498 0Q482 22 459 54T410 123T356 200T301 279Q285 302 274 309T252 314V134Q252 102 254 84T266 55T292 42T338 35V0H39V35Q66 38 82 41T107 55T118 83T121 134V516Q121 548 119 566T107 595T82 608T37 615V650H331V615Q304 612 289 609T265 595T255 567T252 516V346Q268 351 286 363T328 399Q378 449 410 488T468 560Q486 584 482 595T443 612L425 615V650H685V615Q662 613 642 609T604 597T567 577T527 545Q482 504 449 468T381 396Q429 324 483 251T591 109Q622 71 645 56T699 35V0H498Z"  />
<glyph unicode="L" horiz-adv-x="551" d="M548 169Q545 153 540 129T530 79T519 32T511 0H24V35Q57 38 76 41T105 55T118 83T121 133V516Q121 548 118 566T106 595T80 608T35 615V650H341V615Q312 612 295 609T269 595T258 567T255 516V126Q255 91 259 75T280 52Q293 47 312 45T355 43Q387 43 413 50T457 77Q471 93 485 117T513 180L548 169Z"  />
<glyph unicode="M" horiz-adv-x="888" d="M564 0V35Q592 38 608 42T632 57T642 87T644 142L642 527H637L416 7H388L184 517H180L168 256Q165 193 165 156T168 95Q169 78 174 68T189 51T216 41T258 35V0H18V35Q60 39 77 53T99 93Q104 117 109 160T120 282L136 479Q139 522 138 547T129 587T102 606T51 615V650H258L451 212L647 650H848V615Q818 612 801 608T776 594T767 566T766 516L775 142Q776 107 778 88T789 57T814 42T860 35V0H564Z"  />
<glyph unicode="N" horiz-adv-x="740" d="M724 615Q683 613 666 601T644 553Q642 530 639 492T635 387V-10H587L171 488H168V263Q168 197 171 161T176 101Q178 84 183 73T198 53T226 41T272 35V0H27V35Q69 38 88 52T110 98Q113 123 116 160T120 263V472Q120 496 120 512T117 541T110 561T99 579Q85 597 67 604T16 615V650H201L583 211H587V387Q587 453 584 491T579 551Q575 583 555 597T480 615V650H724V615Z"  />
<glyph unicode="O" horiz-adv-x="766" d="M393 665Q461 665 521 641T627 573T698 468T724 332Q724 251 697 187T623 78T514 9T381 -15Q306 -15 244 11T137 82T67 190T42 324Q42 388 64 449T131 559T241 636T393 665ZM375 623Q337 623 304 604T247 548T209 460T195 343Q195 279 209 222T249 121T313 53T399 27Q435 27 466 44T520 96T557 183T571 304Q571 379 557 438T516 538T454 601T375 623Z"  />
<glyph unicode="P" horiz-adv-x="599" d="M318 650Q378 650 421 641T493 611Q528 587 547 550T567 464Q567 414 550 377T505 315T439 275T363 256Q352 254 341 254T321 254L253 270V133Q253 101 255 83T268 54T297 41T348 34V0H37V34Q65 37 81 40T107 54T118 82T121 133V516Q121 548 119 566T108 594T85 608T43 615V650H318ZM253 310Q262 306 276 303T307 300Q321 300 341 306T379 329T411 378T424 461Q424 503 413 532T385 578T345 603T299 611Q285 611 276 608T262 601Q253 592 253 570V310Z"  />
<glyph unicode="Q" horiz-adv-x="758" d="M726 -164Q689 -170 649 -167T579 -156Q567 -153 547 -145T497 -120T429 -77T343 -13Q320 -12 292 -5T235 15T179 46T131 87Q88 134 65 193T42 319Q42 385 64 447T131 558T240 636T393 665Q461 665 521 641T627 573T698 468T724 333Q724 270 707 217T659 122T588 51T503 8Q527 -9 556 -28T616 -67T677 -105T735 -137L726 -164ZM440 56Q447 51 453 47T466 37Q483 44 501 63T535 115T561 194T571 303Q571 378 557 437T516 537T454 601T372 623Q331 623 299 601T243 541T208 452T195 342Q195 283 206 232T237 139T288 70T358 30L440 56Z"  />
<glyph unicode="R" horiz-adv-x="659" d="M654 -9Q649 -9 641 -9T624 -8Q577 -6 545 0T489 19T450 48T419 89Q399 120 379 158T337 236Q325 259 310 269T271 280H252V134Q252 103 254 85T266 57T292 42T337 35V0H35V35Q63 38 80 42T106 56T118 85T121 134V518Q121 548 119 566T108 594T83 608T39 615V650H320Q386 650 427 642T498 612Q528 592 547 559T566 479Q566 446 556 421T529 375T489 341T441 316Q446 305 455 288T476 252T499 212T522 174Q549 132 566 107T599 66Q616 49 629 39T660 23L654 -9ZM278 319Q310 319 334 325T376 346Q402 367 413 397T424 465Q424 505 414 532T386 577T348 602T306 610Q271 610 261 600Q252 592 252 563V319H278Z"  />
<glyph unicode="S" horiz-adv-x="505" d="M408 487Q400 511 389 535T361 579T322 611T268 624Q226 624 199 596T171 525Q171 484 200 456T295 394Q334 375 367 355T423 309T459 255T472 188Q472 145 455 108T405 44T329 1T229 -15Q175 -15 128 -1Q107 5 93 10T67 21Q64 30 60 49T52 92T45 142T38 191L73 202Q80 178 95 148T132 90T183 45T248 26Q294 26 321 54T348 131Q348 175 317 206T229 267Q190 286 158 306T103 351T68 404T55 469Q55 510 71 546T116 608T188 650T284 665Q308 665 330 662T370 655T402 646T423 638Q426 610 431 576T442 495L408 487Z"  />
<glyph unicode="T" horiz-adv-x="641" d="M580 479Q562 556 536 582Q523 596 501 601T435 606H389V133Q389 101 392 83T405 55T434 42T487 35V0H161V35Q192 38 211 41T239 54T252 82T255 133V606H221Q190 606 171 604T139 599T119 590T106 579Q94 566 84 541T64 478H28Q31 533 34 585T40 675H64Q76 658 88 654T121 650H523Q543 650 555 655T581 675H605Q605 659 606 636T608 587T612 533T616 481L580 479Z"  />
<glyph unicode="U" horiz-adv-x="729" d="M724 615Q682 613 663 598T639 556Q635 533 633 502T630 417V308Q630 228 615 166T558 58Q523 22 475 4T373 -15Q323 -15 278 -4T196 37Q153 70 133 127T113 272V507Q113 542 111 562T99 593T74 608T29 615V650H330V615Q303 612 287 608T261 594T250 563T247 507V290Q247 177 287 115T409 53Q499 53 539 118T580 310V417Q580 471 577 502T570 556Q566 582 545 597T473 615V650H724V615Z"  />
<glyph unicode="V" horiz-adv-x="711" d="M702 614Q678 611 662 606T632 589T606 556T579 499Q567 470 545 416T495 292T437 145T377 -11H327Q301 58 272 134T215 282T163 415T123 516Q112 545 102 563T81 591T54 607T15 614V650H313V614Q286 610 271 606T251 594T247 576T255 549Q266 519 284 470T324 366T365 260T399 172H402Q444 282 475 368T528 520Q536 546 539 562T537 589T515 605T468 614V650H702V614Z"  />
<glyph unicode="W" horiz-adv-x="979" d="M969 615Q944 611 928 606T899 589T878 558T859 507Q842 459 799 330T693 -11H641Q600 101 560 209T478 433H476Q437 319 399 209T326 -11H273Q232 125 194 252T113 514Q104 543 96 561T76 590T50 606T13 615V650H309V615Q280 612 265 607T244 594T239 573T246 541Q271 453 296 367T348 197H350Q385 304 422 416T494 644H542Q584 529 626 416T710 193H712Q727 239 741 289T768 386T791 470T806 530Q811 552 812 567T806 592T781 607T734 615V650H969V615Z"  />
<glyph unicode="X" horiz-adv-x="693" d="M378 0V35Q403 39 415 44T431 56T432 72T422 94Q418 100 412 111T393 143T362 195T316 273Q280 219 252 173T206 97Q188 65 198 54T259 35V0H8V35Q49 40 77 52T127 90Q140 107 159 132T200 186T245 247T290 312Q254 372 221 426T148 543Q137 561 126 573T101 594T69 607T25 615V650H327V615Q306 610 295 606T281 596T278 583T285 567Q298 543 321 505T375 416Q398 447 422 485T465 556Q472 569 474 578T472 594T454 605T417 615V650H658V615Q634 612 616 608T583 596T555 576T526 546Q500 516 469 474T401 381Q446 311 484 249T567 118Q582 94 595 79T622 55T655 42T699 35V0H378Z"  />
<glyph unicode="Y" horiz-adv-x="655" d="M646 615Q622 612 606 607T576 593T551 568T526 531Q512 509 500 489T475 447T447 397T414 335Q403 315 400 302T396 266V138Q396 104 398 85T411 56T440 41T493 34V0H168V34Q200 37 218 40T247 54T259 84T262 138V249Q262 268 259 278T249 303Q229 345 200 398T125 530Q111 555 100 570T77 594T51 607T16 615V650H302V615Q277 612 264 608T247 596T245 580T255 557Q281 505 310 451T369 340Q380 361 394 388T422 444T450 501T473 552Q479 567 481 577T478 595T457 606T414 615V650H646V615Z"  />
<glyph unicode="Z" horiz-adv-x="619" d="M607 185Q604 167 600 141T590 87T579 37T570 0H40L28 17Q125 163 220 311T410 605H284Q246 605 222 603T184 597T161 586T147 570Q137 556 127 533T108 475L74 476Q76 534 80 585T86 675H112Q123 657 134 654T169 650H576L584 635Q489 488 397 345T210 51Q222 49 234 48T260 47T292 46T334 45Q393 45 441 51T511 78Q529 95 543 120T573 193L607 185Z"  />
<glyph unicode="[" horiz-adv-x="351" d="M117 -162V704H302V668Q264 665 243 661T212 647T199 620T197 574V-34Q197 -63 199 -79T211 -105T242 -118T302 -126V-162H117Z"  />
<glyph unicode="\" horiz-adv-x="332" d="M234 -45L28 665H98L304 -45H234Z"  />
<glyph unicode="]" horiz-adv-x="351" d="M49 -162V-126Q86 -123 107 -119T139 -105T151 -78T154 -32V574Q154 603 152 620T139 646T108 660T49 668V704H234V-162H49Z"  />
<glyph unicode="^" horiz-adv-x="559" d="M429 213L278 548L126 213H53L247 623H312L506 213H429Z"  />
<glyph unicode="_" horiz-adv-x="500" d="M0 -125V-75H500V-125H0Z"  />
<glyph unicode="`" horiz-adv-x="400" d="M209 489Q172 534 137 576T80 645L84 659Q90 663 103 666T133 673T163 677T186 678Q200 633 213 590T241 502L209 489Z"  />
<glyph unicode="a" horiz-adv-x="466" d="M356 -12Q336 -12 321 -6T295 9Q284 18 279 27T269 46Q255 37 240 27T210 8T184 -6T165 -12Q133 -12 108 -1T66 29T39 70T30 116Q30 155 48 176T106 212Q128 220 152 228T199 245T238 262T265 278V308Q265 356 249 381T204 406Q184 406 171 388Q162 377 155 360T142 319Q137 299 127 292T100 285Q90 285 79 289T59 300T44 316T38 335Q38 349 47 359T73 383Q87 393 107 404T149 424T194 442T239 454Q298 454 337 425Q369 400 379 368T389 293V128Q389 93 399 81T421 69Q430 69 438 71T455 77L465 45L356 -12ZM265 239Q251 232 238 224T210 208Q187 196 175 181T163 140Q163 119 169 105T184 81T203 67T223 63Q234 63 243 66T265 79V239Z"  />
<glyph unicode="b" horiz-adv-x="534" d="M233 435Q254 445 268 449T297 454Q342 454 380 437T445 391T488 323T504 243Q504 188 484 142T429 61T347 8T244 -12Q202 -12 161 -4T68 24V566Q68 588 67 601T59 621T40 632T7 637V667Q26 669 50 673T99 681T150 691T196 703V417L233 435ZM196 108Q196 88 201 75Q206 63 222 46T262 28Q282 28 300 39T333 73T356 130T365 212Q365 260 354 293T325 348T284 379T237 389Q225 389 216 387T196 382V108Z"  />
<glyph unicode="c" horiz-adv-x="422" d="M418 96Q383 47 338 18T246 -12Q195 -12 155 6T86 53T44 121T29 201Q29 256 55 306T130 392Q179 428 225 441T300 454Q327 454 350 447T386 429Q397 421 400 413T404 393Q404 371 389 355T361 338Q351 338 339 349Q307 376 283 388T238 401Q223 401 208 394T181 369T162 324T154 256Q154 206 169 172T207 118T252 88T292 79Q324 79 348 88T399 120L418 96Z"  />
<glyph unicode="d" horiz-adv-x="547" d="M541 26Q532 24 511 21T463 14T405 3T344 -13V45L284 6Q265 -5 254 -8T233 -12Q201 -12 165 1T99 42T49 110T29 207Q29 258 50 303T107 381T194 434T303 454Q309 454 318 453T344 449V570Q344 590 342 602T334 620T314 630T277 636V667Q301 670 327 674T379 682T429 692T472 703V126Q472 105 473 93T480 74T494 65T519 60L541 58V26ZM344 360Q332 386 313 399T272 412Q263 412 246 406T213 380T184 326T171 234Q171 188 183 156T213 103T251 74T289 64Q303 64 315 66T344 80V360Z"  />
<glyph unicode="e" horiz-adv-x="437" d="M417 99Q394 65 369 44T320 10T274 -7T237 -12Q187 -12 149 5T84 52T44 120T30 202Q30 259 51 305T104 383Q137 416 176 435T258 454Q292 454 322 441T374 405T408 353T420 293Q420 278 414 269T391 257Q384 256 360 254T302 250T229 245T153 241Q155 201 166 171T196 121T237 90T288 80Q317 80 345 90T399 123L417 99ZM237 414Q208 414 186 381T158 288Q189 289 217 289T277 291Q288 292 292 295T298 311Q298 330 294 348T282 381T263 405T237 414Z"  />
<glyph unicode="f" horiz-adv-x="331" d="M93 442V464Q93 481 96 497T105 531Q108 539 113 551T129 579T154 612T191 648Q218 671 245 684T309 703Q339 701 358 693T391 673Q402 662 403 651T400 629Q396 621 389 611T369 593Q350 578 336 592Q317 611 295 626T252 642Q238 642 231 635T221 615Q216 601 216 571T219 477L220 442H335Q336 438 336 431T335 417T330 403T321 394H220V108Q220 85 222 71T233 50T257 39T303 32V0H31V32Q53 35 65 38T84 49T91 70T93 108V394H28L23 406L52 442H93Z"  />
<glyph unicode="g" horiz-adv-x="492" d="M498 432Q496 426 492 417T481 399T469 383T455 371L398 375Q410 361 417 343T425 299Q425 260 409 231T367 182T306 153T234 143Q220 143 208 144T185 148Q179 142 175 135T171 120Q171 107 185 94T235 82Q259 82 281 82T327 83Q350 83 377 79T427 61T465 24T481 -39Q481 -82 458 -119T398 -184T312 -228T214 -244Q166 -244 131 -233T72 -204T38 -165T27 -122Q27 -105 35 -93T58 -67Q76 -53 95 -42T134 -18Q102 -7 86 7T59 37Q51 49 47 64T44 91Q83 107 107 125T146 157Q101 172 75 207T48 290Q48 332 65 363T111 414T173 444T242 454Q273 454 297 448T349 427Q388 429 426 432T494 439L498 432ZM236 417Q213 417 195 389T176 306Q176 280 180 257T193 217T215 190T245 180Q274 180 289 209T305 294Q305 318 301 340T289 380T267 407T236 417ZM243 -21Q206 -21 188 -25T158 -42Q147 -53 141 -65T135 -93Q135 -111 144 -128T170 -159T210 -181T264 -189Q321 -189 353 -162T385 -95Q385 -68 369 -52T329 -30Q309 -25 290 -23T243 -21Z"  />
<glyph unicode="h" horiz-adv-x="550" d="M296 0V32Q314 35 324 38T339 48T346 68T347 101V277Q347 335 326 357T275 380Q257 380 238 374T203 352V101Q203 80 204 68T210 49T224 38T249 32V0H12V32Q33 34 45 37T64 47T73 67T75 105V571Q75 594 74 606T67 625T50 633T19 638V667Q59 672 108 682T203 703V389Q229 415 264 434T336 454Q402 454 438 413T474 288V105Q474 81 475 68T483 48T500 38T532 32V0H296Z"  />
<glyph unicode="i" horiz-adv-x="295" d="M148 517Q120 517 99 537T78 587Q78 617 99 637T149 657Q179 657 199 637T220 587Q220 558 200 538T148 517ZM29 0V32Q51 35 63 38T82 49T91 72T93 114V312Q93 337 91 351T84 372T67 383T38 389V418Q83 423 130 432T220 454V114Q220 88 221 73T230 50T249 39T285 32V0H29Z"  />
<glyph unicode="j" horiz-adv-x="288" d="M148 517Q120 517 99 537T78 587Q78 617 99 637T149 657Q178 657 199 637T220 587Q220 558 199 538T148 517ZM31 418Q77 423 124 433T220 454V129Q220 100 219 78T214 37T205 1T192 -33Q177 -69 157 -101T117 -160T80 -205T53 -229Q42 -237 35 -240T18 -244Q7 -244 -7 -229T-22 -189Q-22 -177 -16 -170T2 -162Q66 -161 77 -142Q86 -124 89 -71Q91 -26 92 21T93 117V305Q93 332 91 347T83 370T64 381T31 388V418Z"  />
<glyph unicode="k" horiz-adv-x="513" d="M360 -2Q349 12 334 34T301 84T265 140T230 196Q218 215 208 215Q205 215 201 214V108Q201 84 203 70T211 49T231 38T266 32V0H9V32Q31 35 44 38T64 48T73 69T75 108V570Q75 591 73 603T65 623T47 633T15 639V667Q50 672 100 680T201 703V244Q218 248 232 259T258 282Q275 301 291 326T316 369Q325 385 320 394T286 409V439L502 448V418Q454 410 426 399T377 366Q357 346 343 329T307 284Q317 267 336 240T377 182T419 125T452 83Q476 56 493 47T536 32V0L360 -2Z"  />
<glyph unicode="l" horiz-adv-x="278" d="M10 0V32Q32 35 45 39T64 50T73 72T75 110V568Q75 590 74 603T66 623T48 632T15 638V667Q58 672 109 681T202 703V110Q202 85 204 71T212 49T232 38T269 32V0H10Z"  />
<glyph unicode="m" horiz-adv-x="843" d="M588 0V32Q604 34 614 37T630 47T638 67T640 105V277Q640 308 634 327T617 356T594 371T569 375Q554 375 535 369T491 342Q492 334 493 324T494 302V100Q494 79 496 67T503 47T519 37T546 32V0H315V32Q333 35 343 37T358 46T364 65T366 100V282Q366 336 346 356T297 376Q263 376 220 344V100Q220 79 221 67T228 47T242 37T265 32V0H30V32Q51 35 63 37T82 47T91 68T93 105V315Q93 336 92 349T85 371T69 382T42 389V418Q77 423 124 433T218 456V379Q235 391 249 401T281 422Q304 437 325 445T368 454Q410 454 439 432T482 375Q500 389 518 401T554 426Q571 437 590 445T633 454Q699 454 733 412T767 293V100Q767 79 768 67T775 48T792 38T824 32V0H588Z"  />
<glyph unicode="n" horiz-adv-x="566" d="M316 0V32Q332 35 341 38T355 48T361 71T363 113V283Q363 337 342 357T294 377Q275 377 258 369T220 346V104Q220 81 221 68T228 47T242 38T267 32V0H26V32Q49 35 62 38T82 48T91 70T93 109V316Q93 338 92 351T85 371T68 382T39 389V418Q82 423 128 433T220 456V382Q235 393 250 404T282 426Q305 440 321 447T360 454Q421 454 456 412T491 294V105Q491 81 492 68T500 48T517 38T549 32V0H316Z"  />
<glyph unicode="o" horiz-adv-x="525" d="M268 454Q320 454 362 436T434 387T480 315T496 229Q496 169 476 124T424 48T350 3T264 -12Q205 -12 161 7T88 58T45 130T30 211Q30 271 51 316T107 392T184 438T268 454ZM255 415Q223 415 198 374T173 247Q173 201 180 161T200 91T232 44T275 27Q289 27 303 33T328 57T346 110T353 199Q353 304 328 359T255 415Z"  />
<glyph unicode="p" horiz-adv-x="547" d="M281 435Q313 454 336 454Q380 454 414 438T471 394T505 332T517 261Q517 206 497 161T444 81T366 23T274 -12Q255 -12 239 -9T211 0V-127Q211 -149 213 -161T223 -181T248 -192T294 -198V-230H16V-198Q40 -196 53 -193T74 -183T82 -162T84 -128V320Q84 341 82 353T74 372T56 382T26 388V418Q67 425 114 437T211 464V391L281 435ZM211 77Q225 63 249 51T293 38Q335 38 360 84T386 210Q386 256 376 288T349 340T313 369T275 378Q255 378 240 372T211 354V77Z"  />
<glyph unicode="q" horiz-adv-x="536" d="M260 -230V-198Q286 -195 301 -192T325 -182T336 -162T339 -126V22L259 -12Q199 -12 156 7T84 57T43 126T29 201Q29 254 51 300T112 381T201 434T309 454Q340 452 356 448T381 440Q392 436 399 435T414 434Q421 434 433 436T465 446L470 442Q470 434 470 427T469 408T468 379T467 336V-127Q467 -149 468 -162T477 -182T497 -192T534 -198V-230H260ZM339 372Q324 391 306 402T272 413Q255 413 237 403T204 370T180 315T170 235Q170 190 183 156T215 98T258 62T303 50Q323 50 339 58V372Z"  />
<glyph unicode="r" horiz-adv-x="404" d="M223 349Q250 396 278 425T335 454Q365 454 383 436T402 392Q402 365 388 346T353 318Q334 311 322 322Q309 333 299 338T276 343Q262 343 248 332T220 291V105Q220 82 222 69T232 48T257 38T303 32V0H29V32Q49 34 61 37T81 47T90 68T93 105V323Q93 342 91 353T83 371T67 381T39 389V417Q84 423 128 432T220 455V349H223Z"  />
<glyph unicode="s" horiz-adv-x="383" d="M308 313Q288 359 263 387T202 415Q182 415 167 400T151 361Q151 338 169 320T225 284Q255 271 280 257T323 226T350 187T360 136Q360 99 344 71T302 25T244 -3T181 -12Q161 -12 142 -9T106 -1T76 10T55 22Q53 28 50 43T45 77T41 117T39 156L69 159Q77 135 89 112T118 70T155 39T198 27Q223 27 238 42T253 81Q253 103 238 122T177 164Q160 173 138 185T97 214T64 256T50 312Q50 341 61 367T94 412T147 443T218 454Q253 454 275 449T314 436Q318 427 322 411T329 378T334 345T338 322L308 313Z"  />
<glyph unicode="t" horiz-adv-x="339" d="M248 -1Q220 -12 207 -12Q149 -12 117 17T85 114V394H22L17 406L45 442H85V515L198 593L212 587V442H310Q319 434 318 417T304 394H212V147Q212 118 218 101T232 74T251 63T269 60Q293 60 319 72L329 37L248 -1Z"  />
<glyph unicode="u" horiz-adv-x="555" d="M542 24Q497 18 452 9T359 -12L351 -5V55Q337 44 328 36T301 18Q279 4 258 -4T214 -12Q151 -12 117 26T83 130V337Q83 355 82 365T75 382T58 393T28 402V431Q118 435 213 449Q210 386 210 298V153Q210 104 231 85T279 65Q299 65 316 70T351 93V336Q351 355 350 366T342 384T323 394T287 402V431Q334 433 381 437T478 449V124Q478 104 479 92T485 73T498 63T520 58L542 56V24Z"  />
<glyph unicode="v" horiz-adv-x="465" d="M483 410Q464 406 452 402T431 390T415 371T400 342Q372 281 336 193T254 -11H215Q177 83 143 170T71 344Q64 360 58 371T43 389T22 401T-8 410V442H239V410Q222 406 212 403T198 394T195 380T201 358Q210 332 221 302T242 244T262 190T277 150Q284 167 293 191T312 243T332 300T351 355Q355 367 355 376T351 391T335 402T303 410V442H483V410Z"  />
<glyph unicode="w" horiz-adv-x="683" d="M699 410Q681 407 670 404T651 393T637 373T623 342Q595 272 564 184T495 -11H457Q428 60 398 129T340 268Q311 198 285 130T229 -11H191Q161 82 130 172T71 347Q65 365 60 376T47 394T29 404T3 410V442H250V410Q229 407 217 403T198 394T192 380T197 358Q212 310 227 261T256 163H258Q284 229 309 297T362 437H401Q428 368 456 300T514 161H516Q522 179 530 204T546 257T562 310T572 351Q575 365 575 375T570 391T551 402T514 410V442H699V410Z"  />
<glyph unicode="x" horiz-adv-x="482" d="M245 0V32Q274 37 278 46T269 79L219 166Q204 145 191 122T167 81Q154 60 160 50T196 32V0H7V32Q27 36 41 40T68 52T91 69T115 95Q134 116 153 142T196 199L108 344Q97 362 89 373T71 391T49 403T16 410V442H252V410Q226 404 221 396T227 371L274 293Q290 316 302 336T323 371Q334 388 328 396T293 410V442H476V410Q456 407 443 404T419 395T398 382T375 361Q359 344 341 319T296 260L393 105Q405 85 416 72T439 51T464 39T494 32V0H245Z"  />
<glyph unicode="y" horiz-adv-x="465" d="M483 410Q465 407 454 403T433 392T417 371T400 338Q381 298 354 233T284 63Q259 2 242 -41T213 -117T194 -172T179 -217Q174 -234 165 -239T142 -244Q132 -244 120 -239T97 -226T79 -207T72 -181Q72 -169 78 -161T99 -142Q129 -126 148 -110T181 -71Q194 -46 200 -30Q204 -18 203 -7T196 17Q176 71 157 123T121 220T91 298T70 348Q63 364 57 375T43 392T23 403T-7 410V442H241V410Q209 404 201 396T201 364L276 142Q285 163 295 191T315 248T335 305T351 355Q359 380 350 391T303 410V442H483V410Z"  />
<glyph unicode="z" horiz-adv-x="445" d="M439 138Q425 96 413 60T392 0H37L24 16Q55 65 83 112T138 206T193 301T250 399H197Q172 399 154 396T123 385T99 363T77 328L60 295L29 308Q40 345 51 387T70 464H92Q98 452 111 447T153 442H398L407 428Q349 330 297 238T187 44H251Q277 44 297 47T333 59T364 83T393 124L410 152L439 138Z"  />
<glyph unicode="{" horiz-adv-x="357" d="M310 -168Q281 -168 251 -163T197 -143T157 -101T141 -28Q141 19 144 68T147 168Q147 180 145 193T134 219T107 241T56 253V289Q89 292 107 301T134 322T145 348T147 374Q147 425 144 474T141 567Q141 613 156 641T196 684T250 705T310 710V671Q282 668 265 659T239 636T226 607T223 575Q223 530 229 480T235 389Q235 348 215 316T145 273V269Q194 259 214 227T235 153Q235 112 229 62T223 -30Q223 -49 226 -66T238 -96T264 -117T310 -129V-168Z"  />
<glyph unicode="|" horiz-adv-x="270" d="M93 -250V750H177V-250H93Z"  />
<glyph unicode="}" horiz-adv-x="357" d="M302 253Q269 250 251 241T224 219T213 190T211 158Q211 114 214 65T217 -31Q217 -75 202 -102T162 -143T107 -163T46 -168V-131Q74 -128 92 -119T120 -96T133 -66T137 -31Q137 8 131 52T124 149Q124 194 144 226T214 269V273Q164 283 144 315T124 389Q124 440 130 486T137 577Q137 593 134 609T120 638T92 660T46 673V710Q76 710 106 706T161 687T201 645T217 571Q217 523 214 475T211 384Q211 368 212 352T222 323T249 300T302 289V253Z"  />
<glyph unicode="~" horiz-adv-x="577" d="M529 294Q509 243 477 215T396 187Q358 187 328 201T271 229Q249 241 230 249T188 257Q158 257 136 238T95 182L52 217Q68 250 86 270T123 301T159 315T191 319Q222 319 246 311T299 286Q325 271 351 261T402 250Q428 250 448 269T483 322L529 294Z"  />
<glyph unicode="&#xA0;" horiz-adv-x="217" />
<glyph unicode="&#xA1;" horiz-adv-x="285" d="M142 457Q174 457 196 435T218 378Q218 344 196 322T142 300Q109 300 88 322T66 378Q66 413 87 435T142 457ZM143 -221Q95 -221 78 -209T61 -178Q61 -165 63 -150T71 -106Q86 -25 98 56T121 224Q122 229 128 231T143 234T158 232T166 224Q177 137 189 56T215 -106Q220 -134 222 -149T225 -178Q225 -197 209 -209T143 -221Z"  />
<glyph unicode="&#xA2;" horiz-adv-x="500" d="M455 204Q427 165 390 137T309 101V5H270V98Q216 100 175 117T105 163T61 226T46 300Q46 355 72 402T146 485Q175 505 207 517T270 534V615H309V538Q315 539 319 539T326 538Q349 538 377 533T422 515Q432 508 434 500T437 485Q437 474 433 465T422 449T409 438T398 434Q395 434 392 436T381 446Q345 487 309 494V180Q350 181 380 194T436 231L455 204ZM270 496Q253 494 234 486T200 459T174 414T163 347Q163 310 172 283T197 236T231 205T270 187V496Z"  />
<glyph unicode="&#xA3;" horiz-adv-x="500" d="M252 289Q253 285 253 282T252 274Q252 250 242 228T217 187T181 152T141 125Q200 128 252 107Q270 100 288 92T325 78T359 67T389 63Q412 63 420 69T428 87Q428 98 426 108T421 127Q415 138 424 151Q446 178 463 178Q476 178 483 166T490 137Q490 118 482 100T462 65T434 34T404 10Q354 -27 301 -27Q283 -27 265 -21T229 -7T193 12T158 32Q134 44 119 49T90 54Q79 54 70 43T57 14Q53 -2 41 -2Q28 -2 20 8T18 42Q21 52 28 63T45 87T64 110T82 133Q103 160 112 188T121 245Q121 269 118 289H23V335H110Q107 362 105 380T103 418Q103 437 108 459T124 504T153 549T198 589Q224 608 254 620T314 635Q351 635 376 622T412 597Q430 576 415 551Q410 542 403 536T390 524Q373 515 357 527Q334 545 309 562T257 579Q234 579 225 563T215 515Q215 479 225 433T247 335H404V289H252Z"  />
<glyph unicode="&#xA4;" horiz-adv-x="500" d="M420 86L353 161Q330 142 302 134T244 125Q215 125 186 133T134 162L67 86L18 136L89 204Q67 227 57 259T46 325Q46 359 56 391T89 446L18 514L67 564L135 488Q158 508 186 516T245 525Q274 525 302 517T353 488L420 564L470 514L399 446Q421 423 431 391T442 325Q442 292 432 260T399 204L470 136L420 86ZM245 459Q220 459 200 449T164 420T141 378T132 325Q132 265 163 228T245 191Q295 191 326 228T357 325Q357 353 349 377T326 420T291 448T245 459Z"  />
<glyph unicode="&#xA5;" horiz-adv-x="500" d="M489 589Q471 587 459 584T438 573T419 553T400 520Q391 502 383 485T364 448T342 401T313 339H419V298H306V231H420V190H306V136Q306 103 308 84T320 54T347 40T396 34V0H93V34Q123 36 140 39T165 53T176 83T179 137V190H71V231H179V298H71V339H167Q152 380 133 420T90 514Q79 538 71 551T53 572T33 583T6 589V623H253V589L230 584Q212 581 208 574T209 551Q227 500 246 456T282 365Q302 409 322 455T354 533Q363 557 360 568T333 584L306 589V623H489V589Z"  />
<glyph unicode="&#xA6;" horiz-adv-x="270" d="M93 325V675H177V325H93ZM93 -175V175H177V-175H93Z"  />
<glyph unicode="&#xA7;" horiz-adv-x="482" d="M429 204Q429 175 420 146T396 90T364 39T329 -6Q260 -81 179 -103Q164 -103 143 -98T107 -82Q88 -67 88 -51Q88 -47 91 -40T99 -27T109 -15T118 -7Q124 -3 130 -2T142 -5Q150 -12 171 -22T226 -32Q249 -32 265 -20T282 10Q282 29 269 45T221 93Q194 121 164 149T110 201Q82 228 62 268T43 354Q43 414 69 463T128 547Q162 583 196 607T278 643Q298 643 318 635T350 616Q363 604 363 590Q362 576 352 564T335 547Q332 545 327 545T315 550Q306 557 284 567T231 577Q207 577 192 566T177 539Q177 525 186 511T215 479Q239 459 269 435T326 389Q347 372 366 354T399 313T421 264T429 204ZM100 416Q99 378 118 342T189 258Q227 223 261 191T311 135Q322 118 328 100T335 58H337Q354 85 360 108T366 153Q367 187 349 223T278 303Q268 310 255 321T227 344T198 370T172 395Q164 403 156 413T142 435T131 462T128 493L127 495Q116 479 108 460T100 416Z"  />
<glyph unicode="&#xA8;" horiz-adv-x="400" d="M96 519Q70 519 50 538T29 585Q29 614 49 633T97 652Q126 652 145 633T165 585Q165 558 145 539T96 519ZM302 519Q275 519 255 538T235 585Q235 614 255 633T303 652Q331 652 350 633T370 585Q370 558 351 539T302 519Z"  />
<glyph unicode="&#xA9;" horiz-adv-x="699" d="M350 631Q416 631 472 607T570 541T635 443T658 324Q658 261 635 206T571 109T473 43T350 19Q282 19 226 43T128 108T64 205T41 324Q41 387 64 443T128 541T226 607T350 631ZM351 592Q295 592 248 572T166 515T113 430T94 325Q94 269 113 221T166 136T247 79T351 58Q406 58 453 79T534 136T587 220T606 325Q606 381 587 430T534 515T453 571T351 592ZM502 255Q496 234 490 209T477 169Q459 163 428 156T367 149Q319 149 283 164T223 203T188 259T176 321Q176 364 192 397T236 453T299 488T374 500Q412 500 439 494T480 482Q482 462 484 441T491 393L466 387Q452 423 432 445T372 468Q347 468 328 458T295 428T274 384T266 329Q266 296 274 270T298 224T333 194T375 183Q413 183 436 203T476 261L502 255Z"  />
<glyph unicode="&#xAA;" horiz-adv-x="335" d="M244 271Q218 271 205 283T187 307Q170 295 149 283T114 271Q95 271 80 278T53 296T35 321T28 351Q28 375 41 390T84 417Q94 421 108 425T136 435T164 445T185 456V472Q185 493 174 505T146 518Q129 518 120 503T103 465Q96 444 76 444Q62 444 48 454T33 479Q33 495 56 511Q70 520 100 534T169 556Q209 556 238 535T268 466V360Q268 340 274 333T289 325Q300 325 312 330L318 307L244 271ZM185 426Q177 422 166 417T147 407Q133 399 126 391T119 368Q119 345 132 335T157 325Q171 325 185 334V426Z"  />
<glyph unicode="&#xAB;" horiz-adv-x="456" d="M205 32Q168 83 129 131T47 224Q90 269 129 317T205 416L237 397L154 224L237 51L205 32ZM381 32Q343 83 303 131T222 224Q264 269 303 317T381 416L412 397L329 224L412 51L381 32Z"  />
<glyph unicode="&#xAC;" horiz-adv-x="577" d="M456 101V310H47V375H531V101H456Z"  />
<glyph unicode="&#xAD;" horiz-adv-x="342" d="M286 193H41L56 265H302L286 193Z"  />
<glyph unicode="&#xAE;" horiz-adv-x="319" d="M160 659Q188 659 212 649T255 620T283 577T294 526Q294 500 284 476T255 434T213 405T160 394Q132 394 108 404T66 432T38 474T28 526Q28 553 38 577T66 619T108 648T160 659ZM161 635Q115 635 86 604T57 526Q57 479 86 449T161 418Q206 418 235 448T265 526Q265 549 257 569T235 603T202 626T161 635ZM233 456Q216 456 204 460T183 478Q176 487 171 495T163 508Q159 515 151 515H147V493Q147 479 150 477T166 473V457H96V473Q110 474 113 476T116 493V563Q116 577 114 579T97 583V598H168Q185 598 201 591T217 561Q217 548 210 540T190 526Q198 512 204 502T222 481Q231 472 237 469L233 456ZM156 533Q166 533 174 539Q185 545 185 559Q185 574 176 578T160 583Q147 583 147 570V533H156Z"  />
<glyph unicode="&#xAF;" horiz-adv-x="400" d="M75 541V614H325V541H75Z"  />
<glyph unicode="&#xB0;" horiz-adv-x="331" d="M165 665Q193 665 217 656T260 630T290 589T301 534Q301 503 290 479T261 438T218 413T165 404Q138 404 114 412T71 437T41 478T30 534Q30 564 41 588T70 630T113 656T165 665ZM167 621Q134 621 113 597T92 535Q92 497 113 472T167 447Q199 447 219 471T239 531Q239 572 219 596T167 621Z"  />
<glyph unicode="&#xB1;" horiz-adv-x="577" d="M327 304V111H252V304H47V369H252V550H327V369H531V304H327ZM47 0V65H531V0H47Z"  />
<glyph unicode="&#xB2;" horiz-adv-x="348" d="M321 499Q312 473 306 449T294 398H36V424Q60 442 87 466T139 516T178 570T194 624Q194 656 179 673T137 690Q111 690 91 675T56 640L35 660L69 709Q86 731 115 743T172 755Q224 755 259 726T294 645Q294 609 268 579T185 503L142 469V467H232Q245 467 254 468T269 474T282 485T295 506L321 499Z"  />
<glyph unicode="&#xB3;" horiz-adv-x="348" d="M208 603Q305 589 305 522Q305 488 284 464T234 423T173 398T123 390Q100 390 79 397T49 412Q35 426 42 445Q47 456 53 463T67 476Q78 482 90 473Q107 459 126 445T165 431Q181 431 195 446T209 496Q209 534 189 550T143 566Q120 566 103 559L96 589Q138 602 160 619T182 658Q182 675 170 686T138 697Q115 697 98 685T68 658L50 676L84 720Q98 734 121 744T175 755Q226 755 253 731T280 676Q280 665 275 654T261 636Q253 630 240 622T208 605V603Z"  />
<glyph unicode="&#xB4;" horiz-adv-x="400" d="M173 502Q178 518 185 543T200 593T213 638T222 667Q226 670 241 672T274 676T308 678T331 678L337 668L204 489L173 502Z"  />
<glyph unicode="&#xB5;" horiz-adv-x="538" d="M539 41Q525 21 495 5T424 -12Q392 -12 368 3T334 57H332Q310 31 282 10T220 -12Q194 -12 174 -1T142 31H140V16Q140 -11 144 -47T153 -118T164 -184T175 -231L160 -244Q150 -243 138 -240T112 -231T88 -218T69 -202Q67 -194 67 -167T67 -102T68 -20T69 69V330Q69 365 68 389T65 431L193 455Q195 433 195 404T196 341V169Q196 141 202 122T219 91T242 74T268 68Q291 68 304 77T331 100V431L458 455V126Q458 88 470 75T496 61Q511 61 527 69L539 41Z"  />
<glyph unicode="&#xB6;" horiz-adv-x="519" d="M449 504L362 494V25Q362 -38 344 -82T288 -165Q273 -179 258 -189T229 -205T205 -215T191 -218Q166 -218 147 -211T117 -194Q109 -186 107 -178T106 -162Q108 -153 115 -143T128 -129Q140 -119 152 -126Q168 -137 186 -143T223 -149Q238 -149 252 -144T277 -122T294 -74T301 8V142L231 111Q228 110 225 110T214 109Q190 109 160 123T103 164T58 230T39 318Q39 370 59 413T113 486Q145 515 188 532T274 549H475L479 536L449 504Z"  />
<glyph unicode="&#xB7;" horiz-adv-x="254" d="M126 157Q95 157 74 178T52 234Q52 268 73 289T126 311Q159 311 180 290T202 234Q202 199 181 178T126 157Z"  />
<glyph unicode="&#xB8;" horiz-adv-x="400" d="M229 -25Q220 -35 221 -43T236 -65Q256 -85 265 -101T275 -134Q275 -167 243 -192T151 -235L138 -210Q167 -197 182 -181T198 -150Q198 -140 192 -132T176 -116Q156 -97 153 -81T170 -43L207 0H253L229 -25Z"  />
<glyph unicode="&#xB9;" horiz-adv-x="348" d="M71 398V427Q89 429 101 432T119 442T128 461T131 492V646Q131 674 126 683T96 695L71 697V726Q106 729 146 736T229 755V492Q229 473 231 461T240 442T258 432T289 427V398H71Z"  />
<glyph unicode="&#xBA;" horiz-adv-x="369" d="M188 556Q224 556 252 545T301 514T331 468T342 414Q341 379 328 352T294 307T244 280T184 271Q144 271 114 282T65 313T35 358T26 411Q27 445 41 472T79 518T130 546T188 556ZM179 522Q161 522 147 500T130 423Q129 372 146 338T189 304Q198 304 206 308T222 322T233 351T239 398Q241 457 225 489T179 522Z"  />
<glyph unicode="&#xBB;" horiz-adv-x="456" d="M79 416Q117 365 157 318T237 224Q195 179 156 131T79 32L47 50L131 224L47 396L79 416ZM251 416Q288 365 327 318T409 224Q367 179 328 131T251 32L219 50L302 224L219 396L251 416Z"  />
<glyph unicode="&#xBC;" horiz-adv-x="784" d="M76 278V307Q95 309 106 312T125 322T134 341T137 372V526Q137 554 132 563T102 575L77 577V606Q111 609 152 616T235 636V372Q235 353 237 341T246 322T264 312T294 307V278H76ZM212 -40L174 -12L578 648L618 621L212 -40ZM653 97V77Q653 52 662 41T703 27V0H502V27Q541 30 551 40T562 77V97H407V125Q455 189 500 246T592 358H653V141H708V97H653ZM562 271H560Q537 241 516 211T468 141H562V271Z"  />
<glyph unicode="&#xBD;" horiz-adv-x="789" d="M67 278V307Q86 309 97 312T116 322T125 341T128 372V526Q128 554 123 563T93 575L68 577V606Q103 609 143 616T226 636V372Q226 353 228 341T237 322T255 312T285 307V278H67ZM192 -40L154 -12L558 648L598 621L192 -40ZM724 101Q716 75 710 51T697 0H439V26Q463 44 491 68T543 118T582 172T598 226Q598 258 583 275T540 292Q514 292 494 277T460 242L438 262L473 311Q490 333 518 345T576 358Q628 358 663 329T698 248Q698 230 692 214T672 181T638 146T589 105L546 71V69H636Q662 69 673 76T699 109L724 101Z"  />
<glyph unicode="&#xBE;" horiz-adv-x="789" d="M213 -40L175 -12L579 648L618 621L213 -40ZM652 97V77Q652 52 661 41T702 27V0H500V27Q540 30 550 40T561 77V97H406V125Q454 189 498 246T590 358H652V141H707V97H652ZM561 271H559Q536 241 515 211T467 141H561V271ZM241 484Q289 477 313 456T338 402Q338 368 317 344T267 303T206 279T155 271Q132 271 111 278T82 292Q68 306 75 325Q79 336 86 343T100 356Q111 362 123 353Q140 339 159 325T198 311Q214 311 227 326T241 377Q241 415 222 430T175 446Q164 446 154 444T136 440L129 469Q171 483 193 500T215 538Q215 555 203 566T171 577Q148 577 130 565T101 538L83 556L116 601Q130 615 154 625T208 636Q259 636 286 612T313 557Q313 545 307 534T293 516Q286 511 272 503T241 486V484Z"  />
<glyph unicode="&#xBF;" horiz-adv-x="399" d="M207 457Q239 457 261 435T283 378Q283 344 261 322T207 300Q174 300 152 322T130 378Q130 413 152 435T207 457ZM193 241Q213 234 235 221T276 191T307 153T320 107Q320 78 300 50T223 -14Q202 -28 183 -40T148 -62T124 -82T115 -100Q115 -117 126 -127T161 -137Q186 -137 207 -126T246 -103T276 -79T295 -68Q303 -68 313 -73T332 -89T347 -111T353 -137Q353 -151 347 -160T330 -180Q318 -191 303 -198T272 -211T242 -218T218 -221Q185 -221 153 -207T95 -168T53 -112T37 -45Q37 -15 47 9T96 60Q109 69 127 80T161 105T187 131T198 158Q198 170 193 184T171 218L193 241Z"  />
<glyph unicode="&#xC0;" horiz-adv-x="706" d="M401 0V35Q445 42 453 54T449 100Q441 123 431 152T409 213H217Q209 190 200 163T181 106Q176 88 175 76T179 56T200 43T242 35V0H18L19 35Q44 38 59 42T86 58T108 87T130 138L335 652L386 665Q434 533 481 404T577 144Q590 111 600 91T621 60T648 43T687 35V0H401ZM316 482H313Q292 427 273 374T234 266H390L316 482ZM406 684L198 742L196 754Q197 762 203 774T216 799T232 821T247 836Q291 806 333 776T420 713L406 684Z"  />
<glyph unicode="&#xC1;" horiz-adv-x="706" d="M401 0V35Q445 42 453 54T449 100Q441 123 431 152T409 213H217Q209 190 200 163T181 106Q176 88 175 76T179 56T200 43T242 35V0H18L19 35Q44 38 59 42T86 58T108 87T130 138L335 652L386 665Q434 533 481 404T577 144Q590 111 600 91T621 60T648 43T687 35V0H401ZM316 482H313Q292 427 273 374T234 266H390L316 482ZM521 743L315 683L301 711Q344 742 388 773T474 833Q481 830 489 822T505 802T518 778T525 755L521 743Z"  />
<glyph unicode="&#xC2;" horiz-adv-x="706" d="M401 0V35Q445 42 453 54T449 100Q441 123 431 152T409 213H217Q209 190 200 163T181 106Q176 88 175 76T179 56T200 43T242 35V0H18L19 35Q44 38 59 42T86 58T108 87T130 138L335 652L386 665Q434 533 481 404T577 144Q590 111 600 91T621 60T648 43T687 35V0H401ZM316 482H313Q292 427 273 374T234 266H390L316 482ZM497 684Q462 698 430 714T365 745Q333 730 301 714T233 684L218 710Q251 737 286 770T350 833H381Q410 802 445 770T513 710L497 684Z"  />
<glyph unicode="&#xC3;" horiz-adv-x="706" d="M401 0V35Q445 42 453 54T449 100Q441 123 431 152T409 213H217Q209 190 200 163T181 106Q176 88 175 76T179 56T200 43T242 35V0H18L19 35Q44 38 59 42T86 58T108 87T130 138L335 652L386 665Q434 533 481 404T577 144Q590 111 600 91T621 60T648 43T687 35V0H401ZM316 482H313Q292 427 273 374T234 266H390L316 482ZM310 798Q325 798 338 794T374 780Q391 772 405 768T435 763Q452 763 463 775T484 805L514 790Q505 761 494 742T471 712T447 697T421 692Q405 692 387 698T351 713Q336 721 325 724T299 728Q271 728 248 684L219 704Q239 759 263 778T310 798Z"  />
<glyph unicode="&#xC4;" horiz-adv-x="706" d="M401 0V35Q445 42 453 54T449 100Q441 123 431 152T409 213H217Q209 190 200 163T181 106Q176 88 175 76T179 56T200 43T242 35V0H18L19 35Q44 38 59 42T86 58T108 87T130 138L335 652L386 665Q434 533 481 404T577 144Q590 111 600 91T621 60T648 43T687 35V0H401ZM316 482H313Q292 427 273 374T234 266H390L316 482ZM464 828Q493 828 512 809T532 761Q532 734 513 715T464 695Q437 695 417 714T397 761Q397 790 417 809T464 828ZM253 828Q282 828 302 809T322 761Q322 734 302 715T253 695Q227 695 207 714T187 761Q187 790 207 809T253 828Z"  />
<glyph unicode="&#xC5;" horiz-adv-x="706" d="M401 0V35Q445 42 453 54T449 100Q441 123 431 152T409 213H217Q209 190 200 163T181 106Q176 88 175 76T179 56T200 43T242 35V0H18L19 35Q44 38 59 42T86 58T108 87T130 138L335 652L386 665Q434 533 481 404T577 144Q590 111 600 91T621 60T648 43T687 35V0H401ZM316 482H313Q292 427 273 374T234 266H390L316 482ZM360 863Q378 863 395 857T425 840T447 812T455 774Q455 753 447 736T426 707T395 689T360 682Q342 682 325 688T295 707T274 736T266 774Q266 795 274 811T295 839T325 857T360 863ZM361 825Q341 825 328 811T315 774Q315 751 328 736T361 721Q381 721 393 735T406 773Q406 796 394 810T361 825Z"  />
<glyph unicode="&#xC6;" horiz-adv-x="882" d="M872 166Q869 152 865 129T855 81T844 34T835 0H334V35Q364 38 382 42T409 58T421 89T424 145V292H256Q239 257 227 232T206 188T190 151T174 116Q165 94 162 80T165 58T187 44T230 35V0H-14V35Q10 38 27 43T58 59T84 86T110 129Q137 178 163 227T217 330T274 440T336 562Q348 586 345 595T319 608L259 615V650H812Q812 643 813 628T815 592T818 548T822 503L787 498Q779 529 770 549T748 582Q736 595 713 600T647 606H595Q569 606 562 601T555 571V339H620Q653 339 673 341T705 350T723 373T733 413H770V212H733Q729 240 723 255T705 279T673 289T620 291L555 292V139Q555 97 559 79T580 52Q594 47 617 46T670 44Q708 44 735 51T779 76Q793 90 808 113T838 175L872 166ZM424 598Q413 598 402 594Q386 561 372 532T342 473T312 411T278 340H424V598Z"  />
<glyph unicode="&#xC7;" horiz-adv-x="676" d="M660 171Q655 150 648 128T634 84T619 44T606 13Q597 11 580 7T540 -1T491 -9T439 -13L429 -25Q420 -34 421 -42T436 -66Q455 -87 465 -103T475 -137Q475 -167 445 -194T350 -243L333 -212Q362 -197 377 -181T394 -152Q394 -141 386 -132T373 -116Q354 -96 351 -82T361 -51L391 -14Q298 -10 232 20T124 97T62 201T42 316Q42 393 70 457T150 568T276 639T442 665Q505 665 551 655T620 639Q627 597 632 559T643 475L605 467Q578 554 532 587T420 620Q367 620 326 598T256 537T212 447T196 338Q196 269 212 213T258 116T329 53T420 31Q486 31 536 70T624 185L660 171Z"  />
<glyph unicode="&#xC8;" horiz-adv-x="581" d="M571 166Q569 149 564 125T554 77T544 32T536 0H26V35Q58 38 77 41T105 54T118 82T121 133V517Q121 550 119 568T108 596T83 609T40 615V650H511Q511 643 512 628T514 592T517 547T521 500L485 495Q477 521 468 544T444 581Q431 595 409 600T344 606H296Q268 606 262 601T255 571V359H322Q353 359 372 361T403 370T421 393T433 434H469V232H433Q428 259 422 274T405 296T374 306T322 308H255V135Q255 100 259 81T279 53Q293 47 316 45T369 43Q407 43 434 49T480 75Q507 107 536 173L571 166ZM345 684L138 742L135 754Q136 762 142 774T155 799T171 821T187 836Q230 806 273 776T359 713L345 684Z"  />
<glyph unicode="&#xC9;" horiz-adv-x="581" d="M571 166Q569 149 564 125T554 77T544 32T536 0H26V35Q58 38 77 41T105 54T118 82T121 133V517Q121 550 119 568T108 596T83 609T40 615V650H511Q511 643 512 628T514 592T517 547T521 500L485 495Q477 521 468 544T444 581Q431 595 409 600T344 606H296Q268 606 262 601T255 571V359H322Q353 359 372 361T403 370T421 393T433 434H469V232H433Q428 259 422 274T405 296T374 306T322 308H255V135Q255 100 259 81T279 53Q293 47 316 45T369 43Q407 43 434 49T480 75Q507 107 536 173L571 166ZM451 743L245 683L231 711Q274 742 317 773T403 833Q410 830 418 822T435 802T448 778T455 755L451 743Z"  />
<glyph unicode="&#xCA;" horiz-adv-x="581" d="M571 166Q569 149 564 125T554 77T544 32T536 0H26V35Q58 38 77 41T105 54T118 82T121 133V517Q121 550 119 568T108 596T83 609T40 615V650H511Q511 643 512 628T514 592T517 547T521 500L485 495Q477 521 468 544T444 581Q431 595 409 600T344 606H296Q268 606 262 601T255 571V359H322Q353 359 372 361T403 370T421 393T433 434H469V232H433Q428 259 422 274T405 296T374 306T322 308H255V135Q255 100 259 81T279 53Q293 47 316 45T369 43Q407 43 434 49T480 75Q507 107 536 173L571 166ZM425 684Q390 698 358 714T294 745Q262 730 230 714T162 684L146 710Q180 737 215 770T279 833H309Q338 802 373 770T441 710L425 684Z"  />
<glyph unicode="&#xCB;" horiz-adv-x="581" d="M571 166Q569 149 564 125T554 77T544 32T536 0H26V35Q58 38 77 41T105 54T118 82T121 133V517Q121 550 119 568T108 596T83 609T40 615V650H511Q511 643 512 628T514 592T517 547T521 500L485 495Q477 521 468 544T444 581Q431 595 409 600T344 606H296Q268 606 262 601T255 571V359H322Q353 359 372 361T403 370T421 393T433 434H469V232H433Q428 259 422 274T405 296T374 306T322 308H255V135Q255 100 259 81T279 53Q293 47 316 45T369 43Q407 43 434 49T480 75Q507 107 536 173L571 166ZM398 828Q427 828 446 809T466 761Q466 734 447 715T398 695Q371 695 351 714T331 761Q331 790 351 809T398 828ZM188 828Q217 828 236 809T256 761Q256 734 237 715T188 695Q161 695 141 714T121 761Q121 790 141 809T188 828Z"  />
<glyph unicode="&#xCC;" horiz-adv-x="378" d="M38 0V35Q66 38 82 41T107 55T118 83T121 133V516Q121 548 119 566T108 595T83 608T38 615V650H338V615Q310 612 294 609T269 595T258 567T255 516V133Q255 101 257 83T268 55T293 42T338 35V0H38ZM243 684L36 742L34 754Q35 762 40 774T53 799T69 821T85 836Q129 806 171 776T258 713L243 684Z"  />
<glyph unicode="&#xCD;" horiz-adv-x="378" d="M38 0V35Q66 38 82 41T107 55T118 83T121 133V516Q121 548 119 566T108 595T83 608T38 615V650H338V615Q310 612 294 609T269 595T258 567T255 516V133Q255 101 257 83T268 55T293 42T338 35V0H38ZM343 743L137 683L122 711Q166 742 209 773T295 833Q302 830 310 822T326 802T339 778T347 755L343 743Z"  />
<glyph unicode="&#xCE;" horiz-adv-x="378" d="M38 0V35Q66 38 82 41T107 55T118 83T121 133V516Q121 548 119 566T108 595T83 608T38 615V650H338V615Q310 612 294 609T269 595T258 567T255 516V133Q255 101 257 83T268 55T293 42T338 35V0H38ZM320 684Q285 698 253 714T188 745Q157 730 125 714T57 684L41 710Q75 737 110 770T174 833H204Q233 802 268 770T336 710L320 684Z"  />
<glyph unicode="&#xCF;" horiz-adv-x="378" d="M38 0V35Q66 38 82 41T107 55T118 83T121 133V516Q121 548 119 566T108 595T83 608T38 615V650H338V615Q310 612 294 609T269 595T258 567T255 516V133Q255 101 257 83T268 55T293 42T338 35V0H38ZM293 828Q322 828 341 809T361 761Q361 734 342 715T293 695Q266 695 246 714T226 761Q226 790 246 809T293 828ZM83 828Q112 828 131 809T151 761Q151 734 132 715T83 695Q56 695 36 714T16 761Q16 790 36 809T83 828Z"  />
<glyph unicode="&#xD0;" horiz-adv-x="760" d="M352 650Q440 650 511 630T632 562Q670 526 694 474T718 352Q718 260 686 194T594 84Q482 0 297 0H44V34Q74 37 91 41T118 56T129 86T132 137V315H38V365H132V513Q132 545 130 564T119 593T95 608T52 615V650H352ZM266 137Q266 112 268 95T279 66T304 50T347 45Q394 45 434 65T504 122T551 212T568 331Q568 409 549 462T496 551Q467 580 426 593T339 607Q287 607 275 593Q266 584 266 544V365H407V315H266V137Z"  />
<glyph unicode="&#xD1;" horiz-adv-x="740" d="M724 615Q683 613 666 601T644 553Q642 530 639 492T635 387V-10H587L171 488H168V263Q168 197 171 161T176 101Q178 84 183 73T198 53T226 41T272 35V0H27V35Q69 38 88 52T110 98Q113 123 116 160T120 263V472Q120 496 120 512T117 541T110 561T99 579Q85 597 67 604T16 615V650H201L583 211H587V387Q587 453 584 491T579 551Q575 583 555 597T480 615V650H724V615ZM324 798Q339 798 352 794T388 780Q405 772 420 768T449 763Q466 763 478 775T498 805L528 790Q519 761 508 742T486 712T462 697T436 692Q420 692 402 698T366 713Q351 721 339 724T313 728Q286 728 263 684L233 704Q253 759 277 778T324 798Z"  />
<glyph unicode="&#xD2;" horiz-adv-x="766" d="M393 665Q461 665 521 641T627 573T698 468T724 332Q724 251 697 187T623 78T514 9T381 -15Q306 -15 244 11T137 82T67 190T42 324Q42 388 64 449T131 559T241 636T393 665ZM375 623Q337 623 304 604T247 548T209 460T195 343Q195 279 209 222T249 121T313 53T399 27Q435 27 466 44T520 96T557 183T571 304Q571 379 557 438T516 538T454 601T375 623ZM442 692L234 750L232 762Q233 770 238 782T251 807T267 829T283 844Q327 814 369 784T456 722L442 692Z"  />
<glyph unicode="&#xD3;" horiz-adv-x="766" d="M393 665Q461 665 521 641T627 573T698 468T724 332Q724 251 697 187T623 78T514 9T381 -15Q306 -15 244 11T137 82T67 190T42 324Q42 388 64 449T131 559T241 636T393 665ZM375 623Q337 623 304 604T247 548T209 460T195 343Q195 279 209 222T249 121T313 53T399 27Q435 27 466 44T520 96T557 183T571 304Q571 379 557 438T516 538T454 601T375 623ZM532 751L326 691L311 719Q355 750 398 781T484 841Q491 838 499 830T515 810T528 786T536 763L532 751Z"  />
<glyph unicode="&#xD4;" horiz-adv-x="766" d="M393 665Q461 665 521 641T627 573T698 468T724 332Q724 251 697 187T623 78T514 9T381 -15Q306 -15 244 11T137 82T67 190T42 324Q42 388 64 449T131 559T241 636T393 665ZM375 623Q337 623 304 604T247 548T209 460T195 343Q195 279 209 222T249 121T313 53T399 27Q435 27 466 44T520 96T557 183T571 304Q571 379 557 438T516 538T454 601T375 623ZM514 692Q479 706 447 722T382 753Q351 738 319 722T251 692L235 718Q269 745 304 778T368 841H398Q427 810 462 778T530 718L514 692Z"  />
<glyph unicode="&#xD5;" horiz-adv-x="766" d="M393 665Q461 665 521 641T627 573T698 468T724 332Q724 251 697 187T623 78T514 9T381 -15Q306 -15 244 11T137 82T67 190T42 324Q42 388 64 449T131 559T241 636T393 665ZM375 623Q337 623 304 604T247 548T209 460T195 343Q195 279 209 222T249 121T313 53T399 27Q435 27 466 44T520 96T557 183T571 304Q571 379 557 438T516 538T454 601T375 623ZM333 806Q348 806 361 802T397 788Q414 780 428 776T458 771Q475 771 487 783T507 813L537 798Q528 769 517 750T494 720T470 705T444 700Q428 700 411 706T374 721Q359 729 348 732T322 736Q295 736 272 692L242 712Q262 767 286 786T333 806Z"  />
<glyph unicode="&#xD6;" horiz-adv-x="766" d="M393 665Q461 665 521 641T627 573T698 468T724 332Q724 251 697 187T623 78T514 9T381 -15Q306 -15 244 11T137 82T67 190T42 324Q42 388 64 449T131 559T241 636T393 665ZM375 623Q337 623 304 604T247 548T209 460T195 343Q195 279 209 222T249 121T313 53T399 27Q435 27 466 44T520 96T557 183T571 304Q571 379 557 438T516 538T454 601T375 623ZM487 832Q516 832 535 813T555 765Q555 738 536 719T487 699Q460 699 440 718T420 765Q420 794 440 813T487 832ZM277 832Q306 832 325 813T345 765Q345 738 326 719T277 699Q250 699 230 718T210 765Q210 794 230 813T277 832Z"  />
<glyph unicode="&#xD7;" horiz-adv-x="577" d="M470 10L288 196L107 10L59 60L239 246L59 430L107 481L288 296L470 483L519 433L337 246L519 60L470 10Z"  />
<glyph unicode="&#xD8;" horiz-adv-x="771" d="M602 597Q657 552 693 486T729 335Q729 256 702 192T628 81T517 10T379 -15Q333 -15 289 -4T207 30L150 -52L119 -26L172 51Q112 96 77 167T42 323Q42 383 63 443T129 553T239 634T394 665Q492 665 568 621L619 697L652 674L602 597ZM515 546Q488 587 452 605T378 623Q340 623 306 604T246 548T205 458T190 337Q190 284 202 232T237 141L515 546ZM261 102Q284 66 320 47T397 27Q435 27 468 44T526 97T565 186T580 311Q580 371 569 422T538 509L261 102Z"  />
<glyph unicode="&#xD9;" horiz-adv-x="729" d="M724 615Q682 613 663 598T639 556Q635 533 633 502T630 417V308Q630 228 615 166T558 58Q523 22 475 4T373 -15Q323 -15 278 -4T196 37Q153 70 133 127T113 272V507Q113 542 111 562T99 593T74 608T29 615V650H330V615Q303 612 287 608T261 594T250 563T247 507V290Q247 177 287 115T409 53Q499 53 539 118T580 310V417Q580 471 577 502T570 556Q566 582 545 597T473 615V650H724V615ZM438 684L231 742L228 754Q229 762 235 774T248 799T264 821T279 836Q323 806 365 776T452 713L438 684Z"  />
<glyph unicode="&#xDA;" horiz-adv-x="729" d="M724 615Q682 613 663 598T639 556Q635 533 633 502T630 417V308Q630 228 615 166T558 58Q523 22 475 4T373 -15Q323 -15 278 -4T196 37Q153 70 133 127T113 272V507Q113 542 111 562T99 593T74 608T29 615V650H330V615Q303 612 287 608T261 594T250 563T247 507V290Q247 177 287 115T409 53Q499 53 539 118T580 310V417Q580 471 577 502T570 556Q566 582 545 597T473 615V650H724V615ZM539 743L334 683L319 711Q363 742 406 773T492 833Q499 830 507 822T523 802T536 778T543 755L539 743Z"  />
<glyph unicode="&#xDB;" horiz-adv-x="729" d="M724 615Q682 613 663 598T639 556Q635 533 633 502T630 417V308Q630 228 615 166T558 58Q523 22 475 4T373 -15Q323 -15 278 -4T196 37Q153 70 133 127T113 272V507Q113 542 111 562T99 593T74 608T29 615V650H330V615Q303 612 287 608T261 594T250 563T247 507V290Q247 177 287 115T409 53Q499 53 539 118T580 310V417Q580 471 577 502T570 556Q566 582 545 597T473 615V650H724V615ZM516 684Q481 698 449 714T384 745Q352 730 320 714T253 684L237 710Q270 737 305 770T369 833H400Q429 802 464 770T532 710L516 684Z"  />
<glyph unicode="&#xDC;" horiz-adv-x="729" d="M724 615Q682 613 663 598T639 556Q635 533 633 502T630 417V308Q630 228 615 166T558 58Q523 22 475 4T373 -15Q323 -15 278 -4T196 37Q153 70 133 127T113 272V507Q113 542 111 562T99 593T74 608T29 615V650H330V615Q303 612 287 608T261 594T250 563T247 507V290Q247 177 287 115T409 53Q499 53 539 118T580 310V417Q580 471 577 502T570 556Q566 582 545 597T473 615V650H724V615ZM488 828Q517 828 536 809T556 761Q556 734 537 715T488 695Q461 695 441 714T421 761Q421 790 441 809T488 828ZM278 828Q307 828 326 809T346 761Q346 734 327 715T278 695Q251 695 231 714T211 761Q211 790 231 809T278 828Z"  />
<glyph unicode="&#xDD;" horiz-adv-x="655" d="M646 615Q622 612 606 607T576 593T551 568T526 531Q512 509 500 489T475 447T447 397T414 335Q403 315 400 302T396 266V138Q396 104 398 85T411 56T440 41T493 34V0H168V34Q200 37 218 40T247 54T259 84T262 138V249Q262 268 259 278T249 303Q229 345 200 398T125 530Q111 555 100 570T77 594T51 607T16 615V650H302V615Q277 612 264 608T247 596T245 580T255 557Q281 505 310 451T369 340Q380 361 394 388T422 444T450 501T473 552Q479 567 481 577T478 595T457 606T414 615V650H646V615ZM506 743L300 683L285 711Q329 742 372 773T458 833Q465 830 473 822T489 802T502 778T509 755L506 743Z"  />
<glyph unicode="&#xDE;" horiz-adv-x="593" d="M330 615Q304 612 289 608T266 594T255 563T252 509Q273 510 293 510T335 510Q440 510 500 468T560 336Q560 295 544 261T497 201T424 163T328 149L252 164V119Q252 94 255 79T269 55T297 42T344 35V0H39V35Q66 37 82 41T107 56T118 83T121 127V525Q121 553 119 569T108 595T85 608T45 615V650H330V615ZM252 205Q260 202 271 200T299 197Q310 197 329 202T368 223T401 265T415 337Q415 374 405 399T378 440T340 462T296 469Q270 469 260 459Q252 454 252 432V205Z"  />
<glyph unicode="&#xDF;" horiz-adv-x="572" d="M93 453Q93 480 97 501T111 543Q120 565 140 595T205 657Q235 678 267 690T334 704Q377 703 410 691T465 657T499 608T511 548Q511 528 501 517Q456 485 434 459T412 403Q413 374 431 352T478 302Q491 290 503 276T526 245T542 208T548 165Q548 132 531 100T485 44T422 4T352 -12Q317 -12 293 3Q267 18 277 44Q279 50 284 58T298 71Q309 81 319 72Q338 55 358 46T396 37Q409 37 424 49T439 92Q439 119 426 143T387 194Q348 234 324 266T300 335Q300 353 305 367T320 395T341 420T367 447Q378 459 387 467T401 482Q405 487 406 495T407 515Q407 542 399 567T377 611T342 643T299 655Q270 655 255 634T232 579T223 503T221 419V105Q221 83 222 70T228 50T239 39T260 33V0H31V33Q52 36 64 39T83 50T91 70T93 104V391H31L26 404L53 442H93V453Z"  />
<glyph unicode="&#xE0;" horiz-adv-x="466" d="M356 -12Q336 -12 321 -6T295 9Q284 18 279 27T269 46Q255 37 240 27T210 8T184 -6T165 -12Q133 -12 108 -1T66 29T39 70T30 116Q30 155 48 176T106 212Q128 220 152 228T199 245T238 262T265 278V308Q265 356 249 381T204 406Q184 406 171 388Q162 377 155 360T142 319Q137 299 127 292T100 285Q90 285 79 289T59 300T44 316T38 335Q38 349 47 359T73 383Q87 393 107 404T149 424T194 442T239 454Q298 454 337 425Q369 400 379 368T389 293V128Q389 93 399 81T421 69Q430 69 438 71T455 77L465 45L356 -12ZM265 239Q251 232 238 224T210 208Q187 196 175 181T163 140Q163 119 169 105T184 81T203 67T223 63Q234 63 243 66T265 79V239ZM239 489Q202 534 167 576T110 645L114 659Q119 663 133 666T163 673T193 677T216 678Q230 633 243 590T270 502L239 489Z"  />
<glyph unicode="&#xE1;" horiz-adv-x="466" d="M356 -12Q336 -12 321 -6T295 9Q284 18 279 27T269 46Q255 37 240 27T210 8T184 -6T165 -12Q133 -12 108 -1T66 29T39 70T30 116Q30 155 48 176T106 212Q128 220 152 228T199 245T238 262T265 278V308Q265 356 249 381T204 406Q184 406 171 388Q162 377 155 360T142 319Q137 299 127 292T100 285Q90 285 79 289T59 300T44 316T38 335Q38 349 47 359T73 383Q87 393 107 404T149 424T194 442T239 454Q298 454 337 425Q369 400 379 368T389 293V128Q389 93 399 81T421 69Q430 69 438 71T455 77L465 45L356 -12ZM265 239Q251 232 238 224T210 208Q187 196 175 181T163 140Q163 119 169 105T184 81T203 67T223 63Q234 63 243 66T265 79V239ZM186 502Q191 518 198 543T213 593T226 638T235 667Q239 670 254 672T287 676T321 678T344 678L350 668L217 489L186 502Z"  />
<glyph unicode="&#xE2;" horiz-adv-x="466" d="M356 -12Q336 -12 321 -6T295 9Q284 18 279 27T269 46Q255 37 240 27T210 8T184 -6T165 -12Q133 -12 108 -1T66 29T39 70T30 116Q30 155 48 176T106 212Q128 220 152 228T199 245T238 262T265 278V308Q265 356 249 381T204 406Q184 406 171 388Q162 377 155 360T142 319Q137 299 127 292T100 285Q90 285 79 289T59 300T44 316T38 335Q38 349 47 359T73 383Q87 393 107 404T149 424T194 442T239 454Q298 454 337 425Q369 400 379 368T389 293V128Q389 93 399 81T421 69Q430 69 438 71T455 77L465 45L356 -12ZM265 239Q251 232 238 224T210 208Q187 196 175 181T163 140Q163 119 169 105T184 81T203 67T223 63Q234 63 243 66T265 79V239ZM324 484Q295 507 272 530T225 576Q202 554 179 531T126 484L100 506Q131 552 155 592T206 679H243Q256 655 269 634T295 592T321 550T351 506L324 484Z"  />
<glyph unicode="&#xE3;" horiz-adv-x="466" d="M356 -12Q336 -12 321 -6T295 9Q284 18 279 27T269 46Q255 37 240 27T210 8T184 -6T165 -12Q133 -12 108 -1T66 29T39 70T30 116Q30 155 48 176T106 212Q128 220 152 228T199 245T238 262T265 278V308Q265 356 249 381T204 406Q184 406 171 388Q162 377 155 360T142 319Q137 299 127 292T100 285Q90 285 79 289T59 300T44 316T38 335Q38 349 47 359T73 383Q87 393 107 404T149 424T194 442T239 454Q298 454 337 425Q369 400 379 368T389 293V128Q389 93 399 81T421 69Q430 69 438 71T455 77L465 45L356 -12ZM265 239Q251 232 238 224T210 208Q187 196 175 181T163 140Q163 119 169 105T184 81T203 67T223 63Q234 63 243 66T265 79V239ZM81 531Q98 585 122 610T174 636Q187 636 200 631T236 615Q254 606 267 601T294 595Q310 595 322 609T344 641L372 627Q362 594 351 573T328 541T305 525T285 521Q268 521 252 527T218 543Q200 554 188 558T162 563Q148 563 135 552T110 512L81 531Z"  />
<glyph unicode="&#xE4;" horiz-adv-x="466" d="M356 -12Q336 -12 321 -6T295 9Q284 18 279 27T269 46Q255 37 240 27T210 8T184 -6T165 -12Q133 -12 108 -1T66 29T39 70T30 116Q30 155 48 176T106 212Q128 220 152 228T199 245T238 262T265 278V308Q265 356 249 381T204 406Q184 406 171 388Q162 377 155 360T142 319Q137 299 127 292T100 285Q90 285 79 289T59 300T44 316T38 335Q38 349 47 359T73 383Q87 393 107 404T149 424T194 442T239 454Q298 454 337 425Q369 400 379 368T389 293V128Q389 93 399 81T421 69Q430 69 438 71T455 77L465 45L356 -12ZM265 239Q251 232 238 224T210 208Q187 196 175 181T163 140Q163 119 169 105T184 81T203 67T223 63Q234 63 243 66T265 79V239ZM121 519Q95 519 75 538T54 585Q54 614 74 633T122 652Q151 652 170 633T190 585Q190 558 170 539T121 519ZM327 519Q300 519 280 538T260 585Q260 614 280 633T328 652Q356 652 375 633T395 585Q395 558 376 539T327 519Z"  />
<glyph unicode="&#xE5;" horiz-adv-x="466" d="M356 -12Q336 -12 321 -6T295 9Q284 18 279 27T269 46Q255 37 240 27T210 8T184 -6T165 -12Q133 -12 108 -1T66 29T39 70T30 116Q30 155 48 176T106 212Q128 220 152 228T199 245T238 262T265 278V308Q265 356 249 381T204 406Q184 406 171 388Q162 377 155 360T142 319Q137 299 127 292T100 285Q90 285 79 289T59 300T44 316T38 335Q38 349 47 359T73 383Q87 393 107 404T149 424T194 442T239 454Q298 454 337 425Q369 400 379 368T389 293V128Q389 93 399 81T421 69Q430 69 438 71T455 77L465 45L356 -12ZM265 239Q251 232 238 224T210 208Q187 196 175 181T163 140Q163 119 169 105T184 81T203 67T223 63Q234 63 243 66T265 79V239ZM226 499Q208 499 191 505T160 524T138 553T130 591Q130 612 138 628T159 657T190 675T227 681Q245 681 262 675T292 657T314 629T322 591Q322 570 314 553T292 524T261 506T226 499ZM228 538Q248 538 259 552T271 591Q271 613 259 627T227 641Q207 641 194 628T181 591Q181 567 194 553T228 538Z"  />
<glyph unicode="&#xE6;" horiz-adv-x="671" d="M649 94Q626 61 601 41T551 9T507 -7T473 -12Q416 -12 375 11T310 72L280 47Q266 36 251 25T221 6T191 -7T164 -12Q133 -12 109 -1T67 28T40 68T31 113Q31 152 49 175T106 213Q126 220 150 229T198 246T240 263T271 280V305Q271 352 250 378T206 405Q194 405 186 401T172 388Q164 378 158 361T145 321Q140 301 129 295T103 288Q94 288 83 292T63 302T47 317T41 335Q41 360 77 384Q109 405 152 425T241 454Q261 454 282 448T322 429Q333 421 343 411T357 391Q386 420 422 437T490 454Q526 454 556 440T608 404T642 352T655 292Q655 274 650 266T628 254Q622 253 597 251T537 247T462 243T383 239Q383 198 394 168T423 117T467 87T521 77Q546 77 574 87T630 119L649 94ZM468 412Q439 412 416 379T388 284Q420 285 450 285T509 287Q521 288 527 292T533 312Q533 330 529 348T516 380T495 403T468 412ZM225 67Q242 67 260 76T293 102Q279 136 275 173T270 242Q256 234 241 226T209 210Q187 197 175 182T163 140Q163 102 183 85T225 67Z"  />
<glyph unicode="&#xE7;" horiz-adv-x="422" d="M419 97Q390 56 353 29T271 -7L257 -25Q249 -34 253 -42T271 -66Q288 -87 297 -103T306 -137Q306 -169 275 -195T183 -241L169 -212Q197 -198 213 -182T230 -152Q230 -141 223 -132T210 -116Q191 -96 188 -82T199 -51L231 -12Q184 -9 147 8T84 54T44 120T30 201Q30 256 57 306T132 392Q182 429 226 441T300 454Q322 454 348 447T390 429Q400 421 403 414T405 398Q405 386 401 375T389 356T375 343T362 338Q354 338 340 349Q310 377 285 388T238 400Q224 400 210 393T183 368T164 322T156 254Q156 204 171 171T208 117T253 87T293 78Q323 78 347 88T401 122L419 97Z"  />
<glyph unicode="&#xE8;" horiz-adv-x="437" d="M417 99Q394 65 369 44T320 10T274 -7T237 -12Q187 -12 149 5T84 52T44 120T30 202Q30 259 51 305T104 383Q137 416 176 435T258 454Q292 454 322 441T374 405T408 353T420 293Q420 278 414 269T391 257Q384 256 360 254T302 250T229 245T153 241Q155 201 166 171T196 121T237 90T288 80Q317 80 345 90T399 123L417 99ZM237 414Q208 414 186 381T158 288Q189 289 217 289T277 291Q288 292 292 295T298 311Q298 330 294 348T282 381T263 405T237 414ZM243 489Q205 534 170 576T113 645L117 659Q123 663 136 666T166 673T196 677T219 678Q233 633 246 590T274 502L243 489Z"  />
<glyph unicode="&#xE9;" horiz-adv-x="437" d="M417 99Q394 65 369 44T320 10T274 -7T237 -12Q187 -12 149 5T84 52T44 120T30 202Q30 259 51 305T104 383Q137 416 176 435T258 454Q292 454 322 441T374 405T408 353T420 293Q420 278 414 269T391 257Q384 256 360 254T302 250T229 245T153 241Q155 201 166 171T196 121T237 90T288 80Q317 80 345 90T399 123L417 99ZM237 414Q208 414 186 381T158 288Q189 289 217 289T277 291Q288 292 292 295T298 311Q298 330 294 348T282 381T263 405T237 414ZM202 502Q207 518 214 543T229 593T242 638T251 667Q255 670 270 672T303 676T337 678T360 678L366 668L233 489L202 502Z"  />
<glyph unicode="&#xEA;" horiz-adv-x="437" d="M417 99Q394 65 369 44T320 10T274 -7T237 -12Q187 -12 149 5T84 52T44 120T30 202Q30 259 51 305T104 383Q137 416 176 435T258 454Q292 454 322 441T374 405T408 353T420 293Q420 278 414 269T391 257Q384 256 360 254T302 250T229 245T153 241Q155 201 166 171T196 121T237 90T288 80Q317 80 345 90T399 123L417 99ZM237 414Q208 414 186 381T158 288Q189 289 217 289T277 291Q288 292 292 295T298 311Q298 330 294 348T282 381T263 405T237 414ZM331 484Q303 507 280 530T233 576Q210 554 187 531T134 484L107 506Q139 552 163 591T214 679H251Q264 655 277 634T303 592T329 550T359 506L331 484Z"  />
<glyph unicode="&#xEB;" horiz-adv-x="437" d="M417 99Q394 65 369 44T320 10T274 -7T237 -12Q187 -12 149 5T84 52T44 120T30 202Q30 259 51 305T104 383Q137 416 176 435T258 454Q292 454 322 441T374 405T408 353T420 293Q420 278 414 269T391 257Q384 256 360 254T302 250T229 245T153 241Q155 201 166 171T196 121T237 90T288 80Q317 80 345 90T399 123L417 99ZM237 414Q208 414 186 381T158 288Q189 289 217 289T277 291Q288 292 292 295T298 311Q298 330 294 348T282 381T263 405T237 414ZM127 519Q101 519 81 538T60 585Q60 614 80 633T128 652Q157 652 176 633T196 585Q196 558 176 539T127 519ZM333 519Q306 519 286 538T266 585Q266 614 286 633T334 652Q362 652 381 633T401 585Q401 558 382 539T333 519Z"  />
<glyph unicode="&#xEC;" horiz-adv-x="295" d="M30 0V33Q51 35 63 39T82 52T91 78T93 122V312Q93 334 92 347T86 369T69 381T37 388V418Q83 423 130 432T220 454V122Q220 94 221 78T229 52T248 40T284 33V0H30ZM153 489Q116 534 81 576T24 645L28 659Q34 663 47 666T77 673T107 677T130 678Q144 633 157 590T185 502L153 489Z"  />
<glyph unicode="&#xED;" horiz-adv-x="295" d="M30 0V33Q51 35 63 39T82 52T91 78T93 122V312Q93 334 92 347T86 369T69 381T37 388V418Q83 423 130 432T220 454V122Q220 94 221 78T229 52T248 40T284 33V0H30ZM116 502Q121 518 128 543T143 593T156 638T165 667Q169 670 184 672T217 676T251 678T274 678L280 668L147 489L116 502Z"  />
<glyph unicode="&#xEE;" horiz-adv-x="295" d="M30 0V33Q51 35 63 39T82 52T91 78T93 122V312Q93 334 92 347T86 369T69 381T37 388V418Q83 423 130 432T220 454V122Q220 94 221 78T229 52T248 40T284 33V0H30ZM245 484Q216 507 193 530T146 576Q123 554 100 531T48 484L21 506Q52 552 76 591T127 679H165Q178 655 191 634T217 592T243 550T273 506L245 484Z"  />
<glyph unicode="&#xEF;" horiz-adv-x="295" d="M30 0V33Q51 35 63 39T82 52T91 78T93 122V312Q93 334 92 347T86 369T69 381T37 388V418Q83 423 130 432T220 454V122Q220 94 221 78T229 52T248 40T284 33V0H30ZM41 519Q15 519 -5 538T-26 585Q-26 614 -6 633T42 652Q71 652 90 633T110 585Q110 558 90 539T41 519ZM247 519Q220 519 200 538T180 585Q180 614 200 633T248 652Q276 652 295 633T315 585Q315 558 296 539T247 519Z"  />
<glyph unicode="&#xF0;" horiz-adv-x="522" d="M342 593Q411 529 448 446T486 269Q486 194 467 141T416 53T342 4T255 -12Q199 -12 157 7T86 58T43 131T30 215Q31 273 51 317T105 392T182 438T271 454Q281 454 294 452T319 445Q312 471 300 496T264 551L119 478L100 515L237 582Q198 620 153 641T70 668Q65 675 68 687T79 703Q143 699 201 677T306 623L446 694L465 656L342 593ZM265 415Q226 415 199 372T172 244Q172 195 178 155T197 87T227 44T268 28Q283 28 297 35T322 64T341 125T350 230Q351 284 345 323T327 380Q316 395 301 405T265 415Z"  />
<glyph unicode="&#xF1;" horiz-adv-x="566" d="M316 0V32Q332 35 341 38T355 48T361 71T363 113V283Q363 337 342 357T294 377Q275 377 258 369T220 346V104Q220 81 221 68T228 47T242 38T267 32V0H26V32Q49 35 62 38T82 48T91 70T93 109V316Q93 338 92 351T85 371T68 382T39 389V418Q82 423 128 433T220 456V382Q235 393 250 404T282 426Q305 440 321 447T360 454Q421 454 456 412T491 294V105Q491 81 492 68T500 48T517 38T549 32V0H316ZM138 531Q155 585 179 610T231 636Q245 636 258 631T293 615Q311 606 324 601T351 595Q368 595 380 609T401 641L429 627Q420 594 409 573T386 541T363 525T342 521Q325 521 309 527T275 543Q257 554 245 558T219 563Q205 563 192 552T167 512L138 531Z"  />
<glyph unicode="&#xF2;" horiz-adv-x="525" d="M268 454Q320 454 362 436T434 387T480 315T496 229Q496 169 476 124T424 48T350 3T264 -12Q205 -12 161 7T88 58T45 130T30 211Q30 271 51 316T107 392T184 438T268 454ZM255 415Q223 415 198 374T173 247Q173 201 180 161T200 91T232 44T275 27Q289 27 303 33T328 57T346 110T353 199Q353 304 328 359T255 415ZM267 489Q230 534 195 576T138 645L142 659Q147 663 161 666T191 673T221 677T244 678Q258 633 271 590T298 502L267 489Z"  />
<glyph unicode="&#xF3;" horiz-adv-x="525" d="M268 454Q320 454 362 436T434 387T480 315T496 229Q496 169 476 124T424 48T350 3T264 -12Q205 -12 161 7T88 58T45 130T30 211Q30 271 51 316T107 392T184 438T268 454ZM255 415Q223 415 198 374T173 247Q173 201 180 161T200 91T232 44T275 27Q289 27 303 33T328 57T346 110T353 199Q353 304 328 359T255 415ZM229 502Q234 518 241 543T256 593T269 638T278 667Q282 670 297 672T330 676T364 678T387 678L393 668L260 489L229 502Z"  />
<glyph unicode="&#xF4;" horiz-adv-x="525" d="M268 454Q320 454 362 436T434 387T480 315T496 229Q496 169 476 124T424 48T350 3T264 -12Q205 -12 161 7T88 58T45 130T30 211Q30 271 51 316T107 392T184 438T268 454ZM255 415Q223 415 198 374T173 247Q173 201 180 161T200 91T232 44T275 27Q289 27 303 33T328 57T346 110T353 199Q353 304 328 359T255 415ZM360 484Q332 507 309 530T262 576Q239 554 216 531T163 484L136 506Q167 552 191 591T242 679H280Q293 655 306 634T332 592T358 550T388 506L360 484Z"  />
<glyph unicode="&#xF5;" horiz-adv-x="525" d="M268 454Q320 454 362 436T434 387T480 315T496 229Q496 169 476 124T424 48T350 3T264 -12Q205 -12 161 7T88 58T45 130T30 211Q30 271 51 316T107 392T184 438T268 454ZM255 415Q223 415 198 374T173 247Q173 201 180 161T200 91T232 44T275 27Q289 27 303 33T328 57T346 110T353 199Q353 304 328 359T255 415ZM115 531Q132 585 156 610T208 636Q222 636 235 631T270 615Q288 606 301 601T328 595Q345 595 357 609T378 641L406 627Q397 594 386 573T363 541T340 525T319 521Q302 521 286 527T252 543Q234 554 222 558T196 563Q182 563 169 552T144 512L115 531Z"  />
<glyph unicode="&#xF6;" horiz-adv-x="525" d="M268 454Q320 454 362 436T434 387T480 315T496 229Q496 169 476 124T424 48T350 3T264 -12Q205 -12 161 7T88 58T45 130T30 211Q30 271 51 316T107 392T184 438T268 454ZM255 415Q223 415 198 374T173 247Q173 201 180 161T200 91T232 44T275 27Q289 27 303 33T328 57T346 110T353 199Q353 304 328 359T255 415ZM159 519Q133 519 113 538T92 585Q92 614 112 633T160 652Q189 652 208 633T228 585Q228 558 208 539T159 519ZM365 519Q338 519 318 538T298 585Q298 614 318 633T366 652Q394 652 413 633T433 585Q433 558 414 539T365 519Z"  />
<glyph unicode="&#xF7;" horiz-adv-x="577" d="M290 349Q268 349 250 366T231 409Q231 433 249 451T290 470Q316 470 333 452T351 409Q351 384 334 367T290 349ZM47 221V286H531V221H47ZM289 159Q312 159 330 142T349 99Q349 75 331 57T289 38Q263 38 246 56T229 99Q229 124 246 141T289 159Z"  />
<glyph unicode="&#xF8;" horiz-adv-x="531" d="M410 408Q456 376 478 330T501 231Q501 170 481 125T428 49T352 3T264 -12Q234 -12 204 -6T147 15L111 -36L82 -13L117 37Q72 69 51 116T30 211Q30 270 52 315T108 391T186 438T271 454Q303 454 328 448T380 428L415 478L443 457L410 408ZM332 361Q318 388 299 400T257 413Q243 413 226 404T195 375T172 320T162 236Q162 210 167 180T180 127L332 361ZM198 87Q227 28 274 28Q290 28 306 35T337 61T360 117T369 210Q369 239 366 267T352 323L198 87Z"  />
<glyph unicode="&#xF9;" horiz-adv-x="555" d="M542 24Q497 18 452 9T359 -12L351 -5V55Q337 44 328 36T301 18Q279 4 258 -4T214 -12Q151 -12 117 26T83 130V337Q83 355 82 365T75 382T58 393T28 402V431Q118 435 213 449Q210 386 210 298V153Q210 104 231 85T279 65Q299 65 316 70T351 93V336Q351 355 350 366T342 384T323 394T287 402V431Q334 433 381 437T478 449V124Q478 104 479 92T485 73T498 63T520 58L542 56V24ZM282 489Q245 534 210 576T153 645L157 659Q163 663 176 666T206 673T236 677T259 678Q273 633 286 590T314 502L282 489Z"  />
<glyph unicode="&#xFA;" horiz-adv-x="555" d="M542 24Q497 18 452 9T359 -12L351 -5V55Q337 44 328 36T301 18Q279 4 258 -4T214 -12Q151 -12 117 26T83 130V337Q83 355 82 365T75 382T58 393T28 402V431Q118 435 213 449Q210 386 210 298V153Q210 104 231 85T279 65Q299 65 316 70T351 93V336Q351 355 350 366T342 384T323 394T287 402V431Q334 433 381 437T478 449V124Q478 104 479 92T485 73T498 63T520 58L542 56V24ZM239 502Q244 518 251 543T266 593T279 638T288 667Q292 670 307 672T340 676T374 678T397 678L403 668L270 489L239 502Z"  />
<glyph unicode="&#xFB;" horiz-adv-x="555" d="M542 24Q497 18 452 9T359 -12L351 -5V55Q337 44 328 36T301 18Q279 4 258 -4T214 -12Q151 -12 117 26T83 130V337Q83 355 82 365T75 382T58 393T28 402V431Q118 435 213 449Q210 386 210 298V153Q210 104 231 85T279 65Q299 65 316 70T351 93V336Q351 355 350 366T342 384T323 394T287 402V431Q334 433 381 437T478 449V124Q478 104 479 92T485 73T498 63T520 58L542 56V24ZM372 484Q343 507 320 530T273 576Q250 554 227 531T174 484L148 506Q179 552 203 592T254 679H291Q304 655 317 634T343 592T369 550T399 506L372 484Z"  />
<glyph unicode="&#xFC;" horiz-adv-x="555" d="M542 24Q497 18 452 9T359 -12L351 -5V55Q337 44 328 36T301 18Q279 4 258 -4T214 -12Q151 -12 117 26T83 130V337Q83 355 82 365T75 382T58 393T28 402V431Q118 435 213 449Q210 386 210 298V153Q210 104 231 85T279 65Q299 65 316 70T351 93V336Q351 355 350 366T342 384T323 394T287 402V431Q334 433 381 437T478 449V124Q478 104 479 92T485 73T498 63T520 58L542 56V24ZM165 519Q139 519 119 538T98 585Q98 614 118 633T166 652Q195 652 214 633T234 585Q234 558 214 539T165 519ZM371 519Q344 519 324 538T304 585Q304 614 324 633T372 652Q400 652 419 633T439 585Q439 558 420 539T371 519Z"  />
<glyph unicode="&#xFD;" horiz-adv-x="465" d="M483 410Q465 407 454 403T433 392T417 371T400 338Q381 298 354 233T284 63Q259 2 242 -41T213 -117T194 -172T179 -217Q174 -234 165 -239T142 -244Q132 -244 120 -239T97 -226T79 -207T72 -181Q72 -169 78 -161T99 -142Q129 -126 148 -110T181 -71Q194 -46 200 -30Q204 -18 203 -7T196 17Q176 71 157 123T121 220T91 298T70 348Q63 364 57 375T43 392T23 403T-7 410V442H241V410Q209 404 201 396T201 364L276 142Q285 163 295 191T315 248T335 305T351 355Q359 380 350 391T303 410V442H483V410ZM219 502Q224 518 231 543T246 593T259 638T268 667Q272 670 287 672T320 676T354 678T377 678L383 668L250 489L219 502Z"  />
<glyph unicode="&#xFE;" horiz-adv-x="538" d="M200 400Q223 412 244 423T287 446Q295 450 304 452T328 454Q373 454 407 437T463 392T497 329T509 259Q509 204 489 159T435 80T357 22T264 -12Q240 -12 226 -9T200 0V-112Q200 -138 202 -154T214 -179T240 -192T287 -198V-230H7V-198Q28 -196 41 -193T61 -182T70 -159T72 -116V563Q72 584 71 597T63 619T43 631T8 638V667Q46 671 97 680T200 703V400ZM200 74Q216 60 235 49T274 37Q293 37 311 47T345 79T369 134T379 211Q379 257 368 289T340 341T302 370T262 380Q242 380 229 375T200 363V74Z"  />
<glyph unicode="&#xFF;" horiz-adv-x="465" d="M483 410Q465 407 454 403T433 392T417 371T400 338Q381 298 354 233T284 63Q259 2 242 -41T213 -117T194 -172T179 -217Q174 -234 165 -239T142 -244Q132 -244 120 -239T97 -226T79 -207T72 -181Q72 -169 78 -161T99 -142Q129 -126 148 -110T181 -71Q194 -46 200 -30Q204 -18 203 -7T196 17Q176 71 157 123T121 220T91 298T70 348Q63 364 57 375T43 392T23 403T-7 410V442H241V410Q209 404 201 396T201 364L276 142Q285 163 295 191T315 248T335 305T351 355Q359 380 350 391T303 410V442H483V410ZM140 519Q114 519 94 538T74 585Q74 614 94 633T141 652Q170 652 189 633T209 585Q209 558 189 539T140 519ZM346 519Q319 519 299 538T279 585Q279 614 299 633T347 652Q376 652 395 633T414 585Q414 558 395 539T346 519Z"  />
<glyph unicode="&#x100;" horiz-adv-x="706" d="M401 0V35Q445 42 453 54T449 100Q441 123 431 152T409 213H217Q209 190 200 163T181 106Q176 88 175 76T179 56T200 43T242 35V0H18L19 35Q44 38 59 42T86 58T108 87T130 138L335 652L386 665Q434 533 481 404T577 144Q590 111 600 91T621 60T648 43T687 35V0H401ZM316 482H313Q292 427 273 374T234 266H390L316 482ZM240 711V779H485V711H240Z"  />
<glyph unicode="&#x101;" horiz-adv-x="466" d="M356 -12Q336 -12 321 -6T295 9Q284 18 279 27T269 46Q255 37 240 27T210 8T184 -6T165 -12Q133 -12 108 -1T66 29T39 70T30 116Q30 155 48 176T106 212Q128 220 152 228T199 245T238 262T265 278V308Q265 356 249 381T204 406Q184 406 171 388Q162 377 155 360T142 319Q137 299 127 292T100 285Q90 285 79 289T59 300T44 316T38 335Q38 349 47 359T73 383Q87 393 107 404T149 424T194 442T239 454Q298 454 337 425Q369 400 379 368T389 293V128Q389 93 399 81T421 69Q430 69 438 71T455 77L465 45L356 -12ZM265 239Q251 232 238 224T210 208Q187 196 175 181T163 140Q163 119 169 105T184 81T203 67T223 63Q234 63 243 66T265 79V239ZM94 541V614H343V541H94Z"  />
<glyph unicode="&#x102;" horiz-adv-x="706" d="M401 0V35Q445 42 453 54T449 100Q441 123 431 152T409 213H217Q209 190 200 163T181 106Q176 88 175 76T179 56T200 43T242 35V0H18L19 35Q44 38 59 42T86 58T108 87T130 138L335 652L386 665Q434 533 481 404T577 144Q590 111 600 91T621 60T648 43T687 35V0H401ZM316 482H313Q292 427 273 374T234 266H390L316 482ZM490 828Q490 789 481 763T454 721T414 698T363 691Q335 691 312 698T271 721T245 763T235 828H265Q272 796 298 780T363 763Q402 763 427 778T460 828H490Z"  />
<glyph unicode="&#x103;" horiz-adv-x="466" d="M356 -12Q336 -12 321 -6T295 9Q284 18 279 27T269 46Q255 37 240 27T210 8T184 -6T165 -12Q133 -12 108 -1T66 29T39 70T30 116Q30 155 48 176T106 212Q128 220 152 228T199 245T238 262T265 278V308Q265 356 249 381T204 406Q184 406 171 388Q162 377 155 360T142 319Q137 299 127 292T100 285Q90 285 79 289T59 300T44 316T38 335Q38 349 47 359T73 383Q87 393 107 404T149 424T194 442T239 454Q298 454 337 425Q369 400 379 368T389 293V128Q389 93 399 81T421 69Q430 69 438 71T455 77L465 45L356 -12ZM265 239Q251 232 238 224T210 208Q187 196 175 181T163 140Q163 119 169 105T184 81T203 67T223 63Q234 63 243 66T265 79V239ZM343 660Q343 615 333 586T307 538T268 513T220 506Q195 506 173 513T135 538T109 585T99 660H131Q139 623 162 603T221 582Q257 582 280 602T311 660H343Z"  />
<glyph unicode="&#x104;" horiz-adv-x="706" d="M482 0Q460 -18 443 -51T426 -114Q426 -141 442 -154T484 -167Q495 -167 503 -165T522 -159L531 -190L467 -222Q459 -227 449 -230T431 -233Q386 -233 364 -208T342 -147Q342 -121 353 -97T380 -51T416 -10T453 26Q461 34 462 41T461 59Q456 72 450 92T436 134T421 177T407 213H217Q209 190 200 165T181 110Q175 90 173 77T176 56T197 43T241 34V0H18L19 34Q41 37 57 42T85 58T108 90T132 142Q183 270 233 397T335 652Q349 655 361 658T386 665Q434 533 479 407T575 148Q589 116 600 95T622 60T649 41T687 31V0H482ZM316 482H314Q294 427 274 373T234 265H390L316 482Z"  />
<glyph unicode="&#x105;" horiz-adv-x="467" d="M466 46Q458 41 441 33T414 20Q393 10 374 -5T338 -39T313 -78T303 -120Q303 -145 318 -155T354 -165Q374 -165 396 -154L404 -184L343 -219Q337 -223 326 -227T306 -232Q264 -232 242 -210T219 -154Q219 -132 227 -112T250 -74T283 -39T319 -7Q308 -2 293 12T270 46Q256 37 241 27T211 8T184 -6T165 -12Q133 -12 108 -1T66 29T39 70T30 116Q30 155 48 176T106 212Q128 220 152 228T199 245T239 262T266 278V307Q266 355 249 380T205 406Q184 406 171 388Q163 377 157 360T143 319Q138 299 128 292T102 285Q92 285 81 289T61 300T45 316T39 335Q39 349 48 359T74 383Q88 393 108 404T150 424T196 442T241 454Q271 454 294 447T338 425Q370 400 380 368T390 293V127Q390 92 400 80T422 68Q438 68 456 76L466 46ZM266 239Q252 231 239 223T210 207Q187 196 175 181T163 140Q163 119 169 105T184 81T203 68T223 64Q234 64 243 67T266 80V239Z"  />
<glyph unicode="&#x106;" horiz-adv-x="676" d="M660 170Q655 152 648 130T634 86T618 44T604 11Q594 9 574 5T527 -4T472 -12T418 -15Q318 -15 247 14T130 91T63 198T41 317Q41 394 69 458T150 568T275 639T438 665Q468 665 496 662T549 654T591 645T620 638Q627 596 632 559T643 474L606 467Q594 512 574 541T529 588T476 613T419 621Q365 621 323 598T253 535T209 444T194 337Q194 268 211 212T260 116T335 54T429 32Q492 32 539 71T625 186L660 170ZM536 758L331 698L316 726Q360 757 403 788T489 848Q496 845 504 837T520 817T533 793T540 770L536 758Z"  />
<glyph unicode="&#x107;" horiz-adv-x="422" d="M418 96Q383 47 338 18T246 -12Q195 -12 155 6T86 53T44 121T29 201Q29 256 55 306T130 392Q179 428 225 441T300 454Q327 454 350 447T386 429Q397 421 400 413T404 393Q404 371 389 355T361 338Q351 338 339 349Q307 376 283 388T238 401Q223 401 208 394T181 369T162 324T154 256Q154 206 169 172T207 118T252 88T292 79Q324 79 348 88T399 120L418 96ZM212 502Q217 518 224 543T239 593T252 638T261 667Q265 670 280 672T313 676T347 678T370 678L376 668L243 489L212 502Z"  />
<glyph unicode="&#x108;" horiz-adv-x="676" d="M660 170Q655 152 648 130T634 86T618 44T604 11Q594 9 574 5T527 -4T472 -12T418 -15Q318 -15 247 14T130 91T63 198T41 317Q41 394 69 458T150 568T275 639T438 665Q468 665 496 662T549 654T591 645T620 638Q627 596 632 559T643 474L606 467Q594 512 574 541T529 588T476 613T419 621Q365 621 323 598T253 535T209 444T194 337Q194 268 211 212T260 116T335 54T429 32Q492 32 539 71T625 186L660 170ZM541 696Q506 710 474 726T410 757Q378 742 346 726T278 696L262 722Q296 749 331 782T395 845H425Q454 814 489 783T557 722L541 696Z"  />
<glyph unicode="&#x109;" horiz-adv-x="422" d="M418 96Q383 47 338 18T246 -12Q195 -12 155 6T86 53T44 121T29 201Q29 256 55 306T130 392Q179 428 225 441T300 454Q327 454 350 447T386 429Q397 421 400 413T404 393Q404 371 389 355T361 338Q351 338 339 349Q307 376 283 388T238 401Q223 401 208 394T181 369T162 324T154 256Q154 206 169 172T207 118T252 88T292 79Q324 79 348 88T399 120L418 96ZM343 484Q314 507 291 530T244 576Q221 554 198 531T146 484L119 506Q150 552 174 592T225 679H262Q289 631 314 592T371 506L343 484Z"  />
<glyph unicode="&#x10A;" horiz-adv-x="676" d="M660 170Q655 152 648 130T634 86T618 44T604 11Q594 9 574 5T527 -4T472 -12T418 -15Q318 -15 247 14T130 91T63 198T41 317Q41 394 69 458T150 568T275 639T438 665Q468 665 496 662T549 654T591 645T620 638Q627 596 632 559T643 474L606 467Q594 512 574 541T529 588T476 613T419 621Q365 621 323 598T253 535T209 444T194 337Q194 268 211 212T260 116T335 54T429 32Q492 32 539 71T625 186L660 170ZM414 844Q445 844 465 824T486 774Q486 745 466 725T414 704Q386 704 365 724T344 774Q344 804 365 824T414 844Z"  />
<glyph unicode="&#x10B;" horiz-adv-x="422" d="M418 96Q383 47 338 18T246 -12Q195 -12 155 6T86 53T44 121T29 201Q29 256 55 306T130 392Q179 428 225 441T300 454Q327 454 350 447T386 429Q397 421 400 413T404 393Q404 371 389 355T361 338Q351 338 339 349Q307 376 283 388T238 401Q223 401 208 394T181 369T162 324T154 256Q154 206 169 172T207 118T252 88T292 79Q324 79 348 88T399 120L418 96ZM245 517Q217 517 196 537T175 587Q175 617 196 637T246 657Q276 657 296 637T317 587Q317 558 297 538T245 517Z"  />
<glyph unicode="&#x10C;" horiz-adv-x="676" d="M660 170Q655 152 648 130T634 86T618 44T604 11Q594 9 574 5T527 -4T472 -12T418 -15Q318 -15 247 14T130 91T63 198T41 317Q41 394 69 458T150 568T275 639T438 665Q468 665 496 662T549 654T591 645T620 638Q627 596 632 559T643 474L606 467Q594 512 574 541T529 588T476 613T419 621Q365 621 323 598T253 535T209 444T194 337Q194 268 211 212T260 116T335 54T429 32Q492 32 539 71T625 186L660 170ZM553 819Q520 793 485 760T421 696H391Q362 728 327 760T258 819L275 845Q310 831 342 817T406 786Q438 802 470 816T538 845L553 819Z"  />
<glyph unicode="&#x10D;" horiz-adv-x="422" d="M418 96Q383 47 338 18T246 -12Q195 -12 155 6T86 53T44 121T29 201Q29 256 55 306T130 392Q179 428 225 441T300 454Q327 454 350 447T386 429Q397 421 400 413T404 393Q404 371 389 355T361 338Q351 338 339 349Q307 376 283 388T238 401Q223 401 208 394T181 369T162 324T154 256Q154 206 169 172T207 118T252 88T292 79Q324 79 348 88T399 120L418 96ZM378 667Q346 622 322 582T272 494H234Q208 542 183 582T126 667L153 689Q182 666 205 643T253 597Q276 619 299 642T350 689L378 667Z"  />
<glyph unicode="&#x10E;" horiz-adv-x="761" d="M342 650Q436 650 508 630T629 563Q666 528 691 475T717 351Q717 259 683 194T592 83Q536 41 460 21T289 0H32V35Q62 38 79 41T106 55T118 83T121 134V516Q121 548 119 566T108 595T84 608T41 615V650H342ZM255 140Q255 113 258 95T271 65T297 48T340 43Q390 43 431 63T503 120T549 211T566 331Q566 403 546 458T492 547Q460 578 420 593T329 609Q302 609 287 605T266 595Q259 588 257 575T255 540V140ZM507 804Q473 778 439 745T375 681H344Q315 713 280 745T211 804L228 830Q263 816 295 802T360 771Q392 787 424 801T491 830L507 804Z"  />
<glyph unicode="&#x10F;" horiz-adv-x="547" d="M541 26Q532 24 511 21T463 14T405 3T344 -13V45L284 6Q265 -5 254 -8T233 -12Q201 -12 165 1T99 42T49 110T29 207Q29 258 50 303T107 381T194 434T303 454Q309 454 318 453T344 449V570Q344 590 342 602T334 620T314 630T277 636V667Q301 670 327 674T379 682T429 692T472 703V126Q472 105 473 93T480 74T494 65T519 60L541 58V26ZM344 360Q332 386 313 399T272 412Q263 412 246 406T213 380T184 326T171 234Q171 188 183 156T213 103T251 74T289 64Q303 64 315 66T344 80V360ZM567 710Q598 710 620 684T643 617Q643 568 612 539T536 498L525 524Q554 539 566 556T579 593Q579 611 568 623T539 641Q534 643 529 649T524 667Q524 687 538 698T567 710Z"  />
<glyph unicode="&#x110;" horiz-adv-x="760" d="M352 650Q440 650 511 630T632 562Q670 526 694 474T718 352Q718 260 686 194T594 84Q482 0 297 0H44V34Q74 37 91 41T118 56T129 86T132 137V315H38V365H132V513Q132 545 130 564T119 593T95 608T52 615V650H352ZM266 137Q266 112 268 95T279 66T304 50T347 45Q394 45 434 65T504 122T551 212T568 331Q568 409 549 462T496 551Q467 580 426 593T339 607Q287 607 275 593Q266 584 266 544V365H407V315H266V137Z"  />
<glyph unicode="&#x111;" horiz-adv-x="548" d="M542 26Q533 24 512 21T464 14T406 3T345 -13V44L284 6Q265 -5 254 -8T234 -12Q202 -12 166 1T100 42T49 110T29 207Q29 258 50 303T108 381T196 434T306 454Q311 454 319 453T345 449V526H207V568H345V589Q345 606 343 615T335 630T315 637T281 644V674Q305 677 331 681T382 689T430 699T473 710V568H552V526H473V130Q473 107 474 94T481 74T495 65T521 60L542 58V26ZM345 361Q332 390 313 401T274 412Q265 412 248 406T214 380T184 326T171 234Q171 187 183 155T214 102T252 73T290 63Q302 63 315 67T345 81V361Z"  />
<glyph unicode="&#x112;" horiz-adv-x="581" d="M571 166Q569 149 564 125T554 77T544 32T536 0H26V35Q58 38 77 41T105 54T118 82T121 133V517Q121 550 119 568T108 596T83 609T40 615V650H511Q511 643 512 628T514 592T517 547T521 500L485 495Q477 521 468 544T444 581Q431 595 409 600T344 606H296Q268 606 262 601T255 571V359H322Q353 359 372 361T403 370T421 393T433 434H469V232H433Q428 259 422 274T405 296T374 306T322 308H255V135Q255 100 259 81T279 53Q293 47 316 45T369 43Q407 43 434 49T480 75Q507 107 536 173L571 166ZM185 712V779H431V712H185Z"  />
<glyph unicode="&#x113;" horiz-adv-x="437" d="M417 99Q394 65 369 44T320 10T274 -7T237 -12Q187 -12 149 5T84 52T44 120T30 202Q30 259 51 305T104 383Q137 416 176 435T258 454Q292 454 322 441T374 405T408 353T420 293Q420 278 414 269T391 257Q384 256 360 254T302 250T229 245T153 241Q155 201 166 171T196 121T237 90T288 80Q317 80 345 90T399 123L417 99ZM237 414Q208 414 186 381T158 288Q189 289 217 289T277 291Q288 292 292 295T298 311Q298 330 294 348T282 381T263 405T237 414ZM111 541V614H360V541H111Z"  />
<glyph unicode="&#x114;" horiz-adv-x="581" d="M571 166Q569 149 564 125T554 77T544 32T536 0H26V35Q58 38 77 41T105 54T118 82T121 133V517Q121 550 119 568T108 596T83 609T40 615V650H511Q511 643 512 628T514 592T517 547T521 500L485 495Q477 521 468 544T444 581Q431 595 409 600T344 606H296Q268 606 262 601T255 571V359H322Q353 359 372 361T403 370T421 393T433 434H469V232H433Q428 259 422 274T405 296T374 306T322 308H255V135Q255 100 259 81T279 53Q293 47 316 45T369 43Q407 43 434 49T480 75Q507 107 536 173L571 166ZM436 830Q436 791 427 765T400 723T360 700T308 693Q252 693 217 723T181 830H211Q218 798 243 782T308 765Q347 765 372 780T406 830H436Z"  />
<glyph unicode="&#x115;" horiz-adv-x="437" d="M417 99Q394 65 369 44T320 10T274 -7T237 -12Q187 -12 149 5T84 52T44 120T30 202Q30 259 51 305T104 383Q137 416 176 435T258 454Q292 454 322 441T374 405T408 353T420 293Q420 278 414 269T391 257Q384 256 360 254T302 250T229 245T153 241Q155 201 166 171T196 121T237 90T288 80Q317 80 345 90T399 123L417 99ZM237 414Q208 414 186 381T158 288Q189 289 217 289T277 291Q288 292 292 295T298 311Q298 330 294 348T282 381T263 405T237 414ZM359 660Q359 615 349 586T323 538T284 513T236 506Q211 506 189 513T151 538T125 585T115 660H147Q155 623 178 603T237 582Q273 582 296 602T327 660H359Z"  />
<glyph unicode="&#x116;" horiz-adv-x="581" d="M571 166Q569 149 564 125T554 77T544 32T536 0H26V35Q58 38 77 41T105 54T118 82T121 133V517Q121 550 119 568T108 596T83 609T40 615V650H511Q511 643 512 628T514 592T517 547T521 500L485 495Q477 521 468 544T444 581Q431 595 409 600T344 606H296Q268 606 262 601T255 571V359H322Q353 359 372 361T403 370T421 393T433 434H469V232H433Q428 259 422 274T405 296T374 306T322 308H255V135Q255 100 259 81T279 53Q293 47 316 45T369 43Q407 43 434 49T480 75Q507 107 536 173L571 166ZM305 842Q335 842 356 822T377 772Q377 743 356 723T305 702Q276 702 255 722T234 772Q234 801 255 821T305 842Z"  />
<glyph unicode="&#x117;" horiz-adv-x="437" d="M417 99Q394 65 369 44T320 10T274 -7T237 -12Q187 -12 149 5T84 52T44 120T30 202Q30 259 51 305T104 383Q137 416 176 435T258 454Q292 454 322 441T374 405T408 353T420 293Q420 278 414 269T391 257Q384 256 360 254T302 250T229 245T153 241Q155 201 166 171T196 121T237 90T288 80Q317 80 345 90T399 123L417 99ZM237 414Q208 414 186 381T158 288Q189 289 217 289T277 291Q288 292 292 295T298 311Q298 330 294 348T282 381T263 405T237 414ZM236 517Q208 517 187 537T166 587Q166 617 187 637T237 657Q267 657 287 637T308 587Q308 558 288 538T236 517Z"  />
<glyph unicode="&#x118;" horiz-adv-x="580" d="M571 166Q569 149 564 125T554 77T544 32T536 0H487Q450 -32 431 -65T411 -129Q411 -149 426 -158T458 -168Q481 -168 504 -158L513 -188L461 -220Q450 -226 435 -230T413 -235Q390 -235 375 -228T349 -211T334 -187T329 -160Q329 -138 338 -117T364 -75T400 -36T442 0H26V35Q58 38 77 41T105 54T118 82T121 133V517Q121 549 119 567T108 595T83 609T40 615V650H511Q511 643 512 628T514 593T517 549T521 502L484 497Q476 524 467 545T442 581Q429 594 408 599T344 605H298Q270 605 263 600T255 570V361H317Q350 361 370 363T403 373T422 395T433 436H469V233H433Q428 259 422 274T404 297T372 307T317 310H255V131Q255 96 260 78T280 52Q294 46 317 45T369 43Q407 43 434 50T479 77Q494 94 508 118T536 176L571 166Z"  />
<glyph unicode="&#x119;" horiz-adv-x="437" d="M273 -5Q256 -12 237 -12Q187 -12 148 5T83 52T43 120T29 202Q29 258 49 304T103 383Q137 417 177 435T257 454Q291 454 321 441T373 405T407 353T420 293Q420 278 414 269T391 257Q384 256 360 254T302 250T229 245T153 241Q156 160 193 120T285 79Q314 79 342 89T398 123L416 100Q405 86 391 71T362 43Q316 -2 284 -45T251 -123Q251 -144 265 -155T297 -166Q307 -166 319 -163T344 -154L353 -183L293 -218Q286 -223 274 -226T253 -230Q207 -230 189 -208T170 -156Q170 -139 178 -120T201 -82T235 -43T275 -7L273 -5ZM236 414Q207 414 185 381T157 288Q188 289 217 289T276 291Q287 291 292 295T298 312Q298 331 294 349T281 382T262 405T236 414Z"  />
<glyph unicode="&#x11A;" horiz-adv-x="581" d="M571 166Q569 149 564 125T554 77T544 32T536 0H26V35Q58 38 77 41T105 54T118 82T121 133V517Q121 550 119 568T108 596T83 609T40 615V650H511Q511 643 512 628T514 592T517 547T521 500L485 495Q477 521 468 544T444 581Q431 595 409 600T344 606H296Q268 606 262 601T255 571V359H322Q353 359 372 361T403 370T421 393T433 434H469V232H433Q428 259 422 274T405 296T374 306T322 308H255V135Q255 100 259 81T279 53Q293 47 316 45T369 43Q407 43 434 49T480 75Q507 107 536 173L571 166ZM451 808Q418 782 383 749T319 685H288Q259 717 224 749T156 808L172 834Q207 820 239 806T304 775Q336 791 368 805T436 834L451 808Z"  />
<glyph unicode="&#x11B;" horiz-adv-x="437" d="M417 99Q394 65 369 44T320 10T274 -7T237 -12Q187 -12 149 5T84 52T44 120T30 202Q30 259 51 305T104 383Q137 416 176 435T258 454Q292 454 322 441T374 405T408 353T420 293Q420 278 414 269T391 257Q384 256 360 254T302 250T229 245T153 241Q155 201 166 171T196 121T237 90T288 80Q317 80 345 90T399 123L417 99ZM237 414Q208 414 186 381T158 288Q189 289 217 289T277 291Q288 292 292 295T298 311Q298 330 294 348T282 381T263 405T237 414ZM363 667Q331 622 307 582T257 494H219Q193 542 168 582T111 667L139 689Q168 666 191 643T238 597Q261 619 284 642T336 689L363 667Z"  />
<glyph unicode="&#x11C;" horiz-adv-x="727" d="M703 276Q684 272 673 269T656 257T649 235T647 195V116Q647 89 648 66T653 22Q630 16 603 10T547 -2T486 -11T425 -15Q338 -15 268 8T148 75T71 180T44 317Q44 402 76 467T162 576T289 642T440 665Q470 665 499 662T554 654T600 645T635 637Q637 611 641 571T651 471L614 464Q595 548 543 585T420 623Q375 623 335 604T263 547T214 456T196 335Q196 278 210 223T253 125T327 54T434 27Q449 27 464 29T490 39Q501 46 507 58T513 94V189Q513 215 511 230T498 255T465 268T403 276V310H703V276ZM547 692Q512 706 480 722T415 753Q383 738 351 722T283 692L268 718Q301 745 336 778T400 841H431Q460 810 495 778T563 718L547 692Z"  />
<glyph unicode="&#x11D;" horiz-adv-x="492" d="M498 432Q496 426 492 417T481 399T469 383T455 371L398 375Q410 361 417 343T425 299Q425 260 409 231T367 182T306 153T234 143Q220 143 208 144T185 148Q179 142 175 135T171 120Q171 107 185 94T235 82Q259 82 281 82T327 83Q350 83 377 79T427 61T465 24T481 -39Q481 -82 458 -119T398 -184T312 -228T214 -244Q166 -244 131 -233T72 -204T38 -165T27 -122Q27 -105 35 -93T58 -67Q76 -53 95 -42T134 -18Q102 -7 86 7T59 37Q51 49 47 64T44 91Q83 107 107 125T146 157Q101 172 75 207T48 290Q48 332 65 363T111 414T173 444T242 454Q273 454 297 448T349 427Q388 429 426 432T494 439L498 432ZM236 417Q213 417 195 389T176 306Q176 280 180 257T193 217T215 190T245 180Q274 180 289 209T305 294Q305 318 301 340T289 380T267 407T236 417ZM243 -21Q206 -21 188 -25T158 -42Q147 -53 141 -65T135 -93Q135 -111 144 -128T170 -159T210 -181T264 -189Q321 -189 353 -162T385 -95Q385 -68 369 -52T329 -30Q309 -25 290 -23T243 -21ZM339 484Q310 507 287 530T240 576Q217 554 194 531T142 484L115 506Q146 552 170 591T221 679H259Q272 655 285 634T311 592T337 550T367 506L339 484Z"  />
<glyph unicode="&#x11E;" horiz-adv-x="727" d="M703 276Q684 272 673 269T656 257T649 235T647 195V116Q647 89 648 66T653 22Q630 16 603 10T547 -2T486 -11T425 -15Q338 -15 268 8T148 75T71 180T44 317Q44 402 76 467T162 576T289 642T440 665Q470 665 499 662T554 654T600 645T635 637Q637 611 641 571T651 471L614 464Q595 548 543 585T420 623Q375 623 335 604T263 547T214 456T196 335Q196 278 210 223T253 125T327 54T434 27Q449 27 464 29T490 39Q501 46 507 58T513 94V189Q513 215 511 230T498 255T465 268T403 276V310H703V276ZM528 839Q528 800 519 774T492 732T452 709T401 702Q373 702 350 709T310 732T284 774T274 839H303Q311 807 336 791T401 774Q440 774 465 789T498 839H528Z"  />
<glyph unicode="&#x11F;" horiz-adv-x="492" d="M498 432Q496 426 492 417T481 399T469 383T455 371L398 375Q410 361 417 343T425 299Q425 260 409 231T367 182T306 153T234 143Q220 143 208 144T185 148Q179 142 175 135T171 120Q171 107 185 94T235 82Q259 82 281 82T327 83Q350 83 377 79T427 61T465 24T481 -39Q481 -82 458 -119T398 -184T312 -228T214 -244Q166 -244 131 -233T72 -204T38 -165T27 -122Q27 -105 35 -93T58 -67Q76 -53 95 -42T134 -18Q102 -7 86 7T59 37Q51 49 47 64T44 91Q83 107 107 125T146 157Q101 172 75 207T48 290Q48 332 65 363T111 414T173 444T242 454Q273 454 297 448T349 427Q388 429 426 432T494 439L498 432ZM236 417Q213 417 195 389T176 306Q176 280 180 257T193 217T215 190T245 180Q274 180 289 209T305 294Q305 318 301 340T289 380T267 407T236 417ZM243 -21Q206 -21 188 -25T158 -42Q147 -53 141 -65T135 -93Q135 -111 144 -128T170 -159T210 -181T264 -189Q321 -189 353 -162T385 -95Q385 -68 369 -52T329 -30Q309 -25 290 -23T243 -21ZM362 660Q362 615 352 586T326 538T287 513T239 506Q214 506 192 513T154 538T128 585T118 660H150Q158 623 181 603T240 582Q276 582 299 602T330 660H362Z"  />
<glyph unicode="&#x120;" horiz-adv-x="727" d="M703 276Q684 272 673 269T656 257T649 235T647 195V116Q647 89 648 66T653 22Q630 16 603 10T547 -2T486 -11T425 -15Q338 -15 268 8T148 75T71 180T44 317Q44 402 76 467T162 576T289 642T440 665Q470 665 499 662T554 654T600 645T635 637Q637 611 641 571T651 471L614 464Q595 548 543 585T420 623Q375 623 335 604T263 547T214 456T196 335Q196 278 210 223T253 125T327 54T434 27Q449 27 464 29T490 39Q501 46 507 58T513 94V189Q513 215 511 230T498 255T465 268T403 276V310H703V276ZM421 844Q452 844 472 824T493 773Q493 744 473 724T421 704Q393 704 372 724T351 773Q351 803 372 823T421 844Z"  />
<glyph unicode="&#x121;" horiz-adv-x="492" d="M498 432Q496 426 492 417T481 399T469 383T455 371L398 375Q410 361 417 343T425 299Q425 260 409 231T367 182T306 153T234 143Q220 143 208 144T185 148Q179 142 175 135T171 120Q171 107 185 94T235 82Q259 82 281 82T327 83Q350 83 377 79T427 61T465 24T481 -39Q481 -82 458 -119T398 -184T312 -228T214 -244Q166 -244 131 -233T72 -204T38 -165T27 -122Q27 -105 35 -93T58 -67Q76 -53 95 -42T134 -18Q102 -7 86 7T59 37Q51 49 47 64T44 91Q83 107 107 125T146 157Q101 172 75 207T48 290Q48 332 65 363T111 414T173 444T242 454Q273 454 297 448T349 427Q388 429 426 432T494 439L498 432ZM236 417Q213 417 195 389T176 306Q176 280 180 257T193 217T215 190T245 180Q274 180 289 209T305 294Q305 318 301 340T289 380T267 407T236 417ZM243 -21Q206 -21 188 -25T158 -42Q147 -53 141 -65T135 -93Q135 -111 144 -128T170 -159T210 -181T264 -189Q321 -189 353 -162T385 -95Q385 -68 369 -52T329 -30Q309 -25 290 -23T243 -21ZM235 517Q207 517 186 537T165 587Q165 617 186 637T236 657Q266 657 286 637T307 587Q307 558 287 538T235 517Z"  />
<glyph unicode="&#x122;" horiz-adv-x="727" d="M703 276Q684 272 673 269T656 257T649 235T647 195V116Q647 89 648 66T653 22Q630 16 603 10T547 -2T486 -11T425 -15Q338 -15 268 8T148 75T71 180T44 317Q44 402 76 467T162 576T289 642T440 665Q470 665 499 662T554 654T600 645T635 637Q637 611 641 571T651 471L614 464Q595 548 543 585T420 623Q375 623 335 604T263 547T214 456T196 335Q196 278 210 223T253 125T327 54T434 27Q449 27 464 29T490 39Q501 46 507 58T513 94V189Q513 215 511 230T498 255T465 268T403 276V310H703V276ZM397 -50Q431 -50 457 -75T484 -143Q484 -168 475 -187T449 -220T410 -245T362 -262L351 -236Q415 -205 415 -167Q415 -148 402 -136T365 -118Q360 -116 355 -110T350 -92Q350 -71 365 -61T397 -50Z"  />
<glyph unicode="&#x123;" horiz-adv-x="492" d="M498 432Q496 426 492 417T481 399T469 383T455 371L398 375Q410 361 417 343T425 299Q425 260 409 231T367 182T306 153T234 143Q220 143 208 144T185 148Q179 142 175 135T171 120Q171 107 185 94T235 82Q259 82 281 82T327 83Q350 83 377 79T427 61T465 24T481 -39Q481 -82 458 -119T398 -184T312 -228T214 -244Q166 -244 131 -233T72 -204T38 -165T27 -122Q27 -105 35 -93T58 -67Q76 -53 95 -42T134 -18Q102 -7 86 7T59 37Q51 49 47 64T44 91Q83 107 107 125T146 157Q101 172 75 207T48 290Q48 332 65 363T111 414T173 444T242 454Q273 454 297 448T349 427Q388 429 426 432T494 439L498 432ZM236 417Q213 417 195 389T176 306Q176 280 180 257T193 217T215 190T245 180Q274 180 289 209T305 294Q305 318 301 340T289 380T267 407T236 417ZM243 -21Q206 -21 188 -25T158 -42Q147 -53 141 -65T135 -93Q135 -111 144 -128T170 -159T210 -181T264 -189Q321 -189 353 -162T385 -95Q385 -68 369 -52T329 -30Q309 -25 290 -23T243 -21ZM249 505Q215 505 189 531T162 598Q162 623 172 642T198 676T237 701T284 717L295 691Q231 662 231 623Q231 604 244 592T281 574Q286 572 291 566T296 548Q296 527 281 516T249 505Z"  />
<glyph unicode="&#x124;" horiz-adv-x="783" d="M746 615Q717 612 700 609T675 595T664 567T662 517V132Q662 100 664 82T675 55T700 42T746 35V0H441V35Q471 38 488 41T514 55T525 83T528 133V319H255V133Q255 101 257 83T268 55T293 42T337 35V0H39V35Q66 38 82 41T107 54T118 82T121 133V517Q121 549 119 567T107 595T81 608T35 615V650H335V615Q308 612 292 609T268 595T258 567T255 517V370H528V517Q528 549 526 567T515 595T490 608T446 615V650H746V615ZM522 684Q487 698 455 714T390 745Q359 730 327 714T259 684L243 710Q277 737 312 770T376 833H406Q435 802 470 770T538 710L522 684Z"  />
<glyph unicode="&#x125;" horiz-adv-x="550" d="M296 0V32Q314 35 324 38T339 48T346 68T347 101V277Q347 335 326 357T275 380Q257 380 238 374T203 352V101Q203 80 204 68T210 49T224 38T249 32V0H12V32Q33 34 45 37T64 47T73 67T75 105V571Q75 594 74 606T67 625T50 633T19 638V667Q59 672 108 682T203 703V389Q229 415 264 434T336 454Q402 454 438 413T474 288V105Q474 81 475 68T483 48T500 38T532 32V0H296ZM262 714Q227 728 195 744T130 775Q98 760 66 744T-2 714L-17 740Q16 767 51 800T115 863H146Q175 832 210 800T278 740L262 714Z"  />
<glyph unicode="&#x126;" horiz-adv-x="783" d="M662 465V132Q662 100 664 82T675 54T700 41T746 34V0H441V34Q471 37 488 40T514 54T525 82T528 132V301H255V132Q255 100 257 82T268 54T293 41T337 34V0H39V34Q66 37 82 40T107 53T118 81T121 132V465H41V508H121V523Q121 554 119 571T107 598T81 610T35 615V650H335V615Q308 613 292 610T268 598T258 572T255 523V508H528V522Q528 554 526 571T515 598T490 610T446 615V650H746V615Q717 613 700 610T675 598T664 572T662 523V508H740V465H662ZM528 465H255V351H528V465Z"  />
<glyph unicode="&#x127;" horiz-adv-x="551" d="M297 0V32Q315 35 325 38T340 48T347 68T348 101V281Q348 310 342 329T326 359T302 376T275 381Q236 381 202 350V101Q202 79 203 67T210 47T224 38T250 32V0H13V32Q32 34 44 37T63 47T72 68T75 107V526H5V569H75V620Q75 638 70 644T42 656V683Q58 685 77 688T118 694T161 702T202 710V569H356V526H202V390Q228 416 264 435T339 454Q405 454 440 413T475 290V107Q475 83 477 69T486 48T503 38T533 32V0H297Z"  />
<glyph unicode="&#x128;" horiz-adv-x="378" d="M38 0V35Q66 38 82 41T107 55T118 83T121 133V516Q121 548 119 566T108 595T83 608T38 615V650H338V615Q310 612 294 609T269 595T258 567T255 516V133Q255 101 257 83T268 55T293 42T338 35V0H38ZM135 798Q150 798 163 794T199 780Q216 772 230 768T260 763Q277 763 288 775T309 805L339 790Q330 761 319 742T296 712T272 697T246 692Q230 692 212 698T176 713Q161 721 150 724T124 728Q96 728 73 684L44 704Q64 759 88 778T135 798Z"  />
<glyph unicode="&#x129;" horiz-adv-x="295" d="M30 0V33Q51 35 63 39T82 52T91 78T93 122V312Q93 334 92 347T86 369T69 381T37 388V418Q83 423 130 432T220 454V122Q220 94 221 78T229 52T248 40T284 33V0H30ZM2 531Q19 585 43 610T95 636Q109 636 122 631T157 615Q175 606 188 601T215 595Q232 595 244 609T265 641L293 627Q284 594 273 573T250 541T227 525T206 521Q189 521 173 527T139 543Q121 554 109 558T83 563Q69 563 56 552T31 512L2 531Z"  />
<glyph unicode="&#x12A;" horiz-adv-x="378" d="M38 0V35Q66 38 82 41T107 55T118 83T121 133V516Q121 548 119 566T108 595T83 608T38 615V650H338V615Q310 612 294 609T269 595T258 567T255 516V133Q255 101 257 83T268 55T293 42T338 35V0H38ZM66 711V779H312V711H66Z"  />
<glyph unicode="&#x12B;" horiz-adv-x="295" d="M30 0V33Q51 35 63 39T82 52T91 78T93 122V312Q93 334 92 347T86 369T69 381T37 388V418Q83 423 130 432T220 454V122Q220 94 221 78T229 52T248 40T284 33V0H30ZM19 541V614H268V541H19Z"  />
<glyph unicode="&#x12C;" horiz-adv-x="378" d="M38 0V35Q66 38 82 41T107 55T118 83T121 133V516Q121 548 119 566T108 595T83 608T38 615V650H338V615Q310 612 294 609T269 595T258 567T255 516V133Q255 101 257 83T268 55T293 42T338 35V0H38ZM316 828Q316 789 307 763T280 721T240 698T188 691Q132 691 97 721T61 828H91Q98 796 123 780T188 763Q228 763 253 778T286 828H316Z"  />
<glyph unicode="&#x12D;" horiz-adv-x="295" d="M30 0V33Q51 35 63 39T82 52T91 78T93 122V312Q93 334 92 347T86 369T69 381T37 388V418Q83 423 130 432T220 454V122Q220 94 221 78T229 52T248 40T284 33V0H30ZM267 660Q267 615 257 586T231 538T192 513T144 506Q119 506 97 513T59 538T33 585T23 660H55Q63 623 86 603T145 582Q181 582 204 602T235 660H267Z"  />
<glyph unicode="&#x12E;" horiz-adv-x="378" d="M213 0Q200 -20 191 -53T181 -116Q181 -143 197 -154T234 -166Q245 -166 256 -164T278 -157L287 -187L227 -220Q218 -225 206 -228T185 -232Q143 -232 121 -208T98 -151Q98 -129 106 -107T127 -65T152 -29T174 0H38V34Q66 37 82 40T107 54T118 82T121 132V517Q121 549 119 567T108 595T83 609T38 615V650H338V615Q310 613 294 609T269 596T258 568T255 517V132Q255 100 257 82T268 54T293 41T338 34V0H213Z"  />
<glyph unicode="&#x12F;" horiz-adv-x="296" d="M179 0Q166 -22 158 -52T150 -112Q150 -135 165 -149T201 -163Q211 -163 222 -160T244 -152L254 -183L201 -217Q193 -222 180 -226T159 -230Q111 -230 90 -206T69 -148Q69 -127 77 -106T96 -65T119 -29T140 0H27V32Q50 35 63 38T83 50T91 74T93 117V312Q93 334 92 347T84 369T67 381T35 389V418Q80 423 129 432T220 454V117Q220 90 222 75T231 50T251 38T288 32V0H179ZM148 517Q120 517 99 537T78 587Q78 617 99 637T149 657Q179 657 199 637T220 587Q220 558 200 538T148 517Z"  />
<glyph unicode="&#x130;" horiz-adv-x="378" d="M38 0V35Q66 38 82 41T107 55T118 83T121 133V516Q121 548 119 566T108 595T83 608T38 615V650H338V615Q310 612 294 609T269 595T258 567T255 516V133Q255 101 257 83T268 55T293 42T338 35V0H38ZM188 842Q219 842 239 822T260 771Q260 742 240 722T188 701Q160 701 139 721T118 771Q118 801 139 821T188 842Z"  />
<glyph unicode="&#x131;" horiz-adv-x="295" d="M30 0V33Q51 35 63 39T82 52T91 78T93 122V312Q93 334 92 347T86 369T69 381T37 388V418Q83 423 130 432T220 454V122Q220 94 221 78T229 52T248 40T284 33V0H30Z"  />
<glyph unicode="&#x132;" horiz-adv-x="744" d="M38 0V35Q66 38 82 41T107 55T118 83T121 133V516Q121 548 119 566T108 595T83 608T38 615V650H338V615Q310 612 294 609T269 595T258 567T255 516V133Q255 101 257 83T268 55T293 42T338 35V0H38ZM715 615Q689 612 674 609T650 595T640 567T637 516V186Q637 142 634 103T621 28T590 -40T534 -101Q504 -127 473 -141T413 -163L398 -126Q439 -109 461 -81T492 -5Q499 37 501 85T503 190V516Q503 548 500 566T488 595T462 608T417 615V650H715V615Z"  />
<glyph unicode="&#x133;" horiz-adv-x="583" d="M148 517Q120 517 99 537T78 587Q78 617 99 637T149 657Q179 657 199 637T220 587Q220 558 200 538T148 517ZM29 0V32Q51 35 63 38T82 49T91 72T93 114V312Q93 337 91 351T84 372T67 383T38 389V418Q83 423 130 432T220 454V114Q220 88 221 73T230 50T249 39T285 32V0H29ZM438 517Q409 517 389 537T368 587Q368 617 389 637T439 657Q468 657 488 637T509 587Q509 558 489 538T438 517ZM321 418Q366 423 414 433T510 454V129Q510 100 509 78T504 37T495 1T482 -33Q467 -69 447 -101T407 -160T369 -205T342 -229Q331 -237 324 -240T308 -244Q297 -244 283 -229T268 -189Q268 -177 274 -170T292 -162Q357 -161 366 -142Q376 -122 379 -71Q381 -26 382 21T383 117V305Q383 332 381 347T373 370T354 381T321 388V418Z"  />
<glyph unicode="&#x134;" horiz-adv-x="366" d="M338 615Q312 612 296 609T272 595T262 567T259 516V186Q259 142 256 103T243 28T212 -40T157 -101Q127 -127 96 -141T35 -163L20 -126Q61 -109 83 -81T114 -5Q121 37 123 85T125 190V516Q125 548 122 566T110 595T84 608T39 615V650H338V615ZM322 684Q287 698 255 714T190 745Q158 730 126 714T58 684L43 710Q76 737 111 770T175 833H206Q235 802 270 770T338 710L322 684Z"  />
<glyph unicode="&#x135;" horiz-adv-x="291" d="M31 418Q76 423 125 433T222 454V124Q222 95 221 73T216 32T207 -3T194 -37Q179 -73 159 -105T118 -164T81 -209T54 -234Q43 -242 35 -245T17 -248Q8 -248 -6 -234T-20 -197Q-20 -185 -14 -178T3 -170Q35 -170 54 -164T78 -149Q87 -133 90 -78Q92 -34 93 15T94 113V305Q94 331 93 346T85 370T66 382T31 389V418ZM246 484Q218 507 195 530T148 576Q125 554 102 531T49 484L22 506Q53 552 77 591T128 679H166Q179 655 192 634T218 592T244 550T274 506L246 484Z"  />
<glyph unicode="&#x136;" horiz-adv-x="703" d="M498 0Q482 22 459 54T410 123T356 200T301 279Q285 302 274 309T252 314V134Q252 102 254 84T266 55T292 42T338 35V0H39V35Q66 38 82 41T107 55T118 83T121 134V516Q121 548 119 566T107 595T82 608T37 615V650H331V615Q304 612 289 609T265 595T255 567T252 516V346Q268 351 286 363T328 399Q378 449 410 488T468 560Q486 584 482 595T443 612L425 615V650H685V615Q662 613 642 609T604 597T567 577T527 545Q482 504 449 468T381 396Q429 324 483 251T591 109Q622 71 645 56T699 35V0H498ZM371 -26Q405 -26 431 -51T458 -119Q458 -144 449 -163T423 -196T384 -221T336 -238L325 -212Q389 -181 389 -143Q389 -124 376 -112T339 -94Q334 -92 329 -86T324 -68Q324 -47 339 -37T371 -26Z"  />
<glyph unicode="&#x137;" horiz-adv-x="513" d="M360 -2Q349 12 334 34T301 84T265 140T230 196Q218 215 208 215Q205 215 201 214V108Q201 84 203 70T211 49T231 38T266 32V0H9V32Q31 35 44 38T64 48T73 69T75 108V570Q75 591 73 603T65 623T47 633T15 639V667Q50 672 100 680T201 703V244Q218 248 232 259T258 282Q275 301 291 326T316 369Q325 385 320 394T286 409V439L502 448V418Q454 410 426 399T377 366Q357 346 343 329T307 284Q317 267 336 240T377 182T419 125T452 83Q476 56 493 47T536 32V0L360 -2ZM266 -36Q300 -36 326 -62T353 -129Q353 -154 344 -173T318 -207T279 -232T231 -248L220 -222Q284 -191 284 -153Q284 -135 271 -123T234 -105Q229 -103 224 -97T219 -79Q219 -58 234 -47T266 -36Z"  />
<glyph unicode="&#x138;" horiz-adv-x="553" d="M365 0Q361 7 349 29T320 79T288 136T259 186Q248 204 239 208T220 212V114Q220 88 222 73T230 49T248 38T281 32V0H31V32Q52 33 64 36T83 47T91 72T93 115V317Q93 342 91 357T83 382T65 394T33 400V432Q83 436 129 441T220 455V243Q227 244 240 249T265 266Q295 293 313 315T348 360Q360 379 356 391T334 406L314 410V442H531V410Q491 406 466 396T414 363Q401 352 381 331T333 281Q373 218 407 168T470 81Q491 54 507 44T550 32V0H365Z"  />
<glyph unicode="&#x139;" horiz-adv-x="551" d="M548 169Q545 153 540 129T530 79T519 32T511 0H24V35Q57 38 76 41T105 55T118 83T121 133V516Q121 548 118 566T106 595T80 608T35 615V650H341V615Q312 612 295 609T269 595T258 567T255 516V126Q255 91 259 75T280 52Q293 47 312 45T355 43Q387 43 413 50T457 77Q471 93 485 117T513 180L548 169ZM359 743L153 683L138 711Q182 742 225 773T311 833Q318 830 326 822T342 802T355 778T362 755L359 743Z"  />
<glyph unicode="&#x13A;" horiz-adv-x="278" d="M10 0V32Q32 35 45 39T64 50T73 72T75 110V568Q75 590 74 603T66 623T48 632T15 638V667Q58 672 109 681T202 703V110Q202 85 204 71T212 49T232 38T269 32V0H10ZM275 779L69 719L55 747Q99 778 142 809T228 869Q235 866 243 857T259 837T272 813T279 791L275 779Z"  />
<glyph unicode="&#x13B;" horiz-adv-x="551" d="M548 169Q545 153 540 129T530 79T519 32T511 0H24V35Q57 38 76 41T105 55T118 83T121 133V516Q121 548 118 566T106 595T80 608T35 615V650H341V615Q312 612 295 609T269 595T258 567T255 516V126Q255 91 259 75T280 52Q293 47 312 45T355 43Q387 43 413 50T457 77Q471 93 485 117T513 180L548 169ZM303 -36Q337 -36 363 -62T390 -129Q390 -154 381 -173T355 -206T316 -231T268 -248L257 -222Q321 -191 321 -153Q321 -135 308 -123T271 -104Q266 -103 261 -97T255 -78Q255 -57 270 -47T303 -36Z"  />
<glyph unicode="&#x13C;" horiz-adv-x="278" d="M10 0V32Q32 35 45 39T64 50T73 72T75 110V568Q75 590 74 603T66 623T48 632T15 638V667Q58 672 109 681T202 703V110Q202 85 204 71T212 49T232 38T269 32V0H10ZM129 -34Q163 -34 189 -60T216 -127Q216 -152 207 -171T181 -204T142 -229T94 -246L83 -220Q147 -189 147 -151Q147 -133 134 -121T97 -102Q92 -101 87 -95T82 -76Q82 -55 97 -45T129 -34Z"  />
<glyph unicode="&#x13D;" horiz-adv-x="551" d="M548 169Q545 153 540 129T530 79T519 32T511 0H24V35Q57 38 76 41T105 55T118 83T121 133V516Q121 548 118 566T106 595T80 608T35 615V650H341V615Q312 612 295 609T269 595T258 567T255 516V126Q255 91 259 75T280 52Q293 47 312 45T355 43Q387 43 413 50T457 77Q471 93 485 117T513 180L548 169ZM421 653Q452 653 474 627T497 560Q497 511 466 482T390 441L379 467Q408 482 420 499T433 536Q433 554 422 566T393 584Q388 586 383 592T378 610Q378 630 392 641T421 653Z"  />
<glyph unicode="&#x13E;" horiz-adv-x="278" d="M10 0V32Q32 35 45 39T64 50T73 72T75 110V568Q75 590 74 603T66 623T48 632T15 638V667Q58 672 109 681T202 703V110Q202 85 204 71T212 49T232 38T269 32V0H10ZM288 710Q319 710 341 685T364 617Q364 568 333 540T257 498L247 524Q275 540 287 556T300 593Q300 611 289 623T260 642Q256 643 251 649T245 667Q245 688 259 699T288 710Z"  />
<glyph unicode="&#x13F;" horiz-adv-x="551" d="M548 169Q545 153 540 129T530 79T519 32T511 0H24V35Q57 38 76 41T105 55T118 83T121 133V516Q121 548 118 566T106 595T80 608T35 615V650H341V615Q312 612 295 609T269 595T258 567T255 516V126Q255 91 259 75T280 52Q293 47 312 45T355 43Q387 43 413 50T457 77Q471 93 485 117T513 180L548 169ZM396 428Q427 428 447 408T468 357Q468 328 448 308T396 287Q368 287 347 307T326 357Q326 387 347 407T396 428Z"  />
<glyph unicode="&#x140;" horiz-adv-x="335" d="M306 426Q335 426 354 407T373 358Q373 331 354 311T306 290Q280 290 261 310T242 358Q242 387 261 406T306 426ZM10 0V32Q32 35 45 39T64 50T73 72T75 110V568Q75 590 74 603T66 623T48 632T15 638V667Q58 672 109 681T202 703V110Q202 85 204 71T212 49T232 38T269 32V0H10Z"  />
<glyph unicode="&#x141;" horiz-adv-x="563" d="M560 169Q557 155 553 131T543 82T532 34T523 0H36V35Q69 38 88 42T117 56T130 86T133 138V264L33 197V249L133 316V512Q133 544 131 563T120 592T94 607T48 615V650H355L353 615Q324 612 307 608T281 593T270 563T267 512V400L400 489V435L267 347V130Q267 95 271 77T292 52Q304 47 324 46T369 44Q401 44 426 50T469 77Q495 108 522 179L560 169Z"  />
<glyph unicode="&#x142;" horiz-adv-x="302" d="M215 395V120Q215 93 217 77T226 52T246 40T283 33V0H19V33Q43 35 56 38T76 51T85 76T87 120V297L16 239V293L87 352V583Q87 598 86 608T77 624T57 635T22 645V673Q38 675 60 678T108 686T161 696T215 709V450L299 518V464L215 395Z"  />
<glyph unicode="&#x143;" horiz-adv-x="740" d="M724 615Q683 613 666 601T644 553Q642 530 639 492T635 387V-10H587L171 488H168V263Q168 197 171 161T176 101Q178 84 183 73T198 53T226 41T272 35V0H27V35Q69 38 88 52T110 98Q113 123 116 160T120 263V472Q120 496 120 512T117 541T110 561T99 579Q85 597 67 604T16 615V650H201L583 211H587V387Q587 453 584 491T579 551Q575 583 555 597T480 615V650H724V615ZM524 743L318 683L303 711Q347 742 390 773T476 833Q483 830 491 822T507 802T520 778T527 755L524 743Z"  />
<glyph unicode="&#x144;" horiz-adv-x="566" d="M316 0V32Q332 35 341 38T355 48T361 71T363 113V283Q363 337 342 357T294 377Q275 377 258 369T220 346V104Q220 81 221 68T228 47T242 38T267 32V0H26V32Q49 35 62 38T82 48T91 70T93 109V316Q93 338 92 351T85 371T68 382T39 389V418Q82 423 128 433T220 456V382Q235 393 250 404T282 426Q305 440 321 447T360 454Q421 454 456 412T491 294V105Q491 81 492 68T500 48T517 38T549 32V0H316ZM253 502Q258 518 265 543T280 593T293 638T302 667Q306 670 321 672T354 676T388 678T411 678L417 668L284 489L253 502Z"  />
<glyph unicode="&#x145;" horiz-adv-x="740" d="M724 615Q683 613 666 601T644 553Q642 530 639 492T635 387V-10H587L171 488H168V263Q168 197 171 161T176 101Q178 84 183 73T198 53T226 41T272 35V0H27V35Q69 38 88 52T110 98Q113 123 116 160T120 263V472Q120 496 120 512T117 541T110 561T99 579Q85 597 67 604T16 615V650H201L583 211H587V387Q587 453 584 491T579 551Q575 583 555 597T480 615V650H724V615ZM378 -16Q412 -16 438 -42T464 -109Q464 -159 429 -187T342 -228L332 -202Q396 -171 396 -133Q396 -115 382 -103T345 -85Q340 -83 335 -77T330 -59Q330 -38 345 -27T378 -16Z"  />
<glyph unicode="&#x146;" horiz-adv-x="566" d="M316 0V32Q332 35 341 38T355 48T361 71T363 113V283Q363 337 342 357T294 377Q275 377 258 369T220 346V104Q220 81 221 68T228 47T242 38T267 32V0H26V32Q49 35 62 38T82 48T91 70T93 109V316Q93 338 92 351T85 371T68 382T39 389V418Q82 423 128 433T220 456V382Q235 393 250 404T282 426Q305 440 321 447T360 454Q421 454 456 412T491 294V105Q491 81 492 68T500 48T517 38T549 32V0H316ZM287 -41Q321 -41 347 -67T374 -134Q374 -159 365 -178T339 -212T300 -237T252 -253L241 -227Q305 -196 305 -158Q305 -140 292 -128T255 -110Q250 -108 245 -102T240 -84Q240 -63 255 -52T287 -41Z"  />
<glyph unicode="&#x147;" horiz-adv-x="740" d="M724 615Q683 613 666 601T644 553Q642 530 639 492T635 387V-10H587L171 488H168V263Q168 197 171 161T176 101Q178 84 183 73T198 53T226 41T272 35V0H27V35Q69 38 88 52T110 98Q113 123 116 160T120 263V472Q120 496 120 512T117 541T110 561T99 579Q85 597 67 604T16 615V650H201L583 211H587V387Q587 453 584 491T579 551Q575 583 555 597T480 615V650H724V615ZM524 789Q491 763 456 730T392 666H361Q332 698 297 730T229 789L245 815Q280 801 312 787T377 756Q409 772 441 786T509 815L524 789Z"  />
<glyph unicode="&#x148;" horiz-adv-x="566" d="M316 0V32Q332 35 341 38T355 48T361 71T363 113V283Q363 337 342 357T294 377Q275 377 258 369T220 346V104Q220 81 221 68T228 47T242 38T267 32V0H26V32Q49 35 62 38T82 48T91 70T93 109V316Q93 338 92 351T85 371T68 382T39 389V418Q82 423 128 433T220 456V382Q235 393 250 404T282 426Q305 440 321 447T360 454Q421 454 456 412T491 294V105Q491 81 492 68T500 48T517 38T549 32V0H316ZM407 667Q376 622 352 582T301 494H263Q237 542 212 582T156 667L183 689Q212 666 235 643T283 597Q306 619 329 642T380 689L407 667Z"  />
<glyph unicode="&#x149;" horiz-adv-x="566" d="M53 717Q72 717 91 710T127 690T152 656T162 608Q162 581 150 560T117 522T69 494T14 476L3 504Q79 537 79 585Q79 608 61 622T13 642Q10 643 5 650T0 671Q0 692 16 704T53 717ZM316 0V32Q332 35 341 38T355 48T361 71T363 113V283Q363 337 342 357T294 377Q275 377 258 369T220 346V104Q220 81 221 68T228 47T242 38T267 32V0H26V32Q49 35 62 38T82 48T91 70T93 109V316Q93 338 92 351T85 371T68 382T39 389V418Q82 423 128 433T220 456V382Q235 393 250 404T282 426Q305 440 321 447T360 454Q421 454 456 412T491 294V105Q491 81 492 68T500 48T517 38T549 32V0H316Z"  />
<glyph unicode="&#x14A;" horiz-adv-x="740" d="M724 616Q683 614 665 601T644 554Q641 531 638 492T635 386V30Q635 -32 626 -72T600 -142Q560 -207 506 -207Q482 -207 464 -191T446 -148Q446 -139 449 -131T461 -123Q472 -123 481 -127T508 -131Q529 -131 543 -121T567 -94T580 -55T585 -8L172 486H168V267Q168 201 170 163T175 101Q177 84 182 72T198 52T227 40T273 34V0H27V34Q69 37 88 51T111 97Q113 123 116 162T120 267V471Q120 495 120 512T117 541T110 562T99 580Q85 598 67 605T16 616V650H199L584 212H587V387Q587 453 585 492T580 553Q576 585 556 599T480 616V650H724V616Z"  />
<glyph unicode="&#x14B;" horiz-adv-x="558" d="M220 385Q235 395 248 404T279 424Q302 438 319 446T358 454Q419 454 454 414T490 297V144Q490 82 483 37T454 -56Q437 -91 418 -116T381 -158Q360 -179 339 -193T297 -207Q280 -207 265 -191T250 -146Q250 -138 254 -132T265 -125Q270 -125 278 -127T294 -133T311 -139T326 -142Q335 -142 343 -138T355 -118Q358 -107 359 -95T362 -64T363 -19T363 49V281Q363 335 342 356T295 377Q275 377 258 369T220 345V107Q220 84 221 70T229 49T248 38T282 32V0H27V32Q50 35 63 38T83 49T91 71T93 110V318Q93 339 92 351T85 371T69 383T39 391V419Q82 425 128 435T220 456V385Z"  />
<glyph unicode="&#x14C;" horiz-adv-x="766" d="M393 665Q461 665 521 641T627 573T698 468T724 332Q724 251 697 187T623 78T514 9T381 -15Q306 -15 244 11T137 82T67 190T42 324Q42 388 64 449T131 559T241 636T393 665ZM375 623Q337 623 304 604T247 548T209 460T195 343Q195 279 209 222T249 121T313 53T399 27Q435 27 466 44T520 96T557 183T571 304Q571 379 557 438T516 538T454 601T375 623ZM259 713V780H504V713H259Z"  />
<glyph unicode="&#x14D;" horiz-adv-x="525" d="M268 454Q320 454 362 436T434 387T480 315T496 229Q496 169 476 124T424 48T350 3T264 -12Q205 -12 161 7T88 58T45 130T30 211Q30 271 51 316T107 392T184 438T268 454ZM255 415Q223 415 198 374T173 247Q173 201 180 161T200 91T232 44T275 27Q289 27 303 33T328 57T346 110T353 199Q353 304 328 359T255 415ZM138 541V614H388V541H138Z"  />
<glyph unicode="&#x14E;" horiz-adv-x="766" d="M393 665Q461 665 521 641T627 573T698 468T724 332Q724 251 697 187T623 78T514 9T381 -15Q306 -15 244 11T137 82T67 190T42 324Q42 388 64 449T131 559T241 636T393 665ZM375 623Q337 623 304 604T247 548T209 460T195 343Q195 279 209 222T249 121T313 53T399 27Q435 27 466 44T520 96T557 183T571 304Q571 379 557 438T516 538T454 601T375 623ZM504 834Q504 795 495 769T468 727T428 704T377 697Q349 697 326 704T286 727T260 769T250 834H280Q287 802 312 786T377 769Q416 769 441 784T474 834H504Z"  />
<glyph unicode="&#x14F;" horiz-adv-x="525" d="M268 454Q320 454 362 436T434 387T480 315T496 229Q496 169 476 124T424 48T350 3T264 -12Q205 -12 161 7T88 58T45 130T30 211Q30 271 51 316T107 392T184 438T268 454ZM255 415Q223 415 198 374T173 247Q173 201 180 161T200 91T232 44T275 27Q289 27 303 33T328 57T346 110T353 199Q353 304 328 359T255 415ZM379 660Q379 615 369 586T343 538T304 513T256 506Q231 506 209 513T171 538T145 585T135 660H167Q175 623 198 603T257 582Q293 582 316 602T347 660H379Z"  />
<glyph unicode="&#x150;" horiz-adv-x="766" d="M393 665Q461 665 521 641T627 573T698 468T724 332Q724 251 697 187T623 78T514 9T381 -15Q306 -15 244 11T137 82T67 190T42 324Q42 388 64 449T131 559T241 636T393 665ZM375 623Q337 623 304 604T247 548T209 460T195 343Q195 279 209 222T249 121T313 53T399 27Q435 27 466 44T520 96T557 183T571 304Q571 379 557 438T516 538T454 601T375 623ZM471 688L439 699Q450 731 460 763T480 825Q490 827 504 827T534 824T560 819T576 812L577 804L471 688ZM313 688L281 699Q292 731 302 763T321 825Q331 827 346 827T375 824T402 819T418 812V804L313 688Z"  />
<glyph unicode="&#x151;" horiz-adv-x="525" d="M268 454Q320 454 362 436T434 387T480 315T496 229Q496 169 476 124T424 48T350 3T264 -12Q205 -12 161 7T88 58T45 130T30 211Q30 271 51 316T107 392T184 438T268 454ZM255 415Q223 415 198 374T173 247Q173 201 180 161T200 91T232 44T275 27Q289 27 303 33T328 57T346 110T353 199Q353 304 328 359T255 415ZM157 499Q161 518 167 544T178 595T187 640T193 667Q197 670 210 672T238 677T268 679T289 679L294 668L186 488L157 499ZM309 499Q314 521 320 548T331 599T339 642T345 667Q349 670 362 672T390 677T420 679T441 679L446 668L339 488L309 499Z"  />
<glyph unicode="&#x152;" horiz-adv-x="992" d="M982 171Q979 157 975 134T965 87T955 39T947 0H622Q591 0 568 -1T517 -5Q457 -11 415 -11Q318 -11 248 16T131 88T63 192T41 317Q41 392 68 455T147 563T270 635T433 661Q462 661 487 659T537 655Q559 653 581 652T626 650H921Q921 642 922 627T924 591T928 548T932 502L895 497Q887 524 877 546T853 581Q840 595 818 600T748 606H702Q689 606 681 605T669 601T664 590T663 571V359H733Q764 359 783 361T815 370T833 393T845 434H881V232H845Q839 259 833 274T815 297T784 306T733 308H663V146Q663 97 667 78T687 52Q701 46 722 45T775 43Q815 43 842 50T887 76Q903 92 917 116T947 179L982 171ZM531 557Q531 579 525 589T503 605Q473 618 427 618Q375 618 332 599T258 542T210 451T193 329Q193 270 208 216T252 121T326 56T428 31Q445 31 463 33T495 41Q515 49 523 61T531 100V557Z"  />
<glyph unicode="&#x153;" horiz-adv-x="770" d="M744 95Q722 62 698 41T649 8T605 -8T571 -12Q520 -12 480 8T412 64Q377 22 336 5T257 -12Q201 -12 158 7T86 59T42 131T27 213Q27 272 48 317T104 392T180 438T264 454Q365 454 425 371Q454 403 494 428T584 454Q620 454 650 441T703 405T739 353T752 292Q752 262 725 256Q719 254 695 252T635 248T557 243T476 239Q477 167 514 122T617 77Q672 77 726 119L744 95ZM563 412Q536 412 511 379T481 283Q515 284 545 284T607 287Q619 287 624 291T629 309Q629 328 625 346T611 379T590 403T563 412ZM255 414Q240 414 226 404T199 373T179 320T171 244Q171 201 177 163T197 95T230 47T275 29Q287 29 301 36T326 62T346 115T354 203Q356 309 328 361T255 414Z"  />
<glyph unicode="&#x154;" horiz-adv-x="659" d="M654 -9Q649 -9 641 -9T624 -8Q577 -6 545 0T489 19T450 48T419 89Q399 120 379 158T337 236Q325 259 310 269T271 280H252V134Q252 103 254 85T266 57T292 42T337 35V0H35V35Q63 38 80 42T106 56T118 85T121 134V518Q121 548 119 566T108 594T83 608T39 615V650H320Q386 650 427 642T498 612Q528 592 547 559T566 479Q566 446 556 421T529 375T489 341T441 316Q446 305 455 288T476 252T499 212T522 174Q549 132 566 107T599 66Q616 49 629 39T660 23L654 -9ZM278 319Q310 319 334 325T376 346Q402 367 413 397T424 465Q424 505 414 532T386 577T348 602T306 610Q271 610 261 600Q252 592 252 563V319H278ZM464 743L258 683L244 711Q288 742 331 773T417 833Q424 830 432 822T448 802T461 778T468 755L464 743Z"  />
<glyph unicode="&#x155;" horiz-adv-x="404" d="M223 349Q250 396 278 425T335 454Q365 454 383 436T402 392Q402 365 388 346T353 318Q334 311 322 322Q309 333 299 338T276 343Q262 343 248 332T220 291V105Q220 82 222 69T232 48T257 38T303 32V0H29V32Q49 34 61 37T81 47T90 68T93 105V323Q93 342 91 353T83 371T67 381T39 389V417Q84 423 128 432T220 455V349H223ZM184 502Q189 518 196 543T211 593T224 638T233 667Q237 670 252 672T285 676T319 678T342 678L348 668L215 489L184 502Z"  />
<glyph unicode="&#x156;" horiz-adv-x="659" d="M654 -9Q649 -9 641 -9T624 -8Q577 -6 545 0T489 19T450 48T419 89Q399 120 379 158T337 236Q325 259 310 269T271 280H252V134Q252 103 254 85T266 57T292 42T337 35V0H35V35Q63 38 80 42T106 56T118 85T121 134V518Q121 548 119 566T108 594T83 608T39 615V650H320Q386 650 427 642T498 612Q528 592 547 559T566 479Q566 446 556 421T529 375T489 341T441 316Q446 305 455 288T476 252T499 212T522 174Q549 132 566 107T599 66Q616 49 629 39T660 23L654 -9ZM278 319Q310 319 334 325T376 346Q402 367 413 397T424 465Q424 505 414 532T386 577T348 602T306 610Q271 610 261 600Q252 592 252 563V319H278ZM358 -27Q392 -27 418 -53T445 -120Q445 -145 436 -164T410 -198T371 -223T323 -239L312 -213Q376 -182 376 -144Q376 -126 363 -114T326 -96Q321 -94 316 -88T311 -70Q311 -49 326 -38T358 -27Z"  />
<glyph unicode="&#x157;" horiz-adv-x="404" d="M223 349Q250 396 278 425T335 454Q365 454 383 436T402 392Q402 365 388 346T353 318Q334 311 322 322Q309 333 299 338T276 343Q262 343 248 332T220 291V105Q220 82 222 69T232 48T257 38T303 32V0H29V32Q49 34 61 37T81 47T90 68T93 105V323Q93 342 91 353T83 371T67 381T39 389V417Q84 423 128 432T220 455V349H223ZM151 -41Q185 -41 211 -67T237 -134Q237 -184 202 -212T115 -253L105 -227Q169 -196 169 -158Q169 -140 155 -128T118 -110Q113 -108 108 -102T103 -84Q103 -63 118 -52T151 -41Z"  />
<glyph unicode="&#x158;" horiz-adv-x="659" d="M654 -9Q649 -9 641 -9T624 -8Q577 -6 545 0T489 19T450 48T419 89Q399 120 379 158T337 236Q325 259 310 269T271 280H252V134Q252 103 254 85T266 57T292 42T337 35V0H35V35Q63 38 80 42T106 56T118 85T121 134V518Q121 548 119 566T108 594T83 608T39 615V650H320Q386 650 427 642T498 612Q528 592 547 559T566 479Q566 446 556 421T529 375T489 341T441 316Q446 305 455 288T476 252T499 212T522 174Q549 132 566 107T599 66Q616 49 629 39T660 23L654 -9ZM278 319Q310 319 334 325T376 346Q402 367 413 397T424 465Q424 505 414 532T386 577T348 602T306 610Q271 610 261 600Q252 592 252 563V319H278ZM451 804Q418 778 383 745T319 681H289Q260 713 225 745T156 804L173 830Q208 816 240 802T304 771Q336 787 368 801T436 830L451 804Z"  />
<glyph unicode="&#x159;" horiz-adv-x="404" d="M223 349Q250 396 278 425T335 454Q365 454 383 436T402 392Q402 365 388 346T353 318Q334 311 322 322Q309 333 299 338T276 343Q262 343 248 332T220 291V105Q220 82 222 69T232 48T257 38T303 32V0H29V32Q49 34 61 37T81 47T90 68T93 105V323Q93 342 91 353T83 371T67 381T39 389V417Q84 423 128 432T220 455V349H223ZM338 667Q307 622 283 582T232 494H194Q168 542 143 582T87 667L114 689Q143 666 166 643T213 597Q236 619 259 642T311 689L338 667Z"  />
<glyph unicode="&#x15A;" horiz-adv-x="505" d="M408 487Q400 511 389 535T361 579T322 611T268 624Q226 624 199 596T171 525Q171 484 200 456T295 394Q334 375 367 355T423 309T459 255T472 188Q472 145 455 108T405 44T329 1T229 -15Q175 -15 128 -1Q107 5 93 10T67 21Q64 30 60 49T52 92T45 142T38 191L73 202Q80 178 95 148T132 90T183 45T248 26Q294 26 321 54T348 131Q348 175 317 206T229 267Q190 286 158 306T103 351T68 404T55 469Q55 510 71 546T116 608T188 650T284 665Q308 665 330 662T370 655T402 646T423 638Q426 610 431 576T442 495L408 487ZM407 752L202 692L187 720Q231 751 274 782T360 842Q367 839 375 830T391 810T404 786T411 764L407 752Z"  />
<glyph unicode="&#x15B;" horiz-adv-x="383" d="M308 313Q288 359 263 387T202 415Q182 415 167 400T151 361Q151 338 169 320T225 284Q255 271 280 257T323 226T350 187T360 136Q360 99 344 71T302 25T244 -3T181 -12Q161 -12 142 -9T106 -1T76 10T55 22Q53 28 50 43T45 77T41 117T39 156L69 159Q77 135 89 112T118 70T155 39T198 27Q223 27 238 42T253 81Q253 103 238 122T177 164Q160 173 138 185T97 214T64 256T50 312Q50 341 61 367T94 412T147 443T218 454Q253 454 275 449T314 436Q318 427 322 411T329 378T334 345T338 322L308 313ZM168 502Q173 518 180 543T195 593T208 638T217 667Q221 670 236 672T269 676T303 678T326 678L332 668L199 489L168 502Z"  />
<glyph unicode="&#x15C;" horiz-adv-x="505" d="M408 487Q400 511 389 535T361 579T322 611T268 624Q226 624 199 596T171 525Q171 484 200 456T295 394Q334 375 367 355T423 309T459 255T472 188Q472 145 455 108T405 44T329 1T229 -15Q175 -15 128 -1Q107 5 93 10T67 21Q64 30 60 49T52 92T45 142T38 191L73 202Q80 178 95 148T132 90T183 45T248 26Q294 26 321 54T348 131Q348 175 317 206T229 267Q190 286 158 306T103 351T68 404T55 469Q55 510 71 546T116 608T188 650T284 665Q308 665 330 662T370 655T402 646T423 638Q426 610 431 576T442 495L408 487ZM396 689Q361 703 329 719T264 750Q232 735 200 719T133 689L117 715Q151 742 185 775T249 838H280Q309 807 344 775T412 715L396 689Z"  />
<glyph unicode="&#x15D;" horiz-adv-x="383" d="M308 313Q288 359 263 387T202 415Q182 415 167 400T151 361Q151 338 169 320T225 284Q255 271 280 257T323 226T350 187T360 136Q360 99 344 71T302 25T244 -3T181 -12Q161 -12 142 -9T106 -1T76 10T55 22Q53 28 50 43T45 77T41 117T39 156L69 159Q77 135 89 112T118 70T155 39T198 27Q223 27 238 42T253 81Q253 103 238 122T177 164Q160 173 138 185T97 214T64 256T50 312Q50 341 61 367T94 412T147 443T218 454Q253 454 275 449T314 436Q318 427 322 411T329 378T334 345T338 322L308 313ZM294 484Q266 507 243 530T196 576Q173 554 150 531T97 484L70 506Q101 552 125 591T176 679H214Q227 655 240 634T266 592T292 550T322 506L294 484Z"  />
<glyph unicode="&#x15E;" horiz-adv-x="505" d="M411 487Q403 510 392 534T364 578T324 610T270 623Q225 623 199 594T173 526Q173 485 202 457T298 396Q337 378 369 358T424 312T460 257T473 190Q473 154 461 122T426 63T371 19T298 -6L277 -29Q269 -39 271 -47T287 -67Q307 -87 317 -103T327 -136Q327 -169 295 -194T202 -236L191 -210Q219 -197 235 -181T251 -153Q251 -136 228 -118Q208 -100 204 -84T220 -47L250 -13Q245 -15 241 -15T231 -15Q207 -15 178 -11T125 1Q103 8 90 13T66 22Q62 31 58 50T50 92T43 142T36 191L71 203Q78 180 93 150T131 92T184 45T251 26Q297 26 324 55T352 128Q352 177 319 209T230 271Q192 289 161 309T106 353T70 405T57 470Q57 511 72 546T117 608T189 650T284 665Q308 665 330 662T371 655T403 646T424 638Q427 610 431 576T443 494L411 487Z"  />
<glyph unicode="&#x15F;" horiz-adv-x="387" d="M311 312Q290 360 264 387T205 415Q183 415 168 400T152 360Q152 316 227 284Q258 271 283 257T326 226T353 186T363 135Q363 105 353 81T325 40T285 12T238 -4L217 -28Q209 -37 211 -45T226 -66Q248 -86 257 -101T266 -134Q266 -167 234 -194T145 -237L132 -208Q161 -195 177 -179T193 -150Q193 -141 187 -133T170 -116Q150 -98 147 -82T163 -45L193 -11Q188 -12 184 -12T176 -12Q158 -12 140 -9T104 0T74 11T52 23Q50 29 47 44T42 80T39 122T37 163L67 165Q75 141 88 117T119 72T156 39T200 26Q224 26 240 42T257 83Q257 105 241 123T179 164Q161 173 139 185T98 214T65 255T51 312Q51 341 62 367T95 412T148 443T220 454Q255 454 278 449T318 436Q322 427 326 411T333 378T338 345T342 322L311 312Z"  />
<glyph unicode="&#x160;" horiz-adv-x="505" d="M408 487Q400 511 389 535T361 579T322 611T268 624Q226 624 199 596T171 525Q171 484 200 456T295 394Q334 375 367 355T423 309T459 255T472 188Q472 145 455 108T405 44T329 1T229 -15Q175 -15 128 -1Q107 5 93 10T67 21Q64 30 60 49T52 92T45 142T38 191L73 202Q80 178 95 148T132 90T183 45T248 26Q294 26 321 54T348 131Q348 175 317 206T229 267Q190 286 158 306T103 351T68 404T55 469Q55 510 71 546T116 608T188 650T284 665Q308 665 330 662T370 655T402 646T423 638Q426 610 431 576T442 495L408 487ZM408 817Q375 791 340 758T276 694H246Q217 725 182 757T113 817L130 843Q165 829 197 815T261 784Q293 800 325 814T393 843L408 817Z"  />
<glyph unicode="&#x161;" horiz-adv-x="383" d="M308 313Q288 359 263 387T202 415Q182 415 167 400T151 361Q151 338 169 320T225 284Q255 271 280 257T323 226T350 187T360 136Q360 99 344 71T302 25T244 -3T181 -12Q161 -12 142 -9T106 -1T76 10T55 22Q53 28 50 43T45 77T41 117T39 156L69 159Q77 135 89 112T118 70T155 39T198 27Q223 27 238 42T253 81Q253 103 238 122T177 164Q160 173 138 185T97 214T64 256T50 312Q50 341 61 367T94 412T147 443T218 454Q253 454 275 449T314 436Q318 427 322 411T329 378T334 345T338 322L308 313ZM327 667Q295 622 271 582T221 494H183Q157 542 132 582T75 667L102 689Q131 666 154 643T202 597Q225 619 248 642T300 689L327 667Z"  />
<glyph unicode="&#x162;" horiz-adv-x="641" d="M605 675Q605 659 606 636T608 587T612 533T616 481L580 479Q562 556 536 582Q523 596 501 601T435 606H389V133Q389 101 392 83T405 55T434 42T487 35V0H365L340 -26Q331 -36 332 -44T348 -66Q369 -87 379 -103T389 -137Q389 -172 356 -198T260 -241L247 -215Q277 -201 293 -184T310 -153Q310 -144 304 -136T287 -119Q266 -99 263 -83T280 -45L318 0H161V35Q192 38 211 41T239 54T252 82T255 133V606H221Q190 606 171 604T139 599T119 590T106 579Q94 566 84 541T64 478H28Q31 533 34 585T40 675H64Q76 658 88 654T121 650H523Q543 650 555 655T581 675H605Z"  />
<glyph unicode="&#x163;" horiz-adv-x="339" d="M214 -25Q205 -35 206 -43T221 -65Q241 -85 250 -101T260 -134Q260 -167 228 -192T136 -235L123 -210Q152 -197 167 -181T183 -150Q183 -140 177 -132T161 -116Q141 -97 138 -81T155 -43L183 -11Q136 -5 111 24T85 114V394H22L17 406L45 442H85V515L198 593L212 587V442H310Q319 434 318 417T304 394H212V147Q212 118 218 101T232 74T251 63T269 60Q293 60 319 72L329 37L248 -1Q243 -3 240 -4T231 -7L214 -25Z"  />
<glyph unicode="&#x164;" horiz-adv-x="641" d="M580 479Q562 556 536 582Q523 596 501 601T435 606H389V133Q389 101 392 83T405 55T434 42T487 35V0H161V35Q192 38 211 41T239 54T252 82T255 133V606H221Q190 606 171 604T139 599T119 590T106 579Q94 566 84 541T64 478H28Q31 533 34 585T40 675H64Q76 658 88 654T121 650H523Q543 650 555 655T581 675H605Q605 659 606 636T608 587T612 533T616 481L580 479ZM468 804Q435 778 400 745T336 681H306Q277 713 242 745T173 804L190 830Q225 816 257 802T321 771Q353 787 385 801T453 830L468 804Z"  />
<glyph unicode="&#x165;" horiz-adv-x="339" d="M248 -1Q220 -12 207 -12Q149 -12 117 17T85 114V394H22L17 406L45 442H85V515L198 593L212 587V442H310Q319 434 318 417T304 394H212V147Q212 118 218 101T232 74T251 63T269 60Q293 60 319 72L329 37L248 -1ZM308 716Q339 716 361 690T384 623Q384 599 376 580T353 545T319 520T277 504L266 530Q295 545 307 561T320 598Q320 617 309 629T280 647Q275 649 270 655T265 673Q265 693 279 704T308 716Z"  />
<glyph unicode="&#x166;" horiz-adv-x="637" d="M577 483Q568 522 559 546T536 585Q523 598 497 602T426 607H387V354H528V309H387V133Q387 101 390 83T403 55T432 42T485 35V0H158V35Q189 38 208 41T236 54T249 82T252 133V309H111V354H252V607H224Q193 607 173 605T140 600T119 591T106 580Q94 566 84 543T63 483H28Q31 537 34 587T40 675H63Q74 658 86 654T120 650H520Q540 650 552 655T578 675H601Q601 659 602 637T604 589T608 537T612 486L577 483Z"  />
<glyph unicode="&#x167;" horiz-adv-x="336" d="M246 -1Q218 -12 205 -12Q147 -12 115 17T83 114V224H17V267H83V392H20L14 404L43 442H83V515L196 593L210 587V442H309Q313 438 314 431T316 416T312 402T303 392H210V267H306V224H210V149Q210 120 216 102T231 75T249 62T267 59Q293 59 318 70L327 37L246 -1Z"  />
<glyph unicode="&#x168;" horiz-adv-x="729" d="M724 615Q682 613 663 598T639 556Q635 533 633 502T630 417V308Q630 228 615 166T558 58Q523 22 475 4T373 -15Q323 -15 278 -4T196 37Q153 70 133 127T113 272V507Q113 542 111 562T99 593T74 608T29 615V650H330V615Q303 612 287 608T261 594T250 563T247 507V290Q247 177 287 115T409 53Q499 53 539 118T580 310V417Q580 471 577 502T570 556Q566 582 545 597T473 615V650H724V615ZM345 798Q360 798 373 794T409 780Q427 772 441 768T470 763Q487 763 499 775T519 805L549 790Q540 761 529 742T507 712T483 697T457 692Q441 692 423 698T387 713Q372 721 361 724T334 728Q307 728 284 684L254 704Q274 759 298 778T345 798Z"  />
<glyph unicode="&#x169;" horiz-adv-x="555" d="M542 24Q497 18 452 9T359 -12L351 -5V55Q337 44 328 36T301 18Q279 4 258 -4T214 -12Q151 -12 117 26T83 130V337Q83 355 82 365T75 382T58 393T28 402V431Q118 435 213 449Q210 386 210 298V153Q210 104 231 85T279 65Q299 65 316 70T351 93V336Q351 355 350 366T342 384T323 394T287 402V431Q334 433 381 437T478 449V124Q478 104 479 92T485 73T498 63T520 58L542 56V24ZM130 531Q147 585 171 610T223 636Q237 636 250 631T285 615Q303 606 316 601T343 595Q360 595 372 609T393 641L421 627Q412 594 401 573T378 541T355 525T334 521Q317 521 301 527T267 543Q249 554 237 558T211 563Q197 563 184 552T159 512L130 531Z"  />
<glyph unicode="&#x16A;" horiz-adv-x="729" d="M724 615Q682 613 663 598T639 556Q635 533 633 502T630 417V308Q630 228 615 166T558 58Q523 22 475 4T373 -15Q323 -15 278 -4T196 37Q153 70 133 127T113 272V507Q113 542 111 562T99 593T74 608T29 615V650H330V615Q303 612 287 608T261 594T250 563T247 507V290Q247 177 287 115T409 53Q499 53 539 118T580 310V417Q580 471 577 502T570 556Q566 582 545 597T473 615V650H724V615ZM261 713V780H507V713H261Z"  />
<glyph unicode="&#x16B;" horiz-adv-x="555" d="M542 24Q497 18 452 9T359 -12L351 -5V55Q337 44 328 36T301 18Q279 4 258 -4T214 -12Q151 -12 117 26T83 130V337Q83 355 82 365T75 382T58 393T28 402V431Q118 435 213 449Q210 386 210 298V153Q210 104 231 85T279 65Q299 65 316 70T351 93V336Q351 355 350 366T342 384T323 394T287 402V431Q334 433 381 437T478 449V124Q478 104 479 92T485 73T498 63T520 58L542 56V24ZM149 541V614H399V541H149Z"  />
<glyph unicode="&#x16C;" horiz-adv-x="729" d="M724 615Q682 613 663 598T639 556Q635 533 633 502T630 417V308Q630 228 615 166T558 58Q523 22 475 4T373 -15Q323 -15 278 -4T196 37Q153 70 133 127T113 272V507Q113 542 111 562T99 593T74 608T29 615V650H330V615Q303 612 287 608T261 594T250 563T247 507V290Q247 177 287 115T409 53Q499 53 539 118T580 310V417Q580 471 577 502T570 556Q566 582 545 597T473 615V650H724V615ZM526 823Q526 784 517 758T490 716T450 693T399 686Q371 686 348 693T308 716T282 758T272 823H301Q309 791 334 775T399 758Q438 758 463 773T496 823H526Z"  />
<glyph unicode="&#x16D;" horiz-adv-x="555" d="M542 24Q497 18 452 9T359 -12L351 -5V55Q337 44 328 36T301 18Q279 4 258 -4T214 -12Q151 -12 117 26T83 130V337Q83 355 82 365T75 382T58 393T28 402V431Q118 435 213 449Q210 386 210 298V153Q210 104 231 85T279 65Q299 65 316 70T351 93V336Q351 355 350 366T342 384T323 394T287 402V431Q334 433 381 437T478 449V124Q478 104 479 92T485 73T498 63T520 58L542 56V24ZM396 660Q396 615 386 586T360 538T321 513T273 506Q248 506 226 513T188 538T162 585T152 660H184Q192 623 215 603T274 582Q310 582 333 602T364 660H396Z"  />
<glyph unicode="&#x16E;" horiz-adv-x="729" d="M724 615Q682 613 663 598T639 556Q635 533 633 502T630 417V308Q630 228 615 166T558 58Q523 22 475 4T373 -15Q323 -15 278 -4T196 37Q153 70 133 127T113 272V507Q113 542 111 562T99 593T74 608T29 615V650H330V615Q303 612 287 608T261 594T250 563T247 507V290Q247 177 287 115T409 53Q499 53 539 118T580 310V417Q580 471 577 502T570 556Q566 582 545 597T473 615V650H724V615ZM393 854Q411 854 428 848T458 831T480 803T489 765Q489 744 481 727T459 698T428 680T393 673Q375 673 358 679T328 698T307 727T299 765Q299 786 307 802T328 830T358 848T393 854ZM394 816Q374 816 361 802T348 765Q348 742 361 727T394 712Q414 712 426 726T439 764Q439 787 427 801T394 816Z"  />
<glyph unicode="&#x16F;" horiz-adv-x="555" d="M542 24Q497 18 452 9T359 -12L351 -5V55Q337 44 328 36T301 18Q279 4 258 -4T214 -12Q151 -12 117 26T83 130V337Q83 355 82 365T75 382T58 393T28 402V431Q118 435 213 449Q210 386 210 298V153Q210 104 231 85T279 65Q299 65 316 70T351 93V336Q351 355 350 366T342 384T323 394T287 402V431Q334 433 381 437T478 449V124Q478 104 479 92T485 73T498 63T520 58L542 56V24ZM277 499Q259 499 242 505T212 524T190 553T182 591Q182 612 190 628T211 657T242 675T278 681Q296 681 313 675T343 657T365 629T373 591Q373 570 365 553T343 524T312 506T277 499ZM279 538Q299 538 310 552T322 591Q322 613 310 627T278 641Q258 641 245 628T232 591Q232 567 245 553T279 538Z"  />
<glyph unicode="&#x170;" horiz-adv-x="729" d="M724 615Q682 613 663 598T639 556Q635 533 633 502T630 417V308Q630 228 615 166T558 58Q523 22 475 4T373 -15Q323 -15 278 -4T196 37Q153 70 133 127T113 272V507Q113 542 111 562T99 593T74 608T29 615V650H330V615Q303 612 287 608T261 594T250 563T247 507V290Q247 177 287 115T409 53Q499 53 539 118T580 310V417Q580 471 577 502T570 556Q566 582 545 597T473 615V650H724V615ZM464 684L432 694Q443 726 453 758T473 821Q483 823 497 823T527 820T553 815T569 808L570 800L464 684ZM306 684L274 694Q285 726 295 758T314 821Q324 823 339 823T368 820T395 815T411 808V800L306 684Z"  />
<glyph unicode="&#x171;" horiz-adv-x="555" d="M542 24Q497 18 452 9T359 -12L351 -5V55Q337 44 328 36T301 18Q279 4 258 -4T214 -12Q151 -12 117 26T83 130V337Q83 355 82 365T75 382T58 393T28 402V431Q118 435 213 449Q210 386 210 298V153Q210 104 231 85T279 65Q299 65 316 70T351 93V336Q351 355 350 366T342 384T323 394T287 402V431Q334 433 381 437T478 449V124Q478 104 479 92T485 73T498 63T520 58L542 56V24ZM170 499Q174 518 180 544T191 595T200 640T206 667Q210 670 223 672T251 677T281 679T302 679L307 668L200 488L170 499ZM322 499Q327 521 333 548T344 599T352 642T358 667Q362 670 375 672T404 677T434 679T454 679L460 668L352 488L322 499Z"  />
<glyph unicode="&#x172;" horiz-adv-x="729" d="M724 615Q682 613 663 598T639 556Q635 533 633 502T630 417V308Q630 228 615 166T558 58Q530 29 500 16T442 -5Q381 -69 381 -122Q381 -147 397 -156T431 -166Q441 -166 453 -164T475 -157L483 -186L422 -222Q412 -228 399 -230T379 -232Q338 -232 318 -209T298 -157Q298 -117 326 -81T395 -12Q328 -17 280 -4T196 37Q153 70 133 127T113 272V507Q113 542 111 562T99 593T74 608T29 615V650H330V615Q303 612 287 608T261 594T250 563T247 507V291Q247 179 286 117T408 55Q498 55 539 120T580 312V417Q580 471 578 502T571 556Q566 582 545 597T472 615V650H724V615Z"  />
<glyph unicode="&#x173;" horiz-adv-x="555" d="M542 24Q522 22 503 19T464 11Q446 -3 432 -19T407 -54T390 -89T384 -120Q384 -145 399 -154T433 -164Q444 -164 456 -161T479 -153L487 -182L420 -219Q412 -224 401 -227T382 -231Q339 -231 319 -209T298 -155Q298 -134 308 -112T334 -69T368 -31T404 -2Q393 -4 382 -6T359 -12L351 -5V55Q337 44 328 36T301 18Q279 4 258 -4T214 -12Q151 -12 117 26T83 130V337Q83 355 82 365T75 382T58 393T28 402V431Q118 435 213 449Q210 386 210 298V153Q210 104 231 85T279 65Q299 65 316 70T351 93V336Q351 355 350 366T342 384T323 394T287 402V431Q334 433 381 437T478 449V124Q478 104 479 92T485 73T498 63T520 58L542 56V24Z"  />
<glyph unicode="&#x174;" horiz-adv-x="979" d="M969 615Q944 611 928 606T899 589T878 558T859 507Q842 459 799 330T693 -11H641Q600 101 560 209T478 433H476Q437 319 399 209T326 -11H273Q232 125 194 252T113 514Q104 543 96 561T76 590T50 606T13 615V650H309V615Q280 612 265 607T244 594T239 573T246 541Q271 453 296 367T348 197H350Q385 304 422 416T494 644H542Q584 529 626 416T710 193H712Q727 239 741 289T768 386T791 470T806 530Q811 552 812 567T806 592T781 607T734 615V650H969V615ZM649 676Q614 690 582 705T517 737Q485 721 453 706T385 676L370 702Q403 729 438 762T502 825H532Q561 794 596 762T665 702L649 676Z"  />
<glyph unicode="&#x175;" horiz-adv-x="683" d="M699 410Q681 407 670 404T651 393T637 373T623 342Q595 272 564 184T495 -11H457Q428 60 398 129T340 268Q311 198 285 130T229 -11H191Q161 82 130 172T71 347Q65 365 60 376T47 394T29 404T3 410V442H250V410Q229 407 217 403T198 394T192 380T197 358Q212 310 227 261T256 163H258Q284 229 309 297T362 437H401Q428 368 456 300T514 161H516Q522 179 530 204T546 257T562 310T572 351Q575 365 575 375T570 391T551 402T514 410V442H699V410ZM472 484Q443 507 420 530T373 576Q350 554 327 531T274 484L248 506Q279 552 303 592T354 679H391Q404 655 417 634T443 592T469 550T499 506L472 484Z"  />
<glyph unicode="&#x176;" horiz-adv-x="655" d="M646 615Q622 612 606 607T576 593T551 568T526 531Q512 509 500 489T475 447T447 397T414 335Q403 315 400 302T396 266V138Q396 104 398 85T411 56T440 41T493 34V0H168V34Q200 37 218 40T247 54T259 84T262 138V249Q262 268 259 278T249 303Q229 345 200 398T125 530Q111 555 100 570T77 594T51 607T16 615V650H302V615Q277 612 264 608T247 596T245 580T255 557Q281 505 310 451T369 340Q380 361 394 388T422 444T450 501T473 552Q479 567 481 577T478 595T457 606T414 615V650H646V615ZM479 684Q444 698 412 714T348 745Q316 730 284 714T216 684L200 710Q234 737 269 770T333 833H363Q392 802 427 770T496 710L479 684Z"  />
<glyph unicode="&#x177;" horiz-adv-x="465" d="M483 410Q465 407 454 403T433 392T417 371T400 338Q381 298 354 233T284 63Q259 2 242 -41T213 -117T194 -172T179 -217Q174 -234 165 -239T142 -244Q132 -244 120 -239T97 -226T79 -207T72 -181Q72 -169 78 -161T99 -142Q129 -126 148 -110T181 -71Q194 -46 200 -30Q204 -18 203 -7T196 17Q176 71 157 123T121 220T91 298T70 348Q63 364 57 375T43 392T23 403T-7 410V442H241V410Q209 404 201 396T201 364L276 142Q285 163 295 191T315 248T335 305T351 355Q359 380 350 391T303 410V442H483V410ZM351 484Q322 507 299 530T252 576Q229 554 206 531T154 484L127 506Q158 552 182 592T233 679H270Q297 631 322 592T379 506L351 484Z"  />
<glyph unicode="&#x178;" horiz-adv-x="655" d="M646 615Q622 612 606 607T576 593T551 568T526 531Q512 509 500 489T475 447T447 397T414 335Q403 315 400 302T396 266V138Q396 104 398 85T411 56T440 41T493 34V0H168V34Q200 37 218 40T247 54T259 84T262 138V249Q262 268 259 278T249 303Q229 345 200 398T125 530Q111 555 100 570T77 594T51 607T16 615V650H302V615Q277 612 264 608T247 596T245 580T255 557Q281 505 310 451T369 340Q380 361 394 388T422 444T450 501T473 552Q479 567 481 577T478 595T457 606T414 615V650H646V615ZM448 828Q477 828 496 809T516 761Q516 734 497 715T448 695Q421 695 401 714T381 761Q381 790 401 809T448 828ZM238 828Q267 828 286 809T306 761Q306 734 287 715T238 695Q211 695 191 714T171 761Q171 790 191 809T238 828Z"  />
<glyph unicode="&#x179;" horiz-adv-x="619" d="M607 185Q604 167 600 141T590 87T579 37T570 0H40L28 17Q125 163 220 311T410 605H284Q246 605 222 603T184 597T161 586T147 570Q137 556 127 533T108 475L74 476Q76 534 80 585T86 675H112Q123 657 134 654T169 650H576L584 635Q489 488 397 345T210 51Q222 49 234 48T260 47T292 46T334 45Q393 45 441 51T511 78Q529 95 543 120T573 193L607 185ZM498 743L292 683L278 711Q321 742 365 773T451 833Q458 830 466 822T482 802T495 778T502 755L498 743Z"  />
<glyph unicode="&#x17A;" horiz-adv-x="445" d="M439 138Q425 96 413 60T392 0H37L24 16Q55 65 83 112T138 206T193 301T250 399H197Q172 399 154 396T123 385T99 363T77 328L60 295L29 308Q40 345 51 387T70 464H92Q98 452 111 447T153 442H398L407 428Q349 330 297 238T187 44H251Q277 44 297 47T333 59T364 83T393 124L410 152L439 138ZM195 502Q200 518 207 543T222 593T235 638T244 667Q248 670 263 672T296 676T330 678T353 678L359 668L226 489L195 502Z"  />
<glyph unicode="&#x17B;" horiz-adv-x="619" d="M607 185Q604 167 600 141T590 87T579 37T570 0H40L28 17Q125 163 220 311T410 605H284Q246 605 222 603T184 597T161 586T147 570Q137 556 127 533T108 475L74 476Q76 534 80 585T86 675H112Q123 657 134 654T169 650H576L584 635Q489 488 397 345T210 51Q222 49 234 48T260 47T292 46T334 45Q393 45 441 51T511 78Q529 95 543 120T573 193L607 185ZM330 843Q361 843 381 823T402 773Q402 744 382 724T330 703Q302 703 281 723T260 773Q260 802 281 822T330 843Z"  />
<glyph unicode="&#x17C;" horiz-adv-x="445" d="M439 138Q425 96 413 60T392 0H37L24 16Q55 65 83 112T138 206T193 301T250 399H197Q172 399 154 396T123 385T99 363T77 328L60 295L29 308Q40 345 51 387T70 464H92Q98 452 111 447T153 442H398L407 428Q349 330 297 238T187 44H251Q277 44 297 47T333 59T364 83T393 124L410 152L439 138ZM233 517Q205 517 184 537T163 587Q163 617 184 637T234 657Q264 657 284 637T305 587Q305 558 285 538T233 517Z"  />
<glyph unicode="&#x17D;" horiz-adv-x="619" d="M607 185Q604 167 600 141T590 87T579 37T570 0H40L28 17Q125 163 220 311T410 605H284Q246 605 222 603T184 597T161 586T147 570Q137 556 127 533T108 475L74 476Q76 534 80 585T86 675H112Q123 657 134 654T169 650H576L584 635Q489 488 397 345T210 51Q222 49 234 48T260 47T292 46T334 45Q393 45 441 51T511 78Q529 95 543 120T573 193L607 185ZM474 804Q441 778 406 745T342 681H311Q282 713 247 745T179 804L195 830Q230 816 262 802T327 771Q359 787 391 801T459 830L474 804Z"  />
<glyph unicode="&#x17E;" horiz-adv-x="445" d="M439 138Q425 96 413 60T392 0H37L24 16Q55 65 83 112T138 206T193 301T250 399H197Q172 399 154 396T123 385T99 363T77 328L60 295L29 308Q40 345 51 387T70 464H92Q98 452 111 447T153 442H398L407 428Q349 330 297 238T187 44H251Q277 44 297 47T333 59T364 83T393 124L410 152L439 138ZM353 667Q321 622 297 582T247 494H209Q183 542 158 582T101 667L128 689Q157 666 180 643T228 597Q251 619 274 642T326 689L353 667Z"  />
<glyph unicode="&#x17F;" horiz-adv-x="296" d="M93 442V459Q93 477 96 493T105 527Q108 536 114 549T130 579T155 613T192 649Q244 694 307 703Q340 701 361 694T396 672Q407 662 408 650T404 627Q397 608 374 591Q355 576 340 590Q323 609 298 626T253 644Q226 644 219 605Q215 583 217 533T220 412V110Q220 86 222 72T230 50T249 39T281 32V0H33V32Q53 35 65 38T83 49T91 70T93 107V394H28L24 406L53 442H93Z"  />
<glyph unicode="&#x192;" horiz-adv-x="500" d="M170 413Q181 472 205 514T274 592Q324 632 360 642T413 652Q424 652 436 649T459 638T477 622T483 601Q483 592 479 582T467 564T453 550T439 544Q433 544 424 552T404 571T382 589T358 598Q341 598 332 572Q330 566 327 555T320 521T311 465T299 376H406V330H292L270 188Q258 113 241 64T202 -17T157 -69T109 -105Q83 -122 58 -130T14 -138Q-9 -138 -28 -125T-47 -92Q-47 -81 -42 -71T-29 -52T-12 -39T3 -34Q8 -34 16 -41T33 -56T54 -71T75 -78Q93 -78 99 -56Q104 -38 109 -5T122 85L156 330H68V376H163L170 413Z"  />
<glyph unicode="&#x1A0;" horiz-adv-x="766" d="M374 623Q336 623 304 604T247 548T209 460T195 343Q195 279 209 222T249 121T313 53T399 27Q435 27 466 44T520 96T557 183T571 304Q571 379 557 438T516 538T454 601T374 623ZM394 664Q452 664 502 647T593 601Q603 596 615 594T636 591Q665 591 676 603T688 627Q688 638 681 643T652 651Q645 653 634 661T623 686Q623 706 637 719T674 733Q703 733 723 713T744 651Q744 609 716 585T640 557Q679 515 701 458T724 332Q724 251 697 187T623 78T514 9T381 -15Q306 -15 244 11T137 82T67 190T42 324Q42 388 64 449T131 558T242 635T394 664Z"  />
<glyph unicode="&#x1A1;" horiz-adv-x="539" d="M254 415Q223 415 198 374T173 247Q173 201 180 161T200 91T232 44T275 27Q289 27 303 33T328 57T346 110T353 199Q353 304 328 359T254 415ZM269 454Q307 454 336 446T395 421Q404 416 414 414T433 412Q459 412 471 421T483 439Q483 450 477 454T453 463Q447 465 436 471T425 496Q425 515 439 527T476 540Q500 540 517 522T535 467Q535 429 509 407T439 380Q465 351 480 312T496 229Q496 169 476 124T424 48T350 3T264 -12Q205 -12 161 7T88 58T45 130T30 211Q30 271 51 316T107 392T184 438T269 454Z"  />
<glyph unicode="&#x1AF;" horiz-adv-x="729" d="M473 650H656Q686 650 703 659T721 682Q721 694 711 700T686 710Q677 712 667 719T657 745Q657 765 671 778T706 791Q735 791 754 771T773 710Q773 672 752 650T708 619Q672 607 657 594T638 553Q634 530 632 501T630 417V308Q630 228 615 166T558 58Q523 22 475 4T373 -15Q323 -15 278 -4T196 37Q153 70 133 127T113 272V507Q113 542 111 562T99 593T74 608T29 615V650H330V615Q303 612 287 608T261 594T250 563T247 507V290Q247 177 287 115T409 53Q499 53 539 118T580 310V417Q580 471 577 502T570 556Q566 582 545 597T473 615V650Z"  />
<glyph unicode="&#x1B0;" horiz-adv-x="569" d="M542 24Q497 18 452 9T359 -12L351 -5V55Q337 44 328 36T301 18Q279 4 258 -4T214 -12Q151 -12 117 26T83 130V337Q83 355 82 365T75 382T59 393T28 402V431Q118 435 213 449Q210 386 210 298V153Q210 104 231 85T279 65Q299 65 316 70T351 93V336Q351 354 350 365T343 383T324 394T287 402V431Q306 432 329 433T377 435T423 439T461 445Q486 450 500 457T514 480Q514 490 507 496T481 504Q474 506 464 513T453 538Q453 557 466 570T503 583Q527 583 546 565T565 508Q565 486 557 470T535 443T507 425T478 414V124Q478 104 479 92T485 73T498 63T520 58L542 56V24Z"  />
<glyph unicode="&#x1FA;" horiz-adv-x="706" d="M401 0V35Q445 42 453 54T449 100Q441 123 431 152T409 213H217Q209 190 200 163T181 106Q176 88 175 76T179 56T200 43T242 35V0H18L19 35Q44 38 59 42T86 58T108 87T130 138L335 652L386 665Q434 533 481 404T577 144Q590 111 600 91T621 60T648 43T687 35V0H401ZM316 482H313Q292 427 273 374T234 266H390L316 482ZM353 863Q371 863 388 857T418 840T440 812T448 774Q448 753 440 736T419 707T388 689T353 682Q335 682 318 688T288 707T266 736T258 774Q258 795 266 811T287 839T318 857T353 863ZM354 825Q334 825 321 811T307 774Q307 751 320 736T354 721Q374 721 386 735T398 773Q398 796 386 810T354 825ZM502 934L296 874L281 902Q325 933 368 964T454 1024Q461 1021 469 1013T485 993T498 969T505 946L502 934Z"  />
<glyph unicode="&#x1FB;" horiz-adv-x="466" d="M356 -12Q336 -12 321 -6T295 9Q284 18 279 27T269 46Q255 37 240 27T210 8T184 -6T165 -12Q133 -12 108 -1T66 29T39 70T30 116Q30 155 48 176T106 212Q128 220 152 228T199 245T238 262T265 278V308Q265 356 249 381T204 406Q184 406 171 388Q162 377 155 360T142 319Q137 299 127 292T100 285Q90 285 79 289T59 300T44 316T38 335Q38 349 47 359T73 383Q87 393 107 404T149 424T194 442T239 454Q298 454 337 425Q369 400 379 368T389 293V128Q389 93 399 81T421 69Q430 69 438 71T455 77L465 45L356 -12ZM265 239Q251 232 238 224T210 208Q187 196 175 181T163 140Q163 119 169 105T184 81T203 67T223 63Q234 63 243 66T265 79V239ZM233 499Q215 499 198 505T167 524T145 553T137 591Q137 612 145 628T166 657T197 675T234 681Q251 681 268 675T298 657T320 629T329 591Q329 570 321 553T299 524T268 506T233 499ZM234 538Q254 538 266 552T278 591Q278 613 266 627T233 641Q214 641 201 628T188 591Q188 567 201 553T234 538ZM205 720Q210 736 217 761T232 811T246 856T255 884Q259 887 274 890T307 894T341 896T364 896L369 885L237 707L205 720Z"  />
<glyph unicode="&#x1FC;" horiz-adv-x="882" d="M872 166Q869 152 865 129T855 81T844 34T835 0H334V35Q364 38 382 42T409 58T421 89T424 145V292H256Q239 257 227 232T206 188T190 151T174 116Q165 94 162 80T165 58T187 44T230 35V0H-14V35Q10 38 27 43T58 59T84 86T110 129Q137 178 163 227T217 330T274 440T336 562Q348 586 345 595T319 608L259 615V650H812Q812 643 813 628T815 592T818 548T822 503L787 498Q779 529 770 549T748 582Q736 595 713 600T647 606H595Q569 606 562 601T555 571V339H620Q653 339 673 341T705 350T723 373T733 413H770V212H733Q729 240 723 255T705 279T673 289T620 291L555 292V139Q555 97 559 79T580 52Q594 47 617 46T670 44Q708 44 735 51T779 76Q793 90 808 113T838 175L872 166ZM424 598Q413 598 402 594Q386 561 372 532T342 473T312 411T278 340H424V598ZM705 743L500 683L485 711Q529 742 572 773T658 833Q665 830 673 822T689 802T702 778T709 755L705 743Z"  />
<glyph unicode="&#x1FD;" horiz-adv-x="671" d="M649 94Q626 61 601 41T551 9T507 -7T473 -12Q416 -12 375 11T310 72L280 47Q266 36 251 25T221 6T191 -7T164 -12Q133 -12 109 -1T67 28T40 68T31 113Q31 152 49 175T106 213Q126 220 150 229T198 246T240 263T271 280V305Q271 352 250 378T206 405Q194 405 186 401T172 388Q164 378 158 361T145 321Q140 301 129 295T103 288Q94 288 83 292T63 302T47 317T41 335Q41 360 77 384Q109 405 152 425T241 454Q261 454 282 448T322 429Q333 421 343 411T357 391Q386 420 422 437T490 454Q526 454 556 440T608 404T642 352T655 292Q655 274 650 266T628 254Q622 253 597 251T537 247T462 243T383 239Q383 198 394 168T423 117T467 87T521 77Q546 77 574 87T630 119L649 94ZM468 412Q439 412 416 379T388 284Q420 285 450 285T509 287Q521 288 527 292T533 312Q533 330 529 348T516 380T495 403T468 412ZM225 67Q242 67 260 76T293 102Q279 136 275 173T270 242Q256 234 241 226T209 210Q187 197 175 182T163 140Q163 102 183 85T225 67ZM312 502Q317 518 324 543T339 593T352 638T361 667Q365 670 380 672T413 676T447 678T470 678L476 668L343 489L312 502Z"  />
<glyph unicode="&#x1FE;" horiz-adv-x="771" d="M602 597Q657 552 693 486T729 335Q729 256 702 192T628 81T517 10T379 -15Q333 -15 289 -4T207 30L150 -52L119 -26L172 51Q112 96 77 167T42 323Q42 383 63 443T129 553T239 634T394 665Q492 665 568 621L619 697L652 674L602 597ZM515 546Q488 587 452 605T378 623Q340 623 306 604T246 548T205 458T190 337Q190 284 202 232T237 141L515 546ZM261 102Q284 66 320 47T397 27Q435 27 468 44T526 97T565 186T580 311Q580 371 569 422T538 509L261 102ZM534 750L328 690L314 717Q357 748 401 779T487 839Q494 836 502 828T518 808T531 784T538 761L534 750Z"  />
<glyph unicode="&#x1FF;" horiz-adv-x="531" d="M410 408Q456 376 478 330T501 231Q501 170 481 125T428 49T352 3T264 -12Q234 -12 204 -6T147 15L111 -36L82 -13L117 37Q72 69 51 116T30 211Q30 270 52 315T108 391T186 438T271 454Q303 454 328 448T380 428L415 478L443 457L410 408ZM332 361Q318 388 299 400T257 413Q243 413 226 404T195 375T172 320T162 236Q162 210 167 180T180 127L332 361ZM198 87Q227 28 274 28Q290 28 306 35T337 61T360 117T369 210Q369 239 366 267T352 323L198 87ZM227 502Q232 518 239 543T254 593T267 638T276 667Q280 670 295 672T328 676T362 678T385 678L391 668L258 489L227 502Z"  />
<glyph unicode="&#x218;" horiz-adv-x="505" d="M408 487Q400 511 389 535T361 579T322 611T268 624Q226 624 199 596T171 525Q171 484 200 456T295 394Q334 375 367 355T423 309T459 255T472 188Q472 145 455 108T405 44T329 1T229 -15Q175 -15 128 -1Q107 5 93 10T67 21Q64 30 60 49T52 92T45 142T38 191L73 202Q80 178 95 148T132 90T183 45T248 26Q294 26 321 54T348 131Q348 175 317 206T229 267Q190 286 158 306T103 351T68 404T55 469Q55 510 71 546T116 608T188 650T284 665Q308 665 330 662T370 655T402 646T423 638Q426 610 431 576T442 495L408 487ZM246 -54Q280 -54 306 -79T333 -147Q333 -172 324 -191T298 -224T259 -249T211 -266L200 -240Q264 -209 264 -171Q264 -152 251 -140T214 -122Q209 -120 204 -114T198 -96Q198 -75 213 -65T246 -54Z"  />
<glyph unicode="&#x219;" horiz-adv-x="383" d="M308 313Q288 359 263 387T202 415Q182 415 167 400T151 361Q151 338 169 320T225 284Q255 271 280 257T323 226T350 187T360 136Q360 99 344 71T302 25T244 -3T181 -12Q161 -12 142 -9T106 -1T76 10T55 22Q53 28 50 43T45 77T41 117T39 156L69 159Q77 135 89 112T118 70T155 39T198 27Q223 27 238 42T253 81Q253 103 238 122T177 164Q160 173 138 185T97 214T64 256T50 312Q50 341 61 367T94 412T147 443T218 454Q253 454 275 449T314 436Q318 427 322 411T329 378T334 345T338 322L308 313ZM186 -47Q220 -47 246 -72T272 -140Q272 -190 237 -218T150 -259L140 -232Q204 -202 204 -164Q204 -145 190 -133T153 -115Q148 -113 143 -107T138 -89Q138 -68 153 -58T186 -47Z"  />
<glyph unicode="&#x21A;" horiz-adv-x="641" d="M580 479Q562 556 536 582Q523 596 501 601T435 606H389V133Q389 101 392 83T405 55T434 42T487 35V0H161V35Q192 38 211 41T239 54T252 82T255 133V606H221Q190 606 171 604T139 599T119 590T106 579Q94 566 84 541T64 478H28Q31 533 34 585T40 675H64Q76 658 88 654T121 650H523Q543 650 555 655T581 675H605Q605 659 606 636T608 587T612 533T616 481L580 479ZM310 -36Q344 -36 370 -61T397 -129Q397 -154 388 -173T361 -206T322 -231T274 -248L264 -222Q328 -191 328 -153Q328 -134 314 -122T277 -104Q272 -102 267 -96T262 -78Q262 -57 277 -47T310 -36Z"  />
<glyph unicode="&#x21B;" horiz-adv-x="339" d="M248 -1Q220 -12 207 -12Q149 -12 117 17T85 114V394H22L17 406L45 442H85V515L198 593L212 587V442H310Q319 434 318 417T304 394H212V147Q212 118 218 101T232 74T251 63T269 60Q293 60 319 72L329 37L248 -1ZM177 -48Q211 -48 237 -74T263 -141Q263 -166 254 -185T228 -219T189 -244T141 -260L131 -234Q195 -203 195 -165Q195 -147 181 -135T144 -117Q139 -115 134 -109T129 -91Q129 -70 144 -59T177 -48Z"  />
<glyph unicode="&#x21C;" horiz-adv-x="542" d="M110 299Q162 319 200 339T264 382T302 433T314 497Q314 555 286 586T218 618Q171 618 139 579T81 469L43 476Q51 521 57 557T67 624Q91 630 113 637T159 650T208 660T263 664Q304 664 339 655T401 627T442 583T457 525Q457 499 447 476T418 432T377 395T327 363V361Q364 354 396 339T453 301T490 246T504 175Q504 118 475 68T394 -22T268 -89T106 -126L34 -73L45 -48Q65 -53 91 -59T153 -65Q195 -65 232 -53T296 -16T340 44T356 127Q356 169 343 198T310 246T267 273T222 282Q201 282 179 276T124 259L110 299Z"  />
<glyph unicode="&#x21D;" horiz-adv-x="406" d="M58 138Q101 155 129 172T175 209T200 247T208 289Q208 333 187 353T135 373Q111 373 88 360T34 321L10 347Q49 396 92 425T190 454Q219 454 245 446T292 422T324 381T336 324Q336 296 322 273T281 230Q274 224 263 217T242 204V201Q270 194 294 181T338 148T368 102T379 45Q379 -6 354 -51T285 -132T182 -191T56 -224L-2 -182L8 -159Q23 -163 40 -166T78 -169Q114 -169 144 -158T195 -126T229 -73T242 1Q242 34 233 57T210 93T178 113T146 119Q131 119 114 116T70 105L58 138Z"  />
<glyph unicode="&#x232;" horiz-adv-x="655" d="M646 615Q622 612 606 607T576 593T551 568T526 531Q512 509 500 489T475 447T447 397T414 335Q403 315 400 302T396 266V138Q396 104 398 85T411 56T440 41T493 34V0H168V34Q200 37 218 40T247 54T259 84T262 138V249Q262 268 259 278T249 303Q229 345 200 398T125 530Q111 555 100 570T77 594T51 607T16 615V650H302V615Q277 612 264 608T247 596T245 580T255 557Q281 505 310 451T369 340Q380 361 394 388T422 444T450 501T473 552Q479 567 481 577T478 595T457 606T414 615V650H646V615ZM231 713V780H476V713H231Z"  />
<glyph unicode="&#x233;" horiz-adv-x="465" d="M483 410Q465 407 454 403T433 392T417 371T400 338Q381 298 354 233T284 63Q259 2 242 -41T213 -117T194 -172T179 -217Q174 -234 165 -239T142 -244Q132 -244 120 -239T97 -226T79 -207T72 -181Q72 -169 78 -161T99 -142Q129 -126 148 -110T181 -71Q194 -46 200 -30Q204 -18 203 -7T196 17Q176 71 157 123T121 220T91 298T70 348Q63 364 57 375T43 392T23 403T-7 410V442H241V410Q209 404 201 396T201 364L276 142Q285 163 295 191T315 248T335 305T351 355Q359 380 350 391T303 410V442H483V410ZM131 541V614H381V541H131Z"  />
<glyph unicode="&#x237;" horiz-adv-x="288" d="M31 418Q77 423 124 433T220 454V129Q220 100 219 78T214 37T205 1T192 -33Q177 -69 157 -101T117 -160T80 -205T53 -229Q42 -237 35 -240T18 -244Q7 -244 -7 -229T-22 -189Q-22 -177 -16 -170T2 -162Q66 -161 77 -142Q86 -124 89 -71Q91 -26 92 21T93 117V305Q93 332 91 347T83 370T64 381T31 388V418Z"  />
<glyph unicode="&#x2C6;" horiz-adv-x="400" d="M298 484Q269 507 246 530T199 576Q176 554 153 531T101 484L74 506Q105 552 129 592T180 679H217Q244 631 269 592T326 506L298 484Z"  />
<glyph unicode="&#x2C7;" horiz-adv-x="400" d="M326 667Q294 622 270 582T220 494H182Q156 542 131 582T74 667L101 689Q130 666 153 643T201 597Q224 619 247 642T299 689L326 667Z"  />
<glyph unicode="&#x2C9;" horiz-adv-x="400" d="M75 541V614H325V541H75Z"  />
<glyph unicode="&#x2D8;" horiz-adv-x="400" d="M322 660Q322 615 312 586T286 538T247 513T199 506Q174 506 152 513T114 538T88 585T78 660H110Q118 623 141 603T200 582Q236 582 259 602T290 660H322Z"  />
<glyph unicode="&#x2D9;" horiz-adv-x="400" d="M199 517Q171 517 150 537T129 587Q129 617 150 637T200 657Q230 657 250 637T271 587Q271 558 251 538T199 517Z"  />
<glyph unicode="&#x2DA;" horiz-adv-x="400" d="M200 499Q182 499 165 505T134 524T112 553T104 591Q104 612 112 628T133 657T164 675T201 681Q219 681 236 675T266 657T288 629T296 591Q296 570 288 553T266 524T235 506T200 499ZM202 538Q222 538 233 552T245 591Q245 613 233 627T201 641Q181 641 168 628T155 591Q155 567 168 553T202 538Z"  />
<glyph unicode="&#x2DB;" horiz-adv-x="400" d="M236 -216Q227 -222 217 -224T198 -227Q157 -227 136 -203T114 -150Q114 -129 123 -108T144 -66T170 -29T193 0H231Q225 -10 218 -24T205 -55T195 -87T191 -118Q191 -144 205 -155T238 -167Q256 -167 278 -157L286 -186L236 -216Z"  />
<glyph unicode="&#x2DC;" horiz-adv-x="400" d="M52 531Q69 585 93 610T145 636Q159 636 172 631T207 615Q225 606 238 601T265 595Q282 595 294 609T315 641L343 627Q334 594 323 573T300 541T277 525T256 521Q239 521 223 527T189 543Q171 554 159 558T133 563Q119 563 106 552T81 512L52 531Z"  />
<glyph unicode="&#x2DD;" horiz-adv-x="400" d="M98 499Q102 518 108 544T119 595T128 640T134 667Q138 670 151 672T180 677T210 679T230 679L235 668L128 488L98 499ZM251 499Q256 521 261 548T272 599T281 642T287 667Q291 670 304 672T332 677T362 679T383 679L388 668L281 488L251 499Z"  />
<glyph unicode="&#x374;" horiz-adv-x="264" d="M248 626Q213 562 177 499T103 370L72 375Q78 406 85 443T100 518T113 590T123 650Q129 653 146 654T182 655T219 652T244 645L248 626Z"  />
<glyph unicode="&#x375;" horiz-adv-x="264" d="M212 121Q177 56 141 -7T67 -135L35 -130Q42 -99 49 -62T64 13T77 85T87 145Q93 148 110 149T146 150T183 147T208 140L212 121Z"  />
<glyph unicode="&#x37E;" horiz-adv-x="264" d="M138 249Q103 249 80 273T56 335Q56 372 79 395T138 419Q173 419 197 396T222 335Q222 297 198 273T138 249ZM20 -128Q27 -97 35 -59T50 16T64 88T75 145Q80 148 97 149T133 150T171 147T195 140L200 121Q165 57 128 -6T52 -135L20 -128Z"  />
<glyph unicode="&#x384;" horiz-adv-x="400" d="M215 497L183 496Q183 517 184 541T185 591T186 638T186 675Q189 678 202 681T230 687T261 691T282 690L290 678L215 497Z"  />
<glyph unicode="&#x385;" horiz-adv-x="400" d="M323 507Q297 507 281 522T265 564Q265 587 281 605T323 624Q347 624 362 606T378 565Q378 539 363 523T323 507ZM205 483H175Q173 504 172 529T169 578T166 625T163 664Q166 666 179 668T207 673T235 676T254 677L260 665L205 483ZM79 507Q54 507 38 522T22 564Q22 587 38 605T79 624Q103 624 119 606T135 564Q135 538 119 523T79 507Z"  />
<glyph unicode="&#x386;" horiz-adv-x="706" d="M401 0V35Q445 42 453 54T449 100Q441 123 431 152T409 213H217Q209 190 200 163T181 106Q176 88 175 76T179 56T200 43T242 35V0H18L19 35Q44 38 59 42T86 58T108 87T130 138L335 652L386 665Q434 533 481 404T577 144Q590 111 600 91T621 60T648 43T687 35V0H401ZM316 482H313Q292 427 273 374T234 266H390L316 482ZM150 527L117 526Q118 547 118 571T120 621T121 668T121 705Q124 708 137 711T165 717T196 721T217 720L225 708L150 527Z"  />
<glyph unicode="&#x387;" horiz-adv-x="264" d="M131 186Q96 186 73 209T49 271Q49 308 72 331T131 355Q167 355 191 332T215 271Q215 233 191 210T131 186Z"  />
<glyph unicode="&#x388;" horiz-adv-x="581" d="M571 166Q569 149 564 125T554 77T544 32T536 0H26V35Q58 38 77 41T105 54T118 82T121 133V517Q121 550 119 568T108 596T83 609T40 615V650H511Q511 643 512 628T514 592T517 547T521 500L485 495Q477 521 468 544T444 581Q431 595 409 600T344 606H296Q268 606 262 601T255 571V359H322Q353 359 372 361T403 370T421 393T433 434H469V232H433Q428 259 422 274T405 296T374 306T322 308H255V135Q255 100 259 81T279 53Q293 47 316 45T369 43Q407 43 434 49T480 75Q507 107 536 173L571 166ZM-64 527L-97 526Q-97 547 -96 571T-95 621T-94 668T-94 705Q-91 708 -78 711T-49 717T-18 721T3 720L10 708L-64 527Z"  />
<glyph unicode="&#x389;" horiz-adv-x="783" d="M746 615Q717 612 700 609T675 595T664 567T662 517V132Q662 100 664 82T675 55T700 42T746 35V0H441V35Q471 38 488 41T514 55T525 83T528 133V319H255V133Q255 101 257 83T268 55T293 42T337 35V0H39V35Q66 38 82 41T107 54T118 82T121 133V517Q121 549 119 567T107 595T81 608T35 615V650H335V615Q308 612 292 609T268 595T258 567T255 517V370H528V517Q528 549 526 567T515 595T490 608T446 615V650H746V615ZM-69 527L-101 526Q-101 547 -100 571T-99 621T-98 668T-98 705Q-95 708 -82 711T-53 717T-22 721T-1 720L6 708L-69 527Z"  />
<glyph unicode="&#x38A;" horiz-adv-x="378" d="M38 0V35Q66 38 82 41T107 55T118 83T121 133V516Q121 548 119 566T108 595T83 608T38 615V650H338V615Q310 612 294 609T269 595T258 567T255 516V133Q255 101 257 83T268 55T293 42T338 35V0H38ZM-67 527L-99 526Q-99 547 -98 571T-97 621T-96 668T-96 705Q-93 708 -80 711T-52 717T-21 721T0 720L8 708L-67 527Z"  />
<glyph unicode="&#x38C;" horiz-adv-x="766" d="M393 665Q461 665 521 641T627 573T698 468T724 332Q724 251 697 187T623 78T514 9T381 -15Q306 -15 244 11T137 82T67 190T42 324Q42 388 64 449T131 559T241 636T393 665ZM375 623Q337 623 304 604T247 548T209 460T195 343Q195 279 209 222T249 121T313 53T399 27Q435 27 466 44T520 96T557 183T571 304Q571 379 557 438T516 538T454 601T375 623ZM10 517L-23 516Q-23 537 -22 561T-21 611T-20 658T-20 695Q-17 698 -4 701T25 707T56 711T77 710L84 698L10 517Z"  />
<glyph unicode="&#x38E;" horiz-adv-x="666" d="M173 0V36Q204 38 222 41T250 53T263 79T266 129V197Q266 279 258 332T230 432Q194 520 143 556T34 593Q22 593 6 590L0 621Q12 628 30 636T68 650T108 661T148 665Q187 665 224 652T291 597Q312 568 325 532T344 457T354 379T359 307H367Q371 342 380 380T403 455T435 526T477 590Q512 632 547 648T607 665Q627 665 642 645T663 603L661 594H647Q631 594 611 588T569 568T525 531T481 474Q441 410 421 342T400 196V129Q400 97 402 80T414 53T442 41T491 36V0H173ZM-87 527L-120 526Q-120 547 -119 571T-118 621T-117 668T-117 705Q-114 708 -101 711T-72 717T-41 721T-20 720L-13 708L-87 527Z"  />
<glyph unicode="&#x38F;" horiz-adv-x="770" d="M711 0H456L447 14Q460 37 479 74T516 158T547 258T560 367Q560 489 517 556T388 623Q303 623 260 554T216 357Q216 304 228 254T257 160T293 79T327 15L320 0H60L44 164H75Q83 144 90 133T106 116T127 109T156 107H230Q210 122 182 145T129 200T86 272T68 363Q68 430 92 486T158 581T260 643T389 665Q459 665 517 643T618 582T683 488T707 367Q707 319 690 280T647 208T592 151T540 107H626Q641 107 652 108T671 115T686 132T702 164H733L711 0ZM15 517L-18 516Q-18 537 -17 561T-16 611T-15 658T-15 695Q-12 698 1 701T30 707T61 711T82 710L89 698L15 517Z"  />
<glyph unicode="&#x390;" horiz-adv-x="279" d="M280 43Q255 22 225 5T158 -12Q141 -12 125 -7T96 12T76 47T68 103V431L196 455V127Q196 91 207 78T233 64Q245 64 252 65T270 72L280 43ZM263 523Q237 523 221 538T205 580Q205 603 221 621T263 640Q287 640 302 622T318 581Q318 555 303 539T263 523ZM125 496L93 504Q101 553 107 597T117 677Q120 679 133 681T162 686T191 689T210 689L216 676L125 496ZM19 523Q-6 523 -22 538T-38 580Q-38 603 -22 621T19 640Q43 640 59 622T75 580Q75 554 59 539T19 523Z"  />
<glyph unicode="&#x391;" horiz-adv-x="706" d="M401 0V35Q445 42 453 54T449 100Q441 123 431 152T409 213H217Q209 190 200 163T181 106Q176 88 175 76T179 56T200 43T242 35V0H18L19 35Q44 38 59 42T86 58T108 87T130 138L335 652L386 665Q434 533 481 404T577 144Q590 111 600 91T621 60T648 43T687 35V0H401ZM316 482H313Q292 427 273 374T234 266H390L316 482Z"  />
<glyph unicode="&#x392;" horiz-adv-x="637" d="M401 349Q444 344 480 332T541 301T580 256T594 193Q594 142 569 104T500 43Q462 21 407 11T289 0H35V35Q64 38 81 41T107 55T118 83T121 134V516Q121 548 119 566T108 595T84 608T41 615V650H333Q391 650 430 642T498 615Q526 597 541 568T557 501Q557 465 543 440T506 397T456 369T401 353V349ZM276 363Q348 363 381 392T415 484Q415 518 406 541T381 580T347 601T307 608Q290 608 279 605T262 596Q253 587 253 553V363H276ZM253 136Q253 108 257 90T269 61T292 46T326 42Q347 42 368 50T406 76T434 119T445 182Q445 323 273 323H253V136Z"  />
<glyph unicode="&#x393;" horiz-adv-x="541" d="M482 488Q474 514 466 536T446 572Q433 591 411 598T347 606H295Q269 606 263 600T256 570V142Q256 106 258 86T270 56T298 42T348 35V0H38V35Q66 38 82 41T108 55T119 86T122 142V511Q122 545 120 564T108 594T83 608T38 615V650H507Q507 644 508 627T510 588T514 541T518 494L482 488Z"  />
<glyph unicode="&#x394;" horiz-adv-x="662" d="M39 0V29L310 655L350 665L622 29V0H39ZM290 487L119 58H462L290 487Z"  />
<glyph unicode="&#x395;" horiz-adv-x="581" d="M571 166Q569 149 564 125T554 77T544 32T536 0H26V35Q58 38 77 41T105 54T118 82T121 133V517Q121 550 119 568T108 596T83 609T40 615V650H511Q511 643 512 628T514 592T517 547T521 500L485 495Q477 521 468 544T444 581Q431 595 409 600T344 606H296Q268 606 262 601T255 571V359H322Q353 359 372 361T403 370T421 393T433 434H469V232H433Q428 259 422 274T405 296T374 306T322 308H255V135Q255 100 259 81T279 53Q293 47 316 45T369 43Q407 43 434 49T480 75Q507 107 536 173L571 166Z"  />
<glyph unicode="&#x396;" horiz-adv-x="619" d="M607 185Q604 167 600 141T590 87T579 37T570 0H40L28 17Q125 163 220 311T410 605H284Q246 605 222 603T184 597T161 586T147 570Q137 556 127 533T108 475L74 476Q76 534 80 585T86 675H112Q123 657 134 654T169 650H576L584 635Q489 488 397 345T210 51Q222 49 234 48T260 47T292 46T334 45Q393 45 441 51T511 78Q529 95 543 120T573 193L607 185Z"  />
<glyph unicode="&#x397;" horiz-adv-x="783" d="M746 615Q717 612 700 609T675 595T664 567T662 517V132Q662 100 664 82T675 55T700 42T746 35V0H441V35Q471 38 488 41T514 55T525 83T528 133V319H255V133Q255 101 257 83T268 55T293 42T337 35V0H39V35Q66 38 82 41T107 54T118 82T121 133V517Q121 549 119 567T107 595T81 608T35 615V650H335V615Q308 612 292 609T268 595T258 567T255 517V370H528V517Q528 549 526 567T515 595T490 608T446 615V650H746V615Z"  />
<glyph unicode="&#x398;" horiz-adv-x="760" d="M387 665Q456 665 516 641T621 572T692 467T718 333Q718 254 692 190T619 80T510 10T377 -15Q302 -15 241 11T135 82T66 188T42 320Q42 382 64 443T129 554T236 634T387 665ZM372 621Q333 621 301 602T245 546T208 459T195 342Q195 277 208 220T247 121T311 54T397 29Q433 29 464 45T517 95T552 180T565 302Q565 377 552 436T513 536T452 599T372 621ZM460 222Q457 243 454 255T446 274T431 283T407 285H352Q338 285 329 283T314 275T305 256T299 222H264V451H299Q302 430 305 418T313 399T328 391T353 389H408Q422 389 431 391T445 399T454 417T460 451H494V222H460Z"  />
<glyph unicode="&#x399;" horiz-adv-x="378" d="M38 0V35Q66 38 82 41T107 55T118 83T121 133V516Q121 548 119 566T108 595T83 608T38 615V650H338V615Q310 612 294 609T269 595T258 567T255 516V133Q255 101 257 83T268 55T293 42T338 35V0H38Z"  />
<glyph unicode="&#x39A;" horiz-adv-x="703" d="M498 0Q482 22 459 54T410 123T356 200T301 279Q285 302 274 309T252 314V134Q252 102 254 84T266 55T292 42T338 35V0H39V35Q66 38 82 41T107 55T118 83T121 134V516Q121 548 119 566T107 595T82 608T37 615V650H331V615Q304 612 289 609T265 595T255 567T252 516V346Q268 351 286 363T328 399Q378 449 410 488T468 560Q486 584 482 595T443 612L425 615V650H685V615Q662 613 642 609T604 597T567 577T527 545Q482 504 449 468T381 396Q429 324 483 251T591 109Q622 71 645 56T699 35V0H498Z"  />
<glyph unicode="&#x39B;" horiz-adv-x="699" d="M395 0V35Q442 42 450 56T445 106Q430 147 414 194T380 290T345 387T311 481H308Q273 382 241 294T179 111Q173 91 171 79T175 58T196 44T239 35V0H16L17 35Q40 38 55 43T83 60T105 92T129 145Q176 264 228 393T329 651L381 665Q429 533 475 406T571 149Q584 114 595 93T619 60T647 43T682 35V0H395Z"  />
<glyph unicode="&#x39C;" horiz-adv-x="888" d="M564 0V35Q592 38 608 42T632 57T642 87T644 142L642 527H637L416 7H388L184 517H180L168 256Q165 193 165 156T168 95Q169 78 174 68T189 51T216 41T258 35V0H18V35Q60 39 77 53T99 93Q104 117 109 160T120 282L136 479Q139 522 138 547T129 587T102 606T51 615V650H258L451 212L647 650H848V615Q818 612 801 608T776 594T767 566T766 516L775 142Q776 107 778 88T789 57T814 42T860 35V0H564Z"  />
<glyph unicode="&#x39D;" horiz-adv-x="740" d="M724 615Q683 613 666 601T644 553Q642 530 639 492T635 387V-10H587L171 488H168V263Q168 197 171 161T176 101Q178 84 183 73T198 53T226 41T272 35V0H27V35Q69 38 88 52T110 98Q113 123 116 160T120 263V472Q120 496 120 512T117 541T110 561T99 579Q85 597 67 604T16 615V650H201L583 211H587V387Q587 453 584 491T579 551Q575 583 555 597T480 615V650H724V615Z"  />
<glyph unicode="&#x39E;" horiz-adv-x="644" d="M536 469Q530 492 526 507T513 532T492 545T456 549H192Q169 549 156 545T135 532T122 508T110 469H77L84 650H562L570 469H536ZM464 225Q461 246 457 258T446 277T427 286T394 288H252Q231 288 219 286T199 277T188 257T180 223H147V451H180Q184 431 187 419T198 400T218 391T253 389H394Q414 389 426 391T446 399T457 418T464 451H498L499 225H464ZM583 0H64L51 199H85Q95 174 102 157T121 128T150 112T199 107H448Q478 107 496 112T525 128T544 157T562 199H595L583 0Z"  />
<glyph unicode="&#x39F;" horiz-adv-x="766" d="M393 665Q461 665 521 641T627 573T698 468T724 332Q724 251 697 187T623 78T514 9T381 -15Q306 -15 244 11T137 82T67 190T42 324Q42 388 64 449T131 559T241 636T393 665ZM375 623Q337 623 304 604T247 548T209 460T195 343Q195 279 209 222T249 121T313 53T399 27Q435 27 466 44T520 96T557 183T571 304Q571 379 557 438T516 538T454 601T375 623Z"  />
<glyph unicode="&#x3A0;" horiz-adv-x="761" d="M727 615Q697 612 680 609T653 595T642 567T640 516V133Q640 101 642 83T654 55T680 42T727 35V0H426V35Q453 38 469 41T493 55T503 83T506 133V572Q506 595 500 600T471 606H290Q267 606 261 600T255 570V133Q255 101 257 83T267 55T290 42T330 35V0H35V35Q64 38 81 41T107 55T118 83T121 133V516Q121 548 119 566T107 595T80 608T32 615V650H727V615Z"  />
<glyph unicode="&#x3A1;" horiz-adv-x="599" d="M318 650Q378 650 421 641T493 611Q528 587 547 550T567 464Q567 414 550 377T505 315T439 275T363 256Q352 254 341 254T321 254L253 270V133Q253 101 255 83T268 54T297 41T348 34V0H37V34Q65 37 81 40T107 54T118 82T121 133V516Q121 548 119 566T108 594T85 608T43 615V650H318ZM253 310Q262 306 276 303T307 300Q321 300 341 306T379 329T411 378T424 461Q424 503 413 532T385 578T345 603T299 611Q285 611 276 608T262 601Q253 592 253 570V310Z"  />
<glyph unicode="&#x3A3;" horiz-adv-x="612" d="M550 0H30V25L280 303L42 624V650H531Q531 644 532 628T534 589T538 539T542 485L507 480Q499 508 491 526T472 563Q459 586 438 596T371 606H223L400 366L173 108H425Q453 108 472 112T505 127T530 156T554 204L589 197L550 0Z"  />
<glyph unicode="&#x3A4;" horiz-adv-x="641" d="M580 479Q562 556 536 582Q523 596 501 601T435 606H389V133Q389 101 392 83T405 55T434 42T487 35V0H161V35Q192 38 211 41T239 54T252 82T255 133V606H221Q190 606 171 604T139 599T119 590T106 579Q94 566 84 541T64 478H28Q31 533 34 585T40 675H64Q76 658 88 654T121 650H523Q543 650 555 655T581 675H605Q605 659 606 636T608 587T612 533T616 481L580 479Z"  />
<glyph unicode="&#x3A5;" horiz-adv-x="666" d="M173 0V36Q204 38 222 41T250 53T263 79T266 129V197Q266 279 258 332T230 432Q194 520 143 556T34 593Q22 593 6 590L0 621Q12 628 30 636T68 650T108 661T148 665Q187 665 224 652T291 597Q312 568 325 532T344 457T354 379T359 307H367Q371 342 380 380T403 455T435 526T477 590Q512 632 547 648T607 665Q627 665 642 645T663 603L661 594H647Q631 594 611 588T569 568T525 531T481 474Q441 410 421 342T400 196V129Q400 97 402 80T414 53T442 41T491 36V0H173Z"  />
<glyph unicode="&#x3A6;" horiz-adv-x="787" d="M521 624Q500 622 488 620T469 612T460 598T458 574Q498 572 548 560T643 519T717 446T747 334Q747 267 717 221T643 146T549 104T458 89Q458 73 460 64T468 48T487 39T521 34V0H266V34Q288 36 300 39T319 48T327 63T329 89Q288 90 238 102T144 143T70 216T40 328Q40 394 70 440T144 515T239 558T329 574Q329 588 327 597T319 611T302 619T271 624V658H521V624ZM329 536Q307 533 281 521T231 486T192 427T176 336Q176 281 191 243T228 181T278 144T329 127V536ZM458 127Q481 131 508 142T558 176T596 237T612 332Q612 386 597 423T559 485T509 521T458 536V127Z"  />
<glyph unicode="&#x3A7;" horiz-adv-x="693" d="M378 0V35Q403 39 415 44T431 56T432 72T422 94Q418 100 412 111T393 143T362 195T316 273Q280 219 252 173T206 97Q188 65 198 54T259 35V0H8V35Q49 40 77 52T127 90Q140 107 159 132T200 186T245 247T290 312Q254 372 221 426T148 543Q137 561 126 573T101 594T69 607T25 615V650H327V615Q306 610 295 606T281 596T278 583T285 567Q298 543 321 505T375 416Q398 447 422 485T465 556Q472 569 474 578T472 594T454 605T417 615V650H658V615Q634 612 616 608T583 596T555 576T526 546Q500 516 469 474T401 381Q446 311 484 249T567 118Q582 94 595 79T622 55T655 42T699 35V0H378Z"  />
<glyph unicode="&#x3A8;" horiz-adv-x="788" d="M773 625Q741 612 730 589T712 523L700 455Q695 425 688 403T670 364T647 335T619 311Q587 288 549 277T459 263V131Q459 101 461 83T473 55T498 41T541 34V0H243V34Q270 37 286 41T310 55T322 83T325 131V263Q271 266 231 277T159 311Q143 323 130 336T107 366T90 405T78 460L69 523Q66 545 64 561T56 590T42 610T14 625L23 659Q76 655 112 645T171 608Q184 593 191 572T207 505L217 445Q223 407 230 382T249 341T279 317T325 305V518Q325 549 322 566T311 594T288 608T248 615V650H535V615Q510 612 495 608T472 594T462 567T459 518V305Q486 308 503 316T533 341T552 384T568 450L578 504Q582 526 586 542T595 571T607 592T622 610Q644 633 679 644T765 659L773 625Z"  />
<glyph unicode="&#x3A9;" horiz-adv-x="770" d="M711 0H456L447 14Q460 37 479 74T516 158T547 258T560 367Q560 489 517 556T388 623Q303 623 260 554T216 357Q216 304 228 254T257 160T293 79T327 15L320 0H60L44 164H75Q83 144 90 133T106 116T127 109T156 107H230Q210 122 182 145T129 200T86 272T68 363Q68 430 92 486T158 581T260 643T389 665Q459 665 517 643T618 582T683 488T707 367Q707 319 690 280T647 208T592 151T540 107H626Q641 107 652 108T671 115T686 132T702 164H733L711 0Z"  />
<glyph unicode="&#x3AA;" horiz-adv-x="378" d="M38 0V35Q66 38 82 41T107 55T118 83T121 133V516Q121 548 119 566T108 595T83 608T38 615V650H338V615Q310 612 294 609T269 595T258 567T255 516V133Q255 101 257 83T268 55T293 42T338 35V0H38ZM293 828Q322 828 341 809T361 761Q361 734 342 715T293 695Q266 695 246 714T226 761Q226 790 246 809T293 828ZM83 828Q112 828 131 809T151 761Q151 734 132 715T83 695Q56 695 36 714T16 761Q16 790 36 809T83 828Z"  />
<glyph unicode="&#x3AB;" horiz-adv-x="666" d="M173 0V36Q204 38 222 41T250 53T263 79T266 129V197Q266 279 258 332T230 432Q194 520 143 556T34 593Q22 593 6 590L0 621Q12 628 30 636T68 650T108 661T148 665Q187 665 224 652T291 597Q312 568 325 532T344 457T354 379T359 307H367Q371 342 380 380T403 455T435 526T477 590Q512 632 547 648T607 665Q627 665 642 645T663 603L661 594H647Q631 594 611 588T569 568T525 531T481 474Q441 410 421 342T400 196V129Q400 97 402 80T414 53T442 41T491 36V0H173ZM461 828Q490 828 510 809T530 761Q530 734 510 715T461 695Q435 695 415 714T395 761Q395 790 415 809T461 828ZM251 828Q280 828 300 809T320 761Q320 734 300 715T251 695Q225 695 205 714T184 761Q184 790 204 809T251 828Z"  />
<glyph unicode="&#x3AC;" horiz-adv-x="537" d="M541 67Q524 28 492 8T428 -12Q392 -12 366 13T329 93H327Q293 35 256 12T187 -12Q159 -12 131 4T81 48T44 113T30 194Q30 232 40 266T67 329T107 381T157 422Q183 439 206 448T249 458Q275 458 299 434T338 370H341Q343 380 345 391T352 410Q359 417 372 424T399 437T429 448T456 455L472 445Q467 432 462 406T451 346T442 274T438 200Q438 135 453 107T487 78Q497 78 507 82T525 92L541 67ZM221 398Q208 398 196 387T175 355T160 307T154 247Q154 208 162 177T183 123T211 88T240 76Q273 76 299 112T325 212V238Q325 275 316 304T291 355T258 387T221 398ZM266 497L233 496Q233 517 234 541T235 591T236 638T236 675Q239 678 252 681T281 687T312 691T333 690L341 678L266 497Z"  />
<glyph unicode="&#x3AD;" horiz-adv-x="427" d="M419 105Q403 79 384 58T341 21T286 -3T216 -12Q178 -12 145 -3T87 24T48 66T34 123Q34 149 44 167T72 197T111 217T158 232V234Q106 244 79 266T52 331Q52 360 67 383T109 421T171 445T247 454Q324 454 359 430T394 375Q394 356 377 342T341 328Q331 327 326 331T315 347Q304 374 290 394T246 414Q218 414 202 393T185 339Q185 309 202 291T254 273Q274 273 291 274T323 277L328 268L303 204Q290 206 276 207T247 208Q212 208 194 194T176 154Q176 114 203 91T271 68Q309 68 339 84T395 131L419 105ZM235 497L202 496Q203 517 203 541T205 591T206 638T206 675Q209 678 222 681T250 687T281 691T302 690L310 678L235 497Z"  />
<glyph unicode="&#x3AE;" horiz-adv-x="530" d="M459 -244Q448 -244 432 -241T397 -231T361 -217T332 -200Q334 -79 336 37T339 275Q339 327 321 351T270 376Q246 376 231 366T203 346V0Q171 -3 138 -6T72 -12Q74 24 75 56T76 120V308Q76 330 75 342T68 362T52 374T23 383V412Q29 415 49 421T93 435T143 447T186 454Q195 443 199 423T203 385Q212 393 222 400T250 419Q270 433 290 443T336 454Q396 454 429 412T462 282V162Q462 98 463 34T465 -85T466 -180T467 -235L459 -244ZM271 497L239 496Q239 517 240 541T241 591T242 638T242 675Q245 678 258 681T286 687T317 691T338 690L346 678L271 497Z"  />
<glyph unicode="&#x3AF;" horiz-adv-x="279" d="M280 43Q255 22 225 5T158 -12Q141 -12 125 -7T96 12T76 47T68 103V431L196 455V127Q196 91 207 78T233 64Q245 64 252 65T270 72L280 43ZM139 497L106 496Q107 517 107 541T109 591T110 638T110 675Q113 678 126 681T154 687T185 691T206 690L214 678L139 497Z"  />
<glyph unicode="&#x3B0;" horiz-adv-x="479" d="M287 436Q289 438 296 441T312 447T332 452T349 454Q364 454 381 444T413 411T438 354T448 274Q448 218 430 166T381 75T309 12T222 -12Q193 -12 167 -4T122 23T91 69T79 136Q79 177 79 221T80 307Q80 345 68 358T38 372Q22 372 10 368L1 399Q8 405 23 414T56 432T96 447T137 454Q167 454 187 430T207 343Q207 294 207 241T206 142Q206 102 226 81T275 59Q296 59 312 68T339 99T355 154T361 239Q361 279 354 309T337 362T313 400T287 424V436ZM357 523Q332 523 316 538T300 580Q300 603 316 621T357 640Q381 640 397 622T413 581Q413 555 397 539T357 523ZM219 496L188 504Q196 553 201 597T212 677Q215 679 228 681T257 686T286 689T305 689L310 676L219 496ZM114 523Q88 523 73 538T57 580Q57 603 72 621T114 640Q138 640 153 622T169 580Q169 554 154 539T114 523Z"  />
<glyph unicode="&#x3B1;" horiz-adv-x="537" d="M541 67Q524 28 492 8T428 -12Q392 -12 366 13T329 93H327Q293 35 256 12T187 -12Q159 -12 131 4T81 48T44 113T30 194Q30 232 40 266T67 329T107 381T157 422Q183 439 206 448T249 458Q275 458 299 434T338 370H341Q343 380 345 391T352 410Q359 417 372 424T399 437T429 448T456 455L472 445Q467 432 462 406T451 346T442 274T438 200Q438 135 453 107T487 78Q497 78 507 82T525 92L541 67ZM221 398Q208 398 196 387T175 355T160 307T154 247Q154 208 162 177T183 123T211 88T240 76Q273 76 299 112T325 212V238Q325 275 316 304T291 355T258 387T221 398Z"  />
<glyph unicode="&#x3B2;" horiz-adv-x="535" d="M68 359Q68 409 72 449T86 523T111 582T148 632Q182 668 220 685T296 703Q370 703 412 662T454 553Q454 524 444 501T417 460T381 429T346 403Q372 398 399 387T449 357Q482 330 493 298T505 228Q505 188 491 155T454 94T404 47T349 13T298 -7T260 -14Q240 -14 224 -6T187 22Q188 -10 190 -46T194 -118T198 -183T200 -233L187 -244Q174 -244 157 -241T122 -231T90 -216T68 -194V359ZM249 403Q272 406 287 411T316 426Q327 437 335 457T344 514Q344 547 336 572T316 615T287 642T252 651Q226 651 212 633T191 582T182 502T180 396Q180 299 182 219T187 79Q215 60 240 53T285 46Q305 46 322 51T351 71T371 109T378 171Q378 214 367 245T337 297T295 328T247 338Q242 338 239 338T230 338L249 403Z"  />
<glyph unicode="&#x3B3;" horiz-adv-x="504" d="M316 81Q322 91 334 121T360 189T383 268T393 342Q393 359 388 375T377 403Q374 413 381 421Q391 435 410 445T443 455Q464 455 473 435T483 387Q483 359 476 331T456 272T423 202T378 117Q369 99 360 80T343 44T330 14T321 -7Q322 -23 324 -47T329 -98T334 -149T336 -193Q327 -200 311 -208T277 -224T240 -237T207 -244L190 -229Q191 -212 196 -187T208 -133T221 -77T233 -28Q233 0 228 40T210 124T180 215T135 302Q122 322 111 336T86 357T57 367T18 366L11 393Q26 403 44 414T80 434T117 448T151 454Q184 454 210 425T259 332Q282 272 293 208T312 81H316Z"  />
<glyph unicode="&#x3B4;" horiz-adv-x="509" d="M447 556Q400 596 347 615T244 635Q219 635 210 629T200 615Q200 604 233 572T315 495Q356 459 387 427T438 363T469 297T479 223Q479 165 460 121T409 48T337 3T254 -12Q198 -12 156 7T86 57T44 127T30 208Q30 253 44 288T83 349T140 393T211 424Q166 469 144 503T122 566Q122 589 136 613T173 658T227 690T291 703Q326 703 355 691T405 660T439 619T458 577L447 556ZM352 185Q352 227 340 261T309 321T272 367T238 399Q208 383 189 338T169 216Q169 175 177 141T198 81T230 42T268 28Q311 28 331 70T352 185Z"  />
<glyph unicode="&#x3B5;" horiz-adv-x="427" d="M419 105Q403 79 384 58T341 21T286 -3T216 -12Q178 -12 145 -3T87 24T48 66T34 123Q34 149 44 167T72 197T111 217T158 232V234Q106 244 79 266T52 331Q52 360 67 383T109 421T171 445T247 454Q324 454 359 430T394 375Q394 356 377 342T341 328Q331 327 326 331T315 347Q304 374 290 394T246 414Q218 414 202 393T185 339Q185 309 202 291T254 273Q274 273 291 274T323 277L328 268L303 204Q290 206 276 207T247 208Q212 208 194 194T176 154Q176 114 203 91T271 68Q309 68 339 84T395 131L419 105Z"  />
<glyph unicode="&#x3B6;" horiz-adv-x="383" d="M148 717Q145 693 153 674T174 642T205 621T238 612Q272 643 306 665T364 688Q385 688 386 671Q386 662 383 651T375 628T362 606T346 591Q328 580 304 573T251 564Q228 538 210 504T180 430T160 349T153 264Q153 200 171 165T233 116Q244 113 253 110T274 102Q295 95 312 87T342 65T361 34T368 -12Q368 -41 357 -68T331 -116T302 -152T284 -171L255 -154Q263 -137 269 -115T275 -74Q275 -50 260 -33T203 -2Q186 3 172 8T144 18Q87 38 61 88T34 214Q34 269 48 320T87 416T141 499T201 568Q141 574 109 598T72 653Q72 667 87 688T123 726L148 717Z"  />
<glyph unicode="&#x3B7;" horiz-adv-x="530" d="M459 -244Q448 -244 432 -241T397 -231T361 -217T332 -200Q334 -79 336 37T339 275Q339 327 321 351T270 376Q246 376 231 366T203 346V0Q171 -3 138 -6T72 -12Q74 24 75 56T76 120V308Q76 330 75 342T68 362T52 374T23 383V412Q29 415 49 421T93 435T143 447T186 454Q195 443 199 423T203 385Q212 393 222 400T250 419Q270 433 290 443T336 454Q396 454 429 412T462 282V162Q462 98 463 34T465 -85T466 -180T467 -235L459 -244Z"  />
<glyph unicode="&#x3B8;" horiz-adv-x="509" d="M477 344Q477 272 464 208T422 94T351 17T249 -12Q193 -12 153 16T85 94T45 207T32 344Q32 417 47 482T90 596T161 674T258 703Q315 703 356 674T424 596T464 482T477 344ZM345 389Q343 438 339 487T325 575T299 639T256 664Q235 664 218 641T190 580T172 493T164 389H345ZM164 332Q164 267 171 212T190 115T220 51T259 27Q283 27 299 50T326 115T341 211T346 332H164Z"  />
<glyph unicode="&#x3B9;" horiz-adv-x="279" d="M280 43Q255 22 225 5T158 -12Q141 -12 125 -7T96 12T76 47T68 103V431L196 455V127Q196 91 207 78T233 64Q245 64 252 65T270 72L280 43Z"  />
<glyph unicode="&#x3BA;" horiz-adv-x="508" d="M508 47Q482 15 450 2T389 -12Q362 -12 339 1T291 55Q277 78 260 113T216 200Q211 193 206 187T195 172V0L69 -12Q72 33 72 136V321Q72 338 71 348T64 364T48 373T18 382V410Q24 413 45 419T91 433T142 446T183 454Q190 445 192 421T195 364V226Q206 241 222 263T257 309T295 356T330 397Q358 429 378 441T419 454Q447 454 461 438T475 399Q475 382 469 371T455 353Q446 346 437 350Q429 353 420 356T395 359Q371 359 347 343T299 296Q307 278 320 253T349 200T380 148T408 107Q424 85 437 76T463 66Q472 66 480 68T496 74L508 47Z"  />
<glyph unicode="&#x3BB;" horiz-adv-x="512" d="M506 32Q481 12 449 0T379 -12Q355 -12 338 -2T308 30T283 82T261 154Q249 197 241 227T227 278T218 312T211 335Q179 230 153 148T107 9L25 -12L15 2Q61 93 106 195T190 417Q182 447 176 470T158 524Q148 555 138 575T118 606T97 622T75 626Q56 626 39 619L30 646Q57 672 88 687T146 703Q173 703 193 691T233 647T272 558T317 411Q335 347 353 282T399 139Q416 93 433 75T466 57Q484 57 495 61L506 32Z"  />
<glyph unicode="&#x3BC;" horiz-adv-x="538" d="M539 41Q525 21 495 5T424 -12Q392 -12 368 3T334 57H332Q310 31 282 10T220 -12Q194 -12 174 -1T142 31H140V16Q140 -11 144 -47T153 -118T164 -184T175 -231L160 -244Q150 -243 138 -240T112 -231T88 -218T69 -202Q67 -194 67 -167T67 -102T68 -20T69 69V330Q69 365 68 389T65 431L193 455Q195 433 195 404T196 341V169Q196 141 202 122T219 91T242 74T268 68Q291 68 304 77T331 100V431L458 455V126Q458 88 470 75T496 61Q511 61 527 69L539 41Z"  />
<glyph unicode="&#x3BD;" horiz-adv-x="485" d="M13 396Q28 407 47 417T85 436T123 449T156 454Q169 454 180 450T201 433T222 398T244 342Q266 279 283 223T312 129Q318 139 329 160T351 209T370 265T378 322Q378 344 371 362T356 392Q348 402 352 414Q360 431 376 442T410 454Q433 454 448 432T463 378Q463 350 452 316T421 241T375 158T321 68L274 -12H237Q204 85 178 159T127 294Q110 336 94 352T57 369Q46 369 38 369T21 366L13 396Z"  />
<glyph unicode="&#x3BE;" horiz-adv-x="425" d="M317 327Q306 329 293 330T262 332Q232 332 212 324T179 302T161 270T155 231Q155 189 178 161T252 120Q282 113 304 106Q324 100 343 91T376 68T400 34T409 -15Q409 -46 397 -73T369 -121T339 -156T319 -175L288 -159Q299 -137 305 -117T312 -77Q312 -17 247 -1Q209 9 175 17Q100 34 66 73T32 173Q32 195 39 218T61 263T103 305T168 344Q119 357 93 388T67 462Q67 496 91 531T162 592Q150 594 135 600T105 615T79 636T64 662Q64 671 68 681T80 702T96 721T114 735L140 723Q137 703 142 687T158 659T182 640T208 631Q224 641 244 651T284 668T322 680T356 685Q373 685 379 681T382 662Q380 644 366 625T339 598Q318 589 285 584T209 582Q197 571 187 552T176 504Q176 485 182 468T201 437T234 415T284 407Q302 407 322 407T356 410L363 396L317 327Z"  />
<glyph unicode="&#x3BF;" horiz-adv-x="525" d="M268 454Q320 454 362 436T434 387T480 315T496 229Q496 169 476 124T424 48T350 3T264 -12Q205 -12 161 7T88 58T45 130T30 211Q30 271 51 316T107 392T184 438T268 454ZM255 415Q223 415 198 374T173 247Q173 201 180 161T200 91T232 44T275 27Q289 27 303 33T328 57T346 110T353 199Q353 304 328 359T255 415Z"  />
<glyph unicode="&#x3C0;" horiz-adv-x="550" d="M532 467Q531 450 528 433T522 399T514 371T506 354Q495 349 472 349T433 349Q429 305 429 254T429 147Q429 124 433 110T442 87T454 75T466 72Q477 72 488 75T509 82L521 55Q503 28 470 8T407 -12Q390 -12 375 -6T347 14T328 54T321 117Q321 180 323 240T329 351Q306 352 289 352T259 353T235 353T213 353V347Q213 266 206 205T189 101T170 35T155 6Q134 -3 115 -7T81 -12L72 8Q94 43 110 90T136 187T151 280T156 355Q119 355 90 350T28 324L11 350Q19 361 32 377T68 409T122 435T200 445Q255 444 321 443T451 442Q471 442 481 446T502 472L532 467Z"  />
<glyph unicode="&#x3C1;" horiz-adv-x="520" d="M63 -231Q68 -211 68 -169T69 -71Q69 -8 68 63T67 191Q67 264 89 314T159 399Q189 423 224 438T296 454Q343 454 379 437T440 392T477 326T490 250Q490 187 465 140T402 60T324 10T250 -12Q234 -12 221 -9T193 6Q194 -14 195 -44T197 -103T198 -158T196 -192Q191 -201 176 -209T142 -225T102 -238T68 -244L63 -231ZM364 201Q364 243 355 279T329 341T292 383T245 398Q226 398 215 389T198 363T191 326T189 281Q189 227 190 175T193 88Q213 65 232 53T276 41Q289 41 304 49T333 76T355 125T364 201Z"  />
<glyph unicode="&#x3C2;" horiz-adv-x="411" d="M269 -146Q285 -126 291 -105T298 -65Q298 -44 278 -25T212 4Q195 8 179 12T148 20Q30 53 30 198Q30 263 61 314T140 400Q177 426 215 440T291 454Q317 454 335 449T369 434Q391 419 391 395Q391 381 386 370T374 352T359 340T343 335Q332 336 312 353Q289 370 267 380T219 390Q179 390 159 357T139 266Q139 231 145 206T164 164T196 137T239 121Q252 118 263 115T287 108Q336 94 363 69T390 -8Q390 -37 379 -62T353 -108T322 -143T295 -165L269 -146Z"  />
<glyph unicode="&#x3C3;" horiz-adv-x="528" d="M304 448Q348 446 381 445T439 443Q459 443 471 447T501 471L529 459Q526 445 522 430T511 401T498 376T483 361Q473 361 457 362T424 365T391 369T364 373L362 371Q422 341 446 300T471 211Q471 157 454 116T406 46T336 3T249 -12Q193 -12 152 8T84 59T44 131T30 211Q30 271 51 316T110 391T197 435T304 448ZM270 380Q226 380 195 339T164 211Q164 174 171 141T190 82T221 43T261 28Q275 28 290 35T318 64T339 122T348 217Q348 274 339 306T317 355Q308 366 295 373T270 380Z"  />
<glyph unicode="&#x3C4;" horiz-adv-x="461" d="M446 466Q441 433 435 401T422 356Q417 354 409 353T390 352T369 351T349 351Q334 352 320 352T287 353Q283 310 283 255T283 144Q283 120 287 106T299 84T314 74T331 71Q352 71 374 81L386 53Q377 41 364 29T336 8T303 -6T268 -12Q248 -12 232 -6T202 14T182 54T175 117Q175 180 177 242T184 356Q153 357 130 356T89 352T55 341T25 322L8 348Q17 365 30 382T62 414T109 436T177 445Q204 445 226 445T271 444T315 443T365 442Q386 441 396 445T417 470L446 466Z"  />
<glyph unicode="&#x3C5;" horiz-adv-x="479" d="M287 436Q289 438 296 441T312 447T332 452T349 454Q364 454 381 444T413 411T438 354T448 274Q448 218 430 166T381 75T309 12T222 -12Q193 -12 167 -4T122 23T91 69T79 136Q79 177 79 221T80 307Q80 345 68 358T38 372Q22 372 10 368L1 399Q8 405 23 414T56 432T96 447T137 454Q167 454 187 430T207 343Q207 294 207 241T206 142Q206 102 226 81T275 59Q296 59 312 68T339 99T355 154T361 239Q361 279 354 309T337 362T313 400T287 424V436Z"  />
<glyph unicode="&#x3C6;" horiz-adv-x="610" d="M263 435Q163 375 163 249Q163 205 171 171T194 113T225 72T261 50Q260 84 259 112T258 166T258 214T258 260Q258 314 271 351T306 411T355 444T409 454Q442 454 473 439T527 396T565 329T580 242Q580 185 562 143T513 71T446 23T372 -4Q372 -44 373 -94T374 -190Q371 -200 360 -209T333 -226T300 -239T267 -244L259 -234Q260 -227 260 -214T261 -175T262 -110T261 -10Q209 -8 167 9T94 56T47 127T30 220Q30 271 50 310T101 380T172 431T249 466L263 435ZM390 410Q376 410 372 398T367 348Q368 273 369 194T371 41Q388 43 406 55T440 89T466 146T476 228Q476 275 467 309T444 365T415 399T390 410Z"  />
<glyph unicode="&#x3C7;" horiz-adv-x="482" d="M514 -200Q491 -220 458 -232T396 -244Q381 -244 367 -240T340 -225T314 -192T288 -137Q280 -118 274 -99T261 -59T246 -14T228 40Q210 2 192 -39T157 -120T124 -196T96 -261L81 -262Q67 -256 55 -239T38 -195Q74 -129 118 -51T206 108Q196 138 188 163T173 209T158 249T143 289Q123 339 107 354T71 370Q59 370 48 368T25 360L15 389Q44 415 79 434T147 454Q182 454 206 426T253 337Q258 325 263 310T273 280T282 251T290 229Q304 257 318 287T344 346T366 396T382 432L462 454L473 444Q461 427 443 398T402 331T356 253T310 169Q323 131 336 91T363 16T386 -47T403 -87Q418 -120 429 -138T452 -165T477 -173T507 -171L514 -200Z"  />
</font>
</defs>
</svg>
