<?xml  version="1.0" encoding="UTF-8"?>
<!DOCTYPE svg PUBLIC "-//W3C//DTD SVG 1.0//EN" "http://www.w3.org/TR/2001/REC-SVG-20010904/DTD/svg10.dtd" >
<svg xmlns="http://www.w3.org/2000/svg" >
<metadata>
<version>1.0</version>
<id><![CDATA[Rage Italic W01]]></id>
<vendor>Monotype Imaging Inc.</vendor>
<credits>
<name>Fonts.com WebFonts</name>
<URL>http://webfonts.fonts.com</URL>
<role>Home of the Web fonts</role>
</credits>
<license>
<URL>http://webfonts.fonts.com/Legal</URL>
</license>
<copyright><![CDATA[Part of this font software is copyrighted © 2005 - 2006 Linotype GmbH, www.linotype.com. All rights reserved. This font software may not be reproduced, modified, disclosed or transferred without the express written approval of Linotype GmbH. Copyright Esselte Letraset Ltd., 1990.]]></copyright>
<trademark><![CDATA[Rage Italic is a trademark of International Typeface Corporation.]]></trademark>
<licensee>
<name></name>
</licensee>
</metadata>
<defs >
<font horiz-adv-x="450" id="8ed19055-4c65-4f9c-83dc-a14ece2c196d">
<font-face font-family="" panose-1="2 0 5 3 2 0 0 2 0 2" ascent="867" descent="-411" units-per-em="1000" alphabetic="0">
</font-face>
<missing-glyph horiz-adv-x="0" />

<glyph unicode="&#xA;" />
<glyph unicode="&#xD;" horiz-adv-x="0" />
<glyph unicode=" " horiz-adv-x="267" />
<glyph unicode="!" horiz-adv-x="306" d="M87 104L88 107L101 129L108 144L114 149L119 155L133 158L139 159L145 160L150 159L168 146L171 143L180 125L186 112L187 109L186 107V106L178 95L174 85L164 52L158 48L142 44L134 45L128 48L122 52L109 56L95 83L87 97V101V104ZM224 482L231 498L240 509L246 527L256 538L262 558L265 562L268 564L279 569L276 576V577L278 581L295 613L306 642L312 653L320 659L329 661L337 659L351 644L361 628L373 595L371 587L366 577L334 537L316 506L309 484L296 472L286 450L264 416L259 402L254 394L239 347L234 342L232 330L226 326L225 311L214 286L202 212L192 201L186 194L181 193H179L177 195L162 206L151 212L138 231L132 253L135 274L156 327L174 377L209 446L217 467L223 471L224 482Z"  />
<glyph unicode="&quot;" horiz-adv-x="279" d="M131 613L140 625L146 633L159 641L172 645L181 643L189 638L198 628L209 607L211 590L209 577L203 563L193 540L178 521L167 501L163 496L148 479L140 470L134 468H131L121 474L120 481L121 498V519V554L122 568L123 591L131 613ZM245 613L254 625L260 633L273 641L286 645L296 643L303 638L312 628L323 607L325 590L323 577L318 563L307 540L293 521L281 501L277 496L262 479L255 470L248 468H245L235 474L234 481L235 498L236 519L235 554L236 568L237 591L245 613Z"  />
<glyph unicode="#" horiz-adv-x="593" d="M422 445L390 267H505V224H381L340 0H292L333 224H190L149 0H101L143 224H26V267H150L184 445H67V488H191L233 712H281L239 488H383L424 712H472L431 488H546L547 445H422ZM231 445L198 267H342L375 445H231Z"  />
<glyph unicode="$" horiz-adv-x="539" d="M-59 137L-44 130L-37 133L-32 134L-25 127L-18 123L-12 126L0 122L13 120L17 121L36 123L57 121L68 122L72 133L86 165L97 181L103 202L134 255L137 271L147 288L157 303L167 329L169 340L176 349L185 361L189 372L195 383L197 391L201 405L175 407L158 413L132 450L120 480L119 494L123 515L130 525L154 548L164 560L189 574L195 582L209 581L218 591L225 595L294 620L305 626L319 629L325 637L340 657L346 679L362 692V706L366 715L369 717L372 718L376 717L383 709L386 701L385 697L380 685L379 675L373 662L366 653L357 648L352 646L351 645L350 640L354 637L362 638L387 639L399 641L405 651L414 663V665L415 678L429 695L435 710L442 720L446 730L467 726L469 710L467 701L455 673L446 650L441 638L446 636L460 634L471 632L474 625L484 612L488 605L489 595L488 585L483 567L480 551L474 542L470 539H467H465L456 550L451 565L452 572L454 576L464 585L454 594L436 597L419 596L407 593L403 583L398 569L385 560L386 549V538L377 528L371 509L363 488L360 477L371 472L412 455L419 450L429 438L441 416L446 403L452 390L453 373L456 361L458 321V312L456 303V282L448 269L442 251L435 243L425 220L416 210L409 199L386 179L378 171L362 161L343 146L320 135L296 121L280 115L264 106L238 98L200 87H188L183 77L173 56L168 47L164 37L153 34L149 35L147 37L141 61L139 71L125 72L104 69L92 68L83 56L75 43L70 28L69 27L63 23L57 22L52 23L46 28L33 48L35 60L23 67H10L-3 72L-30 84L-36 88L-41 94L-55 114L-66 135L-67 138L-59 137ZM148 141L157 146L174 149L179 159L204 207L224 254L237 286L241 305L259 334L282 391L290 405L276 407L262 406H248L241 391L228 379L227 378L223 355L184 279L161 211L157 202L159 198L150 182L143 177V158L139 154L134 142L148 141ZM239 481L249 493L254 512L271 530L274 538V550L260 547L247 543L213 522L193 510L172 489L168 478V476L170 474L182 470L199 467L203 468L221 470H232L239 481ZM227 167L248 175L256 178L268 189L278 190L310 204L340 226L359 242L375 259L382 270L399 284L404 290L406 296L408 306L418 322L424 341L425 357L426 369L423 377L413 386L387 396L358 403H357L335 401L322 402L317 387L280 309L270 276L250 227L246 214L245 213L239 208L232 191L223 175L218 164L227 167ZM285 478L303 480H306L324 479L328 489L348 530L350 537L361 546V555L376 578L377 590L367 584L345 582L314 570L309 565L304 540L280 488L277 476L285 478Z"  />
<glyph unicode="%" horiz-adv-x="433" d="M140 250L148 262L154 276L165 289L171 300L186 314L215 353L222 361L230 363L229 375L238 384L252 402L272 425L276 433L277 434H285L297 452L301 462L318 483L338 503L348 509L352 524L377 548L410 581L422 589L428 597L435 607L426 614L423 615L417 603L408 602L404 595L398 590L395 584H385L375 581L364 569L358 559L348 554L343 547L297 512L264 481L252 477L222 448L211 447L196 432L183 427L175 432L164 430L165 416L153 413L113 392L108 391L91 396L88 398L75 410L72 420L73 437V455L75 460L76 461L101 486L108 497L125 514L151 529L155 537L160 543L169 549L184 556L213 574L223 576L243 588L263 589L284 595L288 592L290 588L291 577L301 581L307 588L314 593L326 601L339 605L364 617L376 618L382 624L392 623L401 630L413 631L417 639H427L449 646L471 652L488 660L519 677L524 678L532 676L539 669L543 653L540 637L532 612L523 597L513 576L502 573L491 567L475 558L441 522L411 495L394 474L361 449L339 421L330 413L322 399L310 393L302 386L294 375L288 362L284 352H274L272 336L264 331L261 316L252 314L247 311L245 308L236 292L223 279L212 262L201 252L196 243L185 237V227L183 215L179 209L165 192L139 150L131 138L124 124L117 102L113 89L114 75L113 63L124 25V13L119 -11L106 -22L94 -25L80 -23L60 -19L51 -12L48 -8L43 6L36 19L34 33V45V49L37 64L38 74L52 104L56 116L72 144L87 175L112 207L121 223L129 236L131 244L140 250ZM179 150L201 183L208 196L253 239L259 246L269 251L297 274L309 277L314 281H319L320 270L316 262L311 252L338 261L351 237L355 228L359 212L361 200L354 192L351 181L336 169L327 147L309 128L302 126L291 113L283 107L274 97L262 95L254 88L248 83L234 77L226 72H224L216 74L203 76L197 83L186 101L176 123L174 133V141L179 150ZM128 460L145 467L183 492L191 499L202 504L210 514L241 534L250 544L267 548V559L249 557L226 550L214 538L205 541L198 532L190 523L180 521L174 509L138 479L125 465L118 457L128 460ZM227 117L254 135L268 153L277 166L285 173L294 193L293 194H288L281 202L278 210L277 215L278 219L287 232L293 240L283 234L259 199L246 196L241 187L233 171L229 156L226 145L216 142L215 139L214 130V126L215 111L227 117Z"  />
<glyph unicode="&amp;" horiz-adv-x="733" d="M92 249L98 257L115 273L122 281L144 299L163 314L173 319L181 327L220 349L231 357L262 369L278 380L296 385L308 393L295 402L277 419L271 425L269 450V463V468L276 480L292 504L302 522L318 536L329 551L344 563L353 574L373 586L390 604L414 615L467 643L485 648L497 653L521 652L541 656L548 657L558 655L569 646L576 639L581 622L586 605L587 590L585 577L579 566L570 546L564 540L551 533L538 529H537L526 536L516 541V551L518 563L521 567L547 586L548 588L550 598L551 610L535 613L524 611H512H511L499 609L492 604L482 595L446 575L432 563L409 536L400 528L392 518L388 510L372 495L366 484L358 473L356 467L352 452L353 448L362 441L385 436H388L420 443L446 442L462 449L502 458L533 471L545 473L560 493L570 502L587 531L603 549L611 558L615 559L621 557L631 547L637 529L640 516L638 508L626 491L614 481L612 475L613 470L624 476L637 481H638L661 476L674 483L687 486L697 489H716L732 488L741 485L747 480L753 471L762 460L765 443L766 432L747 424L735 426L703 424L686 428L651 422L633 423L618 416L600 418L587 411H576L573 399L567 396L563 385L553 381L550 372L544 362L539 351L524 344L522 334L519 328L516 324L503 312L494 289L487 279L485 269L478 267L473 256L467 249L464 237L452 230L449 224L450 218V215V211L449 210L440 198L439 190L432 180V169L429 162L430 144L443 142L463 139L471 140L476 143L484 149L497 148L525 167L562 186L575 198L588 199L594 209L600 212L609 221L619 229L623 234L633 241L640 249L650 253L662 237L659 226V216L657 211L651 203L641 195L632 183L612 164L603 153L592 144L587 133L577 134L564 119L550 115L532 106L523 104L509 92L487 89L478 86L460 84L450 80L444 81L441 84L435 92L418 100L412 110L395 132L391 148L384 139L368 120L362 112L355 110L340 93L325 84L318 77L304 73L289 62L274 59L262 51L249 55L230 44L220 45L208 43L193 49L172 42H170L165 43L129 61L104 68L92 74L88 79L79 93L67 107L61 127L57 142V158V180L67 212L70 220L79 235L87 240L92 249ZM325 154L333 163L343 169L349 179L367 187L371 197L390 221L404 249L415 266L425 288L430 299H443L444 300V302V303L443 305L438 308L442 323L450 333L457 340L461 350L471 362L482 385L492 391V395L487 397L481 394L458 393L447 388L433 387L412 378L383 377L368 372L355 370L331 356L324 354L315 351L310 341L300 338L296 332L281 325L275 319L254 310L237 292L229 287L221 275H210L201 264L173 232L164 223L162 216L161 205L152 201L148 195L142 155L145 130L147 129L160 120L167 115L178 112L186 109H196L206 107L225 113H238L247 116L273 130L290 136L295 141L306 143L314 151L325 154Z"  />
<glyph unicode="&apos;" horiz-adv-x="164" d="M131 613L140 625L146 633L159 641L172 645L181 643L189 638L198 628L209 607L211 590L209 577L203 563L193 540L178 521L167 501L163 496L148 479L140 470L134 468H131L121 474L120 481L121 498V519V554L122 568L123 591L131 613Z"  />
<glyph unicode="(" horiz-adv-x="379" d="M199 247V259L206 285V299L212 331L216 344L225 350L230 361V374L239 390L238 405L255 429L275 468L285 479V489L293 500L310 518L320 542L331 546L340 554L346 559L351 569L372 586L418 636L467 671L487 687L495 688L506 697L511 699L527 708L535 706L540 701L541 696L540 691L537 687L531 684L520 682L519 670L516 665L514 664L500 660L488 648L468 637L450 610L434 600L425 583L410 574L399 547L383 528L361 489L342 467L331 447L285 333L278 324L270 311L274 293L265 276L264 269L263 230L259 206L260 160L256 145L259 133L263 107L270 87L269 76L270 71L317 -2L320 -7L321 -10L320 -14L317 -16L311 -18L300 -16L290 -12L281 -4L269 16L258 30L252 41L239 55L224 84L209 107L206 117L213 123L209 133L204 148L200 168L197 179L198 208L199 215V216L195 227L199 247Z"  />
<glyph unicode=")" horiz-adv-x="379" d="M166 123L168 134L194 166L205 199L221 229L226 254L255 314L257 337L269 364L270 384L279 390L275 406L286 454L288 467L287 472L284 483L285 504L283 527L281 544L269 574V579V581L276 592L271 595L268 601L261 608L260 621L253 632L252 639L246 648L240 660L219 682L218 694L224 697H225L239 693L264 673L277 656L300 623L310 602L318 581L324 549L334 522V502L338 473L335 445L340 406L332 372L334 344L331 335L326 314L320 306L318 295L313 285L311 270L306 244L298 230L285 199L275 183L273 174L271 166L263 156L251 131L242 125L237 110L217 99L205 84L197 75L189 73L181 55L172 51L166 45L158 42L149 31L120 18L101 4L87 1L80 -3L74 -8L68 -17L51 -21L48 -19L46 -16V-12L47 -6L51 -1L67 12L75 21L87 31L106 54L144 94L148 107L166 123Z"  />
<glyph unicode="*" horiz-adv-x="335" d="M311 623L318 634L319 648L327 656V658V663L325 673L335 678H338L345 676L353 670L359 657L361 644L358 640L349 633L345 614V611L357 616L367 622L373 629L376 632L382 634L393 633L400 624L402 621L396 612L389 603L388 602L374 597L364 587L350 579L340 572L344 562L373 518L372 501L369 490L365 487L359 485L352 486L348 489L328 512L315 519L310 509L299 477L295 470L291 467L287 466L282 468L276 475L268 499V500L281 536L282 537L281 539L280 540L275 541L258 537L238 529L213 512H211L207 513L202 517L200 526L202 535L207 543L209 545L232 554L250 567L267 571L273 576L275 578L276 582L275 587L267 600L247 628L246 638L247 644L250 647L254 648L258 647L266 643L280 630L297 616L302 611L307 610L311 623Z"  />
<glyph unicode="+" horiz-adv-x="560" d="M307 240V47H252V240H56V290H252V483H307V290H503V240H307Z"  />
<glyph unicode="&#x2c;" horiz-adv-x="249" d="M46 15L67 41L70 51L63 58L54 76L50 100L51 104L56 111L63 123L82 146L93 153L102 155L112 152L135 127L148 107L149 104L148 100L138 85L127 57L95 13L75 -7L71 -10L64 -12H60L49 -6L40 -1L46 15Z"  />
<glyph unicode="-" horiz-adv-x="351" d="M217 216L227 219L238 218L253 216L269 210L282 213H283L292 210L296 207L297 193L295 180L276 164L261 154L241 155L219 153L195 162L176 159L154 162L135 157L110 162L89 158L74 168H62L56 175L54 179L53 186L54 191L59 199L67 206L77 208L106 213L121 211H122L138 214L169 216H179L196 217L206 219L217 216Z"  />
<glyph unicode="." horiz-adv-x="238" d="M47 117L53 133L54 135L67 144L76 152L80 154H81L96 147L108 139L123 116L136 103L138 99V95L133 78L113 53L104 45L93 42L84 45L72 52L63 61L45 89L40 97L47 117Z"  />
<glyph unicode="/" horiz-adv-x="408" d="M153 263L161 277L167 293L178 308L184 320L199 337L229 381L236 391L243 394L242 407L252 417L265 439L286 465L290 475H291L299 476L311 496L315 508L332 533L353 555L362 562L366 579L391 607L424 645L436 655L483 723L502 737L507 742L522 750L536 757H537L545 754L552 746L556 726L554 705L544 676L538 664L528 638L518 636L501 628L489 618L455 577L425 546L400 513L378 496L355 463L344 451L336 434L323 427L315 420L307 407L302 392L298 381H288L285 363L277 356L274 339L265 337L260 333L258 330L249 311L236 296L225 277L214 265L209 255L198 248V236L196 223L192 215L178 196L152 147L144 134L136 117L130 92L125 76L127 61L126 47L136 3V-11L131 -39L118 -52L106 -56L92 -53L72 -48L63 -40L60 -35L55 -19L48 -4L46 12L45 26L46 31L49 48L50 59L64 94L68 108L85 141L100 177L125 213L134 232L142 247L144 256L153 263Z"  />
<glyph unicode="0" horiz-adv-x="478" d="M25 292V299L29 308L40 331L42 333L46 334H57L59 337H48L52 354L56 361L60 368L67 373L79 377V380L74 379L70 383L73 394L78 407L82 411L88 416L109 442L124 450L132 459L126 462L139 483L144 488L153 496L171 516L180 521L185 530L192 540L226 571L272 603L281 611L298 618L320 637L331 643L339 645L351 643L360 639L359 631L355 627L348 621L336 616L331 611L326 600L339 603L355 606H369L387 605L397 600L408 597L424 581L444 562L459 533L469 503L478 485V483L476 473V462L473 455L474 438L470 424V407L462 387L457 377L459 364L457 360L449 359L446 357L445 356L444 336L443 329L440 323L434 315L430 293L423 284L412 262L404 252L392 242L389 232L385 224L369 217L366 203L344 178L336 165L321 149L306 131L297 124L289 119L287 118L274 116H273L263 105L253 95L239 87L226 82L188 66L170 62L159 63L152 56L146 55H142L127 62L118 63L109 59H107L89 66L67 81L9 144L3 156L0 199V206L1 223L6 246L14 259V269L16 275L19 279L28 289L25 292ZM59 108L66 110L75 106L86 105L93 103L103 105H111L137 117L151 122L176 137L189 142L199 150L207 151L212 161L228 169L230 177L237 185L244 193L258 202L266 213L324 273L340 294L347 308L357 312L365 335L380 352L376 362L386 372L390 381L397 396V404L401 411L406 419L407 430L413 456L421 474L420 488L425 507V510L423 519L417 530L408 557L396 562L386 564H385L360 554L323 542L290 520L280 514L277 518L272 531L263 525L252 517L231 499L217 480L184 443L180 427L167 425L163 414L157 397L134 371L129 345L114 328L111 314L100 294L88 280L80 266L78 252L56 171L53 145L56 129L65 117L59 108ZM317 602L314 604H312L310 603L308 602V600V598L310 597L313 596H314L321 599L317 602Z"  />
<glyph unicode="1" horiz-adv-x="223" d="M169 534L157 537L151 543L148 556L151 569L155 574L166 580L193 600L212 610L223 624L236 627L255 635L263 636L268 635L279 627L298 609L301 604L303 597L302 591L286 571L270 554L251 520L237 494L222 475L201 432L181 412L172 385L163 366L154 338L144 325L133 301L131 290L123 278L121 269L117 245L109 227L104 218L103 205L97 191L93 177L85 173V158L79 127L74 107L75 78L71 67L69 55L66 53L60 52L43 57L27 75L14 107L7 151V159L12 177L13 195L19 205L48 281L64 314L70 333L93 378L108 410L123 432L136 467L176 524L180 535L169 534Z"  />
<glyph unicode="2" horiz-adv-x="466" d="M427 542L420 543L404 551H379L354 554L336 551L320 554L289 542L265 538L241 525L228 519L221 514L216 513L212 514L201 516L187 508H186L182 509L176 516L168 544L167 550L172 565L184 580L198 591L200 592L224 593L242 598L260 597L280 605H296L328 609L370 604L412 600L423 596L436 586L444 577L459 554L474 533L480 511L478 501L468 485L459 469L443 448L427 438L422 437H403L402 436L385 423L362 409L343 397L334 391L321 387L305 371H290L285 369L281 366L239 331L219 325L204 312L190 307L181 295L171 291L156 279L128 251L116 247L110 240L99 233L86 219L76 211L69 197L62 188L57 184L48 181V170L52 159L55 156L58 155L71 156L91 159L99 162L109 165L125 163L165 173H181L204 182H219L235 188H252L274 191L286 192L297 191L312 189L347 191L367 186L377 183L381 172L396 143L394 128L392 110L380 100L374 98L367 100L360 105L353 116L347 113L337 116L323 114L311 122L294 119L282 121L255 114L224 111L195 104H172L151 96L136 99L115 94H101L84 91L65 87H63L49 97L45 86L40 82L34 81H28L13 83L-3 93L-13 95L-20 109L-31 133L-33 148L-28 181L-22 201L-19 205L-7 218L2 233L14 245L20 253L73 300L85 314L102 324L122 340L137 353L158 368L197 394L213 402L224 411L241 415L250 421L267 430L279 437L291 441L331 463L356 472L373 485L397 495L407 504L435 521L438 528L437 539L427 542Z"  />
<glyph unicode="3" horiz-adv-x="438" d="M262 242L278 246L282 253L287 258L293 253L299 262L321 279L327 286L344 295L353 302L365 322L366 323V324L364 336L367 349L357 359L349 369L338 375L328 380L316 376L303 382L283 381H272L263 379L250 381L241 377L203 376L152 369H151L129 378L119 384L113 392L98 421L97 428L98 433L105 446H118L142 456L166 460L193 467L226 480L250 489L262 501L274 502L295 508L311 515L348 532L358 538L349 541L327 537L317 540L306 534L299 539L286 532L280 535L271 533L260 536L249 539L241 532L237 530H235L224 531H217L208 535H205L188 531L164 526H136L115 519H111L106 520L92 530L85 535L76 546L68 557L66 567L69 578L78 586L82 588H83L104 586L155 585L165 577L186 580L195 587L199 582H237L284 583H286L317 581L344 584L355 583H367L374 580L385 582L407 577L424 560L433 543L438 526V525L434 512L431 503L412 492L405 487L380 475L359 462L351 460L337 455L324 454L312 446H298L295 441L288 435L305 429L336 419L350 405L369 392L375 381L386 373L389 368L390 364L393 344L395 332L391 317L394 308L397 299L392 285L390 270L381 260L374 244L364 236L356 220L341 210L327 191L311 188L299 171L265 165L259 154L237 144L216 128L208 127L202 128L193 134L183 129L165 112H152L135 106L124 104L107 96L96 102H90L82 97L55 80L51 79H1L-9 75L-24 81L-35 82L-41 92L-47 102L-50 112L-66 148L-67 153L-65 160L-60 165L-55 166H-54L-42 164L-31 170H-22L-7 172L5 167H7L30 169L44 171L54 175L65 182L107 186L163 200L190 209L224 226L244 233L255 235L262 242Z"  />
<glyph unicode="4" horiz-adv-x="507" d="M90 430L94 441L97 444L112 455L140 482L151 483L156 493L163 500L168 502L178 499L180 503L178 514L189 526L200 539L210 544L223 559L239 569L260 593L272 598L283 604L286 608L289 632L304 627L306 630H310L314 619L315 616L313 608L310 604L300 601L296 591L289 566L269 548L263 534L257 522L248 523L244 515L241 505L240 495L224 492L223 491L221 485L219 475L208 471L202 454L194 448L183 436L169 426L143 388L135 379L133 368L143 365L179 356L202 347L248 341H255L271 342L276 351L292 380L299 389L309 401L311 413L313 418L315 420L324 424L332 437L331 445L339 455L349 477L357 489L361 507L369 516L374 524L391 536L394 556L399 561L401 571L403 576L408 579L416 583L419 588L424 590L421 605L428 626L433 645L443 658L454 654L468 641L478 609L479 588L474 579L460 558L447 526L438 521L436 510L427 484L420 472L412 463L405 442L389 438L386 425L385 414L380 408L377 399L367 394L364 390L363 389L361 372L355 358V348L368 349L377 350L393 359L421 368L432 371L440 365L454 362L467 352L483 343L486 338L487 333L486 327L482 321L477 318L464 312L453 306L412 293L392 282L379 289L369 283L361 281H349L337 279L326 280L315 266L302 234L293 219L291 202L286 191L283 177L278 168L271 170L270 150L264 146V135L257 114L255 97L252 84L253 50L251 32L249 26L248 25L240 21L239 16L238 14L236 13L235 12L234 13L224 18L207 27L191 47L163 76L160 84L159 91L162 105L170 116L173 129L182 144L187 157L193 162L201 169L197 179V180L200 194L209 211L231 242L237 265L247 292L245 296L243 299L237 300L228 299L213 297L206 298L203 300L185 311L166 312L155 316L148 323L111 315L106 323L96 320L79 318L72 319L59 325L44 334L33 346L27 366L29 374L32 378L43 384L78 415L89 417L90 430Z"  />
<glyph unicode="5" horiz-adv-x="429" d="M-54 140L-27 126L-18 125L-7 122L4 127L20 122L32 127L42 125L52 132L61 130L76 133L94 134L105 141L124 144L150 157L160 159L165 167L180 175L190 185L212 200L247 223L260 234L272 238L286 253L296 257L299 268L307 276L321 298L330 315L333 325L337 332L339 348L343 366L341 375L339 390L335 396L325 403L290 410L264 408L251 403L240 401L230 395L213 396L204 390L193 387L190 394L181 387L167 379L153 368L140 364L110 343L99 340L93 342L78 356L58 381L52 400L53 407L60 416H69L70 427L80 429L88 436L93 439L107 466L119 476L130 490L137 498L145 515L163 536L168 560L178 567L181 582L192 593L203 609L210 613L213 614H216L220 606L224 596L223 591L234 590L250 597L260 599L264 608L287 609L312 615L340 626H341L352 620L363 622L388 631L409 635L417 640L453 649L464 656L475 652L483 658L491 661L498 659L504 656L506 652L507 622L509 598V597L507 588L501 582L495 580H494L477 584L461 578L435 570L398 560H382L364 553L345 552L296 532L277 529L264 525H253L236 519L216 522L203 512L192 509L182 496L171 499L172 488L170 480L164 471L156 463L155 457V456V449L167 450L173 451L181 458L192 457L204 456H206L215 465L225 463L234 461L284 462L293 458L311 454L322 445L336 442L350 432L362 416L373 396L383 355L392 326L393 313L390 295L384 282L375 273L374 262L373 253L351 224L343 205L340 202L338 201L323 203L316 187L310 173L297 168L287 151L274 149L271 147L263 137L258 129H254L248 135L236 128L227 119L220 113L213 112H203L184 94L177 93L166 95L159 85L146 80L129 65L124 64H123H122L114 70L98 59H87L77 52L62 58L49 51L30 54L17 52L8 56H0L-5 61L-16 58L-18 59L-33 74L-49 94L-65 120L-67 128V129L-66 139L-54 140Z"  />
<glyph unicode="6" horiz-adv-x="447" d="M76 366L86 386L106 409L113 421L119 427L127 430L137 433L136 448L139 456L143 460L159 472L181 493L192 501L204 517L222 530L229 543L247 554L258 567L282 581L287 592L317 600L320 609L327 614L336 623L364 635L391 652L403 654L414 657L425 652L434 643L445 628L447 617L444 607L437 600L433 598L404 596L398 592L392 590L377 573L372 571H370H356L345 556L326 545L311 526L295 519L285 508L272 504L263 491L250 483L244 475L235 465L226 442L213 435L203 415L188 404L177 388L172 387H170L160 393V376L153 370L149 360L142 350L158 351L168 361L189 372L236 382L256 391L278 393L304 397L315 398L319 392L342 395L345 389L351 391L366 384L371 378L401 339L409 312L411 296V291L405 277L404 263L401 257L398 254L388 253L383 243L378 233L373 228L365 218L351 210L339 188L320 167L298 148L281 133L272 129L261 126L263 119V118L255 111L250 108L238 109L235 101L224 96L195 82L186 76L174 74L150 67H147L140 68L128 72L112 68L100 73L82 76L70 82L61 85L49 90L42 99L29 107L19 118L8 132L6 136L2 154L-7 167L-10 186L-13 201V204L-8 229L9 263L11 275L15 285L32 308L42 322L49 329L53 339L57 347L61 351L71 355L76 366ZM183 156L194 168L204 171L225 186L235 198L267 223L280 239L289 245L298 249L303 252L304 255L306 263L317 272L327 285L336 294L340 303L349 310L350 320L356 328L359 336L358 340L356 342L352 344L341 347L331 344L320 348L308 345L295 346L282 340L273 339L264 334L254 337L242 330L232 333L225 325L219 322H216H195L174 304L158 300L146 289L139 281L130 286H129L125 285L123 284L104 261L93 253L86 245L80 236L73 239L68 228L59 211L46 177L40 167L37 155L33 144L32 140L35 131L46 121L51 119H53L89 124L110 122L126 127L138 135L154 142L162 148L171 156H183Z"  />
<glyph unicode="7" horiz-adv-x="411" d="M138 313L146 318L148 320L155 333L168 347L213 397L256 436L278 457L300 471L307 485L336 503L361 524L385 538L400 557L423 576L422 577L421 578L420 579L408 582L398 587H378H370L356 579L332 588L315 580L300 586L283 580L260 579L248 575L230 574L213 567L184 568L142 558H130L118 556L94 558L84 560L83 565L78 569L77 573L66 604V606L68 623L72 633L81 641L93 645L99 644L111 641L125 638L160 624L176 626L193 625L225 628L237 629L242 633L255 631H271L299 634L301 635L305 641L324 639L376 638L417 633L427 635L438 631L459 619L473 599L477 586V568L478 554L474 541L471 532L468 527L462 522L448 513L439 501L429 497L397 464L376 454L356 432L343 431L333 411L318 406L300 384L289 378L275 365L259 345L224 310L215 293L204 292L196 271L183 267L172 244L143 202L121 155L111 145L107 138L106 130V125L110 102L111 97L109 88L106 84L101 83L98 84L96 85L84 99L69 112L58 128L53 150L54 153L56 170L57 187L72 211L73 226L85 244L102 268L118 288L123 296L129 308L138 313Z"  />
<glyph unicode="8" horiz-adv-x="434" d="M-10 196V197L-7 216L2 235L14 252L21 266L46 295L51 306L59 314L60 322L72 326L85 346L96 349L107 366L187 431L208 445L226 452L234 462L242 468L237 476L210 478L192 482L163 487L145 493H138L128 497L122 509L111 516L106 522L101 545L103 561L107 566L123 581L152 601L177 612L188 621L199 622L221 633L236 635L261 648L298 645L322 659L333 657L353 661L379 662L393 663L401 659L416 658L426 653L435 651L451 643L461 630L465 616L462 604L456 594L448 587L437 583L432 586L429 598L419 609L411 619L388 616L380 624L371 619L359 621L341 615L323 616L295 598L276 604L262 596L244 588L232 577L224 584L217 575L211 566L209 564H207H205L199 571L190 565L175 558L171 553L166 542L177 540L205 532L220 521L248 512L276 495L289 493L303 496L313 502L322 512L351 524L375 540L403 548L422 560L435 564L443 573L446 574H450L464 572L480 566L482 563L494 545L506 530L507 523L505 516L499 510L491 507L489 508L478 511L471 502L450 501L428 488L417 485L406 477L397 474L387 467H374L364 460L348 450L341 441L347 429L358 416L357 403L365 397L371 391V389L374 373L382 354L381 344L384 318L378 301L377 281L373 271V256L366 250L358 226L337 198L331 182L323 177L318 164L309 162L298 164L294 158L291 143L287 138L277 139L272 129L268 120L264 115L253 116L250 106L247 99L246 98L230 97L223 92L215 89L204 76L187 68L162 49L144 50L118 44L109 45H97L88 50H77L55 60L45 68L30 79L25 89L18 95L0 123L-4 131L-9 144V155L-13 172V174V178L-8 186L-10 196ZM166 142L181 152L200 159L207 167L229 183L240 197L265 213L280 227L291 232L290 243L291 250L294 254L310 270L316 280L321 285L328 301L335 314L338 336L342 349L341 364L338 386L333 394L327 405L319 414L308 425L306 426L305 425L301 423L291 411L282 409L270 401L259 395L247 383L232 378L216 362L203 352L180 330L168 326L160 317L149 308L129 284L115 273L109 258L95 255L90 244L80 230L75 214L65 207L55 185L46 175L45 163L35 137L33 126L36 114L42 108L48 106L60 107H73L99 118L142 131L156 141L166 142Z"  />
<glyph unicode="9" horiz-adv-x="417" d="M102 481L105 488L122 502L128 511L134 515L140 521L149 524L181 556L198 565L210 576L220 582L232 598L268 621L302 645L328 656L338 665L388 683L409 689H410L422 684L432 677L434 675L435 670L429 642L427 639L420 632L413 629L410 630L408 631L396 639L379 634L365 633L350 623L338 615L321 605L306 593L290 586L281 575L271 571L263 565L252 556L246 546L234 544L228 529L218 519L209 512L205 509H191L190 500L188 495L182 489L168 479L163 469L156 463L149 448L139 440L124 422L107 403L97 382L94 371L105 372L116 377L125 385L139 392L145 401L157 403L227 455L239 460L241 469L246 473L256 475L272 491L282 499L293 510L301 514L308 523L325 534L328 544L338 546L345 555L351 563H362L367 566L371 570L375 580L384 583L387 587L393 590L400 596L417 610L433 630L453 645L470 663L487 673L501 683L507 684L524 679L537 666L544 639L542 621L539 616L520 591L511 576L483 553L478 532L467 522L452 496L444 489L432 469L410 447L400 432L391 423L390 408L386 397L379 389L368 383L358 380L359 365L348 345L333 314L307 279L302 261L299 249L289 244L285 240L281 231L277 215L261 175L255 154L245 126V125L248 104L251 87L255 77L263 66L262 63L250 58L237 52L228 54L200 63L187 70L174 90L167 119L169 128L180 165L184 182L192 192L203 220L217 239L225 245L226 267L234 277L238 289L252 308L255 320L267 333L274 344L279 350L287 359L288 374L297 378L305 390L303 397L308 402L320 407L323 417L330 429L338 436L352 454L357 466L393 511L404 529L396 521L381 511L362 495L353 481L347 482L344 481L341 479L332 467L323 459L312 443L295 431L288 423L281 417L267 411L256 408L252 399L248 394L234 389L223 375H206L200 365L194 357L188 352L178 344L163 345L157 342L153 338L137 316L135 314L129 313H128L118 316L109 305H107H104L90 313L62 331L53 338L41 355L37 362L39 387L40 396L43 404L78 449L84 462L97 470L102 481Z"  />
<glyph unicode=":" horiz-adv-x="238" d="M47 117L53 133L54 135L67 144L76 152L80 154H81L96 147L108 139L123 116L136 103L138 99V95L133 78L113 53L104 45L93 42L84 45L72 52L63 61L45 89L40 97L47 117ZM80 304L85 319L86 320L99 330L109 339L115 340H118L128 333L142 325L145 322L153 307L158 299L169 289L171 286L172 281L166 265L137 231L126 228L112 232L97 246L78 275L72 284L80 304Z"  />
<glyph unicode=";" horiz-adv-x="248" d="M46 15L67 41L70 51L63 58L54 76L50 100L51 104L56 111L63 123L82 146L93 153L102 154L112 152L135 127L148 107L149 104L148 100L138 85L127 57L95 13L75 -7L71 -10L64 -12H60L49 -6L40 -1L46 15ZM126 341L153 324L159 315L168 300L180 288L182 280L175 261L147 231L136 228L124 232L101 253L87 276L83 284V286L85 294L90 303L94 316L98 322L100 324L110 330L118 338L126 341Z"  />
<glyph unicode="&lt;" horiz-adv-x="560" d="M56 239V289L503 471V416L128 264L503 113V59L56 239Z"  />
<glyph unicode="=" horiz-adv-x="560" d="M56 320V370H503V320H56ZM56 159V209H503V159H56Z"  />
<glyph unicode="&gt;" horiz-adv-x="560" d="M56 59V113L431 264L56 416V471L503 289V239L56 59Z"  />
<glyph unicode="?" horiz-adv-x="597" d="M177 343L187 349L206 365L216 368L226 376L255 393L270 402L331 430L368 448L395 459L407 468L419 469L439 482L450 481H451L476 490L495 498L507 506L522 511L538 516L554 525L576 530L594 540L617 555L622 571L609 583L603 589L600 592L587 591H576H575L558 596L544 592L535 591L529 592L507 598L491 592L460 591L438 582L423 584L408 579L359 573L335 566L316 571L300 562L285 558L270 545L259 543L254 525L248 517L237 510L229 509L217 511L207 513L200 518L196 525L195 531L200 557L204 573L209 580L224 590L267 602L281 599L286 606L299 607L314 612L322 610L335 612L346 610L354 617L366 622L372 617L383 621L401 625L420 631H442L456 632H463L473 631L478 626L495 630L514 627L527 628L543 626L554 628L569 627L573 622H584L595 618L608 621L616 615L623 613L632 610L645 608L654 601L673 579L676 566L678 555H684V530L680 510L677 503L675 501L666 494L656 481L650 477L648 476L632 473L600 449L595 448L587 450L575 455L569 447L560 439L555 436L541 431L525 416L509 415L491 407L471 404L457 396L440 390L425 392L415 382L400 371L384 359L375 355L371 354H352L339 342L327 335L311 324H300L276 309L265 307L254 301L242 295L231 281L224 271L222 269L221 258L222 231L219 209L211 199L201 192L188 202L178 236L166 248L156 262L147 278V281L153 306L167 333L177 343ZM197 50L177 53L176 55L167 69L160 77L158 87L153 100V102V107L156 112L163 120L168 130L178 141L194 157L199 161L206 162L214 160L228 150L241 135L245 123L252 106L246 96L236 77L215 56L207 48L197 50Z"  />
<glyph unicode="@" horiz-adv-x="796" d="M768 430Q768 388 755 342T716 258T652 195T566 170Q535 170 513 188T491 238Q491 248 493 258T498 278Q475 231 440 201T350 170Q318 170 293 182T251 214T226 261T217 319Q217 359 231 401T272 478T334 535T415 557Q463 557 497 531T537 455L563 543H609Q607 535 600 514T584 465T565 404T547 341T533 285T527 247Q527 224 541 214T577 203Q615 203 644 226T694 285T724 359T735 431Q735 495 710 544T644 625T548 674T434 691Q359 691 291 666T172 596T91 486T61 343Q61 267 90 207T168 105T281 41T418 19Q460 19 497 25T569 44T637 74T704 115L722 91Q650 39 578 13T416 -13Q337 -13 267 11T143 82T59 194T28 343Q28 428 61 498T149 619T279 696T435 724Q501 724 561 705T667 648T740 556T768 430ZM514 425Q514 467 491 496T423 525Q388 525 360 504T311 452T280 384T269 317Q269 295 274 275T291 238T320 213T362 203Q398 203 426 226T473 284T503 356T514 425Z"  />
<glyph unicode="A" horiz-adv-x="594" d="M76 177L79 184L82 191L86 192L93 186L95 187L92 193L84 199L82 212L85 225L92 254L99 267L112 283L118 314L128 337L148 366L153 380L165 396L173 416L191 436L194 445L209 465L233 498L244 506L248 516L260 527L268 537L278 543L286 554L307 569L315 577L327 583L331 592L349 608L361 620L378 629L383 639L396 644L405 654L421 658L432 667L444 674L473 687L507 693L526 690L542 684L547 677L557 662L559 648L558 637L551 594L550 583L544 569L540 548L533 539L526 534L518 533L507 536L499 544L495 560L497 570L499 573L518 591L527 604L534 632L533 637L532 639L526 643L516 641L506 643L489 635L470 628L456 614L431 599L418 589L411 580L397 578L392 567L378 559L371 547L364 543L352 529L342 521H337L332 510L325 501L307 492L308 480L307 475L305 474L284 455L281 441L273 431L263 414L255 406L250 390L239 382L232 368L222 361L221 356L223 345V344L222 342L218 337L209 331L204 318L200 312L188 299L189 289L180 266L169 247L159 242L161 226L154 206L156 197L148 191L149 180L140 144L145 127L141 118L143 107L148 85L152 82L159 81L169 82L179 84L190 92L218 114L226 123L232 127L240 132L246 142L269 168L290 198L297 204L305 221L314 229L325 241L332 253L348 270L357 283L365 295L375 302L380 313L393 319L392 333L394 336L397 340L407 345L408 359L426 371L434 393L454 417L455 429L467 438V448L476 459L478 464L486 471L488 481L504 503L516 517L522 520H527L542 516L556 509L564 498L567 487L566 485L556 457L551 433L545 418L539 402L541 391L533 375L528 350L526 345L524 343L514 340L511 328L510 297L502 286L491 266L485 235L477 225L479 216L471 196L473 182L469 171L470 148L467 136V131L469 129L479 134L490 140L518 164L547 182L555 190L587 219L599 227L607 235L612 236L617 235L619 233L620 231L616 205L612 183L605 174L598 167L590 163L582 152L569 148L565 141L555 137L545 121L532 118L512 102L501 94L471 89L459 88L453 90L450 97H439L434 104L426 109L420 120L412 131L406 159L404 170L406 183L408 205L413 222L414 241L428 294V313L423 303L408 283L391 268L386 259L390 252L383 242L371 226L365 213L352 212L349 209L350 197L337 185L335 178L329 174L330 164L322 157L317 144L314 141L312 139H301L302 122L292 115L275 91L250 65L243 56L233 50L222 38L213 35L204 29L181 25L167 20L164 19L150 24L130 34L119 36L112 46L95 60L90 68L80 96L74 126L75 133L78 145L77 148L74 153L73 154L74 156L75 159L82 164L76 177Z"  />
<glyph unicode="B" horiz-adv-x="585" d="M116 599L140 607L151 609L172 614H193L213 620H218H221L232 617L240 625L256 630L291 635H306L328 638H368L420 639L454 634L476 631L486 628L496 625L505 619L539 598L552 583L558 559L554 541L537 517L496 486L449 459L414 446L398 436L414 431L432 428L465 418L515 399L542 383L555 375L561 364L569 362L573 360L575 356L581 342L590 330L594 316L598 304V293L594 270L593 260L587 254L579 237L552 206L547 203L538 200L528 190L509 178L499 167L489 168L482 160L472 151L459 147L448 145L446 140L438 134L430 133L412 120L396 121L393 120L385 113L378 107L360 109L352 101H343L321 89L312 87L306 82L291 80L274 73L261 75L251 70L242 66L185 55L159 48H150L140 50L132 56L125 54L115 47L107 48L95 47L82 56L71 54H70L64 55L60 58L54 71L47 69L45 70L41 74L36 91L37 97L47 111L63 126L125 170L151 185L188 203L223 222L239 223L240 224L243 233L258 237L320 269L365 286L386 295L398 298L414 304H418L432 300L447 285L451 273L450 267L441 251L435 243L420 240L415 245L400 244H390H385L378 247L367 243L353 242L341 235L289 218L245 198L225 192L201 176L139 140L130 133L126 127V124V123L129 120L138 117L182 115H198L215 116L232 123L271 130L279 137H291L298 138L302 140L309 146L328 148L357 161L381 168L398 180L409 182L434 199L455 205L467 220L481 224L494 235L507 243L511 249L536 270L544 278L549 277L553 278L552 288L561 293L557 304L559 312L549 327L548 334L537 337L530 346L527 349L513 356L495 363L475 370L452 372L407 381L382 380L343 386L324 384L314 386L304 387L287 385L276 384L264 387L259 391L258 395V396L261 408L263 419L271 429L286 445L294 449L319 461L359 473L403 494L418 500L450 520L479 539L487 546L496 551L498 554L499 563L498 573L493 578L482 584L462 591L423 596L399 599L387 600L377 599L353 594L352 595L343 601L339 599L329 591L308 594L303 589V585L308 577L313 568L311 557V543L305 534L302 523L295 506L283 479L271 451L265 442L260 424L242 388L235 368L227 356L207 304L197 290L188 253L172 216L167 205L158 206L149 210L143 215L126 243L119 251L116 260L115 264L128 298L137 320L150 345L160 364L162 373L171 385V394L183 405L185 417L192 424L194 436L201 439L202 449L205 457L213 462L222 468L216 472L217 483L227 493L224 506L231 520L241 541L251 551L249 564L257 572L264 576L269 585L257 589L248 587L226 584L212 578L204 579L192 574L145 569L135 565H126L118 561L107 558L99 561L89 552L78 546L63 543L47 531L42 520L24 507L15 501L6 505L-4 514L-7 524L-2 542L16 565L36 576L59 582L92 593L105 591L116 599Z"  />
<glyph unicode="C" horiz-adv-x="512" d="M78 198L85 223L97 262L111 295L114 304L119 311L128 335L136 341L142 352L148 353L144 370L157 385L161 397L166 404L173 413L188 418L194 409L200 415L191 420L184 434L192 445L205 451L200 455V460L209 469L214 481L224 487L226 485L231 486L233 497L232 508L248 526L254 538L271 550L276 558L288 568L302 576L305 573L314 571L310 567V564L315 567L317 570V573V576L310 583L317 595L332 606L349 620L365 629L373 637L385 636L388 632L391 633L388 642L402 652L427 661L438 669L463 676L476 677L490 683L502 676L511 679L522 669L535 659L541 647L545 633V631L543 609L544 592L537 577L532 556L525 541L519 521L506 496L453 416L448 409L436 403L438 393L435 384L425 374L411 364L400 362L388 365L382 369L370 384L368 392L373 407L381 419L412 442L420 449H428L432 456L433 467L445 477L449 483L453 489L460 492L466 501L481 526L483 538L492 543L493 560L501 566L502 576L504 588L511 606V618L512 626L510 632L505 637L496 639L491 638L463 625L451 621L444 625L441 623L439 615L431 613L422 604H414L406 592L396 586L388 574H380L371 557H361L358 544L345 531L338 523L328 521L327 508L317 502L316 496L309 489L304 484L293 479L296 473L291 464L289 460L288 459L283 457L280 442L272 430L263 418L259 407L252 396L239 391L241 376L233 364L227 349L216 334L215 324L208 310L198 285L187 273L184 262L182 251L173 237L169 220L159 211L164 210V195L155 178L148 158L152 149L149 118L151 108L146 106V100L154 92L163 79L167 70H179L192 73L202 74L218 81L238 86L249 98L268 102L284 121L305 133L317 144L327 148L334 157L341 162L348 168L371 189L378 200L386 207L395 205L396 214L405 219L415 225L420 236L433 245L446 258L456 259L460 270L464 277H473L479 291L491 296L499 309L515 318L522 322L526 323L531 322L538 314L541 305L540 299L531 291L529 280L519 272L508 262L506 252L493 245L484 231L476 222L469 221L465 209L447 195L443 182L432 180L424 171L415 160L409 151H400L393 142L382 139L373 125L367 120L362 113L360 112H358H356L355 113L353 120L344 113L348 105L337 91L331 86L325 84L314 82L309 71L299 68L284 53H271L263 46H250L244 39L236 37L230 32L226 31L223 32L221 34V44L217 33L215 26L213 24L209 23L207 24L197 27L182 21L147 32L138 33L131 36L122 42L119 51L108 57L104 68L96 77L93 83L89 93L86 102L82 110L77 128L73 166L74 188L78 198Z"  />
<glyph unicode="D" horiz-adv-x="630" d="M19 418L22 428L34 441L37 450L51 462L53 470L60 476L69 481L70 488L80 498L90 497L99 507L111 512L129 530L143 532L154 545L165 548L172 552L198 564L215 574L225 575L237 582L244 583L258 588L268 589L285 595L296 598L306 602L321 603L332 608L357 610L387 617L414 616L427 619L465 613L501 608L516 600L526 599L559 579L566 577L607 542L645 488L657 449L662 431V410L664 403L661 381L662 371L655 340L656 330L648 321L649 312L642 302L629 278L624 275V269L615 261L608 251L597 239L592 236L587 226L576 214L540 185L527 179L519 168L506 159L497 151H489L486 146L472 137H466L457 128L443 122L434 117L426 120L420 109L414 108L404 105H394L387 98L379 94L343 87L335 80H325L302 74L286 78L287 71L286 68L283 66H281H280L265 67H257L250 74L243 65L235 60L228 58L215 57L186 50L174 51L160 54L158 49L133 47L123 49L113 50L98 51L93 54L85 55L71 58L56 74L52 88L54 97L65 107L75 110H77L92 107H102L103 121L112 142L115 155L120 160L129 169L131 179L143 207L151 214L153 226L165 237L168 250L174 253L175 267L189 275L185 282L190 293L195 305L205 313L203 321L212 320L214 329L213 338L224 344L226 349L212 351L197 344H187L176 346L174 339L163 340L156 343L141 332L130 334L122 332L105 331L98 329L91 330L84 329L70 337L60 336L45 343L33 344L21 356L12 361L9 365L8 368L9 379L7 389L12 411L19 418ZM149 356L161 369L169 371H174L184 369L192 374L230 382L244 387L247 400L261 422L267 447L271 457L283 460L278 477L286 482L281 491L277 512L279 525L286 531L293 533L310 530L318 526L339 504L349 477L347 468L331 423L328 411H338L348 413L365 414L408 429L433 432L445 438L452 433L458 442L480 454L488 463L501 471L516 481L527 483L535 482L545 478L548 467L549 460L545 446L527 428L515 419L503 414L465 403L442 399H438L437 400L434 403L425 401L421 394L410 399L405 393L373 383L321 374L310 371L302 353L295 336L277 304L278 297L272 288L254 260L210 166L200 148L196 136L187 117V113L194 115L203 119H229L236 122L258 123L272 127L277 129L283 128L290 136L297 132L301 139L312 138L327 141L364 157L386 163L407 177L423 183L432 190L442 192L460 208L473 213L491 226L503 231L515 247L533 259L539 269L548 277V287L557 290L560 306L569 309L568 326L581 339L580 365L584 370L593 377L586 382L590 399L586 413L590 424L592 434L585 438V451L586 461L583 472L578 486L570 497L572 506L563 516L555 524L547 534L537 541L529 548L521 551L493 565L478 569L462 576L450 575L443 578L433 576L409 580L392 581L367 579L320 572L276 557L263 558L255 550L228 541L221 535L212 532L205 527L192 525L182 514L158 501L149 493L139 489L135 484L121 478L117 468L106 462L101 450L82 432L70 415L64 391L67 380L76 370L81 367L96 365L113 362L140 368L145 366L146 365V364L144 357L149 356Z"  />
<glyph unicode="E" horiz-adv-x="565" d="M71 119L67 124V126V130L69 134L70 141L79 152L74 157L79 168L83 184L93 192V207L94 212L95 214L109 226L139 268L157 279L161 288L173 296L190 314L196 320L204 323L216 325L222 336L230 342L238 347L257 355L270 364L289 374L297 382L307 383L322 389L325 396L319 392L301 389L293 383H289H283L272 384L265 388L243 400L241 402L239 404L237 416L238 421L240 442L241 452L251 465L264 491L280 508L286 521L295 526L304 540L317 547L318 553L332 563L340 569L350 583L360 584L367 590L374 599L407 621L417 633L423 634L432 631L452 650L456 652H459L469 649V655L480 661L489 666L502 667L511 672L524 676L534 675L539 678L547 681L552 680L563 674L574 676L589 667L599 665L606 657L615 643L616 638L618 612V603V602L612 588V578L604 563L599 550L591 541L588 532L585 527L582 525L574 524H569L560 526L554 536L548 554L549 560L557 570L571 579L581 581V590L589 595L591 605L592 614L587 628L583 637L579 641L576 642L575 641L568 639H553L541 635L530 633L512 623L496 621L492 616L488 614L474 599L439 579L419 559L398 542L382 522L365 504L353 482L345 473L337 468L321 433L314 425L313 419L324 422L335 428L372 442L420 468L433 471L474 486L497 490L516 485L524 477L527 468L526 464L524 459L518 449L509 437L491 420L485 416L480 413L477 412L470 413L444 407L430 404L400 385L393 384L376 370L362 365L342 350L332 348L323 334L314 328L309 332L305 325L292 308L276 303L275 293L273 289L272 287L259 286V275L245 268L240 263H239L231 267L233 257L221 237L214 234L206 219L201 218L195 207L194 199L193 193L189 189L183 185L178 177L175 166L171 158L167 133L162 121L161 116L166 94L170 83L177 80L182 74H192L196 77L206 74L214 75L222 73L233 78L238 74L248 80L258 81L265 90L275 88L283 94L339 120L347 129L369 145L393 164L406 170L416 177L423 180L434 195L450 198L461 212L473 218L475 226L486 231L489 243L498 247L510 258L525 267L535 280L546 286L559 300L578 314L591 326L599 332L610 335L609 324L603 292L601 289L563 256L553 244L543 234L537 227L529 226L523 217L509 207L499 196L491 193L462 160L444 148L438 141L429 137L411 117L401 110L396 109L379 114L374 113L375 100L367 97L362 85L343 70L335 63L327 60L318 55L299 45L288 39L280 42L277 45L268 31L263 26L262 25L231 15L210 5L201 7L188 4L176 5L164 3L157 6L139 12L130 15L126 18L125 22H120L118 28L108 33L98 40L96 43L93 52L76 68L70 85L68 92L72 99L67 104L71 119Z"  />
<glyph unicode="F" horiz-adv-x="500" d="M178 316L182 321L200 326L209 333L228 340L244 349L265 356L274 359L286 360L294 368H308L318 374L326 375L336 383L347 384L351 385L353 387L362 399L379 409L381 416L391 427L403 444L413 452L421 461L429 464L431 476L446 488L449 499L457 508L459 515L467 524L473 533L497 554L511 572L519 574L526 586L543 601L553 616L560 625L533 629L524 627H518L506 622H493L448 603L432 601L410 586L395 587L388 578L369 565H367L356 566H354L322 547L313 540L310 539H302L291 529L283 523L278 512L268 511L263 508L261 505L258 498L249 486L245 468L240 464L230 458L228 457L224 459L206 476L202 490L203 495L206 507L211 526L222 539L234 546L259 554L279 565L289 568L292 576L306 582L314 589L328 596L340 602H350L359 610L374 620L415 636L499 664L562 673L585 675L605 671L624 649L633 621V617L631 614L614 597L605 573L578 550L569 532L559 525L549 511L545 508L535 504L534 493L517 483L513 469L503 462L500 450L496 440L492 437L488 435H478L474 420L461 412L460 409L471 411L488 415L500 419L510 417L520 423L531 424L549 430L565 433L581 436L604 431L615 421L620 400L619 386L616 375L607 369L589 359L579 357L567 359L556 362L553 370L542 371L533 375L525 376H520L505 371L490 373L483 365L472 368L462 364L453 365L443 364L434 354L421 350L412 333H405L403 328L400 316L390 314L386 302L382 288L373 280L367 263L355 244L343 229L332 207L321 198L315 178L288 136L285 124L282 114L278 110L270 109L267 92L257 68L254 58L245 53L244 52L243 45L241 34L233 30V19L232 13L230 11L222 6L220 -7L211 -12L214 -28L206 -35L210 -46L205 -55L208 -65L209 -71V-74L206 -80V-82L207 -84L209 -87H212H215L221 -84L230 -78L236 -87L237 -99L233 -104L235 -114L232 -120L227 -124L205 -128L179 -124L164 -115L154 -106L150 -101L142 -79L135 -59L134 -49L135 -42L140 -22L145 3L150 15L160 48L167 58L180 74L192 82L186 84L184 86L183 88L184 89L188 97L194 110L204 117L203 123L210 133L208 141L217 149L226 171L237 181L238 198L249 215L262 234L276 262L309 316L315 328L302 326L267 308L255 311L239 295L224 294L207 288L193 280L183 281L174 272L169 271L161 264L152 260L145 253H131L124 245L99 227L86 206L79 200L72 189L69 188L66 187L61 188L52 200L46 216L49 227L54 241L68 264L78 270L106 280L138 301H148L158 305L166 311L178 316Z"  />
<glyph unicode="G" horiz-adv-x="504" d="M78 165L85 182L87 195L97 207L105 205L102 211L103 215H108L106 221H101L100 232L106 242L108 253L116 265L120 274L132 276V287L139 304L144 305L146 322L155 328L154 337L162 350L175 367L191 399L209 419L215 428L222 430L226 439L232 449L235 451L242 449V460L249 467L253 476L313 533L326 548L343 554L351 565L359 568L371 580L378 582L390 584L391 594H403L408 603L421 610L428 616L444 622L460 632H469L478 640L486 641L495 645L506 643L518 646L526 643L542 638L551 634L555 622L562 609L565 594L568 584L563 574L562 560L545 520L540 509L533 499L521 501L509 505L505 509L501 518L508 537L533 563L540 576L544 585V587L543 592L539 595L534 597L530 596L526 594L517 588L505 587L480 577L458 563L446 559L423 538L398 517L391 507L379 505L373 496L364 489L342 465L328 458L323 449L310 439L297 413L286 403L279 393L269 381L265 371L254 365L248 354L235 340L226 327L211 315L212 300L202 284L180 251L175 229L165 213L161 198L153 188L141 155L136 143V142L137 132L134 121L132 111L130 94L139 78L155 83L165 91L178 98L196 116L209 123L216 129L228 131L235 145L240 153H241L255 158L259 173L324 244L333 262L348 265L351 275L362 292L370 299L375 309L382 314L414 361L431 381L439 398L456 422L468 442L479 450L491 453L498 452L506 445L520 419L530 393L527 374L524 352L511 330L506 315L497 301L483 263L475 253L463 212L452 193L449 181L452 180L456 182L463 190L475 198L480 206L488 211L494 214L501 215L512 224L521 231L551 246L564 254L573 263L577 262L589 266L590 251L578 242L577 228L574 218L566 209L558 204L546 202L540 190L524 189L517 182L506 175L499 169L491 161L484 160L474 153L460 141L443 134L432 128L430 125L422 112L413 99L398 55L390 43L391 31L373 -1L362 -41L348 -60L343 -79L334 -89L319 -128L295 -163L291 -178L284 -191L272 -205L262 -222L242 -248L230 -271L219 -275L217 -288L207 -292L200 -303L198 -305L193 -306L179 -307L176 -314L174 -315L171 -316L148 -309L140 -305L139 -302L133 -284L127 -275L125 -263L120 -253L123 -245L121 -235L125 -218V-198L134 -177L138 -161L146 -148L164 -103L175 -87L185 -70L188 -60L204 -47L220 -19L232 -13L235 -6V3L242 10L261 31L266 38L295 64L315 87L334 104L353 123L359 125L363 136L365 147L375 164L376 174L388 192L389 204L397 217L403 232L408 242L410 253L421 270L426 285V293L419 284L412 274L392 261L363 227L353 225L347 221L343 216V214L344 204V202L343 200L341 199L332 196V188L331 183L328 180L316 173L310 163L300 157L296 147L292 139L289 136L280 132L266 115L254 110L251 97L242 94L239 86L220 69L208 54L197 52L182 46L172 43H159L148 44L136 53L119 55L108 63L97 70L85 86L75 98L74 100L73 116V120L74 155L78 165ZM224 -198L227 -196V-179L232 -165L234 -155L242 -148L243 -140L250 -132L260 -103L269 -88L275 -79L284 -75V-67L287 -63L288 -53L290 -46L293 -42L305 -33L304 -20L320 12L322 28L330 34L337 42L334 55L333 54L331 46L320 41L309 33L303 21L289 15L286 1L283 -2L271 -5L265 -9L257 -26L253 -37L243 -39L237 -41H236L233 -50L215 -75L208 -92L196 -109L188 -141L176 -158L174 -170L162 -202V-212L160 -222L162 -232L161 -259L166 -265H167L175 -259L182 -252L201 -229L210 -211L217 -199L224 -198Z"  />
<glyph unicode="H" horiz-adv-x="702" d="M435 658L466 644L480 626L485 605L484 596L483 586V576L477 565L474 551L458 520L450 502L420 457L416 446L408 444V433L403 422L395 407L389 391L401 389L426 399L464 406L471 407L482 406L498 414H499H509L534 418L547 424L602 430L631 436L642 437L647 447L649 457L660 466L664 477L671 487L676 502L687 520L692 534L697 542L704 550L705 560L714 569L715 584L717 590L724 591L727 594L728 597V613L736 626L746 663L749 686L751 692L760 700L777 704L788 701L804 685L808 680L811 663L798 611L784 587L779 577H771V563L766 557V550L765 544L759 536L751 527L750 517L741 499L738 488L724 463L720 447L750 446L768 447L770 446L785 444L796 442L798 437L809 435L813 430L815 420L812 407L809 403L796 394L786 387L782 385H778L773 386L761 391L745 390L734 394L725 393L702 394L692 389H683L675 372L655 334L649 318L643 311L637 296L629 293L627 281L623 265L613 258L610 255L606 241L604 228L598 216L593 204L588 198L579 184L573 177L566 170L568 159V157V153L567 151L558 145V133L548 129L550 119L551 117L550 114L549 112L539 105L544 93L540 72L548 61L547 50L554 44L555 42L551 32L546 24L539 20L522 17L507 20L488 30L484 40L474 52L473 54L470 82L471 98L473 115V116L472 134L476 146L471 170L467 195L459 210L458 217V220L464 229L453 232L448 235L446 237L437 251L418 258L405 267L378 279L373 286L359 289L350 295H336L323 291L301 252L295 242H289L287 221L274 209V199L269 192L266 179L250 162L249 151L239 121L234 107L223 99L226 83L224 80L221 78L210 75L213 60L204 50L207 32L197 19L198 -2L196 -8L189 -14L183 -16L178 -15L171 -9L148 17L144 24L135 52L137 72L141 96L151 116L157 131L169 151L186 192L198 209L201 222L213 238L222 258L240 288L246 296L242 305L231 303L213 300L195 297H192L177 304L180 313L183 319L185 320L205 334L212 339L240 348L255 358L269 360L275 364L280 363L287 371L298 385V388L301 399L318 419L321 434L331 444L343 469L351 478L361 497L387 537L392 551L401 564L408 582L420 604L419 619L406 617L379 613H369L356 607L346 605L324 594L307 592L297 585L280 580L276 572L262 571L251 558L230 547L223 540L213 538L206 528L193 513L181 493L171 483L160 479L153 469L139 470L128 476L117 489L113 504L115 513L123 527L129 531L170 554L192 567L204 569L299 624L313 626L342 641L354 642L389 655L414 658L425 661L435 658ZM347 308L384 298L390 299L407 294L418 290L424 285L444 281L465 267L479 257L484 252L492 237L503 203L509 194L513 205L534 252L538 260L546 266L545 273L552 283L557 290L561 303L572 317L585 345L594 351L596 362L604 377L593 379L579 376L566 378L552 371L547 375L546 376L541 375L518 370L498 369L488 366L478 368L466 367L455 371L444 362L439 360L435 359L422 361L416 363L414 369H410L407 360L404 357L401 355L385 352L373 347L366 345H355L334 308H347Z"  />
<glyph unicode="I" horiz-adv-x="349" d="M271 682L282 681L285 689L294 690L333 697H335L354 695L375 690L385 687L394 678L402 676L406 669L429 645L441 628L445 608L444 597L449 594L447 584L445 552L440 536V528L434 515V502L427 491L419 464L399 432L374 373L364 363L358 353L355 337L350 331L343 327L332 318L331 303L320 289L304 252L298 247L290 245L289 235L287 229L286 227L268 205L259 181L246 161V155L240 144L231 146L232 131L231 121L219 97L216 83L209 74L206 67L203 62L201 61L194 58L197 53L194 43L196 19L192 9L206 -13L207 -18L204 -30L196 -38L177 -43L156 -38L147 -33L136 -22L120 -4L116 3L111 28L110 39L115 44V49L119 69L122 81L137 109L149 137L156 145L161 162L175 186L179 196L187 199V211L200 230L208 247L214 252L221 268L237 275L234 287L239 300L244 311L262 335L267 348L273 352L276 364L284 378L297 395L301 407L308 417L315 418L316 430L318 440L326 449L335 457L332 466L342 474L349 483L350 498L366 525L369 539L377 552L380 559L381 562V563L380 578L385 583L388 589L389 595L388 600L386 607L384 619L377 628L362 634L352 641L336 642H326L315 643L314 641L302 642L275 632L258 629L248 626L246 624L238 615L236 613L234 612L228 615L223 612L221 600L200 586L182 568L176 563L165 552L149 533L140 518L132 510L125 502L124 497L121 477L111 466L116 450V447L115 441L110 430L123 418L125 407L121 392L106 378L92 374L77 377L70 384L67 400L66 410L68 428L71 439L73 456L89 487L95 503L106 521L113 532L121 541L128 559L141 572L145 582L161 592L163 599L165 603L168 606L189 622L199 635L218 647L225 655L234 659L246 669L262 672L271 682Z"  />
<glyph unicode="J" horiz-adv-x="338" d="M105 65L116 71L128 84L139 90L158 109L165 112L195 133L211 144L216 154L226 172L229 183L235 192L242 200L239 209L244 218L248 229L257 242L261 262L269 274L276 283L275 295L285 313L290 331L294 341L303 338L309 332L310 339L302 345L300 349L299 353L300 357L301 361L306 368L308 377L314 386L315 397L318 407L325 417L330 426L338 432L330 442L341 452L339 462V463V467L341 469L356 477L351 489L357 503H365V505L360 511L359 516L363 527L364 536L373 543L375 554L376 563L380 569L378 579L383 594L381 607L376 630L366 641L353 646L341 648H336L330 645L321 641L312 642L306 634L297 636L289 624L272 613L242 590L235 585L227 571L215 566L211 557L199 544L174 506L152 475L144 451L137 443L138 434L127 427V409L121 393L120 376L116 364L115 348L111 329L117 313L114 271L128 247L129 234L138 224L147 206L162 198L171 186L180 155L179 150L174 140H165L154 143L145 155L133 173L126 196L109 227L104 243L97 252L96 274L90 287L88 305L82 315L79 355L76 382L78 393V414L86 462L90 474L106 517L127 550L133 562L142 568L151 584L159 588L170 601L180 604L186 618L209 630L221 642L232 643L239 649L249 652L261 657L273 660L286 664L290 657H294L297 664L303 667L307 671L318 670L361 673L387 669L396 666L409 653L433 630L435 627L437 616L438 601L441 591L442 581L440 572L437 563L433 506L420 463L410 435L397 428L401 418L400 413L399 401L393 388L390 374L386 368L377 362L381 354L376 330L368 324L367 313L365 305L357 295L349 289V277L344 262L341 250L333 240L327 223L320 213L316 201L325 205L334 216L355 227L369 240L381 245L407 267L431 282L441 288L448 290L454 289L457 286L458 282L454 267L452 256L448 246L440 242L433 235L421 236L416 225L411 220L409 219L385 211L375 198L366 194L350 185L334 177L322 167L307 163L296 154L289 148L287 138L283 129L276 123V112L268 102V89L252 63L250 50L242 44L238 34L228 11L219 0L199 -41L173 -85L164 -104L159 -111L155 -121L147 -125L143 -132L136 -137L137 -146L136 -149L134 -151L124 -156L121 -166L113 -176L106 -193L97 -196L94 -207L83 -213L79 -226L66 -235L58 -250L37 -261L18 -275H16H10H-1L-10 -268L-19 -252L-31 -231L-33 -228V-221V-220V-193L-32 -173L-24 -157L-22 -149V-148L-24 -132V-129L-23 -122L-21 -117L-8 -95L-1 -74L5 -69L13 -51L37 -18L41 -5L44 2L47 4L61 13L80 42L96 49L105 65ZM30 -194L37 -184L51 -169L62 -145L75 -135L77 -125L81 -112L101 -87L106 -72L114 -61L123 -43L129 -35L131 -22L150 13L165 46L172 57L190 81L193 87L200 97L197 98L186 92L176 88L163 74L152 68L147 56L125 37L123 29L112 17L104 5L96 2L92 -12L84 -17L78 -37L67 -39L64 -54L56 -57L53 -66L46 -75L44 -91L37 -99L34 -112L27 -123L24 -144L15 -152L14 -170V-173L18 -181L22 -200L30 -194Z"  />
<glyph unicode="K" horiz-adv-x="621" d="M111 217L115 227L121 242L125 253L133 258L137 271L154 302L157 315L161 324L152 332L86 378L81 383L79 392L81 401L87 411L96 418L118 429L137 441L152 449L163 451L220 484L232 488L251 501L254 505L261 524L264 532L269 536L280 541L283 545L277 553L279 564L283 578L291 595L292 605L296 627L287 671L292 684L301 693L307 694L318 693L338 689L343 687L348 682L356 667L366 656L371 646L374 625L371 605L370 602L362 593L354 578L349 573L347 570L346 569L347 553L340 543V542H350L357 548L372 552L401 568L412 572L426 584L445 590L452 594L463 597L471 604L486 613L496 615H507L513 624L518 628H525L536 632H542L555 643L566 645L579 653L598 656L610 665L627 671L639 680L650 683L660 688L667 687L690 698L697 696L709 693L711 692L712 690L717 673L718 665L714 648L700 632L678 618L664 611L641 607L607 590L558 577L539 566L522 562L495 550L486 549L477 545L460 540L440 531L426 528L402 514L392 511L379 503H369L351 492H339L329 482L322 481L312 478L311 471L304 462L300 451L290 441L287 430L280 418L274 403L268 395L262 382L260 375L254 371L255 357L238 330L234 319L243 313L252 308L268 299L281 294V285L302 276H311L322 266L338 262L350 255L365 247L374 240L391 235L402 224L416 222L424 220L429 217L435 208L446 203L471 191L475 185L485 181L497 175L508 165L520 164L549 147L564 142L571 134L599 120L606 109L612 89V87L605 75L601 67L590 62L570 55L563 51L552 53L543 59L537 66L534 75L529 80L526 74L513 78L486 102L460 117L432 139L398 159L384 171L361 182L344 197L334 204L329 213L317 221L303 234L291 239L256 265L226 282L215 289V275L210 265L203 267L199 257L197 241L191 225L188 212L185 205L182 203L176 200L175 192L166 175L140 101L130 75L132 67L128 48L133 37L129 25L124 15L119 11L113 9L106 11L99 18L88 20L79 26L70 39L68 48L67 57L61 75L60 81V86L65 104L67 119L75 132L92 182L103 202L106 213L111 217ZM213 438L207 439L201 433L192 432L177 423L155 416L147 409L133 399L130 394V390V386L135 379L170 359L180 356L213 438Z"  />
<glyph unicode="L" horiz-adv-x="665" d="M287 283L291 290L294 299L301 308L302 319L317 343L328 372L335 384L339 394L330 389L311 379L298 368L290 365L266 350L250 346L227 334L213 341L212 330L204 325L195 323L189 324L176 335L170 343L171 354L173 362L174 364L187 375L197 384L201 386L212 387L222 386L232 385L240 379H243H248L258 381L267 391L268 392L279 395L293 400L312 411L325 415L331 423L338 427L342 433L352 437L366 444L367 445L377 464L380 470L379 475L386 485L390 499L413 520L412 529V531L415 545L423 556L432 561L433 572L437 585L440 588L450 594L452 598L451 609L456 614L463 615L466 625L477 640L483 651L488 656L493 658L504 659L503 670L512 683L519 691L530 698L541 702L559 705H564L575 697L585 690L594 665L593 657L589 633L590 622L582 620V610L579 594L576 590L563 585L562 572L548 567L547 562L548 551L539 541L530 540L524 538L521 528L512 521L504 510L491 500L480 489L469 482L451 469L442 464L438 449L415 399L414 387L409 384L408 378L403 365L399 354L391 338L385 321L373 300L365 280L356 267L352 257L338 253L343 248L345 244L341 236L340 229L323 206L320 197L314 192L312 181L303 167L302 156L312 154L330 158L338 156L348 158H349L358 156L369 155L396 157L405 158H406L430 156L440 159L454 156L467 158L486 154L497 155H499L529 149L562 140L573 137L584 139L592 140L607 138L613 135L644 113L652 108L657 97L658 88L653 63L649 55L641 46L632 44L602 54L592 60L586 67L576 74L572 84H557L543 89L526 99H518L512 104L502 105L489 107L487 108L482 115L461 117L453 121L444 119L434 122L428 120L418 121L397 122L390 124H378L361 121H344L340 124L331 118L316 114L291 111L279 110L273 102L265 91L256 88L253 75L242 66L237 61L232 59L226 49L215 36L209 33L200 34L205 27V26L204 24L203 22L191 18L183 10L172 8L163 0L140 -4L128 -11L118 -10L103 -11L93 -8L90 -11L81 -8L63 -6L54 1L32 7L29 9L15 26L7 39V44L8 48L10 53L14 56L41 70L63 83L80 86L105 98L133 100L140 107L151 113L161 117L183 120L192 135L200 143L214 164L224 178L225 179V187L227 195L233 202L245 214L253 234L265 244L279 267L287 274V283ZM43 37L53 31L54 30L73 27L89 26H91L92 27L104 34L117 35L125 42L134 46L140 54L149 62L154 71L156 81L145 80L132 79L113 71H104L73 59L52 53L45 49L34 46L32 44V42L34 39L43 37ZM514 572L524 588L541 601L551 615L565 646L572 665V676L562 671L556 667L539 644L530 632L516 606L511 597L497 565L493 553L514 572Z"  />
<glyph unicode="M" horiz-adv-x="940" d="M85 388L136 413L153 420L163 427L177 432L198 441L202 443L205 449L223 451L239 464L263 473L275 482L291 485L320 498L343 505L356 509L375 511L385 513L394 514L414 509L429 493L440 465L437 453L433 441L418 421L412 405L402 389L394 374L376 354L361 324L355 318L350 307L329 272L325 264L318 254L310 228L304 218L319 228L320 237L329 242L337 254L346 262L367 281L378 287L393 311L406 319L419 331L440 355L446 365L470 383L476 392H481L487 395L490 398L494 411L513 425L525 436L529 438H530H531L535 435L539 438L540 450L544 459L549 462L564 468L584 488L600 492L606 502L612 506L622 514H631L641 521L652 524L662 527L663 528L685 523L691 520L702 511L711 500L713 486L718 482L720 479L715 470L713 447L704 424L698 400L681 375L679 367L674 359V346H679L687 350L691 366L705 375L722 398L734 407L743 412L746 421L756 430L769 444L784 453L798 472L820 484L829 496L848 513L867 527L875 529L890 539L907 546L923 554H932L944 558H951L964 554L985 533L993 508V507L992 493V470L981 449L980 435L972 423L965 412L960 407L959 406L955 394L953 388L946 383L944 371L938 365L933 358L927 354L923 342L914 333L906 316L898 308L896 298L890 288L883 275L877 269L870 256L864 252L860 235L849 232L853 220L847 212L842 204L841 190L828 166L825 150L823 133L827 123L840 95V88V80L836 67L831 63L814 59L800 62L795 64L784 73L773 77L774 86L759 90L754 97L748 105L744 117L740 142L741 150L747 179L750 200L761 221L764 234L775 245L789 273H800L794 282L802 294H809L812 298L811 311L812 314L815 317L823 322L826 338L836 348L835 356L843 367L869 409L878 419L886 436L901 446L896 456L905 468L913 481L920 496L900 493L893 482L877 473L867 463L856 459L845 450L838 447L822 432L798 412L782 396L768 387L758 372L751 364L743 365L734 360L739 356L733 345L721 337L706 320L697 313L687 303L682 293L664 273L655 263L649 260L641 248L634 242L622 226L619 217L611 214L608 207L602 204L601 193L592 187L567 170L558 169L550 165H549L541 169L527 177L524 187L520 198L523 209V225L531 237L545 276L554 291L558 307L563 309L567 314L574 321L594 357L601 365L605 380L620 402L626 417L632 425L634 439L618 441L599 424L589 421L579 417L567 406L550 396L542 385L527 379L494 351L482 345L472 337L461 328L447 312L440 309L430 305L425 291L412 281L402 265L383 250L376 240L360 231L358 218L343 206L340 196L337 190H329L318 185V171L315 165L310 158L302 151L295 140L288 139L283 125L263 104L216 41L212 36L206 33L194 28L183 23H180L172 24L161 27L158 32L149 38L148 52L143 56L142 61L143 65L164 118L166 132L177 140L188 149L187 161L191 167L194 175L205 179L202 191L216 203L215 216L216 221L219 225L228 235L236 257L246 274L252 285L262 291L265 303L270 318L280 325L285 336L292 351L294 353L302 354L312 355L314 359L312 361L307 357H300L311 380L314 390L328 409L340 441L349 458L350 475L334 470L320 468L288 450L274 447L250 437L236 433L224 427L215 426L206 415L185 399L156 381L126 365L118 359L110 353L109 342L98 329L83 319L79 318H77L63 323L55 325L52 327L49 332L46 344L48 355L52 362L75 384L85 388Z"  />
<glyph unicode="N" horiz-adv-x="743" d="M283 516L294 523L314 528L323 531L330 526L339 537L356 538L367 543L382 542H385L387 541L390 535L394 541L397 543H398H400L417 536H425L433 534L436 531L440 521L456 496L457 493V491L444 460L432 436L419 420L415 412L401 397L396 377L373 354L350 313L335 298L323 280L319 270L329 280L348 303L380 331L399 351L407 354L411 360L434 380L444 394L455 399L456 406L460 411H469L470 422L482 425L484 430L488 432L492 441L513 459L518 468L531 476L538 482L544 481L547 478L549 488L552 492L561 499L588 513L616 532L632 538L659 554L694 555L714 556L725 554L737 545L753 533L761 519L763 504L759 486L742 456L736 442L725 423L719 406L701 382L682 342L670 326L665 310L651 293L635 252L629 248V247L624 230L617 215L609 199L602 185L594 174L593 161L588 150L585 126L583 112L584 108L588 104L593 103H598L608 108L630 123L646 137L667 153L694 175L704 177L709 187L722 204L735 212L742 214L747 213L756 206L751 201L754 189L752 179L749 168L740 162L736 154L726 147L718 142H710L706 132L697 126L675 107L665 102L655 95L635 88L623 79L609 77L593 73L579 72L566 73L549 83L525 99L512 113L504 148L503 170L504 174L519 205L522 215L533 220L532 233L535 240L536 249L560 286L568 300L580 331L591 345L597 365L609 379L616 392L625 404L635 424L655 452L658 461L663 472L664 481L673 494L674 506L659 503L643 493L604 475L591 464L572 453L565 445H555L549 436L540 430L531 418L514 413L497 390L476 383L468 363L443 347L432 326L421 322L414 314L399 295L388 288L371 272L357 254L339 240L325 224L300 197L291 182L282 174L274 166L264 163L257 155L240 131L220 111L209 96L200 91L197 81L184 71L175 54L168 49L148 43L139 45L130 52L121 67L114 81V101L113 110V112L114 113L129 137L137 157L146 166L157 188L168 190L170 194V206L176 214L183 228L191 234L196 243L207 263L214 271L220 282L227 287L228 295L237 307L246 313L250 326L262 339L275 358L282 365L293 380L301 387L304 399L314 401L319 413L324 420L328 431L343 436L342 449L357 467L365 483L366 487L365 491L363 493L361 494H360L347 491L337 492L324 487L302 482L292 477L282 478L259 465H258H253L241 466L234 459L226 457L216 455L210 447H198L185 434L137 410L129 400L119 392L105 370L93 364L83 355H81L69 356L60 359L52 367L46 387L48 397L56 408L65 415L108 436L126 445L139 447L164 461L206 482L215 489L263 508L274 515L283 516Z"  />
<glyph unicode="O" horiz-adv-x="530" d="M82 212L83 227L91 240L90 251L91 256L95 260L103 266L100 276L110 289L109 305L118 317L121 330L124 336L128 339L134 341V352L136 357L137 365L150 370L149 378L158 387L155 397L168 409L180 428L185 442L190 449L195 451H203L206 468L222 487L230 498L239 505L248 521L255 525L264 531L265 538L274 545L284 558L292 564L297 577L308 580L314 589L340 614L346 617L357 621L364 631L370 635L373 643L384 645L408 661L409 662L419 663L425 662L429 659L436 649L441 637L454 648H467L475 653L488 657L500 666L520 663L535 670L562 666H584L596 661L605 658L612 652L618 644L628 638L632 629L645 600L650 584V583L649 557L650 541L643 529L641 505L623 466L617 442L606 417L604 416L600 415L595 403L587 381L585 379L571 367V353L558 336L548 315L522 284L515 271L507 264L485 230L471 218L465 212L454 206L453 195L446 186L405 150L384 121L366 111L359 102L350 100L345 90L335 86L322 71L312 68L297 58L280 53L269 51L267 45L254 41L243 37L237 29L223 30L212 27H207L202 22L194 25L187 24L175 21L171 22L149 31H132L117 44L98 59L92 70L86 80L84 92L79 102L78 122L75 132L76 148L73 166V168L78 187L84 197L82 212ZM338 171L350 177L362 197L371 199L374 202L377 215L386 224L401 243L412 254L430 280L439 289L443 299L458 309V319L461 329L465 334L484 350L486 353L488 359L489 368L499 382L503 390L510 397L518 409L523 420L534 434L541 455L550 461V474L558 485L569 516L576 528L574 537L579 552L576 568L580 580L579 589L580 598V599L570 617L566 626L551 628L536 627L519 629L484 616L474 615L465 612L460 608L454 600L444 601L439 587L422 576L401 555L372 522L365 509L362 497L348 476L347 465L345 462H340L343 451L341 429L345 401L342 382L331 371L315 367L304 370L296 379L292 398L290 415L295 441L303 461L314 474L319 493L348 532L361 558L382 576L396 596L406 606L420 617L403 613L378 594L364 587L358 577L354 572L343 562L333 548L319 538L316 526L308 518L303 507L295 502L292 492L277 484L278 474L259 446L257 439L253 428L242 419L234 394L192 330L188 315L181 307L170 271L164 265L162 253L157 247L151 225L143 214L145 206L141 194L135 176L133 156L127 129L128 118L127 107L129 97L127 86V85L130 76L144 63L166 57L208 68L220 73L236 89L252 94L266 108L275 111L284 120L293 125L298 134L306 140L315 152H322L335 157L338 171Z"  />
<glyph unicode="P" horiz-adv-x="581" d="M141 575L147 578L152 579H155L163 576L169 585L179 593L191 601H194H195H203L213 604L214 608L222 614L229 619L241 622L263 631L297 639L327 647L342 648L366 656L382 657L394 659L398 652L415 664L424 667L426 668H427L438 666L452 669L465 666L494 671L509 670L563 671L590 667L603 663L615 662L638 658L642 656L652 647L671 643L676 639L678 637L682 629L691 623L697 617L696 605L709 600L710 592L718 581L721 571L726 555L728 538V498L727 489L720 466L717 452L707 432L690 406L686 399L680 395L678 387L677 386L664 376L654 367L647 368L639 357L609 338L584 330L572 331L565 325L555 323L544 317L507 307L496 305H493L479 308L471 303L466 301L464 300L443 303L411 297L405 304L402 303L396 294L377 297L353 295L336 299H326L318 301L309 302H304H291L283 292L271 278L259 254L246 246L245 228L228 208L225 190L217 179L213 167L205 160L204 145L177 87V59L171 44L162 35L150 32L137 35L129 42L119 57L110 70L105 80L104 90L112 121L155 203L159 209L169 214L173 212L175 216V217L172 227L171 232V233L178 241V253L184 264L194 288L200 292V304L201 310L204 314L213 324L217 332H224V347L225 352L229 357L236 364L243 360L244 362L239 367L238 371V372L239 373L254 397L258 411L261 421L268 422L271 434L276 444L297 482L306 495L308 502L313 513V525L317 537L320 548L325 555L332 564L343 565L352 564H353L364 552L371 546L375 530L385 510L388 488L386 478L381 473L370 465L363 458L358 449L352 430L340 411L330 381L315 365L313 353L312 339L323 341L332 342H334L349 339L358 343L369 339L386 344L405 342L420 347L463 354L479 361L503 365L514 371L532 372L542 383L582 401L613 430L621 435L620 443L629 450V461L643 473L639 478L644 492L643 502L645 507V520L643 550L634 572L622 587L612 594L611 602H597L589 610L575 609L558 618L546 619L537 623L520 621L507 623L490 624L480 627L470 621L461 623L431 620L400 623L390 616H386L383 621L374 616L366 618L343 611L307 606L269 594L259 593L247 589L237 590L216 580L194 570L183 562L170 561L158 550L132 529L124 517L113 513L102 510L101 498L94 495L91 491L83 474L80 454L74 450L68 447L62 445L57 447L47 457L40 484L45 503L58 519L77 533L101 550L116 557L129 560L141 575Z"  />
<glyph unicode="Q" horiz-adv-x="510" d="M104 308L108 317L109 327L116 334L120 348L134 377L140 394L153 406L158 423L166 425L170 439L191 476L197 488L206 498L215 509L223 514V524L228 528L236 532L244 552L252 558L261 569L270 576L273 584L282 595H289L293 604L311 623L338 647L345 648L353 656L368 668L371 669L389 671L399 674H401L411 672L417 667L424 656L443 666L457 679L478 686L491 696L505 698L527 700H530L549 698L571 692L576 689L595 667L604 658L607 652L608 650V649L606 636L607 635L612 628L616 625L617 619L611 616L616 603V599L610 562L609 551L603 540L606 527V525V522L605 521L599 513L598 500L589 479L583 459L572 438L571 424L567 414L561 406L553 399L552 388L548 378L536 343L523 332L514 310L491 274L481 250L469 242L466 229L458 219L455 211L444 204L440 194L431 183L424 171L418 167L407 164V156L397 146L394 137L379 123L371 115L362 109L351 91L338 82L337 79L343 64L351 50L361 43L366 36L377 25V15L388 13L410 14L418 9H430L438 5L452 -10L455 -20L454 -25L451 -31L443 -40L433 -43H423L417 -46L394 -45L374 -34L359 -27L353 -18L342 -8L338 3L327 18L323 30L316 39V51L311 60L303 51L286 46L275 35L265 29L259 26L243 20H233L228 15L216 16L204 10L186 12L165 10L155 11L153 12L124 33L109 41L99 54L84 92L74 145V146L77 156L75 165L76 189L75 200L82 218L81 234L92 269L97 291L102 296L104 308ZM140 108L141 91L148 66L153 56L159 51L165 50H169L188 58L195 59L205 67L227 74L241 90L251 95L262 108L270 112L277 119L268 131L262 138L258 149L251 155L240 149L230 144H229H228L216 145L205 146L202 149L199 153V158L201 167L212 177L231 182L261 177L264 175L269 167L289 145L296 139L305 145L315 155L337 184L349 206L357 214L363 223L372 228L379 241L396 257L402 270L411 276L415 292L435 313L440 328L455 351L469 371L481 385L482 389V402L492 416L497 426L501 435L506 452L513 458L519 472L528 477L527 493L529 504L535 515L542 524L541 537V544L551 574L552 588L555 606L554 625L552 626L551 637L542 648L536 654L525 655L493 650L469 639L431 612L414 600L392 576L380 567L375 558L365 552L356 530L346 524L344 515L332 490V481V469L340 450L341 442L340 438L332 421L326 410L322 408L311 406L300 409L293 416L287 430L286 440L287 443L297 474L298 484L322 518L333 546L347 562L352 577L359 585L366 596L382 609L389 617L381 618L368 614L361 606L344 599L322 575L311 562L302 548L292 541L281 518L269 503L267 492L252 473L240 451L235 444L226 436L229 428V422L218 411L204 388L201 375L192 366L191 345L183 338L173 325L171 320V304L162 284L154 260L149 249V239L140 216L143 204L139 191L138 165L136 145L138 134L135 115L140 108Z"  />
<glyph unicode="R" horiz-adv-x="597" d="M141 599L157 604L186 611L219 621L225 622L236 618L242 622L244 626H259L280 631L291 630L302 635L309 634L331 640L359 643L394 650L417 651L428 652L430 651L440 646L467 652L490 649L507 652L520 645L526 649H536L549 650L557 647L575 648L591 643L610 642L629 634L638 635H641L655 626L660 623H661L666 624L678 618L684 608L697 599L699 592L703 583L717 572V561L723 542V529L721 515L718 495L714 486L712 484L701 476L692 463L680 458L663 446L649 445L630 433L610 430H600L593 422L586 419L511 407L504 403L493 402L482 395L467 397L460 393L456 392H455L449 397L440 390L433 386L428 385L424 386L417 387L402 381L393 384L378 379L364 370L360 372L352 377L344 370L337 364L324 366L313 362L301 355L295 342L291 330L285 323L283 311L273 301V292L263 282L256 269L247 254V251L248 249L267 230L311 194L321 188L320 181L326 177L327 181H331L333 180L339 175L349 167L356 161L362 148H364L367 151L376 146L386 140L413 117L422 111L436 95L460 79L469 71L475 68L483 63L493 52L529 24L547 10L564 -7L572 -19L583 -24L603 -41L613 -53L616 -65V-77L608 -84L586 -99L578 -100L565 -98L548 -90L538 -87L531 -69L530 -68L520 -64L508 -59L506 -57L491 -39L467 -18L458 -6L450 1L427 25L414 33L401 49L378 66L367 81L359 90L354 99L334 114L328 129L316 132L305 141L306 145L304 150L294 153L288 157L278 170L271 175L253 195L245 201V207L235 212L233 206L226 200L213 175L207 169L204 154L182 101L175 55L171 48L166 45L159 44L140 48L121 60L116 65L107 85L102 94L104 107L110 130L140 187L145 199L151 204L156 215L163 234L178 257V262V267L176 269L163 279L157 291L146 298L136 309L133 324L134 330L163 352L180 362L198 368L228 383L240 385L247 389L248 390L260 420L267 429L280 458L284 462L287 466L291 479L296 500L299 504L309 508L305 520L308 527L302 537L301 546L303 555L308 560L320 565L327 566H331L348 556L362 547L367 538L374 525L375 509L376 505L375 501L367 489L355 464L342 428L339 418L350 420L358 428L365 430L386 433L450 450L471 452L475 453H476L481 449L488 450L489 456L495 460L502 463L510 457L511 463L528 467L534 466L537 473L538 474L546 475L561 476L565 479L578 487L596 495L643 510L650 518L660 531L662 538L660 546L654 556L643 558L636 562L629 570L622 569L612 573L599 576L587 583H578L558 593L547 594L546 598L523 595L516 600H500L490 598L485 602L473 601L446 605L408 602L393 610L383 606L370 605L356 606L345 607L342 605H332L310 601L303 602L293 599H260L251 593L242 595H227L220 585L208 586L201 579L186 574L173 562L164 558L161 547L155 539L141 531L124 528L107 532L98 541L93 556L96 567L121 590L130 595L141 599ZM192 293L201 305L210 322L213 333L201 331L195 326L181 325L174 321L166 313L192 293Z"  />
<glyph unicode="S" horiz-adv-x="569" d="M225 83L249 94L260 101L280 106L296 114H307L320 124L332 126L337 132L360 150L372 162L395 196L405 205L412 226L419 234L413 243L409 256L395 268L389 275L377 277L366 281L351 289L348 292L341 298L334 297L291 310H284L272 314L260 315L257 320L246 323L240 327H219L208 330L205 336L191 333L179 339L147 345L139 350L129 353L123 358L109 359L100 366L83 377L78 385L70 395L69 399L68 411L72 442L76 452L83 464L86 472L97 481L102 494L114 503L117 510L136 528L143 536L154 543L162 549L170 553L175 561L182 566L204 583L236 598L246 604L258 608L268 610L275 621L292 623L302 633H315L322 641L328 643L361 649L392 662L405 660L413 668L420 673L426 674H428L435 670L447 673H464L485 678L504 675L516 670L517 676L519 679L521 681H524H527L536 676L545 672L557 674L565 675L569 674L575 667L583 668L588 673L592 672L597 663L614 662L618 660L623 654L629 645L639 650H641L646 649L647 648L648 647L656 632L666 622L668 615L677 611L679 608V596L684 589L687 567L690 557L689 539V515L683 504L677 495L669 492L660 487L655 486L649 488L644 491L638 498L632 504L631 507L630 510L632 517L637 525L645 532L656 536L652 549L646 554L635 569L625 576L618 589H606L594 591L573 594L552 601H542L516 605L469 599L453 598L420 589H404L366 575H359L350 570L337 565L316 554L305 561L298 563L293 556L292 546L282 539L263 534L257 528L249 527L237 519L226 517L216 503L205 504L198 493L189 491L178 481L157 466L152 456L140 450L137 440L121 418L119 415V411L120 406L122 402L124 401L137 397L148 390L159 389L176 382L182 380L186 372H189L197 379H200H203L213 370L219 374L226 372L237 375L251 371L259 373L276 365L287 368L299 363L309 367L321 361L330 358L357 355L372 344L376 348L377 349L380 350L384 349L412 339L426 340L430 338L431 335L432 333L431 329L429 321L431 317L442 323L447 327H449L456 324L479 313L488 304L498 291L501 281L503 270L506 262L507 259L505 249L502 232L496 226L499 214L493 207L479 185L469 177L467 168L486 178L586 227L607 234L611 233L614 230V228V227L609 216L604 201L600 194L597 192L583 185L576 177H570L565 169L555 166L542 163L533 156L520 151L509 145L497 143L474 128L442 118L436 112L426 109L400 91L381 85L363 72L333 52L310 41L292 27L282 25L268 16L259 9L226 -2L199 -16L180 -20L158 -27L143 -29L123 -34L109 -36L88 -41L76 -38L63 -39L54 -32L45 -28L44 -26L40 -15L41 -10L48 0L62 10L95 24L105 33L124 37L135 45L149 48L173 60L184 62L198 71L212 74L225 83ZM120 2L140 6L178 19L200 23L208 31L216 32L228 40L243 47V50L224 49L204 40L177 33L126 8L111 1L120 2Z"  />
<glyph unicode="T" horiz-adv-x="347" d="M142 605L159 613L166 615L176 621L196 627L206 635L259 651L267 654L278 653L292 662L305 661L312 664L323 665L334 673L349 672L362 675L382 676L393 680L412 682L416 684L423 683L433 688H453L469 693L512 692L526 697L553 694L598 700L610 699H612L618 702L628 701L657 705L672 704L685 705L700 701L708 691L714 670L710 644L709 642L707 641L693 635L685 631L670 630H661L652 632L647 637L642 644L631 648L615 655L598 654H586L576 651L546 653L539 654L524 653L512 654L502 652L482 650L474 646L472 643L471 640L476 627L479 617L471 604L438 578L426 559L417 555L410 548L401 535L393 514L387 508L374 489L367 486L362 480L352 477L350 458L344 450L337 437L325 422L310 389L299 373L288 356L274 340L272 319L268 303L261 296L252 291L251 276L239 244L228 210L210 180L197 120L186 88L187 87L192 72L193 67L192 62L187 50L183 36L178 29L173 26L162 24L137 29L120 42L115 49L109 67L104 80L103 91L104 101L114 142L116 159L125 186L144 220V221V227L146 242L152 250L179 302L195 318V337L208 354L213 366L231 385L240 407L257 428L276 457L285 468L300 473L307 499L328 520L333 530L355 555L370 577L391 596L400 607L409 616L412 619L416 631L428 636L433 644H422L402 639L392 641L371 635H361L353 627L342 629L330 628L320 622L291 617L261 604L248 606L231 594L207 591L186 581L176 580L152 568L142 565L135 557L121 559L110 547L87 535L76 518L65 507L58 498H56L47 500L37 510L34 524V533L37 538L44 551L59 574L67 577L98 587L112 595L121 599L129 606L142 605Z"  />
<glyph unicode="U" horiz-adv-x="576" d="M259 670L295 677L333 673L343 669L357 654L367 618L368 608L356 578L338 541L313 501L306 486L291 460L288 449L272 425L266 408L258 395L246 365L233 348L214 308L200 290L198 276L187 252L182 229L176 218L168 186L153 141L152 116L150 89L152 80L154 77L163 73L177 81L189 89L215 115L225 121L234 135L251 133V144L253 154L255 156L263 160L266 166L274 174L279 187L311 226L325 246L338 247L336 258V259V263L337 264L364 302L370 314L377 320L382 314L386 313L382 322V324V327L384 332L396 353L400 361L409 378L426 396L434 420L442 428L451 435L449 445L461 471L482 513L495 531L515 561L524 568L536 576L553 584L575 586L581 589L587 587L597 586L608 577L615 570L617 561L616 553L612 543L599 521L592 511L584 504L582 492L578 486L572 472L564 462V451L548 418L539 388L537 384L535 383L528 382L534 371L521 356L525 342L517 328L515 317L509 305V295L501 279L495 268L496 258L490 252V242L485 238V226L481 218L478 193L472 177L476 166L474 147L478 135L497 142L501 151L510 155L513 165L523 168L530 171L533 173L545 187L575 209L580 217L591 228L604 243L608 244L614 242L620 235L622 228L613 195L609 185L600 179L593 169L563 148L526 118L507 113L498 105L485 99L477 93L466 95L460 90L447 96L426 110L424 113L417 128L410 140L411 160L407 186L418 248L417 265L429 296L433 323L434 333L430 323L426 315L413 310L415 293L414 290L405 282L396 276L402 273L398 264L391 254L383 246L375 238L371 242L367 232L369 228L368 223L362 214L351 196L344 194L339 185L332 181L331 170L308 138L293 111L286 101L280 100L275 95L270 93L267 82L257 76L249 61L214 35L206 30H205L193 34L190 25L187 22L175 24L165 22H163L151 26L130 41L116 54L103 74L90 86L88 98L78 113L77 125L74 143L76 153V164L85 200V210L96 244L101 264L104 269L106 271L118 273L119 278L113 280V282L112 283L113 286L118 298L121 313L134 331L137 343L148 365L157 388L171 405L176 421L187 433L195 448L205 459L212 480L225 492L235 519L252 543L258 551L261 553L270 552L271 554L266 566L276 580L280 577L286 575L283 589L289 618L290 620L289 625L285 629L279 631L268 630L262 635L260 629L256 625L254 624H253L243 627L222 616L211 619L204 608L189 605L182 598L168 592L161 585L150 578L141 571L130 564L125 551L114 542L107 534L106 531V505L105 503L98 496L93 493L75 488L57 492L49 500L46 508L48 534L51 550L60 561L81 579L102 591L121 607L154 624L164 631L199 646L213 654H214H226L239 663L248 664L259 670Z"  />
<glyph unicode="V" horiz-adv-x="534" d="M250 552L257 557L272 565L307 581L351 592L371 586L384 574L388 555L387 541L382 526L380 523L375 521L374 509L354 474L347 462L339 451L330 429L324 420L319 408L302 382L298 368L288 356L280 330L268 319L267 304L260 294L241 239L217 182L216 168L210 154L208 140L200 119L201 103L200 91L201 80L211 87L217 93L227 101L235 118L242 123L250 134L260 144L267 158L282 180L306 215L316 231L325 240L336 260L339 262L341 263L342 262L351 257L352 269L346 274L350 283L361 306L374 328L403 366L412 386L420 388L429 395L439 397L440 390L445 395V399L442 402L435 403L433 414L434 416L441 424L463 449L470 457L477 455H480L481 465L488 473L489 478L500 487L499 495L508 500H519L526 507L519 510L520 518L533 529V535L534 538L536 541L556 560L574 581L595 596L600 608L616 609L618 611L619 613V620L628 627L642 637L652 641L659 649L676 659L687 662H688L699 661L706 664H718L725 659L731 658H734L744 644L751 617L744 588L730 569L718 564L696 559L673 550L661 546V540L655 535L652 530L639 522L635 516L629 513L626 506L615 498L607 490L590 479L585 468L575 464L559 444L542 428L529 409L516 397L500 373L487 365L479 358L478 346L468 342L465 338L464 335L462 324L453 313L445 314L434 299L431 287L421 281L415 267L410 264L405 254L380 225L374 213L368 207L364 193L322 136L292 93L284 89L281 78L272 67L264 58L260 48L250 45L237 34L217 29L211 28L208 29L200 33L190 39L185 46L173 51L169 66L154 102L152 117L150 128V138L154 158L151 166V174L158 181L159 195L165 204L164 223L165 229L167 232L174 241L175 258L177 262L178 263L186 265L184 276L189 287L190 300L195 306L199 315L220 355L225 368L237 369V376L230 384V385L231 388L238 398L245 406L246 414L251 420L253 423L251 428L255 440L267 463L274 487L282 498L283 507L286 517L284 527L268 523L259 511L246 510L239 507L237 505L228 493L213 481L196 467L164 442L155 428L150 421L143 395L137 388L130 384L114 381L102 382L100 384L92 395L87 409V412L88 419L100 435L136 466L144 470L152 480L157 485L160 487L167 490L179 504L192 509L202 519L225 533L241 545H248L250 552Z"  />
<glyph unicode="W" horiz-adv-x="736" d="M237 539L247 543L262 552L287 560L302 567L315 569L345 574L348 575L376 572L384 571L387 569L393 563L407 551L413 539L418 518V514L415 497L412 485L402 472L397 467L396 464L395 458L387 451L383 441L376 424L340 360L335 345L326 327L321 316L316 311L313 299L307 292L300 270L295 263L284 234L270 207L269 195L268 184L263 182L258 174V155L267 158L275 165L295 179L301 193L309 196L321 208L333 216L343 232L364 253L370 266L380 272L386 281L394 286L399 297L414 312L429 334L435 337L446 341V353L449 359L479 396L484 407L491 414L500 420L499 428L506 443L510 457L520 464L526 474L539 482L540 492L543 502L544 513L550 515L553 517L557 527L566 546L569 548L583 556L597 566L613 562L628 559L630 558L634 551L638 542L640 530L638 521L631 508L628 496L617 480L612 463L598 434V424L596 419L582 416V405L575 382L574 373L566 364L564 346L552 317L551 307L548 300L549 289L539 286L542 269L535 255V247L532 233V223L531 210L534 188L533 174L536 170L547 159H557L568 162L581 171L601 191L609 198L618 210L626 216L630 229L639 235L652 264L663 269L668 285L671 295L683 297L682 307L689 313L691 323L710 360L713 370L726 390L727 401L737 422L741 446L753 466V479L764 495V515L767 525L774 528L773 535L765 543L768 549V552L767 559V563V566L772 572L768 582L762 602V603L764 621L765 643L773 661L789 675L814 681L828 679L837 673L841 662L849 640V639L846 609L848 589L842 578L844 552L829 521L826 490L814 482V460L813 451L801 439L796 422L789 400L770 376L765 359L756 353L739 311L733 304L715 272L703 267L702 255L684 227L672 207L657 203L654 189L650 181L643 183V172L641 168L635 161L609 139L580 116L562 109L545 102L534 100L530 101L515 106L497 110L488 116L483 122L476 134L465 144L460 170L452 188L454 205L453 223L457 241L462 252L463 270L469 287L472 298L467 301H465L463 299L459 285L443 267L433 253L420 231L416 221L404 222L402 208L396 200L389 203L387 192L379 183L370 177H359L356 161L346 148L339 140H330L331 133L330 130L325 126L319 122L298 103L287 100L282 104L280 93L277 90L266 89L264 79L253 69L249 66L227 49L219 46L206 43L199 44L186 54L174 64L166 78L154 106V108L160 133L164 154L175 172L176 190L182 202L189 225L197 241L205 249L222 286L233 306L248 338L255 346L261 354L257 362L266 370V381L280 398L287 415L297 432L300 445L307 451L317 474L328 489L338 513L341 520L329 531L319 528L308 530L290 517L248 507L217 489L200 483L192 472L173 473L168 459L165 454L163 452L149 447L129 425L105 407L89 373L58 353L46 347L36 354L20 361L17 363L14 366L13 371L19 389L62 432L91 450L104 462L136 477L168 500L182 505L200 514L218 529L229 532L237 539Z"  />
<glyph unicode="X" horiz-adv-x="562" d="M284 657L292 659L295 658L307 649L313 656L315 662L325 666H333L352 670L363 672L370 671L400 665L414 663L431 656L441 652L450 646L457 633L465 609L462 596L463 579L460 573V556L452 537L450 521L443 511L447 496L446 481L457 493L476 512L494 524L503 539L537 564L561 592L580 607L592 618L596 619L599 618L605 613L609 616L605 621L610 636L629 650L641 666L654 676L674 680L700 676L703 674L711 665L718 659L721 654L722 648L721 640L717 631L710 622L699 617L683 613L673 606L665 607L656 599L646 593L643 592L634 594L627 577L615 572H609L601 561H591L586 553L578 541H577L559 537L548 521L538 517L532 509L521 501L517 488L510 481L501 471L490 463L485 454L474 445L465 436L460 427L455 428L448 416L439 411V393L429 387L423 384L422 382L421 379V378L422 364L417 341L415 301L412 288V281L403 262V249L402 240L406 224V223L402 211L394 199L399 193V185L402 178L403 159L407 146L402 134L411 128L415 120L418 116L420 115L423 114L430 115L442 114L451 119L465 126L491 148L512 159L521 173L539 185L561 209L571 214L579 220L586 221L591 220L596 215L598 206L597 199L584 177L580 170L569 157L565 155L551 150L533 124L528 120L524 119L509 116L489 96L482 90L479 89L468 88L445 66L440 63L438 62L432 64L417 56L403 52L398 58L384 56L373 66L362 70L356 75L346 80L339 90L320 113L318 118L317 129V134L320 166L317 176L324 205V206L323 215L321 227L333 232L330 242L327 255V263V286H324L321 275L317 265L305 253V243L296 239L285 230L277 224L267 207L259 205V195L246 188L248 181L241 172L222 150L216 145L213 134L202 126L197 116L189 110L173 79L162 71L161 61L159 56L157 53L147 44L141 37L128 28L104 22L88 26L82 32L77 46L73 69L75 78L89 104L97 116L116 132L125 140L142 150L150 162L178 186L188 198L198 205L210 226L227 244L232 253L241 262L248 267L255 269L262 273L265 276L274 297L311 333L329 357L337 364L343 370L344 374L347 389L351 398L352 407L356 417L354 437L357 447H372L365 459L361 463V468L365 483L367 491V492L365 501L375 511L372 523L373 534V546L380 568L377 582L380 607L373 616L366 626L357 629L348 632L346 631L335 628L297 626L286 619L275 617L257 605L244 607L233 601L208 587L196 576L191 575L179 579L168 566L161 563H147L145 550L134 546L128 540L119 533L104 508L94 504L83 495L72 490L61 488L54 496L42 504L39 507L34 520L33 529L35 539L39 546L56 559L88 579L121 597L174 614L182 620L209 629L218 635L234 639L242 644L250 648L261 650H273L284 657Z"  />
<glyph unicode="Y" horiz-adv-x="505" d="M271 438L257 415L253 404L243 380L234 368L222 341L212 334L209 319L203 309L200 301L194 292L192 283L180 253L177 240L171 230L163 195L158 185V170L151 166L154 151L150 136L152 124L151 111L161 82L163 79L167 77L175 84L183 87L190 94L200 96L209 109L218 108L225 118L232 124L252 151L265 158L292 193L306 205L312 217L351 269L355 280L371 305L389 334L399 345L401 355L403 361L412 371L427 395L441 425L458 449L470 483L478 493L481 506L491 510L493 520L496 532L501 537L511 542L515 552L520 560L529 566L542 569L557 565L582 539L594 505L593 498L592 496L590 494L579 488L573 484L562 467L543 425L523 367L516 359L506 327L500 318V300L496 285L482 260L479 251L474 247V235L468 230L466 217L463 206L476 212L484 223L502 232L509 238L517 244L523 252L540 260L551 272L569 284L590 300L603 303L610 304L614 303L617 300L618 294V292L617 290L606 277L598 255L594 249L592 247L583 243L571 235L548 224L536 210L529 206L521 199L513 194L504 188H498L480 169L444 138L436 121L427 105L426 83L424 74L411 64V41L409 34L393 5V-12L383 -32L375 -60L370 -67L357 -103L350 -113L346 -121L332 -124L336 -135L337 -141L336 -149L327 -165L319 -188L309 -206L302 -212L284 -252L270 -271L258 -281L246 -279L241 -295H226L215 -308L205 -310L194 -313L177 -288L165 -279L160 -269L150 -245L149 -224L147 -215L148 -206L146 -197L150 -177L157 -169L153 -155L162 -128L166 -116H172L176 -104L184 -99L183 -86L192 -75L199 -61L205 -56L208 -46L214 -39L221 -30H229L232 -28L229 -18L245 -1L252 5L262 18L277 15L280 16L276 30L281 36L285 50L289 52L297 47L304 50L300 58L301 63L316 74L322 76L327 85L329 95L340 98L352 110L361 119L367 137L372 151L382 157L376 167L384 175V186L394 216L397 235L406 250L407 263L410 273L415 284L408 279L404 272L394 263L368 224L359 219L358 217L353 205L349 195L336 187L333 169L322 168L318 153L308 151L302 140L293 126L290 123L279 117L275 111L266 105L265 93L254 88L251 86L247 70L244 63H233L225 55L213 44L199 43L194 34L183 36L170 34H169L162 36L139 50L124 64L113 77L111 83L99 96L96 105L87 119L86 133L83 143L85 158L84 168L92 201L91 212L102 246L107 267L110 270L114 272L121 273L123 275L118 279L117 282L118 286L123 298L125 311L137 328L141 342L151 360L159 383L169 395L177 415L187 427L194 440L204 452L210 468L223 483L234 512L242 523L255 540L265 541L262 554L269 566L277 564H281L278 575L283 604L284 606L282 611L279 614L275 616L265 614L259 619L255 612L248 608L242 611L237 609L222 601L210 603L204 593L188 589L183 583L169 576L143 557L133 551L131 541L111 519L110 493L107 489L93 479L80 476L62 481L55 487L53 492V493L56 507L55 519L57 527L64 535L85 554L93 559L102 565L115 570L127 582L230 629L239 636L252 639L260 643L266 644L277 650L299 653L326 654L337 650L351 636L358 605L355 587L353 581L335 555L324 532L304 505L300 496L290 479L283 453L274 449L271 438ZM206 -240L203 -246L209 -257L216 -249L221 -242L238 -213L244 -208L245 -190L252 -184L257 -178L261 -165L262 -155L274 -139V-127L275 -122L289 -96L296 -83H304L303 -79L298 -77L296 -74L295 -71L296 -69L305 -59V-50L308 -43L309 -34L314 -26L318 -8L324 -4V4L331 21L336 43L339 53L327 41L321 32L296 5L291 -3L279 -20L266 -41L253 -61L245 -79L225 -119L219 -136L216 -157L204 -169L209 -174L211 -179L210 -183L205 -192V-206L201 -221L206 -240Z"  />
<glyph unicode="Z" horiz-adv-x="527" d="M194 637L220 631L371 557L391 554L403 550L423 549L440 546L450 548L457 546L469 548L484 546L498 549L506 547L555 561L572 560L581 561L619 574L649 588L653 587L656 584L657 578L653 563L648 556L608 526L600 513L565 492L545 477L535 473L525 464L511 455L504 445L488 439L458 415L449 411L397 359L380 349L376 336L360 324L326 277L318 274V269L311 259L293 242L290 233L265 208L250 179L243 166L255 170L310 196L342 211L357 222L367 223L403 249L416 248L424 253L430 256L435 263L437 266L441 268L455 271L468 278L482 280H493L500 271L508 264L510 262L511 257L504 228L495 209L487 201L496 206L519 220L534 225L564 246L596 262L606 269L614 271L621 275L623 276L630 274L634 270L636 264L635 261L627 249L621 237L611 228L605 223L570 214L560 201L554 197L549 196L540 195L518 179L485 165L480 158L460 155L458 144L457 138L456 137L449 128L446 118L443 111L440 109L430 106L424 91L425 78L413 68L405 58L397 53L398 45L393 38L391 30L384 27L379 16L371 3L368 -6L360 -7L353 -34L345 -41L337 -56L326 -75L323 -87L319 -94L314 -98L306 -103L299 -124L289 -137L276 -161L262 -166V-178L261 -183L248 -197L236 -219L222 -241L205 -261L199 -271L188 -276L179 -288L167 -290L159 -297L152 -298L141 -302L131 -298L118 -291L106 -273L102 -257V-256L103 -242L102 -232L108 -198L110 -176L118 -159L123 -133L134 -117L141 -104L149 -97L154 -102L149 -83L156 -71L167 -42L169 -39L174 -35L184 -31L186 -20L190 -14L204 -8L214 -3L209 2L208 7L209 11L211 13L230 35L239 48L253 54L263 71L291 88L319 111L330 117L345 124L351 134L398 161L405 178L411 186L415 195L410 197L402 191L371 181L360 173L345 170L308 154L295 152L245 123L224 120L206 104L170 95L138 81L132 80L126 81L118 82L111 75L102 80L79 92L76 97L75 103L76 107L78 112L106 146L115 161L125 170L152 203L172 212L174 227L182 241L193 253L206 264L212 275L222 282L229 291L245 305L347 392L375 414L397 429L464 474L489 492L525 513L533 521L521 519H514L498 514L471 510H469H440H437L419 508L411 511L390 509L375 512L363 511L354 516L344 517L338 519L329 517L316 523L299 522L290 529L272 533L242 546L224 552L212 553L204 560L192 559L179 557L172 558L166 553L158 552L146 549L140 544L123 526L114 517L110 510L108 497L109 485L118 474L128 465L140 462L150 455L156 452L166 447L178 449L186 441L197 444L214 443L226 444L242 439L252 438L273 441L301 447L326 450L327 451L347 466L357 469L362 479L370 485L396 489L409 487L415 481L417 474L414 464L402 452L385 441L351 436L318 425L273 422L255 417L218 418L208 417H207L199 424L187 421L173 431L152 433L141 439L120 440L111 447L99 452L91 457L89 460L80 477L73 487V494L69 506V520L68 528L70 538L67 550L78 580L84 594L87 597L109 613L114 622L126 627L136 633L149 635L160 638L170 636L182 640L194 637ZM138 -247L146 -238L157 -231L160 -220L168 -217L171 -205L173 -202L176 -201L192 -194L191 -178L208 -155L223 -126L230 -122L239 -116L244 -104L255 -82L260 -68L269 -60L276 -53L280 -46L286 -27L306 -7L311 8L325 28L333 49L341 57L354 84L357 94L348 90L336 82L327 78L307 61L297 52L290 42L281 39L267 20L257 17L252 14L251 12L247 -1L236 -16L229 -25L219 -28L211 -40L197 -60L192 -80L181 -89L178 -114L165 -132L161 -145L160 -158L155 -156L154 -166L144 -178L146 -184V-186L145 -190L139 -199L140 -226L134 -242V-245L138 -247Z"  />
<glyph unicode="[" horiz-adv-x="546" d="M178 124L179 135L183 149L187 160L191 174L196 185L201 192L205 205L209 213V222L213 228L218 237L225 252L232 264L235 274L247 291L259 306L263 311V314V327L267 333L275 343L270 341L274 350L280 358L287 366L297 381L301 385L302 393L306 399L309 400L313 407L318 415L325 426L338 445L345 454L349 457L356 460L362 465L363 469L367 477L374 486L387 505L403 524L415 539L425 550L426 557L432 563L439 567L448 576L457 586L462 593L468 598L472 604L495 631L511 645L524 657L532 666L535 670L539 672L555 675L574 679L596 683L609 684L634 685L645 689L659 688L681 686H697L710 682L721 680L733 677L740 670L746 663V651L743 640L735 632L729 633L718 632L712 637L706 636L694 639L690 643L686 647L679 645L671 643L664 644L657 647L648 646L643 645H621L612 646L603 641L594 638L584 636L568 631L553 616L544 611L534 604L532 596L525 590L518 583L512 577L509 573L504 567L500 565L492 561L490 554L487 545L484 541L478 539L471 533V528L466 520L460 514L458 511L452 498L448 494L443 492L435 487L433 482L429 474L418 464L414 465L410 460L411 453L410 442L405 435L399 427L389 413L379 395L364 370L355 355L342 341L335 334L339 326L338 320L335 315L336 310L330 297L326 292L319 285L316 281L315 269L308 248L301 233L295 211L293 199L285 190L279 183L270 166L266 148L268 140L264 122L259 107L255 91L253 73L252 64L253 57L252 51L256 44L259 34L261 30L266 27L270 25L274 22L277 20L284 21L290 24L298 27L308 24L312 22L322 25H340H344L351 26L360 21L368 22L371 27L377 29L385 31L395 33L404 35H410L418 25L416 14V8L410 -8L407 -15L402 -25H390L384 -23L379 -19L373 -17L363 -21L353 -22L346 -20L345 -19L338 -20L325 -22L315 -26L304 -25L296 -12L281 -9L269 -25L259 -27L249 -28L243 -25L238 -27L229 -20L218 -19L213 -16L210 -7L209 -4H201L192 1L189 5L175 14L173 25L174 33L166 46V61L171 71L167 85V93L169 99L171 105L174 110L178 117V124Z"  />
<glyph unicode="\" horiz-adv-x="401" d="M303 118L301 133L296 189L291 213V221L287 256L285 268L283 284L279 305L274 325L269 349L265 362L269 379L264 388L268 405L259 410L260 422L261 438L254 441L240 467L231 508L217 551L202 603L195 618L182 633L180 644L175 668L174 681L176 711L182 731L193 747L203 751L211 749L212 748L222 735L232 720L234 714L245 689L266 609L273 594L288 544L299 508L304 490L306 478L314 445L318 419L323 406L317 395L322 388L325 377L334 323L342 301V287L347 269L346 251L348 235L353 225L352 216L353 198L356 178L363 133L368 109L371 91L378 67L383 52L385 41L392 29L417 3L424 -8L428 -33L424 -47L415 -55L400 -60L389 -62L384 -61L371 -59L357 -55L349 -50L339 -41L337 -37L331 -22L326 -12L318 24L314 38L310 74L307 95L305 109L304 113L303 118Z"  />
<glyph unicode="]" horiz-adv-x="546" d="M82 25L90 23L98 22L105 23L113 21L122 18L127 24L135 25L146 26L159 27L184 43L193 56L197 60L193 68L200 81L206 90V101L207 118L211 138L217 153L219 162L221 172L229 186L231 194L236 201L243 208V212V218V221L247 230L251 234L252 244L260 256L266 265L275 281L290 302L299 310L298 315L296 325L298 335L308 347L314 357L315 363L321 368L329 374L337 382L338 392L344 403L357 418L364 428L369 433L373 444L380 453L389 460L395 464L402 466L406 473L407 480V486L414 493L423 506L432 516L433 522L437 526L445 535L456 542L460 554L467 567L476 575L483 584L491 594L497 598L506 608L511 612L520 620L524 631L519 641L514 644H511L505 643L496 639H491L481 641L470 642L459 637L456 635L454 636L446 639L438 640L425 637L414 636L404 635L394 631L382 629H366H357H353V635L351 638L353 648L359 657L363 664L365 670L376 675L384 677L398 678L414 676L426 678L435 676L446 678L459 680L477 681L483 678L499 679L509 677L518 680L533 682L547 675L560 674L567 675L572 670L575 664L579 661L581 656L578 653L579 651L582 648L585 642L586 631L583 622L580 616L567 602L553 588L544 579L541 572L536 571L529 568L525 564V558L522 553L515 547L504 540L502 533L501 524L497 519L492 514L487 509V503L483 496L472 491L466 484L460 476L457 470L451 469L447 470V466L449 459L444 450L437 443L433 442L432 438L435 434L434 426L429 419L422 416L414 409L408 404L407 397V390L404 377L400 369L392 361L386 358V353L384 345L377 334L372 326L370 312L371 303L365 293L360 289L354 284L349 278V274V269V268V261L340 246L334 230L327 201L323 193L319 186V183V177L315 170L307 157L304 147L300 121L291 76L287 57L278 32L277 23L275 12L273 3L257 -10L241 -19L219 -24L202 -25L189 -22L178 -24L170 -29H139L130 -26H124L117 -30H113H107L94 -28L77 -31H63L51 -33L41 -28L31 -27L20 -28L10 -25L7 -20L10 -19L5 -18L0 -14L1 -8V-1H5L4 7L9 12L17 18L21 24L31 29L40 30L56 25L69 21L74 19L82 25Z"  />
<glyph unicode="^" horiz-adv-x="560" d="M399 310L279 613L161 310H102L254 685H305L457 310H399Z"  />
<glyph unicode="_" horiz-adv-x="500" d="M500 -133V-200H0V-133H500Z"  />
<glyph unicode="`" horiz-adv-x="226" d="M159 388L160 384L159 379L156 377L141 374L130 375H116L107 385L95 397V407L86 421L82 429L79 434V447L67 472V474L69 484L79 494L95 498L100 497L111 494H127L132 490L135 482L142 441L150 414L148 403L150 399L159 388Z"  />
<glyph unicode="a" horiz-adv-x="411" d="M14 130L12 141L16 150L37 180L39 187L52 199L60 211L77 224L95 243L127 264L156 284L173 291L190 301L213 308L230 315L240 310L249 315H252L263 312L279 299L283 288L285 275L290 264L298 271L308 286L320 296L340 301L352 298L360 291L363 275L359 252L346 226L334 209L323 177L318 169V153L317 137L318 131L320 129L323 128L326 129L333 133L349 149L359 155L376 172L381 173L389 186L405 196L416 209L424 216L428 217L432 216L437 210L440 199L437 186L429 170L425 153L418 147L397 125L388 122L377 106L365 102L359 96L349 93L344 84L329 78L304 70L293 72L284 77L275 79L269 92L262 103V108V110L264 121L259 126L260 137L259 150V151L260 158L262 169L260 172L250 164L239 161L233 146L224 140L220 135L210 130L201 123L193 122L188 113L183 107L147 80L135 68L120 59L79 35L61 32L33 39L17 51L14 56L10 72L4 87V99L5 108V123L9 130H14ZM228 188L232 197L240 203L257 220L266 229L274 241L264 238H257H249L219 243L217 242L206 237L185 231L155 214L145 210L137 202L109 181L104 171L92 159L88 150L75 143L71 128L62 115L61 109V105L62 92L64 88L66 87L71 86L92 93L141 120L147 128L192 155L200 163L205 166L207 173L228 188Z"  />
<glyph unicode="b" horiz-adv-x="266" d="M13 160L11 175L16 201L24 212L21 223L19 234L28 267L30 279H38L37 295L50 318L54 338L62 350L77 390L88 398L87 409L91 415L93 423L102 428L106 441L116 455L124 474L135 483L142 500L152 503L153 506L151 512L155 520L166 537L176 545L213 604L244 633L253 650L259 651L265 660L277 672L308 692L316 694L325 691L336 679L343 662L348 647V646L341 630L340 617L336 603L335 591L329 576L326 562L314 538L311 531L304 523V511L299 504L294 491L285 477L280 465L274 457L272 446L260 429L249 406L238 393L234 378L224 379L223 363L216 358L208 344L198 339L195 334L196 325L187 314L183 307L180 305L178 304L169 305L168 287L167 280L166 278L157 271L126 227L116 223L111 221H108L97 229L87 236L85 224L81 206L74 194L79 184L77 174V161L74 150L77 127L76 108L79 100L83 81L88 80H90L92 81L99 89L108 95L124 112L130 129V141L118 144L105 147L103 149L100 163L102 172L107 180L116 190L122 200L133 210L139 213L153 215L168 223L188 219L205 224H207L213 223L219 220L223 214L227 204L239 203L251 204L255 207L286 230L311 246L317 250L327 252L336 262L338 263H343L349 264L352 263L354 261L355 258L354 250L350 233L341 226L329 209L319 201L313 191L308 189L301 181L293 173H286L279 177L275 172L273 162L257 151L250 157L241 151L235 141L222 138L210 136L196 137L190 125L172 93L169 91L152 82L132 57L122 54L90 43L78 42H69L53 46L40 54L29 64L18 93L10 122V128L11 137L13 141L20 146L13 160ZM115 292L123 310L134 317L143 330L159 350L169 364L177 373L194 398L206 408L210 422L218 436L227 444L229 450L239 460L243 472L283 541L284 551L290 562L296 584L303 602V611L304 623V635L295 628L289 613L271 595L251 561L241 548L234 533L197 484L184 453L164 430L161 423L160 412L154 410L151 407L145 396L131 365L128 356L120 347L114 332L108 321L105 312L99 294L98 281L115 292Z"  />
<glyph unicode="c" horiz-adv-x="316" d="M18 191L22 204L24 207L33 215L40 224L49 228L50 240L57 246L63 255L73 260L83 269L94 277L102 285L113 291L127 303L134 307L142 309H154L169 318H170L176 317L186 314L196 322L202 323L214 320L224 315L238 322L257 312L265 296L269 277L267 270L260 262L247 252L234 248H229L222 256L211 257L196 261H194L184 258L174 254L170 261L166 260L162 253L155 247L150 246H149L145 247L138 239L127 233L115 222L98 214L93 210L87 198L71 174L65 165L55 158L51 153V137L44 129L43 117L40 101V99L41 92L48 86L60 83L69 84L75 86L94 87L121 95L131 98L137 106L142 111L147 113H158L165 121L192 133L205 145L219 148L236 160L248 165L257 173L269 185L280 190L288 197H298L306 209L324 222L333 228L336 229L341 228L344 225L345 221L342 212L336 211L341 202L342 196L340 187L337 183L326 177L324 173L323 163L314 159L306 154L295 145L285 136L277 127L273 131L266 132L262 123L252 114L220 93H211L206 84L193 73L187 68L183 66L181 65L172 66L163 59L155 57H154L149 53L142 45H138L129 52L124 49L123 42L120 38L109 35L92 32H89L81 36L72 41L52 35L40 45L29 50L19 56L15 68L4 75L-1 81L-3 85L-8 103L-12 114L-13 119L-11 126L-3 147L4 170L8 177L16 180L18 191Z"  />
<glyph unicode="d" horiz-adv-x="419" d="M-12 120L-14 136L4 174L6 181L16 198L28 224L46 246L60 265L77 277L85 289L101 299L110 307L119 309L134 321L143 325L157 332H164L174 336L184 332L193 338L201 340L209 338L223 327L230 318L235 304L239 294L248 303L252 313L262 329L276 363L283 374L287 391L304 419L311 442L319 447L323 459L335 479L342 496L345 501L347 503L362 511L361 522L362 527L371 540L388 560L409 592L433 621L450 639L459 641L479 636L496 619L498 610L497 604L492 588L491 576L470 529L454 485V484L447 478L440 464L427 448L426 434L419 429L412 412L397 389L391 377L384 376L381 372L379 353L377 350L373 348L365 347L358 326L355 324L337 317L338 300L322 279L317 267L312 262L309 253L302 211L297 182V169L296 163L302 142L300 131L307 122L316 129L339 140L347 147L357 153L365 165L375 169L383 178L418 208L428 222L449 238L454 239H455L462 234L459 223L462 203V201L461 196L454 188L442 179L437 167L423 159L413 148L401 140L395 127L384 126L380 117L374 110L368 112L355 96L342 95L325 85L313 84L301 81L292 83L267 91L260 96L244 115L243 118L240 132L233 151L228 191L227 195L226 197L220 200L219 193L215 191L210 179L203 176L199 173L196 169L186 155L170 140L167 133L161 122L151 127L147 114L145 105L144 104L134 101L132 91L125 88L116 83L112 73L108 65L107 64L93 62L87 52L67 38L40 32L16 37L3 44L0 48L-7 65L-14 76L-17 103L-19 110L-17 120H-12ZM190 208L193 218L202 226L215 245L225 258L230 270L219 274L194 266L177 265L155 253L143 254L136 243L126 236L114 225L103 222L97 210L89 199L76 190L71 176L62 165L57 154L49 142L45 127L37 110L36 106L39 94L46 87L51 86L56 87L76 99L115 130L155 170L171 181L172 183L175 193L182 202L190 208ZM351 385L357 398L366 409L373 419L383 424L390 438L427 490L442 524L448 530L451 541V555L445 553L437 537L431 532L423 517L418 514L409 494L403 483L399 472L392 466L385 458L377 451V440L370 434V422L356 408L348 392L344 380L351 385Z"  />
<glyph unicode="e" horiz-adv-x="291" d="M97 296L122 306L137 315L144 314H147L160 317L169 320L189 321L200 322L208 319L229 315L240 310L250 298L252 289L249 276L238 258L220 243L210 240L203 231L195 227L185 219L172 218L170 217L166 212L159 201H150L141 195L139 188L128 183L115 172L107 166L97 167L94 161L93 151L86 149L80 144L74 146L64 136L51 135L49 124L44 106L47 97L50 94L54 93L83 94H98L121 104L132 105H143L152 116L162 121L173 123L178 132L182 135L186 138L201 142L210 153L225 159L234 168L248 172L257 183L270 192L276 196H280L283 189L284 203L297 214L309 219L315 232L324 237L331 241H332L335 240L337 238L338 236V235L335 222L337 207L328 194L323 175L316 172L305 162L297 159L282 141L271 129L263 123L259 128L253 126L251 118L249 114L247 112L233 104L226 98L214 97L204 83L184 76L155 60L147 58L112 45L101 43L95 44L86 50L75 47L59 45L53 47L45 52L27 61L21 76L12 75L1 111L-12 116L-14 120L-15 127L-12 142L-7 152L4 163L11 189L15 193L18 204L24 212L32 226L36 236L40 241L48 246L58 252L60 257L62 267V269L66 272L76 278L97 296ZM81 194L90 200L108 207L129 225L137 229L149 239L156 244L159 250L167 252L174 261L180 266L192 274L189 279L184 281L172 277L158 275L149 270L131 263L119 254L101 241L96 237L94 234L88 219L80 206L77 195L81 194Z"  />
<glyph unicode="f" horiz-adv-x="211" d="M-84 -119L-71 -83L-67 -68L-58 -58L-55 -44L-47 -19L-32 9L-19 44L-7 58L-6 65L-15 70L-25 79L-26 81L-25 83V84L-5 94L5 100L7 110L23 131L25 150L30 157L36 173L46 185L47 196L40 194L29 179H24L15 171L1 153L-9 149L-20 136L-24 135L-28 134L-34 135L-39 140L-40 144L-38 161L-35 182L-23 193L-12 205L23 233L29 240L41 251L48 263L57 269L62 278L92 306L98 315L115 350L125 365L140 417L151 444L154 457L166 486L174 509L181 521L186 535L192 543L195 557L201 565L211 595L224 616L233 633L245 643L254 645L263 642L273 632L280 610L283 583L284 569L283 567L276 523L271 505L269 504L259 499L257 498L256 496V494L257 492L265 489L260 477L254 467L248 460L250 455L249 449L243 439L228 417L216 392L194 366L184 342L168 326L166 313L159 302L150 277L143 268L134 242L129 229L120 226L117 223L118 207L110 192L104 172L93 160L90 143L88 133H91L93 136H105L111 143L119 148L124 153L131 155L139 163L147 159L152 161V171L153 173L164 181L179 191L191 197L204 208L215 212L222 219L237 222L250 232L269 247L278 255L281 256L286 254L291 250L292 242L291 234L284 225L276 219L274 207L270 200L263 198L257 190L251 192L242 181L235 180H234L227 174L212 165L185 145L171 133H162L154 123L143 118L103 86L95 85L86 72L87 67L89 64L97 60L106 47L113 42L134 3L139 -13L140 -26L138 -47L134 -56L127 -64L128 -86L121 -85L116 -89L115 -105L106 -113L103 -129L99 -135L89 -143L79 -150V-162L77 -169L74 -172L68 -176L55 -193L49 -197L44 -206L24 -224L18 -234L13 -236L7 -246L-15 -264L-34 -285L-41 -283L-45 -292L-53 -298L-59 -306L-66 -310L-80 -323L-93 -329L-99 -335L-107 -343L-116 -339L-125 -328L-130 -321L-131 -307L-137 -298L-139 -287V-274L-117 -214L-110 -190L-108 -185L-107 -184L-101 -180V-168L-96 -150L-92 -136L-86 -131L-84 -119ZM-61 -273L-56 -262L-45 -258L-42 -248L-35 -244L-32 -237L-17 -229L-12 -218H-2L3 -202L9 -196L17 -182L26 -176L29 -162L38 -153L42 -144L49 -136L46 -124L53 -115L60 -104L65 -92L79 -62L81 -46L88 -32V-8L82 6L72 29L67 33L57 40L54 41L49 39L39 31V14L38 12L35 8L26 2L27 -8V-20L13 -51L8 -68L4 -73L1 -74H-7V-91L-11 -114L-12 -125L-22 -137L-26 -148L-31 -157L-34 -170L-39 -180L-46 -200L-49 -211L-62 -250L-64 -260L-67 -272L-61 -273Z"  />
<glyph unicode="g" horiz-adv-x="338" d="M93 16L104 21L113 22L132 36L143 39L165 47L206 55L217 76L226 92L229 106L246 135L245 144V149L248 154L255 161L253 174L256 181L261 190L251 186L235 174L228 172L218 160L211 157L207 150H204L198 143L193 138L184 135L174 134L162 116L150 111L143 103L129 101L126 87L104 82L95 71L86 69L45 46L31 45L19 51L1 64L-7 89L-9 100L-19 97L-26 95L-31 96L-35 100L-37 110L-35 119L-29 127L-18 135L1 156L7 163L46 200L73 227L109 250L130 265L158 276L190 288L214 289L240 303L254 305L263 310H274L282 308L286 305L294 288L297 277L304 286L313 293L321 295L327 293L334 286L340 257L337 231L335 226L318 197L307 157L299 139L288 111L280 103V94L273 78L272 70L264 55L276 48L296 26L300 13L297 2L286 -8L265 -15L258 -13L241 -5L227 -3V-10L220 -16L208 -39L202 -48L193 -50L188 -61L184 -75L178 -85L172 -84L167 -92L145 -128L129 -134L126 -146L116 -155L106 -166L95 -171L92 -181L88 -188L84 -191L55 -212L45 -224L23 -237L3 -253L-10 -258L-23 -264L-27 -265L-38 -262L-56 -243L-63 -215V-212L-59 -191L-57 -175L-48 -149L-32 -111L-8 -78L-1 -63L11 -51L15 -44L25 -37L40 -21L66 0L73 7L82 13L93 16ZM-15 -196L15 -184L33 -168L51 -160L58 -151L67 -144L70 -135L82 -127L90 -120L99 -110L104 -100L109 -97L113 -88L121 -85L123 -84L127 -74L138 -54L150 -39L160 -20L169 -9L167 -6L153 -8L146 -3L138 -12L127 -14L114 -21L102 -24L82 -35L73 -38L65 -45L45 -58L35 -75H24L20 -86L0 -104L-11 -127L-18 -137L-20 -150L-27 -165L-30 -181L-29 -188L-25 -199L-15 -196ZM47 90L58 95L74 102L86 112H104L110 120L121 122L130 132L148 142L154 151H159L165 159L181 167L195 184L202 189L208 196L216 199L226 213L236 218L239 220L241 224L247 239L236 238L224 232H215L200 224L191 221L178 211L168 207L159 198L155 195L151 194L139 191L131 181L126 179L115 169L102 165L98 158L86 151L76 138L69 134L59 126L46 103L42 92L47 90Z"  />
<glyph unicode="h" horiz-adv-x="447" d="M38 239L54 252L69 268L83 281L97 306L103 323L108 328L113 338L119 341L120 353L123 362L135 381L192 501L208 523L241 585L259 606L266 620L273 628L283 643L290 647L298 649L307 647L316 640L326 621L331 607L329 596L324 581L321 559L318 542L308 533L307 522L303 507L301 495L286 472L280 449L270 440L262 420L249 403L243 392L213 352L206 344L196 346L188 344L187 343V341V328L186 325L184 320L169 304L158 285L150 275L142 252L127 227L119 204L111 193L107 182L102 169L110 170L117 180L124 189L142 206L152 218L162 225L167 226L172 228L174 237L186 240L193 254L203 259L215 272L259 296L298 306L316 304L335 297L349 284L353 267V260L345 225L343 205L333 182L327 156V153L328 138V129L334 125L344 135L353 137L367 155L391 169L399 182L408 187L425 200L449 218L457 222L459 223L463 222L466 219L468 214L467 213L463 199L460 182L450 164L444 153L435 150L428 141L408 130L402 122L395 116L389 119L388 120L385 119L383 118L377 103L367 96L362 89L350 91L347 86V77L320 61H316L299 58L291 64L279 68L276 70L274 73L268 88L262 101V111L261 118L264 128L262 154L266 167L270 193L276 213L277 217L276 228L275 240L261 247H255L245 232L241 230L232 233L225 224L219 217L217 216L207 213L197 203L188 201L177 191L171 187L167 179L159 178L153 168L142 164L139 156L127 148L121 136L110 137L102 134L98 118L80 99L64 81L55 75L51 64L46 57L33 48L26 42L15 45L8 54L1 69L4 81L3 92L8 110L20 138L30 164L35 177L20 168L12 162H9L5 163L1 167L-1 177L1 193L7 210L19 223L30 227L38 239Z"  />
<glyph unicode="i" horiz-adv-x="308" d="M12 216L25 225L36 240L58 253L72 266L87 267L93 276L104 282L114 292L131 303L146 311L151 312L165 308L182 294L192 282L196 266L192 244L182 216L175 193L169 187L164 177L159 171L161 157L155 148V126L149 119L151 116L159 118H173L179 126L190 131L196 137L220 148L295 205L303 203L306 200L307 195L303 182L296 168L289 152L281 143L275 134L267 129L256 120L244 111L219 88L205 81L200 73L187 70L180 63L173 58L164 55L153 54L143 45H131L123 43H122L110 48L104 52L94 61L92 65L91 85L87 101L85 115L86 125L93 149L95 164L99 168L106 191L114 201L116 214L125 230L122 235L118 236L107 229L100 231L92 224L85 222L76 216L68 219L64 216L60 203L58 202L44 197L33 193L28 181L19 173L13 167L7 166L1 168L-3 172L-4 177V179L-2 198L-1 208L6 216H12ZM249 502L260 494L269 484L271 475V472L269 459L266 441L265 439L254 431L247 428L242 427L223 435L213 444L208 470V472L211 492L215 497L227 502L238 506H239L249 502Z"  />
<glyph unicode="j" horiz-adv-x="204" d="M69 96L84 140L83 154L89 166L98 190L101 195L106 225L110 240V251L97 243L79 230L69 225L62 214L48 203L44 194L21 180L19 170L15 166L9 164L1 166L-7 175L-12 191L-11 203L-4 210L5 221L17 228L27 238L45 252L54 263L67 274L77 282L87 286L102 295L126 318L138 326L144 333L150 337L155 338L168 333L187 315L193 293V289L178 243L173 209L168 201L166 190L161 181L158 160L144 116L135 83L122 55L120 40L119 25L112 20L107 -5L117 -2L148 5L157 8L216 14L250 18L253 17L267 13L281 9L290 2L301 -15L305 -35L301 -51L296 -56L280 -60L268 -61L261 -59L259 -55L251 -40L247 -36L242 -34L219 -31L208 -24L194 -21L182 -17L168 -20H154L129 -27L120 -24L104 -32L92 -37L88 -40V-42L87 -56L82 -62L79 -72L70 -80L72 -90L70 -98V-104L51 -129L52 -150L42 -161L36 -181L29 -188L26 -200L15 -217L7 -244L1 -249L-3 -260L-5 -270L-10 -274L-14 -285L-21 -294L-28 -313L-39 -324L-43 -334L-65 -368L-79 -383L-104 -401L-113 -408L-121 -411L-123 -410L-129 -407L-136 -404L-144 -393L-151 -386L-157 -374L-162 -366L-163 -344V-340V-323V-303L-153 -269L-150 -254L-142 -239L-141 -228L-132 -216L-124 -191L-117 -179L-113 -168L-102 -156L-92 -141L-79 -133L-62 -103L-51 -89L-34 -75L-25 -64L5 -43L21 -27L33 -19L44 17L52 35L54 52L61 68L63 78L69 85V96ZM182 533L194 535L212 529L231 510L235 499L234 497L228 486L219 471L218 469L216 468L198 465L187 467L182 470L173 485L165 502L164 510L167 526L169 531L182 533ZM-112 -332L-93 -322L-84 -311L-77 -310L-78 -298L-51 -245L-45 -236L-41 -234L-45 -227L-41 -213L-39 -201L-34 -194L-24 -169L-20 -160L-1 -110L9 -86L12 -72L4 -79L-30 -111L-41 -118L-49 -131L-77 -164L-95 -204L-110 -233L-112 -247L-121 -267L-120 -285L-127 -299L-128 -310L-125 -330L-120 -340L-112 -332Z"  />
<glyph unicode="k" horiz-adv-x="439" d="M-9 197L-3 202L1 212L6 215L12 226L38 251L60 283L88 315L95 331L104 345L108 355L115 363L125 387L132 403L138 418L149 436L154 449L162 458L167 468L170 480L181 497L188 519L192 529L204 533L202 543L201 544L202 547L204 550L210 556L237 598L249 608L264 613L273 611L276 608L280 596L286 582L287 572V557L284 527V520L268 481L259 456L244 433L230 406L219 395L211 389L207 377L195 361L189 349L174 335L160 313L145 295L139 283L126 254L123 241L119 233L114 228L106 222L104 210L98 193L99 182L91 179L90 163H93L96 171L105 177L115 181L119 192L133 208L161 235L168 243L179 245L178 254L201 276L212 285L223 294H234L240 304L258 317L282 326H283L292 325L303 324L317 316L328 307L336 293L341 270V267L336 256V244L330 237L325 227L317 219L307 209L300 204L295 199L282 194L274 187L250 176L242 170L234 163L240 153L253 129L260 120L277 111L288 109L298 115L309 120L321 124L329 133L352 150L358 157L363 160L368 162L378 163L383 173L397 180L405 191L415 195L428 208L434 211L439 212L444 211L446 208L447 206V205L443 190L442 178L436 163L432 153L422 156L409 145L403 134L388 129L362 103L348 95L342 84L331 78L312 65L306 62L304 61L299 62L289 52L278 50L271 46L258 43L251 44L235 48L234 49L229 53L220 57L213 73L201 85L181 125L176 135L166 139L161 144L160 151L162 159L165 164L182 177L186 184L195 187L224 210L246 218L252 225L254 231L257 252L256 254L255 256L252 257L251 256L240 250L232 243L222 240L218 232L213 227L210 226L196 223L188 210L175 209L167 194L154 187L149 176L128 157L122 149L114 146L106 133L100 132L97 121L93 115H85L81 102L67 88L59 74L39 58L22 47L13 51L2 59L-1 64L-2 68L-1 88L0 101L13 133L21 155L37 184L38 186L37 188L36 190L34 191H31L12 171L-7 174L-18 181L-9 197Z"  />
<glyph unicode="l" horiz-adv-x="240" d="M22 145L16 158L17 169L15 185L27 222L25 231V233L26 239L28 244L38 261L59 320L67 337L81 360L85 368L93 374L91 384L99 398L109 414L122 440L130 445L138 459L146 466L151 476L157 486L167 487L171 497L174 511L180 519L184 527L195 541L208 560L229 580L232 590L237 599L242 603L251 608L257 613L264 615L265 625L272 635L288 646L307 650L330 644L350 624L356 605V604L355 603L347 589L339 564L332 558L331 541L322 533L320 527V515L312 504L303 485L298 476H292L291 465L281 449L276 437L264 420L255 406L249 400L245 387L235 374L221 346L211 341L207 319L194 311L189 302L181 289L179 280L169 276L165 266L158 263L155 253L147 241L123 217L117 201L113 196L109 194L103 193L89 196L79 202L77 193L74 186V172L68 142L71 131V130V119L74 103L80 94L82 92H93L96 88L127 106L136 102L142 109L140 117L143 122L152 125L159 131H169L172 136L174 148L188 154L197 173L209 175L220 192L226 200L230 202L238 205L243 208L246 213L248 224L256 229L263 234H264L271 229L270 213L274 199L265 186L264 167L254 162L249 153L239 148L229 134L218 131L210 116L198 109L192 99L187 90L180 91L173 84L166 79L159 71L147 67L142 60L133 57L126 52H113L108 46H98L90 44L88 48H79L68 53L57 49L46 57L39 63L32 75L26 83L24 100L13 119L15 144L22 145ZM108 273L114 282L126 291L130 301L138 309L146 317L149 320L151 321L158 320L161 339L174 354L180 366L200 384L207 395L213 398L217 406L222 412L224 424L237 438L243 449L251 456L255 466H263L266 484L282 510L291 532L298 540L299 552L302 564L299 575L285 567L280 552L269 547L260 527L252 520L246 509L231 496L204 455L192 442L191 441L184 443L187 430L179 422L176 417L168 406L164 394L158 382L148 380L146 367L118 314L106 280L100 271L108 273Z"  />
<glyph unicode="m" horiz-adv-x="631" d="M164 234L180 245L197 261L215 267L229 280L245 293L262 302L273 300L281 309L285 311H291L299 310L302 308L313 298L322 291L327 281L329 273V272L328 252L331 236L329 220L331 208L328 180L332 175L340 183L346 184L355 193L363 197L369 206L377 210L401 236L423 249L430 256L436 259L445 267L452 265L461 272L466 274L472 275L491 270L508 252L511 243V242L510 231L513 207L510 196L518 181L513 175L514 163L512 135L517 126L527 128L537 134H548L551 148L553 150L560 152H571L577 162L587 172L606 189L614 193L618 194H619L629 191L628 180L632 163V162L631 160L623 151L610 140L592 118L579 115L571 103L547 89L532 73L516 62L506 55L502 54L473 66L457 80L450 97L448 107L453 116L444 124L442 129V132L443 157L444 193L446 203L445 208L443 210L437 212L429 204L420 199L414 188L406 182L399 174H394L389 171L387 165V157L376 149L370 141L364 132L355 128L350 120L345 112L342 109L335 104L333 103L328 95L314 74L303 66L297 65L292 66L276 86L265 107L266 134L262 149L266 161V181L269 187L267 224L268 241L267 246L264 249L261 250L256 249L248 244L228 227L200 204L192 191L190 181L182 182L174 170L169 161H168H157L149 152L145 135L133 128L129 120L123 112L120 109L110 103L100 93L83 67L75 61L73 50L71 47L67 44L59 43L48 45L38 57L32 74L29 101L31 113L49 140L76 174L94 201L100 212L99 222L96 225L84 222L75 216L64 212L57 204L45 195L34 181L29 172L23 170L8 165L1 176L-2 188L6 213L14 224L51 249L69 266L86 276L96 279H103L131 287H132L143 284L152 275L155 263L156 237V226L164 234Z"  />
<glyph unicode="n" horiz-adv-x="520" d="M72 261L82 265L91 279L102 288L111 291L123 289L135 286L153 265L158 257L162 247L163 238L161 210L154 196L157 191H160H162L165 193L173 199L183 205L198 222L214 229L222 236L227 243L238 249L248 258L259 261L289 277L301 280L318 286H319L336 281L345 278L361 267L365 260L370 246L374 235L373 225L375 215L376 207L375 200L371 181L370 151L360 137V134V131L361 130L368 119L373 104L376 102H378L388 105L398 108L404 117L414 123L417 128L425 136L435 133L436 141L440 145L452 161L465 168L490 187L498 192L509 202L510 203H513H516L518 201L519 199L517 188L518 172V171L516 162L504 146L483 126L469 110L467 109L459 107L445 96L428 80L424 70L413 69L405 57L393 52L379 43L365 44L353 43L338 52L328 55L323 58L309 77L303 87L298 101V102L301 116L297 129L296 138L293 146L297 151L296 156L297 185L296 196V211L294 215L290 220L286 221L285 220L251 201L231 193L222 186L219 181L171 141L156 129L145 126L143 122L141 111L133 106L122 95L116 101H112L107 91L101 80L88 77L86 69L79 68L71 64L61 54L53 43L43 46L29 53L22 63L19 82L25 124L31 133L40 138L43 149L52 156L63 170L72 172L74 184L89 213L92 224L77 211L68 210L59 197L51 198L43 191L21 179L15 167L-4 158L-10 163L-15 170L-16 174L-3 210L3 219L30 234L38 242L55 251L65 253L72 261Z"  />
<glyph unicode="o" horiz-adv-x="329" d="M-8 201L1 215L3 216L15 220L24 233L45 249L61 264L71 267L121 298L147 308L175 315L186 318L196 321L209 327H211L239 318L258 311L273 302L278 295L280 285L279 279L272 269L286 261L291 251L298 240L302 224L303 199L301 187L296 179V168L294 153L292 149L280 135L275 124L266 114L264 104L263 103L233 78L225 70L219 72L200 54H194L189 51L169 41L157 35L145 34L137 28H125H113L108 25H102L93 31L82 34L69 47L49 63L44 70L32 90L28 104L29 124V130L33 138V157L41 184L45 194L41 200L34 192L26 190L22 180L19 178L14 181L8 170L1 163L-5 162L-10 163L-11 165L-12 167V180L-14 188V191L-8 201ZM92 109L90 95L91 92L96 76L98 65H99H110L126 62L135 64L147 67L155 74L166 79L175 92H184L188 102L207 117L213 130L223 139L233 161L240 172L244 194L242 203L241 205L229 216L224 224L223 231L225 241L235 255L246 264V267L244 270L233 265L226 258L224 257L211 252L195 248L188 252H183L176 240L166 238L157 227L149 225L145 223L143 219L138 208L113 182L110 172L102 153L100 140L90 133L88 130V127L95 120L92 109Z"  />
<glyph unicode="p" horiz-adv-x="426" d="M78 238L75 227L72 218L70 217L53 218L49 208L46 202L45 201L26 190L4 168L-7 162H-11L-18 163L-24 170L-28 184L-26 194L-23 199L-18 204L0 213L7 222L24 233L34 244L41 246L54 250L52 260L63 263L75 270L81 277L89 282L105 300L118 320L126 327L136 330L146 327L160 314L168 302L172 286L170 269L158 220L159 210H163L171 221L189 237L198 247L212 255L238 274L251 279L255 288L264 294L294 313L316 317L328 320L339 316L343 319H352H358L370 310L382 300L388 283L392 271V270L389 259L392 250L387 242L386 232L379 217L375 196L368 187L355 167L343 155L336 147L345 146L356 157L367 163L372 168H380L393 178L407 185L423 199L431 207L440 209L447 218L460 225L481 243L489 245L497 248L501 247L504 244L505 241L504 238L499 228V217L495 209L488 199L479 197L473 193L458 177L443 165L438 157L435 155L433 154L424 156L414 145L404 142L397 130L384 128L377 121L353 99L346 98H335L327 86L319 77H306L294 68L285 70L272 64L262 57H258H243L208 41L201 40H195L187 42H186L178 34L168 35L157 33H155L147 36L130 52L124 62L114 69L103 56L100 43L97 30L91 21L83 -2L77 -11L75 -20L69 -29L66 -43L59 -54L46 -99L40 -105L34 -125L19 -151L16 -164L1 -195L-1 -203L-9 -220L-22 -236L-33 -251L-47 -260L-64 -271H-65L-78 -269L-85 -266L-86 -265L-99 -244L-106 -233L-108 -225L-115 -193L-116 -182L-103 -140L-90 -114L-85 -99H-84L-74 -91L-50 -46L-18 -7L-16 4L-13 13L-9 16L0 21L4 30L10 36L19 51L25 56L31 64L38 68L44 73L46 78L47 88L84 199L90 221L93 239L78 238ZM-58 -176L-45 -151L-34 -133L-20 -98L14 1H11L2 -12H-5L-12 -31L-23 -39L-27 -44L-31 -58L-33 -69L-39 -79L-48 -87L-54 -100H-60L-59 -111L-60 -117L-64 -125L-71 -136V-150L-77 -180V-202L-58 -176ZM130 104L139 112L153 122L158 123L169 125L191 129L207 123L211 114L225 121L241 132L252 135L256 143L276 163L280 171L301 195L308 206L318 222L324 237L328 248L325 255L321 265L310 260L298 264L291 259L282 255L275 250L265 248L257 242L251 241L241 240L230 229L223 226L217 214L206 213L200 202L181 188L152 155L142 150L144 141L132 128L128 114L125 103L130 104Z"  />
<glyph unicode="q" horiz-adv-x="460" d="M80 253L92 261L104 272L113 273L120 281L137 291L151 300L181 308L202 316L217 318L231 322L245 319L258 316L270 306L278 293L284 269L287 253L296 261L301 268L311 273L322 280L327 282L332 283L349 278L359 269L361 263V250L362 238L361 233L358 227L347 212L340 195L327 181L321 170L311 166L308 148L297 141L295 132L291 122L290 121L276 115L275 114L274 113L273 111L275 106L278 103L281 102L300 109L319 113L327 116L330 119L335 123L352 133L366 143L380 145L400 163L432 183L455 204L457 205L460 204L462 201L463 198V197L461 186L462 170L458 159L454 155L433 141L426 130L414 123L401 114L390 109L386 102L368 97L361 90L350 81L348 80H337L324 70L316 72L307 64L298 59L286 54L275 50L279 39L285 12L284 1L282 -10H273V-21L278 -26L276 -36L272 -58L258 -81L248 -106L234 -130L220 -171L213 -176L214 -182L209 -195L200 -213L192 -221L191 -236L186 -243L181 -251L167 -265L140 -309L131 -314L123 -320L112 -321L102 -326L100 -327L97 -328L83 -323L68 -308L62 -288L63 -282L68 -264L72 -230L84 -190L98 -144L122 -90L141 -53L156 -21L162 -10L164 1L173 13L180 32L189 52L185 61L178 79L186 81L198 89L211 96L219 117L230 132L232 147L241 160L233 153L216 149L209 141L199 144L192 134L181 121L176 119L166 114L159 107L152 103L145 95L138 98L126 87H117L110 82L96 73L89 74L79 65L71 59H69H60L47 56L39 55L12 61L3 66L-7 76L-13 103L-9 135L-2 155L5 175L14 186L35 213L59 235L68 243H75L80 253ZM244 205L246 210L248 211L259 216L271 230L268 232L260 228L251 233L239 241L237 242L221 244L206 242L190 237L174 236L162 226L148 223L138 213L128 210L117 200L102 194L96 188L76 171L68 164L61 161L58 149L39 119L36 112L35 106L36 99L40 95L44 94L55 98H62L72 102L87 105L117 122L127 125L138 131L144 138L157 143L175 157L188 164L203 174L214 178L226 193L242 194L244 205ZM134 -270L140 -263L156 -240L167 -218L180 -203L186 -184L198 -156L204 -135L215 -101L221 -65L228 -40L230 -21L227 -3L220 11L216 12L218 0V-7L217 -15L208 -22L202 -36L199 -46L197 -57L188 -66L184 -72L178 -73V-89L171 -95L173 -104L163 -125L162 -135L160 -144L151 -156L144 -181L131 -214L127 -232L126 -247L122 -264L123 -268L124 -270L126 -273L134 -270Z"  />
<glyph unicode="r" horiz-adv-x="363" d="M97 278L103 289L127 303L135 313L143 318L148 325L159 332L171 339L172 340L187 341L205 337L216 327L219 320L221 304L242 243L239 228L236 222L222 206L216 198L208 193L203 183L195 177L191 169L187 159L176 156L175 142L160 118L155 105L150 96L152 91L154 90L158 89L177 91L184 89L193 96L212 101L221 107L235 112L258 128L275 138L285 146L303 159L309 167L335 185L345 202L353 208L359 209H360L369 202L365 192V172L348 149L344 140L336 137L329 129L309 112L286 95L278 86L267 89L265 88L259 74L245 73L246 62L236 57L227 53L216 44L207 38L195 37L183 30L171 32L149 31L139 37L124 45L120 48L113 60L108 73L99 91L102 109L103 125L106 139L109 145L117 157L123 176L129 185L133 195L146 213L161 242L167 252V255L166 258L165 261L151 267L145 257L128 250L120 243L110 238L99 228L90 222L84 211L71 210L63 207L57 198L44 194L38 184L28 180L16 177L7 167L2 163L-4 162L-11 164L-15 168L-16 174V179L-14 195L-4 206L1 213L6 217L15 220L25 227L33 229L39 238L50 244L58 251L72 265L73 266L85 270L91 278H97Z"  />
<glyph unicode="s" horiz-adv-x="259" d="M-30 189L-22 196L-2 206L4 214L11 219L15 224L28 230L46 249L55 257L75 286L86 298L101 342L110 349L124 352L139 349L150 341L154 336L166 301L174 277L178 257L179 243L185 231L186 223L182 211L183 187L178 177L177 166L171 153L174 147L200 162L206 168L234 188L247 203L284 225L297 240L305 244L316 248L322 238L325 225L323 212L319 208L307 198L301 191L283 183L274 168L262 159L255 152L243 150L238 140L231 137L223 131L212 119L203 118L199 107L188 103L184 96L179 95L168 87L155 83L144 80L140 72L130 67L113 60L112 59L107 52L91 47L83 39H72L36 21L16 23L-5 24L-12 27L-23 42L-42 68V75L-33 85L-28 94L-21 100L-12 104L2 107L18 112L28 102L39 103L50 100L67 109L77 112L81 122L99 152L106 159L109 183L112 186L118 188L122 191L115 204L120 214V223L121 229L120 237L121 246V247L119 257L116 267L107 262L86 241L72 223L56 214L47 201L41 198L24 186L-3 163L-22 151L-28 143L-42 146L-44 149L-48 164L-46 175L-42 183L-36 191L-30 189Z"  />
<glyph unicode="t" horiz-adv-x="249" d="M21 393L30 405L33 407H37H38L55 405L69 410L86 414L99 421L134 428L149 436L158 441L175 461L190 474L207 505L218 518L225 526L235 522L247 509L253 486L250 468L247 465L233 454L226 446L224 440L225 437H232L240 442L283 447L318 457L359 463L394 470H403L414 467L424 471L450 476L462 483L470 480H475H482L527 489L547 485L565 493L574 494L589 498L602 496L611 497L621 494L631 490L635 484L642 476L649 464L653 446L651 439L646 434L637 432H636L623 433L592 434L575 436L533 431L522 432L479 422L454 423L445 421H444L436 425L424 420L406 413H382L370 409L353 410L335 404L314 403L268 391L251 390L231 382L213 384L199 376H189L184 365L178 361L175 349L165 344L148 314L137 307L129 291L116 279L105 252L97 243L94 234L89 231L84 221L77 215L76 205L60 191V176L52 163L48 152L42 146L43 134L40 127V126V119L41 108L53 104H67H81L98 112H109L144 133L154 137L162 143L174 148L181 157L185 160L190 161L200 162L206 171L244 202L257 215H258L263 214L272 204L274 199V198L271 187V177L268 171L264 167L253 158L247 148L227 130L216 118L205 110L201 100L196 96L188 97L176 83L163 80L146 71L136 68L122 56L100 53L92 50L74 49L60 43L46 55L32 63L16 82L9 91L8 95L5 108L1 117L2 128L-2 144L-3 151L-2 155L4 163L2 175L3 189L5 193L9 200L12 211L21 223L27 231L32 245L36 252L41 262L52 260L57 267L50 274L53 290L62 299L72 315L83 326L96 350L103 355L105 362L95 361L88 359H72L61 355L36 350L22 343L12 344H0L-7 347L-11 352L-13 361L-12 366L-4 381L2 391L14 399L21 393Z"  />
<glyph unicode="u" horiz-adv-x="489" d="M5 201L7 215L18 226L30 235L40 234L46 248L59 251L72 267L83 266L90 278L99 285L105 284L112 293L122 295L129 298L139 299H149H151L164 285L172 276L179 264L183 244L182 239L180 236L171 232L169 220L163 205L159 197L151 191L147 182L139 181L137 170L133 154L130 150L123 141L121 133L116 120L115 114L116 110L119 107L121 106L122 107L143 122L150 126L160 128L165 137L177 148L185 156L196 158L198 167L210 174L222 185L239 199L244 206H252L257 220L287 246L293 256L304 263L329 286L341 293L359 296L372 295L375 292L389 278L405 265L410 255L411 250L388 194L375 150L372 134L366 132L367 116L377 120L391 128L404 132L410 142L426 156L434 165L441 169L451 170L454 180L465 193L487 211L493 213L496 212L499 209L503 204L505 198L510 194L511 178L506 175L497 163L488 162L483 155H478L469 146L445 118L430 109L423 111L417 103L400 91L389 77L374 72L353 52L344 49L340 50L328 61L320 67L313 78L293 103V104V105L295 119V135L303 152V170L312 186L310 193L312 205L300 198L290 185H278L272 171L265 168L258 161L247 162L245 149L236 143L229 135L224 133L214 122H204L201 110L192 101L185 94L175 95L172 84L169 79L168 78L155 75L124 47L109 48L98 49L91 52L83 58L75 68L66 76L51 101L44 112V122L47 143L65 180L69 191H74L75 199L82 207V214L65 206L55 198L46 194L43 196H41L37 187L32 186L27 181L21 176L16 175L2 182L5 201Z"  />
<glyph unicode="v" horiz-adv-x="338" d="M38 253L52 255L60 268L70 271L81 278L87 285L97 289L112 299L119 301L128 303L149 297L164 282L170 261L167 247L158 227L157 210L149 201L150 176L140 160L138 148L128 143V138L136 130L137 128L135 119L133 107H135L139 111L149 115L151 124L160 125L162 134L171 142L178 149L192 166L201 173L206 180L210 190L225 201L229 208L235 215L242 224L253 232L268 249L287 268L293 276L315 293L324 301L334 306L358 311H363L373 307L390 291L394 275L389 256L382 245L377 242L366 245L356 238L347 236L337 237L329 232L318 230L311 220L299 217L291 213L288 210L281 199L264 190L256 178L246 171L238 162L229 160L225 154L223 146L217 137L216 136L206 133L202 122L191 117L185 104L176 97L169 84L155 73L141 50L129 41L116 28L109 27L96 31L63 68L59 76L53 101L56 118L66 144L79 200L90 229L87 238L73 229L56 227L51 212L33 204L26 193L17 189L9 178H7L3 180L-2 189L-11 196L-12 198L-10 204L-5 212L14 231L17 237L30 239L38 253Z"  />
<glyph unicode="w" horiz-adv-x="465" d="M7 214L10 220L26 227L38 237L45 246H56L62 255L72 259L85 273L99 281L110 296L128 312L142 316L153 313L164 303L169 274L167 252L159 237L155 226L127 185L110 152L99 124L97 114L103 112L116 116L122 117L128 128L142 133L141 142L152 146L162 150L165 158L172 166L178 171L191 175L194 191L198 195L203 203L213 205V219L226 228L265 291L272 297L277 299L285 296L299 286L313 268L321 240L319 227L317 224L312 222L303 192L290 170L292 160L291 150L287 142L289 132L285 125L283 118L285 111L290 107L292 106L302 110L312 111L322 116L336 126L354 137L361 145L374 155L378 164L385 167L388 179L396 188L409 212L418 226L415 238V248L405 274V278L409 293L417 303L421 304H433L449 306L460 299L473 289L479 282L484 265L485 256V253L474 216L472 207L463 197L456 174L442 162L430 138L422 131L408 110L388 100L384 96L383 94L381 84L368 74L359 66L351 64L336 51L334 50L314 45L299 44L279 49L271 53L244 72L243 75L236 99L233 111L234 132L236 165L237 172L233 176L227 163L216 155L211 143L205 137L199 130L189 121L184 114L177 107L167 92L168 88L159 83L148 72L116 51L88 35L82 34L68 38L55 48L51 56L46 77L42 93L47 128V138L58 153L60 164L67 177L70 183L79 194L81 205L84 218L73 213L61 203L42 194L30 181L22 175L17 174L7 177L-2 186L-4 191V193L-1 209L7 214Z"  />
<glyph unicode="x" horiz-adv-x="397" d="M112 174H120L125 182L132 187L145 199L158 209L162 236L167 268V280L163 277L159 272L155 267L153 266L139 263L133 253L115 250L103 237L95 239H93L83 226L68 218L59 209L49 206L19 171L13 169L10 170L4 176L0 192L3 206L10 219L15 222L25 227L32 240L49 249L58 262L69 264L76 273L85 276L102 292L127 303L132 310L143 314L150 321L174 329L191 336L198 337L210 334L224 330L233 319L238 311L239 307L237 292L236 267L235 255L245 259L257 266L268 270L277 280L314 300L323 311L347 327L366 338L371 339L377 337L384 330L387 319L385 308L383 305L373 301L357 294L338 287L332 281L320 274L309 265L293 258L270 242L246 227L238 220L229 218L226 206L219 172L217 160L212 150L213 141L208 124L207 110L211 90H223L234 96L274 124L282 128L294 131L300 140L308 143L313 137L317 147L323 158L330 165L340 172L354 185L366 192L385 204H388L392 203L395 201L397 188L393 164L385 154L377 153L367 142L354 131L335 118L322 107L311 104L304 97L291 94L277 75L256 62L249 57L237 52L233 43L228 37L225 36L216 33L208 28L207 27L186 25L178 26L173 28L161 38L149 48L144 53L142 56L139 70L136 80L143 121V135L150 140L147 156L137 149L127 141L106 128L91 109L79 111L75 92L67 84L51 62L39 52L30 43L22 39L18 38H14L7 44L0 53L-4 66L-3 70L-2 73L7 87L18 104L26 109L47 125L58 130L95 160L103 161L112 174Z"  />
<glyph unicode="y" horiz-adv-x="380" d="M26 240L60 267L94 295L102 300L112 302L126 298L132 292L134 276L130 254L120 237L115 222L95 190L85 169L74 142L75 138L77 136L81 135H84L89 137L104 146L125 156L133 165L172 182L179 192L186 195L195 204L206 206L214 210L219 215L228 225L258 243L305 276L317 281L334 292L349 296L369 290L383 278L386 261L385 239L381 221L373 203L370 187L367 178V166L355 157L358 145L357 140L355 136L349 128L347 113L340 98L332 86L321 51L315 39L308 23L320 25L326 24L340 30L351 32L375 37H395L404 38L417 35L434 31L449 23L463 12L467 -16L464 -36L459 -41L455 -42L453 -41L443 -36L432 -29L430 -27L419 -5L414 5H404L395 9L384 7L375 10L360 6H342L330 1L309 -4L296 -10L293 -19L288 -31L279 -42L274 -57L265 -68L261 -76L256 -85L253 -106L246 -116L239 -124L238 -134L231 -139L232 -150L215 -174L211 -182L205 -185L209 -195L203 -204L199 -215L171 -254L168 -266L162 -273L141 -302L132 -308L134 -317L128 -330L119 -331L115 -336L116 -347L113 -350L107 -354L96 -355L97 -366L87 -374L75 -389L65 -396L48 -400L40 -399L9 -381L-9 -368L-13 -363L-17 -346L-18 -325V-322L-12 -312V-299L-7 -286L-4 -273L5 -261L18 -231L30 -215L56 -173L67 -158L69 -151L77 -150L82 -141L86 -130L99 -119L114 -96L127 -90L132 -80L159 -61L166 -53L174 -52L181 -40L194 -35L195 -26L197 -22L215 -18L225 -12L233 -1L237 11L246 10L248 12L246 23L249 34L253 44L264 53L263 63L264 75L268 83L271 96L280 105L281 117L285 130L296 156L302 176L307 184L309 192V202L292 191L279 193L267 184L260 182L255 175L237 165L231 171L226 170L221 158L217 155L209 153H197L193 144L188 138L185 136L163 126L142 110L119 100L108 93L88 89L81 79L65 80L48 76L40 80L23 93L17 101L16 104V116L13 126L19 141L20 156L28 184L32 193L30 196L21 189L16 179L4 166L-4 159L-14 163L-18 172L-26 176L-27 179L-28 185L-27 189L-20 198L2 216L10 225L21 231L26 240ZM36 -342L48 -332L56 -326L59 -316L64 -309L72 -304L76 -294L86 -290L89 -276L101 -258L105 -249L120 -227L128 -209L134 -203L140 -184L147 -175L148 -165L157 -155L164 -142L172 -129L184 -109L187 -97L202 -72L200 -63L191 -70L172 -85L159 -95L145 -113L118 -138L108 -156L107 -157H96L93 -162L96 -173L88 -180L85 -191L76 -197L68 -211L59 -216L58 -228L56 -241L36 -275L33 -284L30 -290L28 -304L20 -309L18 -314L24 -320L19 -336V-350L36 -342Z"  />
<glyph unicode="z" horiz-adv-x="235" d="M150 -28L165 3L172 28L167 46L158 56L128 60L101 58L63 48L51 39L43 46L37 49L29 58L22 69L21 76L22 82L28 92L29 104L37 107L47 128L53 133L65 152L73 159L83 165L85 175L98 198L109 221L121 232L128 242L131 257L129 265L127 268L123 269L120 268L114 264L87 242L81 240L62 222L48 216L39 207L26 202L16 189L7 185L0 176L-5 169L-20 158L-29 152L-38 159L-40 172V179V183L-32 199L-27 206L4 228L17 240L30 246L38 256L49 261L83 285L114 299L130 311L138 318H148L170 326H172L192 324L200 321L203 319L211 310L219 301L220 298L215 274L210 258L199 236L186 217L184 204L178 199L179 188L169 183L164 169L154 159L146 150L145 145L136 135L127 121L118 112L129 115L152 121L165 122L190 121L199 118L230 88L235 73V71L234 60V52L223 21L216 -2L204 -25V-36L196 -42L208 -45L219 -54L229 -68L231 -79L230 -90L223 -93L220 -101L204 -106L197 -107L187 -104L175 -97L164 -99L160 -107L151 -120L145 -125L144 -130L134 -148L128 -158H123V-165L115 -172L105 -187L94 -195L81 -216L70 -226L65 -237L54 -243L47 -252L28 -272L24 -278L20 -280L16 -286L13 -288L4 -297L-5 -299L-16 -314L-33 -321L-45 -330L-64 -345L-69 -347L-82 -350L-89 -355L-94 -358H-97H-99L-109 -350L-119 -345L-123 -334L-128 -325L-130 -312L-129 -305L-122 -271L-119 -257L-103 -227L-97 -207L-83 -184L-62 -155L-52 -146L-48 -140L-41 -135L-34 -126L-17 -112L-11 -106L4 -94L9 -88L12 -85L19 -82L48 -74L69 -59L83 -55L97 -49L115 -46L136 -39L146 -37L150 -28ZM-82 -291L-62 -282L-50 -279L-36 -265L-19 -259L-6 -245L0 -242L5 -229L32 -209L38 -198L44 -194L47 -183L58 -179L63 -169L87 -129L91 -119L96 -113L102 -101L86 -100L74 -105L60 -108L16 -127L8 -128L-2 -138L-5 -146L-23 -158L-26 -155L-31 -165L-33 -169L-35 -170L-43 -172L-47 -186L-56 -193L-76 -219L-85 -229L-86 -248L-95 -275L-97 -284L-96 -288L-94 -293L-82 -291Z"  />
<glyph unicode="{" horiz-adv-x="407" d="M364 -181Q290 -177 252 -152T199 -88T184 -5T184 84T179 164T145 222Q124 238 97 245T43 255V287Q57 287 76 291T109 301Q133 309 151 324T177 365Q180 377 181 394T183 429T184 465T183 494Q183 546 189 587T214 657T269 703T364 723V691Q313 688 285 670T245 624T230 561T228 489T229 416T217 350T181 299T107 271Q155 264 180 243T217 191T229 125T229 53T229 -19T244 -82T284 -128T364 -149V-181Z"  />
<glyph unicode="|" horiz-adv-x="222" d="M87 -214V786H135V-214H87Z"  />
<glyph unicode="}" horiz-adv-x="407" d="M364 255Q339 253 314 247T267 226Q244 211 235 186T224 131T223 66T223 -1T215 -66T189 -121T135 -162T43 -181V-149Q95 -146 122 -128T162 -83T177 -21T178 50T178 123T190 189T226 241T301 271Q253 278 228 299T191 350T179 416T178 489T177 561T163 624T122 670T43 691V723Q115 719 152 696T206 634T223 545T224 437Q224 398 231 371T254 326T298 300T364 287V255Z"  />
<glyph unicode="~" horiz-adv-x="560" d="M517 329Q514 306 506 284T484 245T450 218T405 208Q373 208 339 218T271 242Q239 254 210 263T157 273Q128 273 110 251T87 200H44Q48 223 56 245T78 284T110 312T155 323Q186 323 220 313T289 289Q321 277 351 268T404 258Q433 258 450 279T474 329H517Z"  />
<glyph unicode="&#xA0;" horiz-adv-x="267" />
<glyph unicode="&#xA1;" horiz-adv-x="307" d="M194 375L201 380L202 398L213 421L224 490L235 504L238 508L243 511L246 512L249 511L264 499L282 487L283 486L290 471L295 449L291 429L270 378L252 327L230 287L222 266L218 260L210 240L203 233L202 222L197 209L186 195L181 179L171 168L164 147L158 141L148 136L151 128L145 120L139 110L120 61L113 50L107 46L101 45L89 48L64 78L54 101L53 105L57 121L60 127L92 169L102 185L111 200L118 222L132 235L139 254L161 287L167 304L173 312L187 357L193 364L194 375ZM248 611L252 620L264 654L270 658L284 661L296 658L305 652L318 648L326 633L338 613L340 604L334 592L325 575L318 562L312 556L307 550L295 548L286 545H283L273 547L259 559L249 574L246 583L240 595L241 600L248 611Z"  />
<glyph unicode="&#xA2;" horiz-adv-x="368" d="M57 326L62 339L64 341L71 348L81 359L88 362L89 373L95 379L103 389L112 394L122 403L134 411L140 418L149 423L166 437L181 442L193 443L207 452H209L215 451L226 448L231 459L238 480L247 494L255 516L264 534L269 543L278 544L280 539L283 545L290 539L287 532L289 527L284 520L283 510L280 502L278 489L273 480L266 463L257 452L265 450L277 455L287 450L302 440L307 431L309 425L310 413L308 405L296 393L288 388L271 382H269L267 383L261 389L245 392L236 394L231 393L227 390L224 384L221 374L211 358L206 342L205 331L191 313L190 299L184 291L182 273L171 249L164 238L162 231L171 232L177 240L182 245L186 246L198 247L204 255L232 267L260 290L272 291L279 303L294 315L306 322L309 323L313 322L316 318L318 312L317 309L316 307L314 306L309 305L314 289L308 274L297 269L296 257L287 253L267 238L244 216L230 206L222 199L219 198L212 200L204 193L195 191H193L190 188L180 178L168 185L163 182V176L160 172L157 171L143 168L132 165L131 155L128 152L122 143L118 128V115L111 110L108 99L96 81L91 71L80 74L72 80L64 87L63 91V92L67 102L66 108L73 116L74 123L80 127L81 137L86 145L89 154L94 161L100 171H89L77 179L60 187L55 202L44 208L38 214L35 219L30 240L27 248V252L28 260L36 281L42 303L46 310L55 315L57 326ZM189 380L184 381L175 371L165 367L155 355L138 349L129 339L106 301L90 289L91 272L82 261V248L79 229L82 223L86 220L101 217L123 221L127 224L129 228L132 239L152 280L155 294L172 330L184 364L192 375L197 384L189 380Z"  />
<glyph unicode="&#xA3;" horiz-adv-x="715" d="M55 210L66 216L81 224L100 228L120 234L133 235L207 250L239 253L254 252H262L273 253L276 255L288 276L301 297L290 296L256 280L247 281L235 277L232 278L230 281L229 283L231 300L248 304L295 324L318 332L330 356L341 375L345 387L334 382L322 378L289 355L248 340L237 333H232L222 335L211 347L206 365L208 378L210 381L220 386L234 394L250 390L257 389L266 384L300 395L307 394L316 408H333L339 417L349 424L359 427L370 439L387 459L413 508L429 531L431 540L439 561L456 593L464 602L483 639L493 645L501 653L510 663L516 673L526 679L535 691L546 694L558 700L564 702L571 700L588 687L596 679L595 666L597 656L599 645L591 635L588 622L572 595L569 585L560 573L555 563L549 556L541 536L530 532L525 528L520 522L512 509L465 468L452 438L436 409L432 391L422 374L417 364L431 367L451 373L513 384L545 398L557 397L562 402H563L566 401L568 400L570 397L575 385L596 360L599 348L598 339L594 332L584 321L572 323L563 326L541 324L428 318L415 317L404 311H397L372 252L384 250L392 249L448 244L464 237L476 236L490 232L516 230L546 217L561 213L567 209L576 203L577 193L584 183L587 173L608 142L611 122L608 111L602 105L595 103L590 104L586 107L583 112L575 132L561 136L558 140L557 147L546 150L521 157L518 159L509 168L494 171L476 178H458L443 184L423 187L417 186L407 187H406L390 199L367 195L351 200H338L332 192L318 171L296 135L264 100L259 95L253 91L219 74L207 65L191 58L179 55L180 62H174L170 55L167 50L163 47L157 46H144L138 40L133 39L121 44L106 33L95 32L69 26L55 28L45 27L31 28L27 30L21 37L-2 45L-9 54L-24 52L-29 61H-37L-39 67L-38 74L-53 80L-59 89L-67 97L-70 101L-74 120L-72 126L-60 140L-47 153L-37 164L-22 169L-9 182L12 190L25 200L43 203H54L55 210ZM-1 65L9 61L26 58L39 60H41L51 68L70 69L88 75H101L112 83L126 89L136 96L162 109L179 123L198 144L218 162L230 182L235 192L199 193L176 191L166 187L154 190L149 191H147L142 184L127 183L97 176L84 177L66 167L53 166L43 153L2 128L-18 107L-30 91V85L-19 75L-15 66L-1 65ZM515 561L523 564L526 567L531 577L540 584L546 594L563 612L567 621L568 631L574 639L576 655L578 665L569 660L548 641L508 569L505 561H515Z"  />
<glyph unicode="&#xA4;" horiz-adv-x="593" d="M491 130L427 194Q399 172 365 160T296 147Q259 147 227 159T165 194L102 131L71 161L134 225Q111 254 99 286T87 356Q87 394 99 426T134 488L70 551L101 582L164 519Q196 542 226 553T296 564Q334 564 366 553T428 519L491 582L521 551L458 487Q480 457 492 426T505 356Q505 318 493 286T458 225L521 161L491 130ZM459 356Q459 389 446 419T411 471T359 506T296 519Q262 519 233 506T181 471T147 420T134 356Q134 322 146 293T181 241T232 206T296 193Q329 193 359 206T411 241T446 293T459 356Z"  />
<glyph unicode="&#xA5;" horiz-adv-x="490" d="M193 306L195 313L202 326L207 336L196 335L172 337L146 336L132 339H105L98 341L93 344L85 353L86 361L85 369L90 379L95 385L97 386L109 389L125 393L138 389L146 390L156 387L195 388L223 391L226 394L227 398L226 401L224 411V421L225 435L229 447L227 468L231 489L239 522L246 533L248 542L250 549L246 559L230 549L221 550L219 537L218 530L215 524L212 515L210 511L207 510L195 506L191 502L185 492L178 491L172 481L166 479L159 490L148 497L154 512L162 522L175 533L177 539L190 540L198 554L214 557L222 569L241 578L248 586L258 591L277 601L289 603H294L299 602L310 596L323 585L328 570L329 559L328 552L318 527L317 511L310 502L309 476L300 460L299 449L289 444L288 439L287 438L289 425L286 409L291 400L298 411L310 416L312 425L321 427L325 437L361 474L369 490L384 500L401 524L414 535L454 578L476 595L484 602L499 610L514 613L534 607L550 591L556 573V570L554 567L548 556L543 547L539 543H536L526 545L507 537L497 538L489 532L478 531L470 520L460 518L452 514L449 511L442 500L425 491L415 478L405 470L397 461H389L385 454L383 446L379 439L376 436L365 434L362 423L351 420L346 406L338 400L333 391L343 393L356 391L374 394L415 392L442 388L448 380L455 378L452 366L444 350L436 344L414 336L400 334H396L378 337L347 334L312 338L295 335H284L280 323L278 317L269 307L264 296L276 295H298H310L328 299L337 298L345 297L354 298L363 299L370 294L381 295L393 294L408 284L405 269L399 256L389 248L370 241L354 239H350L332 242L301 239L266 243L254 240L243 239L241 223L229 202L227 186L221 168L218 158L209 153L210 139L198 87L199 57L196 48L195 38L194 35L190 33L185 32L172 36L149 58L136 96L130 130L131 136L137 158L138 174L163 234L166 244L153 240H132L100 241L86 244L59 243L48 248L43 253L41 263L40 271L43 281L52 291L76 296H83L110 292L159 293H167H169L180 297L190 296L193 306Z"  />
<glyph unicode="&#xA6;" horiz-adv-x="222" d="M87 411V661H135V411H87ZM87 -89V161H135V-89H87Z"  />
<glyph unicode="&#xA7;" horiz-adv-x="530" d="M105 548L97 558L95 574L98 599L107 609L114 621L117 629L138 653L155 662L159 668L164 670L182 683L205 692L212 696L229 699L234 708H247L253 715L263 714L269 719L292 720L304 728L309 729L315 725L323 726L335 725L350 727L363 724L371 718L375 727L386 723L392 718H407L409 717L413 711L419 712L422 715L425 714L428 707L443 702L449 688L457 693L461 690L467 677L474 668L475 663L482 656L481 647L486 613L482 580L472 565L460 558L451 554L422 561L417 575L422 589L432 601L449 600L443 614L428 619L424 629L415 630L412 635L397 643L383 646L364 651L342 655H330L307 651L298 652L292 648L284 653L263 646L245 651L241 647L230 643L222 644L215 643L206 633L191 629L186 622H179L171 614L158 612L153 604L142 597L139 573L149 559L151 550H152L153 545L154 544L166 536L174 524L184 520L199 508L205 503L206 494H209L219 498L222 497L224 496L231 484L238 486L245 482L257 481L269 472H277L291 459H302L312 449L323 451L333 440L340 434L366 424L377 407L382 409L384 411H387L390 408L415 390L429 387L432 384V380L433 377L430 374L426 366L427 361L439 364L445 366H447L453 361L472 342L478 330L484 314V303L483 292V279L478 270L470 253L463 248L462 236L453 231L434 213L422 207L417 199L395 191L355 173L346 168L336 169L306 158H286L274 154L280 149L283 138L298 112L305 97L330 57L348 20L360 -10L359 -20L349 -56L335 -71L325 -75L287 -79L251 -72L240 -66L231 -65L218 -56H205L191 -48L156 -33L146 -26L113 -9L94 7L73 19L52 37L43 48L40 64L38 90L41 98L49 106L67 110L85 105L90 102L97 95L98 93V67L99 64L106 56L117 47L122 34L133 27L142 20L153 13L160 6L174 0L181 -11L196 -14L203 -25L214 -22L235 -33L245 -30H246L248 -31L252 -35L254 -41L260 -36L271 -33L277 -31L281 -27L282 -22L281 -20L275 9L278 23L272 21L268 18L258 32L263 44L262 46L253 45L250 47L244 55L227 79L217 96L204 108L197 129L187 140L179 155L168 167L163 183L149 200L140 209L129 231L126 243L113 261L110 276L105 288L104 291L105 292V294L111 296L110 301L98 303L96 305L93 310L88 330L77 352V362L71 378V389L69 399L72 417L73 429L83 444L85 456L98 468L114 484L124 487L135 497L141 499V500L127 506L120 515L107 532L105 548ZM148 456L142 445L147 426L148 401L160 376L168 356L174 345L179 322L190 298L192 284L206 266L225 240L238 213L250 193L257 181L263 184L275 182L281 187L309 198L324 206L357 232L369 239L382 258L391 264L398 284V298L388 314L384 324L373 329L364 336L338 362L333 371L326 372L289 398L282 400L272 408L261 414L260 420L250 426L245 432L224 438L215 445L214 452L199 454L190 463L178 469L157 464L148 456Z"  />
<glyph unicode="&#xA8;" horiz-adv-x="307" d="M125 406L115 400L107 394H105H103L96 398L80 407L73 415L66 427L64 437L67 449L80 463L94 475L101 477L111 474L116 469L127 453L138 440L139 435L138 429L131 421L125 406ZM196 471L201 476L210 474L223 465L241 442L243 432L242 426L241 424L229 415L225 408L213 405L209 397L199 391L183 396L173 413L165 419L162 424L160 432L161 435L167 447L175 459L196 471Z"  />
<glyph unicode="&#xA9;" horiz-adv-x="778" d="M756 354Q756 278 727 212T648 95T532 16T389 -13Q313 -13 247 16T130 95T51 211T22 354Q22 430 51 496T130 612T246 691T389 720Q465 720 531 691T648 613T727 497T756 354ZM724 354Q724 423 698 484T626 590T519 662T389 688Q320 688 259 662T153 591T81 484T55 354Q55 285 81 224T153 118T259 46T389 19Q458 19 519 45T625 117T697 224T724 354ZM565 276Q561 245 546 221T508 179T458 152T400 143Q355 143 318 160T256 206T216 274T202 357Q202 399 215 437T253 505T313 551T393 569Q424 569 454 559T507 531T545 487T563 427H522Q514 475 480 503T396 532Q360 532 333 518T287 479T259 423T250 359Q250 325 259 293T288 235T335 195T401 180Q447 180 481 205T526 276H565Z"  />
<glyph unicode="&#xAA;" horiz-adv-x="411" d="M96 443L94 451L97 457L114 478L116 483L126 491L132 500L146 509L160 522L186 537L209 551L223 556L236 563L255 568L268 573L276 569L284 573H286L295 570L308 561L311 554L312 545L316 537L323 542L331 552L340 559L356 563L366 561L379 553L382 542L379 525L368 507L351 493L343 476L339 470V459L338 448L339 444L340 442H343H345L351 445L364 456L372 461L385 472L389 473L396 482L408 489L417 498L424 503L427 504L430 503L434 499L436 491L434 482L428 471L424 459L419 455L402 440L395 437L386 426L376 423L372 419L364 417L360 411L348 407L328 401L319 402L309 403L301 404L294 406L288 414V418V419L285 422L281 425V433V442V443V448L283 455L281 457L273 452L265 450L263 446L256 442L252 439L244 435L237 430L231 429L227 423L223 419L202 408L192 400L180 393L148 377L133 374L108 371L90 385L88 388L84 399L80 410V418V425L88 438L92 443H96ZM267 484L270 490L276 494L290 506L297 512L304 521L296 519H290H284L260 522L258 521L249 518L232 514L208 502L200 499L194 493L185 483L177 478L171 469L168 463L163 458L160 450L159 441V435V433L161 427L163 425L164 424L172 421L179 426L206 440L211 446L238 461L244 466L248 468L250 473L267 484Z"  />
<glyph unicode="&#xAB;" horiz-adv-x="307" d="M165 243L168 231L165 221L148 204L128 190L126 187L121 176L114 168L126 154L156 113L158 105L156 96L151 91L145 89L138 91L126 99L92 134L75 146L65 160L62 175L67 194L70 198L86 207L93 217L113 229L121 237L140 241L146 248L156 255L165 243ZM216 146L244 109L246 102L244 95L240 91L234 89L227 91L216 98L184 129L166 141L158 149L155 165V170L158 185L160 188L176 199L181 206L200 218L207 226L226 232L234 242L237 244H238L242 243L246 238L250 222L248 212L234 197L216 184L214 182L210 171L203 161L216 146Z"  />
<glyph unicode="&#xAC;" horiz-adv-x="560" d="M452 159V320H56V370H503V159H452Z"  />
<glyph unicode="&#xAD;" horiz-adv-x="351" d="M217 216L227 219L238 218L253 216L269 210L282 213H283L292 210L296 207L297 193L295 180L276 164L261 154L241 155L219 153L195 162L176 159L154 162L135 157L110 162L89 158L74 168H62L56 175L54 179L53 186L54 191L59 199L67 206L77 208L106 213L121 211H122L138 214L169 216H179L196 217L206 219L217 216Z"  />
<glyph unicode="&#xAE;" horiz-adv-x="389" d="M377 540Q377 502 363 469T324 410T266 371T194 356Q156 356 123 370T65 410T26 469T12 540Q12 578 26 611T65 669T123 708T194 723Q232 723 265 709T323 670T362 612T377 540ZM352 540Q352 573 340 601T306 651T256 685T194 698Q161 698 133 686T83 652T50 601T37 540Q37 507 49 479T83 428T132 394T194 381Q227 381 255 393T305 428T339 478T352 540ZM250 447Q243 462 243 475T242 499T228 516T187 523H153V447H125V634H196Q209 634 223 632T250 624T269 608T277 580Q277 548 243 535Q261 527 266 517T273 495T274 471T280 447H250ZM249 580Q249 591 244 597T230 606T213 610T195 611H153V547H194Q202 547 211 548T229 552T243 562T249 580Z"  />
<glyph unicode="&#xAF;" horiz-adv-x="308" d="M37 445V458L51 465L63 471H71L82 467L92 471L104 470L116 475L124 473H129H135L159 478L178 474L196 481H204L219 485L231 482L240 483L250 480L254 474L261 466L266 455L270 438L267 431L263 427L254 426H253L240 427H230L213 430L201 427L191 428L179 424L155 426L146 424H145L137 427L126 424L108 417L91 423L79 419L63 421L45 415L38 423L31 433L37 445Z"  />
<glyph unicode="&#xB0;" horiz-adv-x="400" d="M318 465Q318 441 309 420T283 382T246 357T200 347Q176 347 155 356T117 382T92 419T82 465Q82 490 91 511T116 549T153 574T200 583Q225 583 246 574T284 549T309 512T318 465ZM276 465Q276 496 254 518T200 541Q169 541 147 519T124 465Q124 434 146 412T200 389Q231 389 253 411T276 465Z"  />
<glyph unicode="&#xB1;" horiz-adv-x="560" d="M306 289V130H253V289H56V339H253V498H306V339H503V289H306ZM56 31V81H503V31H56Z"  />
<glyph unicode="&#xB2;" horiz-adv-x="350" d="M348 585H340L328 591H310L290 593L275 591L264 593L240 585L220 582L215 576L202 570L196 566L190 565L180 568L168 562L160 563L152 571L146 594L149 603L162 616L174 624H196L210 628L223 627L239 633H253L279 636L314 633L348 626L358 620L368 612L388 591L395 573L392 557L378 543L365 528L350 519L331 511L319 503L300 494L284 483L266 473L264 468L254 462L240 460L228 449L216 443L206 435L193 431L186 423L176 419L162 414L157 403L144 392L134 389L128 379L118 368L115 358L106 353L98 345L95 340V334L100 326L118 332L132 335L142 333L152 338H164L177 345H190L202 349H217L229 352L250 350L273 351L291 348L300 344L316 314L313 291L301 283L294 282L286 283L278 288L276 292L273 290L262 295L251 293L241 299L231 297L221 298L200 293L189 288H176L159 283L146 285L130 281L112 280H113L93 276L85 280L79 274L72 273L53 274L40 280H41L31 282L15 309L13 321L20 339L23 352L36 365L43 375L58 390L93 419L103 432L119 440L121 444L133 450L162 470L187 482L188 485L194 487L209 497H208L230 503L238 515L269 529L281 532L288 540L301 548L321 556L328 561L350 573L352 577L351 584L348 585Z"  />
<glyph unicode="&#xB3;" horiz-adv-x="350" d="M249 389L262 392L265 397L269 400H277L279 403L296 416L300 420L316 427L321 431L331 446L330 445L329 454L331 462L324 468L318 475L311 478L305 481L294 480L283 484L273 480L264 484L251 483H242L225 476L207 477L199 474H187L174 468L157 474L147 479L142 485L130 500L129 504L130 507L138 519H149L167 526H180L203 531L223 543L236 544L242 549L251 557L264 558L289 575L300 580H299L319 592L322 594L303 591L296 593L286 590L281 592L274 588L268 590L260 589L252 591L245 593L238 588L232 587H215L207 590L195 587L176 584H165L149 579H144L137 580L125 588L120 591L113 599L106 607L104 613L108 623L116 630L122 631L139 630L171 629L178 624L191 626H190L208 629L214 624L233 627L272 628L296 626L318 628H336L342 626L352 627L365 622L379 611L389 601V589L394 579L389 569L378 560L366 557L349 548H350L333 539L325 538L314 534L304 533L294 528H286L284 524L280 523L288 520L301 516L315 512L326 503L342 494L347 485L355 480L359 475L360 472L362 458L364 450L360 439L363 433L365 427L361 417L360 408L352 401L347 388L338 383L331 372L319 365L307 350L295 348L286 336L271 333L266 326L252 321H253L236 310L227 309L218 306L205 307L202 305L189 296H176L163 292L153 290L144 285L134 284H133L126 281L107 276L101 275H83L74 271L60 276L49 277L44 285L38 293L36 299L37 298L23 325L22 328L24 333L30 338L37 339L45 337L54 342H63L77 343L88 339L105 341L114 342L132 345L140 350L155 352H171L189 363L201 367H200L226 374L238 384L245 385L249 389Z"  />
<glyph unicode="&#xB4;" horiz-adv-x="282" d="M187 497L207 494L214 488L216 480L215 476L213 473L196 449L189 436L178 427L169 414L140 396L132 387L126 385L117 377L112 374L110 373L101 374L90 373L84 377L75 373L72 376L68 381L67 385L68 390L70 393L83 402L93 417L104 425L111 435L121 443L125 452L132 461L140 483L147 493L155 499L159 500L171 495L187 497Z"  />
<glyph unicode="&#xB5;" horiz-adv-x="624" d="M429 4H369L382 64L376 67Q347 32 315 13T236 -6Q201 -6 176 8T128 58Q116 -1 103 -64T77 -187H10Q44 -29 77 125T144 438H210Q201 393 190 339T168 240Q163 218 159 195T155 147Q155 102 176 76T245 49Q286 49 315 66T363 112T394 173T413 240L455 438H521L429 4Z"  />
<glyph unicode="&#xB6;" horiz-adv-x="558" d="M523 519V1H475V519H386V1H338V212Q290 212 254 225T192 260T153 313T140 380Q140 423 157 456T207 513T284 547T383 559H578V519H523Z"  />
<glyph unicode="&#xB7;" horiz-adv-x="238" d="M94 391L100 407L101 408L114 417L122 426L126 427L128 428L143 420L155 412L170 389L183 377L185 372V368L179 352L160 326L150 319L139 315L130 318L119 326L109 335L91 362L87 370L94 391Z"  />
<glyph unicode="&#xB8;" horiz-adv-x="308" d="M87 -85L98 -76L104 -70H105L130 -68L144 -64L151 -57L155 -52L162 -39L161 -26L149 -21L140 -14L138 -10L137 -6L138 -2L140 2L164 28L168 36H228L225 32L215 21L203 6L200 -6L210 -10L217 -18L220 -29L217 -50L213 -61L211 -66L203 -74L201 -84L191 -88L179 -96L162 -102L152 -109H145H133L120 -116L96 -107L84 -106L80 -99L87 -85Z"  />
<glyph unicode="&#xB9;" horiz-adv-x="350" d="M229 556L219 557L210 548L205 547L197 540L188 536L181 529H173L166 521L153 513L147 503L137 499L130 488L124 486L119 487L110 499L104 515V527L112 535L121 548L135 554L150 558L167 567L184 577L196 576L202 587L214 592L218 597L240 601L247 607L266 612L279 617L289 627L299 629L316 635L324 636L329 635L340 629L352 615L356 608L355 603L341 588L323 565L311 552L306 539L291 525L286 512L276 493H277L271 477L261 465L252 448L253 449L251 443L244 432L245 433L243 427L240 412L229 390L230 391L229 381L224 371L221 361L215 349V339L207 304L206 295L202 286L203 287L199 275L185 273L173 279L158 293L149 312L143 344V350L147 363L148 374L154 383H153L173 430L189 459L188 458L192 471L204 486L216 509L228 524H227L236 546L250 560L252 564H247L243 565V564L229 556Z"  />
<glyph unicode="&#xBA;" horiz-adv-x="329" d="M82 494L90 503L91 504L101 507L108 516L125 527L138 538L146 540L186 561L207 568L229 573L238 575L246 578L256 582H258L280 575L295 571L307 564L311 559L313 552L312 548L307 541L318 536L322 529L327 521L331 510V492L330 484L326 478V470L324 460L323 457L313 447L309 440L302 433L300 426L299 425L275 407L269 402L264 403L249 391H244L240 389L224 382L215 377H205L199 372H189H179L175 370H171L163 375L155 377L144 386L128 397L124 402L114 416L111 426L112 440V444L115 449V463L122 482L129 492L127 498L116 487L110 486L106 479L104 477L100 480L95 472L90 467L85 466L81 467L80 468L79 470V479L78 484V487L82 494ZM173 430L171 420L172 418L176 407L177 399H178H187L190 396L197 398L207 400L213 405L222 408L229 417H236L239 424L255 435L259 444L267 450L269 461L275 468L278 484L277 490L276 491L266 499L262 505L261 510L269 522L277 531L286 538V540L284 542L275 538L270 533H268L258 529L245 526L239 529H235L230 521L217 519L210 512L203 510L200 509L198 506L194 498L185 484L183 477L177 464L175 455L171 447L169 445V443L175 438L173 430Z"  />
<glyph unicode="&#xBB;" horiz-adv-x="307" d="M97 200L90 212L83 222L69 226L62 233L58 251L59 257L63 261L68 262L72 261L102 232L150 198L156 187L157 182L156 176L154 174L137 158L122 141L108 133L82 95L78 93L76 92L67 95L59 103L54 121L58 140L75 156L87 171L100 177L107 190L97 200ZM185 198L168 222L151 227L145 231L141 238L139 251L141 263L144 265L147 266L151 265L162 255L184 237L208 219L228 211L238 201L245 192L247 183V178L245 176L225 155L210 137L201 133L172 87L165 85L155 88L148 94L142 118L144 136L145 137L164 154L174 170L188 178L194 190L185 198Z"  />
<glyph unicode="&#xBC;" horiz-adv-x="820" d="M449 269L456 280L468 287L474 299L483 305L490 312L492 320L500 326L501 327L504 333L514 343L512 352L517 361L528 372L534 379L536 392L545 401L549 408H558L572 413L581 411L588 413L602 408L606 398L605 391L600 386L597 385L589 378L590 372L584 362L577 356L574 352L572 341L564 338L562 333L559 326V319L553 316L551 313L553 304L546 302L541 290V285L534 277L532 268L525 259L517 244L509 238V232L513 231L528 235L545 228L557 234H571L582 229L595 235L596 244L602 251L606 254L607 263L612 270L616 289L621 298V303L629 308V315L633 320L636 333L644 340L648 346L649 353L652 359L656 364L662 367L664 374L675 381L686 377L696 369L699 358L695 352L697 346L693 340L688 327L685 313L679 307L682 296L678 291V287L675 278L674 271L670 267L668 261V254L663 244V240L665 233L670 234L684 240L695 238L707 242L714 239L727 240L731 238H730L739 232L741 228L744 216L743 212L738 205L732 201L730 195H721L710 197L699 194L687 195L678 200L672 197L668 200L657 196L651 197L642 185H643L640 174L635 172L638 165L633 156L627 147L628 137L627 127L623 124V115L621 111L623 101L617 91L622 78L620 65L618 60L609 52L600 50L592 53L576 61L564 74L545 85L540 91V96L542 106L549 115H548L550 120L555 123H554L553 131L560 136L565 140L562 149L566 162L570 177L577 186L580 197L578 200L572 203L557 202L545 201L544 203L529 200L514 201L506 197L501 202L483 194L479 200L474 199L461 194L453 195L443 190L429 197L420 206L418 215L420 219L422 232L433 238H432L440 252L447 253L449 269ZM209 556L199 557L190 548L185 547L177 540L168 536L161 529H153L146 521L133 513L127 503L117 499L110 488L104 486L99 487L90 499L84 515V527L92 535L101 548L115 554L130 558L147 567L164 577L176 576L182 587L194 592L198 597L220 601L227 607L246 612L259 617L269 627L279 629L296 635L304 636L309 635L320 629L332 615L336 608L335 603L321 588L303 565L291 552L286 539L271 525L266 512L256 493H257L251 477L241 465L232 448L235 446L231 443L224 432L226 430L223 427L220 412L209 390V381L204 371L201 361L195 349V339L187 304L186 295L182 286L184 282L179 275L165 273L153 279L138 293L129 312L123 344V350L127 363L128 374L134 383L138 399L153 430L166 450L168 458L172 471L184 486L196 509L208 524H207L216 546L230 560L232 564H227L223 565V564L209 556ZM252 250L260 262L266 276L278 289L283 300L298 314L327 353L335 361L342 363L341 375L350 384L364 402L385 425L389 433L390 434H398L410 452L413 462L430 483L451 503L461 509L464 524L489 548L522 581L534 589L541 597L547 607L583 652L600 660L632 677L636 678L644 676L651 669L655 653L653 637L644 612L635 597L626 576L614 573L603 567L587 558L553 522L523 495L506 474L473 449L451 421L442 413L434 399L422 393L414 386L406 375L401 362L397 352H387L384 336L376 331L373 316L364 314L359 311L357 308L348 292L335 279L324 262L314 252L308 243L297 237V227L295 215L292 209L277 192L251 150L244 138L236 124L230 102L225 89L227 75L226 63L236 25V13L231 -11L218 -22L206 -25L193 -23L172 -19L163 -12L160 -8L155 6L148 19L146 33V45V49L149 64L150 74L164 104L168 116L184 144L199 175L225 207L233 223L241 236L243 244L252 250Z"  />
<glyph unicode="&#xBD;" horiz-adv-x="820" d="M268 250L276 262L282 276L294 289L299 300L314 314L343 353L351 361L358 363L357 375L366 384L380 402L401 425L405 433L406 434H414L426 452L429 462L446 483L467 503L477 509L480 524L505 548L538 581L550 589L557 597L563 607L599 652L616 660L648 677L652 678L660 676L667 669L671 653L669 637L660 612L651 597L642 576L630 573L619 567L603 558L569 522L539 495L522 474L489 449L467 421L458 413L450 399L438 393L430 386L422 375L418 362L413 352H403L400 336L392 331L389 316L380 314L375 311L373 308L364 292L351 279L340 262L330 252L324 243L313 237V227L311 215L308 209L293 192L267 150L265 142L252 124L246 102L241 89L243 75L242 63L252 25V13L247 -11L234 -22L222 -25H205L188 -19L179 -12L176 -8L171 6L164 19L162 33V49L165 64L166 74L180 104L184 116L200 144L215 175L241 207L249 223L257 236L259 244L268 250ZM713 363H705L693 369H675L655 371L640 369L629 371L605 363L585 360L580 354L567 348L561 344L555 343L545 346L533 340L525 341L517 349L511 372L514 381L527 394L539 402H561L575 406L588 405L604 411H618L644 414L679 411L713 404L723 398L733 390L753 369L760 351L757 335L743 321L730 306L715 297L696 289L684 281L665 272L649 261L631 251L629 246L619 240L605 238L593 227L581 221L571 213L558 209L551 201L542 198L527 192L522 181L509 170L499 167L493 157L483 146L480 136L471 131L463 123L460 118V112L465 104L483 110L497 113L507 111L517 116H529L542 123H555L567 127H582L594 130L615 128L638 129L656 126L665 122L681 92L678 69L666 61L659 60L651 61L643 66L641 70L638 68L627 73L616 71L606 77L596 75L586 76L565 71L554 66H541L524 61L511 63L495 59L477 58H478L458 54L450 58L444 52L437 51L418 52L405 58L396 60L380 87L378 99L385 117L388 130L401 143L408 153L423 168L458 197L468 210L484 218L486 222L498 228L527 248L552 260L553 263L559 265L573 275L595 281L603 293L634 307L646 310L653 318L666 326L686 334L693 339L715 351L717 355L716 362L713 363ZM225 556L215 557L206 548L201 547L193 540L184 536L177 529H169L162 521L149 513L143 503L133 499L126 488L120 486L115 487L106 499L100 515V527L108 535L117 548L131 554L146 558L163 567L180 577L192 576L198 587L210 592L214 597L236 601L243 607L262 612L275 617L285 627L295 629L312 635L320 636L325 635L336 629L348 615L352 608L351 603L337 588L319 565L307 552L302 539L287 525L282 512L272 493H273L267 477L257 465L248 448L251 446L247 443L240 432L242 430L239 427L236 412L225 390V381L220 371L217 361L211 349V339L203 304L202 295L198 286L200 282L195 275L181 273L169 279L154 293L145 312L139 344V350L143 363L144 374L150 383L154 399L169 430L182 450L184 458L188 471L200 486L212 509L224 524H223L232 546L246 560L248 564H243L239 565V564L225 556Z"  />
<glyph unicode="&#xBE;" horiz-adv-x="820" d="M492 269L499 280L511 287L517 299L526 305L533 312L535 320L543 326L544 327L547 333L557 343L555 352L560 361L571 372L577 379L579 392L588 401L592 408H601L615 413L624 411L631 413L645 408L649 398L648 391L643 386L640 385L632 378L633 372L627 362L620 356L617 352L615 341L607 338L605 333L602 326V319L596 316L594 313L596 304L589 302L584 290V285L577 277L575 268L568 259L560 244L552 238V232L556 231L571 235L588 228L600 234H614L625 229L638 235L639 244L645 251L649 254L650 263L655 270L659 289L664 298V303L672 308V315L676 320L679 333L687 340L691 346L692 353L695 359L699 364L705 367L707 374L718 381L729 377L739 369L742 358L738 352L740 346L736 340L731 327L728 313L722 307L725 296L721 291V287L718 278L717 271L713 267L711 261V254L706 244V240L708 233L713 234L727 240L738 238L750 242L757 239L770 240L774 238H773L782 232L784 228L787 216L786 212L781 205L775 201L773 195H764L753 197L742 194L730 195L721 200L715 197L711 200L700 196L694 197L685 185H686L683 174L678 172L681 165L676 156L670 147L671 137L670 127L666 124V115L664 111L666 101L660 91L665 78L663 65L661 60L652 52L643 50L635 53L619 61L607 74L588 85L583 91V96L585 106L592 115H591L593 120L598 123H597L596 131L603 136L608 140L605 149L609 162L613 177L620 186L623 197L621 200L615 203L600 202L588 201L587 203L572 200L557 201L549 197L544 202L526 194L522 200L517 199L504 194L496 195L486 190L472 197L463 206L461 215L463 219L465 232L476 238H475L483 252L490 253L492 269ZM260 389L273 392L276 397L280 400H288L290 403L307 416L311 420L327 427L332 431L342 446L341 445L340 454L342 462L335 468L329 475L322 478L316 481L305 480L294 484L284 480L275 484L262 483H253L236 476L218 477L210 474H198L185 468L168 474L158 479L153 485L141 500L140 504L141 507L149 519H160L178 526H191L214 531L234 543L247 544L253 549L262 557L275 558L300 575L311 580H310L330 592L333 594L314 591L307 593L297 590L292 592L285 588L279 590L271 589L263 591L256 593L249 588L243 587H226L218 590L206 587L187 584H176L160 579H155L148 580L136 588L131 591L124 599L117 607L115 613L119 623L127 630L133 631L150 630L182 629L189 624L202 626H201L219 629L225 624L244 627L283 628L307 626L329 628H347L353 626L363 627L376 622L390 611L400 601V589L405 579L400 569L389 560L377 557L360 548H361L344 539L336 538L325 534L315 533L305 528H297L295 524L291 523L299 520L312 516L326 512L337 503L353 494L358 485L366 480L370 475L371 472L373 458L375 450L371 439L374 433L376 427L372 417L371 408L363 401L358 388L349 383L342 372L330 365L318 350L306 348L297 336L282 333L277 326L263 321H264L247 310L238 309L229 306L216 307L213 305L200 296H187L174 292L164 290L155 285L145 284H144L137 281L118 276L112 275H94L85 271L71 276L60 277L55 285L49 293L47 299L48 298L34 325L33 328L35 333L41 338L48 339L56 337L65 342H74L88 343L99 339L116 341L125 342L143 345L151 350L166 352H182L200 363L212 367H211L237 374L249 384L256 385L260 389ZM315 250L323 262L329 276L341 289L346 300L361 314L390 353L398 361L405 363L404 375L413 384L427 402L448 425L452 433L453 434H461L473 452L476 462L493 483L514 503L524 509L527 524L552 548L585 581L597 589L604 597L610 607L646 652L663 660L695 677L699 678L707 676L714 669L718 653L716 637L707 612L698 597L689 576L677 573L666 567L650 558L616 522L586 495L569 474L536 449L514 421L505 413L497 399L485 393L477 386L469 375L464 362L460 352H450L447 336L439 331L436 316L427 314L422 311L420 308L411 292L398 279L387 262L377 252L371 243L360 237V227L358 215L355 209L340 192L314 150L307 138L299 124L293 102L288 89L290 75L289 63L299 25V13L294 -11L281 -22L269 -25L256 -23L235 -19L226 -12L223 -8L218 6L211 19L209 33V45V49L212 64L213 74L227 104L231 116L247 144L262 175L288 207L296 223L304 236L306 244L315 250Z"  />
<glyph unicode="&#xBF;" horiz-adv-x="595" d="M127 236L135 243L140 245L149 248L169 265H184L200 273L223 277L236 285L247 290L254 291L268 288L279 299L292 308L310 321L327 326H342L356 339L365 345L379 355L395 356L418 371L429 373L438 379L450 384L464 401L472 412V423L473 467L475 473L479 478L490 486L494 488L498 487L502 484L505 477L516 444L527 432L537 418L546 401V400L543 380L535 360L516 337L494 321L486 314L475 311L452 295L437 287L423 278L404 270L372 253L342 241L313 228L297 221L286 213L271 211L258 200L242 199L235 196L201 183L184 174L155 164L137 154L117 150L85 133L77 127L71 109L92 89H110L136 85L161 89L185 82L203 89H231L255 98L270 96L283 101L299 103L323 106L336 107L355 114L377 109L393 118L408 122L423 135L433 138L442 161L450 167L467 172L475 170L489 165L494 160L498 151V144V141L493 122L486 102L453 85L429 79H428L412 81L408 74H396L380 69L369 71L359 68L347 70L339 63L332 60L330 59H329L322 64L307 58L293 56L271 49H269H256H241L228 48L222 49L216 55L199 51L190 50L185 51L179 53L161 52L149 54L133 52L121 58H109L100 62L85 60L76 66L46 73L40 77L24 97L19 105L17 115L15 125H10L9 128L8 138L9 149L16 176L18 180L27 186L36 199L41 203L44 204L62 207L94 232H98L107 230L119 225L127 236ZM514 628L523 618L533 604L535 593L541 577L539 571L537 567L531 562L526 551L514 539L503 526L496 521L487 520L477 522L465 529L460 535L447 559L441 572V575L442 582L479 625L487 632L514 628Z"  />
<glyph unicode="&#xC0;" horiz-adv-x="594" d="M76 177L79 184L82 191L86 192L93 186L95 187L92 193L84 199L82 212L85 225L92 254L99 267L112 283L118 314L128 337L148 366L153 380L165 396L173 416L191 436L194 445L209 465L233 498L244 506L248 516L260 527L268 537L278 543L286 554L307 569L315 577L327 583L331 592L349 608L361 620L378 629L383 639L396 644L405 654L421 658L432 667L444 674L473 687L507 693L526 690L542 684L547 677L557 662L559 648L558 637L551 594L550 583L544 569L540 548L533 539L526 534L518 533L507 536L499 544L495 560L497 570L499 573L518 591L527 604L534 632L533 637L532 639L526 643L516 641L506 643L489 635L470 628L456 614L431 599L418 589L411 580L397 578L392 567L378 559L371 547L364 543L352 529L342 521H337L332 510L325 501L307 492L308 480L307 475L305 474L284 455L281 441L273 431L263 414L255 406L250 390L239 382L232 368L222 361L221 356L223 345V344L222 342L218 337L209 331L204 318L200 312L188 299L189 289L180 266L169 247L159 242L161 226L154 206L156 197L148 191L149 180L140 144L145 127L141 118L143 107L148 85L152 82L159 81L169 82L179 84L190 92L218 114L226 123L232 127L240 132L246 142L269 168L290 198L297 204L305 221L314 229L325 241L332 253L348 270L357 283L365 295L375 302L380 313L393 319L392 333L394 336L397 340L407 345L408 359L426 371L434 393L454 417L455 429L467 438V448L476 459L478 464L486 471L488 481L504 503L516 517L522 520H527L542 516L556 509L564 498L567 487L566 485L556 457L551 433L545 418L539 402L541 391L533 375L528 350L526 345L524 343L514 340L511 328L510 297L502 286L491 266L485 235L477 225L479 216L471 196L473 182L469 171L470 148L467 136V131L469 129L479 134L490 140L518 164L547 182L555 190L587 219L599 227L607 235L612 236L617 235L619 233L620 231L616 205L612 183L605 174L598 167L590 163L582 152L569 148L565 141L555 137L545 121L532 118L512 102L501 94L471 89L459 88L453 90L450 97H439L434 104L426 109L420 120L412 131L406 159L404 170L406 183L408 205L413 222L414 241L428 294V313L423 303L408 283L391 268L386 259L390 252L383 242L371 226L365 213L352 212L349 209L350 197L337 185L335 178L329 174L330 164L322 157L317 144L314 141L312 139H301L302 122L292 115L275 91L250 65L243 56L233 50L222 38L213 35L204 29L181 25L167 20L164 19L150 24L130 34L119 36L112 46L95 60L90 68L80 96L74 126L75 133L78 145L77 148L74 153L73 154L74 156L75 159L82 164L76 177ZM528 744L529 740L528 735L525 733L510 730L499 731H485L476 741L464 753V763L455 777L451 785L448 790V803L436 828V830L438 840L448 850L464 854L469 853L480 850H496L501 846L504 838L511 797L519 770L517 759L519 755L528 744Z"  />
<glyph unicode="&#xC1;" horiz-adv-x="594" d="M76 177L79 184L82 191L86 192L93 186L95 187L92 193L84 199L82 212L85 225L92 254L99 267L112 283L118 314L128 337L148 366L153 380L165 396L173 416L191 436L194 445L209 465L233 498L244 506L248 516L260 527L268 537L278 543L286 554L307 569L315 577L327 583L331 592L349 608L361 620L378 629L383 639L396 644L405 654L421 658L432 667L444 674L473 687L507 693L526 690L542 684L547 677L557 662L559 648L558 637L551 594L550 583L544 569L540 548L533 539L526 534L518 533L507 536L499 544L495 560L497 570L499 573L518 591L527 604L534 632L533 637L532 639L526 643L516 641L506 643L489 635L470 628L456 614L431 599L418 589L411 580L397 578L392 567L378 559L371 547L364 543L352 529L342 521H337L332 510L325 501L307 492L308 480L307 475L305 474L284 455L281 441L273 431L263 414L255 406L250 390L239 382L232 368L222 361L221 356L223 345V344L222 342L218 337L209 331L204 318L200 312L188 299L189 289L180 266L169 247L159 242L161 226L154 206L156 197L148 191L149 180L140 144L145 127L141 118L143 107L148 85L152 82L159 81L169 82L179 84L190 92L218 114L226 123L232 127L240 132L246 142L269 168L290 198L297 204L305 221L314 229L325 241L332 253L348 270L357 283L365 295L375 302L380 313L393 319L392 333L394 336L397 340L407 345L408 359L426 371L434 393L454 417L455 429L467 438V448L476 459L478 464L486 471L488 481L504 503L516 517L522 520H527L542 516L556 509L564 498L567 487L566 485L556 457L551 433L545 418L539 402L541 391L533 375L528 350L526 345L524 343L514 340L511 328L510 297L502 286L491 266L485 235L477 225L479 216L471 196L473 182L469 171L470 148L467 136V131L469 129L479 134L490 140L518 164L547 182L555 190L587 219L599 227L607 235L612 236L617 235L619 233L620 231L616 205L612 183L605 174L598 167L590 163L582 152L569 148L565 141L555 137L545 121L532 118L512 102L501 94L471 89L459 88L453 90L450 97H439L434 104L426 109L420 120L412 131L406 159L404 170L406 183L408 205L413 222L414 241L428 294V313L423 303L408 283L391 268L386 259L390 252L383 242L371 226L365 213L352 212L349 209L350 197L337 185L335 178L329 174L330 164L322 157L317 144L314 141L312 139H301L302 122L292 115L275 91L250 65L243 56L233 50L222 38L213 35L204 29L181 25L167 20L164 19L150 24L130 34L119 36L112 46L95 60L90 68L80 96L74 126L75 133L78 145L77 148L74 153L73 154L74 156L75 159L82 164L76 177ZM576 853L596 850L603 844L605 836L604 832L602 829L585 805L578 792L567 783L558 770L529 752L521 743L515 741L506 733L501 730L499 729L490 730L479 729L473 733L464 729L461 732L457 737L456 741L457 746L459 749L472 758L482 773L493 781L500 791L510 799L514 808L521 817L529 839L536 849L544 855L548 856L560 851L576 853Z"  />
<glyph unicode="&#xC2;" horiz-adv-x="594" d="M76 177L79 184L82 191L86 192L93 186L95 187L92 193L84 199L82 212L85 225L92 254L99 267L112 283L118 314L128 337L148 366L153 380L165 396L173 416L191 436L194 445L209 465L233 498L244 506L248 516L260 527L268 537L278 543L286 554L307 569L315 577L327 583L331 592L349 608L361 620L378 629L383 639L396 644L405 654L421 658L432 667L444 674L473 687L507 693L526 690L542 684L547 677L557 662L559 648L558 637L551 594L550 583L544 569L540 548L533 539L526 534L518 533L507 536L499 544L495 560L497 570L499 573L518 591L527 604L534 632L533 637L532 639L526 643L516 641L506 643L489 635L470 628L456 614L431 599L418 589L411 580L397 578L392 567L378 559L371 547L364 543L352 529L342 521H337L332 510L325 501L307 492L308 480L307 475L305 474L284 455L281 441L273 431L263 414L255 406L250 390L239 382L232 368L222 361L221 356L223 345V344L222 342L218 337L209 331L204 318L200 312L188 299L189 289L180 266L169 247L159 242L161 226L154 206L156 197L148 191L149 180L140 144L145 127L141 118L143 107L148 85L152 82L159 81L169 82L179 84L190 92L218 114L226 123L232 127L240 132L246 142L269 168L290 198L297 204L305 221L314 229L325 241L332 253L348 270L357 283L365 295L375 302L380 313L393 319L392 333L394 336L397 340L407 345L408 359L426 371L434 393L454 417L455 429L467 438V448L476 459L478 464L486 471L488 481L504 503L516 517L522 520H527L542 516L556 509L564 498L567 487L566 485L556 457L551 433L545 418L539 402L541 391L533 375L528 350L526 345L524 343L514 340L511 328L510 297L502 286L491 266L485 235L477 225L479 216L471 196L473 182L469 171L470 148L467 136V131L469 129L479 134L490 140L518 164L547 182L555 190L587 219L599 227L607 235L612 236L617 235L619 233L620 231L616 205L612 183L605 174L598 167L590 163L582 152L569 148L565 141L555 137L545 121L532 118L512 102L501 94L471 89L459 88L453 90L450 97H439L434 104L426 109L420 120L412 131L406 159L404 170L406 183L408 205L413 222L414 241L428 294V313L423 303L408 283L391 268L386 259L390 252L383 242L371 226L365 213L352 212L349 209L350 197L337 185L335 178L329 174L330 164L322 157L317 144L314 141L312 139H301L302 122L292 115L275 91L250 65L243 56L233 50L222 38L213 35L204 29L181 25L167 20L164 19L150 24L130 34L119 36L112 46L95 60L90 68L80 96L74 126L75 133L78 145L77 148L74 153L73 154L74 156L75 159L82 164L76 177ZM406 748L433 772L458 795L486 828L501 837L511 851L520 857L530 859L546 857L562 841L568 827L580 811L584 798L593 785L598 771L613 748L608 736H593L582 733L562 739L555 747L535 767L512 797L500 788L496 778L481 768L468 764L462 756L451 752L443 741L422 728L410 727L405 724L400 727L396 732L397 742L406 748Z"  />
<glyph unicode="&#xC3;" horiz-adv-x="594" d="M76 177L79 184L82 191L86 192L93 186L95 187L92 193L84 199L82 212L85 225L92 254L99 267L112 283L118 314L128 337L148 366L153 380L165 396L173 416L191 436L194 445L209 465L233 498L244 506L248 516L260 527L268 537L278 543L286 554L307 569L315 577L327 583L331 592L349 608L361 620L378 629L383 639L396 644L405 654L421 658L432 667L444 674L473 687L507 693L526 690L542 684L547 677L557 662L559 648L558 637L551 594L550 583L544 569L540 548L533 539L526 534L518 533L507 536L499 544L495 560L497 570L499 573L518 591L527 604L534 632L533 637L532 639L526 643L516 641L506 643L489 635L470 628L456 614L431 599L418 589L411 580L397 578L392 567L378 559L371 547L364 543L352 529L342 521H337L332 510L325 501L307 492L308 480L307 475L305 474L284 455L281 441L273 431L263 414L255 406L250 390L239 382L232 368L222 361L221 356L223 345V344L222 342L218 337L209 331L204 318L200 312L188 299L189 289L180 266L169 247L159 242L161 226L154 206L156 197L148 191L149 180L140 144L145 127L141 118L143 107L148 85L152 82L159 81L169 82L179 84L190 92L218 114L226 123L232 127L240 132L246 142L269 168L290 198L297 204L305 221L314 229L325 241L332 253L348 270L357 283L365 295L375 302L380 313L393 319L392 333L394 336L397 340L407 345L408 359L426 371L434 393L454 417L455 429L467 438V448L476 459L478 464L486 471L488 481L504 503L516 517L522 520H527L542 516L556 509L564 498L567 487L566 485L556 457L551 433L545 418L539 402L541 391L533 375L528 350L526 345L524 343L514 340L511 328L510 297L502 286L491 266L485 235L477 225L479 216L471 196L473 182L469 171L470 148L467 136V131L469 129L479 134L490 140L518 164L547 182L555 190L587 219L599 227L607 235L612 236L617 235L619 233L620 231L616 205L612 183L605 174L598 167L590 163L582 152L569 148L565 141L555 137L545 121L532 118L512 102L501 94L471 89L459 88L453 90L450 97H439L434 104L426 109L420 120L412 131L406 159L404 170L406 183L408 205L413 222L414 241L428 294V313L423 303L408 283L391 268L386 259L390 252L383 242L371 226L365 213L352 212L349 209L350 197L337 185L335 178L329 174L330 164L322 157L317 144L314 141L312 139H301L302 122L292 115L275 91L250 65L243 56L233 50L222 38L213 35L204 29L181 25L167 20L164 19L150 24L130 34L119 36L112 46L95 60L90 68L80 96L74 126L75 133L78 145L77 148L74 153L73 154L74 156L75 159L82 164L76 177ZM459 844L465 847L474 853L481 854L490 852L504 838L512 827L514 815L522 801L526 792H529L535 800L546 809L549 815L573 831L585 845L598 852L606 859L618 856L622 851L619 838L621 828L618 821L613 808L607 800L595 787L586 781L576 769L566 765L562 762L551 749L545 739L533 738L525 730L515 729L505 728H504L499 729L497 731L495 733L488 745L482 749L478 754L474 772L472 781L469 785L466 784L463 778L456 774L452 771L451 770L446 762L432 753L427 744L420 739L414 728L405 723L400 719H398H396L394 720L393 722L389 736L382 754V757V762L384 764L394 773L398 782L411 792L422 809L435 818L441 830L455 838L459 844Z"  />
<glyph unicode="&#xC4;" horiz-adv-x="594" d="M76 177L79 184L82 191L86 192L93 186L95 187L92 193L84 199L82 212L85 225L92 254L99 267L112 283L118 314L128 337L148 366L153 380L165 396L173 416L191 436L194 445L209 465L233 498L244 506L248 516L260 527L268 537L278 543L286 554L307 569L315 577L327 583L331 592L349 608L361 620L378 629L383 639L396 644L405 654L421 658L432 667L444 674L473 687L507 693L526 690L542 684L547 677L557 662L559 648L558 637L551 594L550 583L544 569L540 548L533 539L526 534L518 533L507 536L499 544L495 560L497 570L499 573L518 591L527 604L534 632L533 637L532 639L526 643L516 641L506 643L489 635L470 628L456 614L431 599L418 589L411 580L397 578L392 567L378 559L371 547L364 543L352 529L342 521H337L332 510L325 501L307 492L308 480L307 475L305 474L284 455L281 441L273 431L263 414L255 406L250 390L239 382L232 368L222 361L221 356L223 345V344L222 342L218 337L209 331L204 318L200 312L188 299L189 289L180 266L169 247L159 242L161 226L154 206L156 197L148 191L149 180L140 144L145 127L141 118L143 107L148 85L152 82L159 81L169 82L179 84L190 92L218 114L226 123L232 127L240 132L246 142L269 168L290 198L297 204L305 221L314 229L325 241L332 253L348 270L357 283L365 295L375 302L380 313L393 319L392 333L394 336L397 340L407 345L408 359L426 371L434 393L454 417L455 429L467 438V448L476 459L478 464L486 471L488 481L504 503L516 517L522 520H527L542 516L556 509L564 498L567 487L566 485L556 457L551 433L545 418L539 402L541 391L533 375L528 350L526 345L524 343L514 340L511 328L510 297L502 286L491 266L485 235L477 225L479 216L471 196L473 182L469 171L470 148L467 136V131L469 129L479 134L490 140L518 164L547 182L555 190L587 219L599 227L607 235L612 236L617 235L619 233L620 231L616 205L612 183L605 174L598 167L590 163L582 152L569 148L565 141L555 137L545 121L532 118L512 102L501 94L471 89L459 88L453 90L450 97H439L434 104L426 109L420 120L412 131L406 159L404 170L406 183L408 205L413 222L414 241L428 294V313L423 303L408 283L391 268L386 259L390 252L383 242L371 226L365 213L352 212L349 209L350 197L337 185L335 178L329 174L330 164L322 157L317 144L314 141L312 139H301L302 122L292 115L275 91L250 65L243 56L233 50L222 38L213 35L204 29L181 25L167 20L164 19L150 24L130 34L119 36L112 46L95 60L90 68L80 96L74 126L75 133L78 145L77 148L74 153L73 154L74 156L75 159L82 164L76 177ZM472 762L462 756L454 750H452H450L443 754L427 763L420 771L413 783L411 793L414 805L427 819L441 831L448 833L458 830L463 825L474 809L485 796L486 791L485 785L478 777L472 762ZM548 827L553 832L562 830L575 821L593 798L595 788L594 782L593 780L581 771L577 764L565 761L561 753L551 747L535 752L525 769L517 775L514 780L512 788L513 791L519 803L527 815L548 827Z"  />
<glyph unicode="&#xC5;" horiz-adv-x="594" d="M76 177L79 184L82 191L86 192L93 186L95 187L92 193L84 199L82 212L85 225L92 254L99 267L112 283L118 314L128 337L148 366L153 380L165 396L173 416L191 436L194 445L209 465L233 498L244 506L248 516L260 527L268 537L278 543L286 554L307 569L315 577L327 583L331 592L349 608L361 620L378 629L383 639L396 644L405 654L421 658L432 667L444 674L473 687L507 693L526 690L542 684L547 677L557 662L559 648L558 637L551 594L550 583L544 569L540 548L533 539L526 534L518 533L507 536L499 544L495 560L497 570L499 573L518 591L527 604L534 632L533 637L532 639L526 643L516 641L506 643L489 635L470 628L456 614L431 599L418 589L411 580L397 578L392 567L378 559L371 547L364 543L352 529L342 521H337L332 510L325 501L307 492L308 480L307 475L305 474L284 455L281 441L273 431L263 414L255 406L250 390L239 382L232 368L222 361L221 356L223 345V344L222 342L218 337L209 331L204 318L200 312L188 299L189 289L180 266L169 247L159 242L161 226L154 206L156 197L148 191L149 180L140 144L145 127L141 118L143 107L148 85L152 82L159 81L169 82L179 84L190 92L218 114L226 123L232 127L240 132L246 142L269 168L290 198L297 204L305 221L314 229L325 241L332 253L348 270L357 283L365 295L375 302L380 313L393 319L392 333L394 336L397 340L407 345L408 359L426 371L434 393L454 417L455 429L467 438V448L476 459L478 464L486 471L488 481L504 503L516 517L522 520H527L542 516L556 509L564 498L567 487L566 485L556 457L551 433L545 418L539 402L541 391L533 375L528 350L526 345L524 343L514 340L511 328L510 297L502 286L491 266L485 235L477 225L479 216L471 196L473 182L469 171L470 148L467 136V131L469 129L479 134L490 140L518 164L547 182L555 190L587 219L599 227L607 235L612 236L617 235L619 233L620 231L616 205L612 183L605 174L598 167L590 163L582 152L569 148L565 141L555 137L545 121L532 118L512 102L501 94L471 89L459 88L453 90L450 97H439L434 104L426 109L420 120L412 131L406 159L404 170L406 183L408 205L413 222L414 241L428 294V313L423 303L408 283L391 268L386 259L390 252L383 242L371 226L365 213L352 212L349 209L350 197L337 185L335 178L329 174L330 164L322 157L317 144L314 141L312 139H301L302 122L292 115L275 91L250 65L243 56L233 50L222 38L213 35L204 29L181 25L167 20L164 19L150 24L130 34L119 36L112 46L95 60L90 68L80 96L74 126L75 133L78 145L77 148L74 153L73 154L74 156L75 159L82 164L76 177ZM554 833L562 806V803L557 789L542 757L539 752L522 737L492 727L487 728L470 735L460 738L449 744L443 751L441 771L442 792L456 826L463 836L470 842L480 848L485 851L499 853L520 855H521L539 849L549 844L554 833ZM488 765L490 764L498 767L515 785L522 809L520 817L516 821L509 823L503 821L498 817L493 808L485 797L481 788L476 778L488 765Z"  />
<glyph unicode="&#xC6;" horiz-adv-x="810" d="M316 133L312 138V144L314 148V151L302 139L292 120L277 109L265 91L240 65L233 56L223 50L212 38L203 35L194 29L171 25L157 20L154 19L140 24L120 34L109 36L102 46L85 60L80 68V96L74 126L75 133L78 145L77 148L74 153L73 154L74 156L75 159L82 164L76 177L82 191L86 192L93 186L95 187L92 193L84 199L82 212L85 225L92 254L99 267L112 283L118 314L128 337L148 366L153 380L165 396L173 416L191 436L194 445L209 465L233 498L244 506L248 516L260 527L268 537L278 543L286 554L307 569L315 577L327 583L331 592L349 608L361 620L378 629L383 639L396 644L405 654L421 658L432 667L444 674L473 687L507 693L526 690L542 684L547 677L557 662L559 648L558 637L552 625L550 611L548 601L546 586L535 574L528 562L517 553L510 548L502 547L491 550L483 558L481 569L487 580L493 592L508 601L524 613L534 624L533 637L532 639L526 643L516 641L506 643L489 635L470 628L456 614L431 599L418 589L411 580L397 578L392 567L378 559L371 547L364 543L352 529L342 521H337L332 510L325 501L307 492L308 480L307 475L305 474L284 455L281 441L273 431L263 414L255 406L250 390L239 382L232 368L222 361L221 356L223 345V344L222 342L218 337L209 331L204 318L200 312L188 299L189 289L180 266L169 247L159 242L161 226L154 206L156 197L148 191L149 180L140 144L145 127L141 118L143 107L148 85L152 82L159 81L169 82L179 84L190 92L215 105L223 114L233 117L241 122L249 131L272 157L294 176L301 182L309 199L318 203L324 220L341 236L356 264H357L358 266L366 275L372 279L375 287L386 296L401 316L406 323L413 328L425 331L429 343L437 348L444 355L451 363L464 372L472 388V410L475 424L483 435L485 456L486 466L496 479L509 505L525 522L531 535L540 540L549 554L562 561L563 567L577 577L585 583L595 597L605 598L612 604L619 613L652 635L662 647L668 648L677 645L697 664L701 666H704L714 663V669L725 675L734 680L747 681L756 686L769 690L779 689L784 692L792 695L797 694L808 688L819 690L834 681L844 679L851 671L860 657L861 652L863 626V616L857 602V592L849 577L844 564L836 555L833 546L830 541L827 539L819 538H814L805 540L799 550L793 568L794 574L802 584L816 593L826 595V604L834 609L836 619L837 628L832 642L828 651L824 655L821 656L820 655L813 653H798L786 649L775 647L757 637L741 635L737 630L733 628L719 613L684 593L664 573L643 556L627 536L610 518L598 496L590 487L582 482L555 437L548 429L547 423L543 408L549 404L566 415L584 421L591 428L612 429L637 444L650 447L691 462L714 466L733 461L741 453L744 444L743 440L741 435L735 425L726 413L708 396L702 392L697 389L694 388L687 389L661 383L647 380L617 361L603 362L595 356L581 351L576 354L566 352L557 338L538 342L533 346L529 339L523 336L507 331L506 321L503 315L490 314V303L476 296L471 291H466L468 281L456 261L449 258L441 243L436 242L430 231L429 223L438 207L434 203L428 199L423 191L420 180L416 172L412 147L407 135L406 130L411 108L415 97L422 94L427 88H437L441 91L451 88L459 89L467 87L478 92L483 88L493 94L503 95L510 104L520 102L528 108L584 134L592 143L614 159L638 178L651 184L661 191L668 194L679 209L695 212L706 226L718 232L720 240L731 245L734 257L743 261L755 272L770 281L780 294L791 300L804 314L823 328L836 340L844 346L855 349L854 338L848 306L846 303L808 270L798 258L788 248L782 241L774 240L768 231L754 221L744 210L736 207L707 174L689 162L683 155L674 151L656 131L646 124L641 123L624 128L619 127L620 114L612 111L607 99L588 84L580 77L572 74L563 69L544 59L533 53L525 56L522 59L513 45L507 39L476 29L455 19L446 21L433 18L421 19L409 17L402 20L375 29L361 32L360 36H355L353 42L343 47L333 54L331 57L328 66L321 82L315 99L313 106L317 113L312 118L316 133Z"  />
<glyph unicode="&#xC7;" horiz-adv-x="526" d="M81 -93L100 -77L110 -76L144 -67L151 -59L154 -48V-43L150 -32L142 -27L134 -18L132 -12L133 -8L148 10L164 31L151 33L141 37L138 41L131 52L122 56L116 70L109 77L105 88L95 110L87 174L88 188L94 205L99 226L116 272L127 304L133 311L142 334L149 341L155 352L162 353L159 359L157 370L164 379L171 385L175 397L181 405L187 414L194 415L200 418L208 409L214 415L204 421L201 428L198 434V435V437L200 440L209 447L219 451L214 455L213 460L222 469L228 482L238 487L240 485L245 486L247 498L246 507V508L247 511L252 517L262 526L265 535L285 550L292 560L305 570L316 576L319 573L327 571L322 563L329 567L331 576L325 584V588L330 594L360 618L379 629L386 637H393L398 636L401 632L404 633L402 643L407 644L416 652L442 662L452 669L489 677L504 683L508 682L516 675L524 679L534 670L549 659L551 655L555 647L559 632V631L557 612L558 591L549 574L546 556L538 540L532 520L525 508L520 495L494 459L466 415L460 407L450 403L452 393L449 385L439 374L425 365L414 362L401 365L396 369L384 384L382 392L385 402L388 408L394 418L423 440L433 448L442 449L445 456L444 461L452 472L459 477L466 488L474 492L481 503L494 526L497 538L506 544L507 560L515 566L516 579L525 606V617V627L523 633L518 637L510 639L505 638L470 623L466 622H463L457 625L455 623L452 615L445 613L436 604H428L419 591L409 586L405 576L394 574L384 557H375L372 544L358 531L352 523L342 521L340 507L331 502L326 491L320 486L314 481L308 480L309 470L297 457L295 443L284 427L277 418L275 409L269 397L265 394L253 391L254 376L246 363L241 350L230 335L229 325L223 313L211 284L200 273L198 262L197 252L187 239L182 219L173 211L178 208L179 206V203L170 180L161 158L165 154L166 149L164 138L162 121V118L165 108L160 106V99L168 92L176 80L181 70H193L206 73L216 74L231 81L253 87L262 98L271 100L282 102L291 112L298 121L319 133L331 144L341 148L348 157L355 162L362 168L386 190L394 203L398 206H399L408 205L413 216L429 226L434 236L447 245L460 259H471L474 270L476 274L478 275L487 277L491 288L497 294L504 295L507 297L508 304L511 309L515 311L529 318L541 323L544 322L552 312L555 303V302L554 300L544 290L542 281L522 262L519 251L506 243L491 224L483 221L479 211L461 195L456 182L445 179L423 152H414L407 141L395 138L386 125L376 112L368 113L367 120L359 114L361 103L350 90L339 84L327 81L323 71L310 67L297 53H285L276 46H264L255 38L250 37L245 32L234 35V44L231 34L229 26L216 25L208 13L200 0L198 -12L208 -16L216 -25L219 -36L214 -63L212 -73L204 -83L201 -95L189 -100L178 -107L159 -113L148 -121H138H127L115 -129L105 -126L97 -128L81 -121L77 -116L73 -115L81 -93Z"  />
<glyph unicode="&#xC8;" horiz-adv-x="565" d="M71 119L67 124V126V130L69 134L70 141L79 152L74 157L79 168L83 184L93 192V207L94 212L95 214L109 226L139 268L157 279L161 288L173 296L190 314L196 320L204 323L216 325L222 336L230 342L238 347L257 355L270 364L289 374L297 382L307 383L322 389L325 396L319 392L301 389L293 383H289H283L272 384L265 388L243 400L241 402L239 404L237 416L238 421L240 442L241 452L251 465L264 491L280 508L286 521L295 526L304 540L317 547L318 553L332 563L340 569L350 583L360 584L367 590L374 599L407 621L417 633L423 634L432 631L452 650L456 652H459L469 649V655L480 661L489 666L502 667L511 672L524 676L534 675L539 678L547 681L552 680L563 674L574 676L589 667L599 665L606 657L615 643L616 638L618 612V603V602L612 588V578L604 563L599 550L591 541L588 532L585 527L582 525L574 524H569L560 526L554 536L548 554L549 560L557 570L571 579L581 581V590L589 595L591 605L592 614L587 628L583 637L579 641L576 642L575 641L568 639H553L541 635L530 633L512 623L496 621L492 616L488 614L474 599L439 579L419 559L398 542L382 522L365 504L353 482L345 473L337 468L321 433L314 425L313 419L324 422L335 428L372 442L420 468L433 471L474 486L497 490L516 485L524 477L527 468L526 464L524 459L518 449L509 437L491 420L485 416L480 413L477 412L470 413L444 407L430 404L400 385L393 384L376 370L362 365L342 350L332 348L323 334L314 328L309 332L305 325L292 308L276 303L275 293L273 289L272 287L259 286V275L245 268L240 263H239L231 267L233 257L221 237L214 234L206 219L201 218L195 207L194 199L193 193L189 189L183 185L178 177L175 166L171 158L167 133L162 121L161 116L166 94L170 83L177 80L182 74H192L196 77L206 74L214 75L222 73L233 78L238 74L248 80L258 81L265 90L275 88L283 94L339 120L347 129L369 145L393 164L406 170L416 177L423 180L434 195L450 198L461 212L473 218L475 226L486 231L489 243L498 247L510 258L525 267L535 280L546 286L559 300L578 314L591 326L599 332L610 335L609 324L603 292L601 289L563 256L553 244L543 234L537 227L529 226L523 217L509 207L499 196L491 193L462 160L444 148L438 141L429 137L411 117L401 110L396 109L379 114L374 113L375 100L367 97L362 85L343 70L335 63L327 60L318 55L299 45L288 39L280 42L277 45L268 31L263 26L262 25L231 15L210 5L201 7L188 4L176 5L164 3L157 6L139 12L130 15L126 18L125 22H120L118 28L108 33L98 40L96 43L93 52L76 68L70 85L68 92L72 99L67 104L71 119ZM567 744L568 740L567 735L564 733L549 730L538 731H524L515 741L503 753V763L494 777L490 785L487 790V803L475 828V830L477 840L487 850L503 854L508 853L519 850H535L540 846L543 838L550 797L558 770L556 759L558 755L567 744Z"  />
<glyph unicode="&#xC9;" horiz-adv-x="565" d="M71 119L67 124V126V130L69 134L70 141L79 152L74 157L79 168L83 184L93 192V207L94 212L95 214L109 226L139 268L157 279L161 288L173 296L190 314L196 320L204 323L216 325L222 336L230 342L238 347L257 355L270 364L289 374L297 382L307 383L322 389L325 396L319 392L301 389L293 383H289H283L272 384L265 388L243 400L241 402L239 404L237 416L238 421L240 442L241 452L251 465L264 491L280 508L286 521L295 526L304 540L317 547L318 553L332 563L340 569L350 583L360 584L367 590L374 599L407 621L417 633L423 634L432 631L452 650L456 652H459L469 649V655L480 661L489 666L502 667L511 672L524 676L534 675L539 678L547 681L552 680L563 674L574 676L589 667L599 665L606 657L615 643L616 638L618 612V603V602L612 588V578L604 563L599 550L591 541L588 532L585 527L582 525L574 524H569L560 526L554 536L548 554L549 560L557 570L571 579L581 581V590L589 595L591 605L592 614L587 628L583 637L579 641L576 642L575 641L568 639H553L541 635L530 633L512 623L496 621L492 616L488 614L474 599L439 579L419 559L398 542L382 522L365 504L353 482L345 473L337 468L321 433L314 425L313 419L324 422L335 428L372 442L420 468L433 471L474 486L497 490L516 485L524 477L527 468L526 464L524 459L518 449L509 437L491 420L485 416L480 413L477 412L470 413L444 407L430 404L400 385L393 384L376 370L362 365L342 350L332 348L323 334L314 328L309 332L305 325L292 308L276 303L275 293L273 289L272 287L259 286V275L245 268L240 263H239L231 267L233 257L221 237L214 234L206 219L201 218L195 207L194 199L193 193L189 189L183 185L178 177L175 166L171 158L167 133L162 121L161 116L166 94L170 83L177 80L182 74H192L196 77L206 74L214 75L222 73L233 78L238 74L248 80L258 81L265 90L275 88L283 94L339 120L347 129L369 145L393 164L406 170L416 177L423 180L434 195L450 198L461 212L473 218L475 226L486 231L489 243L498 247L510 258L525 267L535 280L546 286L559 300L578 314L591 326L599 332L610 335L609 324L603 292L601 289L563 256L553 244L543 234L537 227L529 226L523 217L509 207L499 196L491 193L462 160L444 148L438 141L429 137L411 117L401 110L396 109L379 114L374 113L375 100L367 97L362 85L343 70L335 63L327 60L318 55L299 45L288 39L280 42L277 45L268 31L263 26L262 25L231 15L210 5L201 7L188 4L176 5L164 3L157 6L139 12L130 15L126 18L125 22H120L118 28L108 33L98 40L96 43L93 52L76 68L70 85L68 92L72 99L67 104L71 119ZM614 853L634 850L641 844L643 836L642 832L640 829L623 805L616 792L605 783L596 770L567 752L559 743L553 741L544 733L539 730L537 729L528 730L517 729L511 733L502 729L499 732L495 737L494 741L495 746L497 749L510 758L520 773L531 781L538 791L548 799L552 808L559 817L567 839L574 849L582 855L586 856L598 851L614 853Z"  />
<glyph unicode="&#xCA;" horiz-adv-x="565" d="M71 119L67 124V126V130L69 134L70 141L79 152L74 157L79 168L83 184L93 192V207L94 212L95 214L109 226L139 268L157 279L161 288L173 296L190 314L196 320L204 323L216 325L222 336L230 342L238 347L257 355L270 364L289 374L297 382L307 383L322 389L325 396L319 392L301 389L293 383H289H283L272 384L265 388L243 400L241 402L239 404L237 416L238 421L240 442L241 452L251 465L264 491L280 508L286 521L295 526L304 540L317 547L318 553L332 563L340 569L350 583L360 584L367 590L374 599L407 621L417 633L423 634L432 631L452 650L456 652H459L469 649V655L480 661L489 666L502 667L511 672L524 676L534 675L539 678L547 681L552 680L563 674L574 676L589 667L599 665L606 657L615 643L616 638L618 612V603V602L612 588V578L604 563L599 550L591 541L588 532L585 527L582 525L574 524H569L560 526L554 536L548 554L549 560L557 570L571 579L581 581V590L589 595L591 605L592 614L587 628L583 637L579 641L576 642L575 641L568 639H553L541 635L530 633L512 623L496 621L492 616L488 614L474 599L439 579L419 559L398 542L382 522L365 504L353 482L345 473L337 468L321 433L314 425L313 419L324 422L335 428L372 442L420 468L433 471L474 486L497 490L516 485L524 477L527 468L526 464L524 459L518 449L509 437L491 420L485 416L480 413L477 412L470 413L444 407L430 404L400 385L393 384L376 370L362 365L342 350L332 348L323 334L314 328L309 332L305 325L292 308L276 303L275 293L273 289L272 287L259 286V275L245 268L240 263H239L231 267L233 257L221 237L214 234L206 219L201 218L195 207L194 199L193 193L189 189L183 185L178 177L175 166L171 158L167 133L162 121L161 116L166 94L170 83L177 80L182 74H192L196 77L206 74L214 75L222 73L233 78L238 74L248 80L258 81L265 90L275 88L283 94L339 120L347 129L369 145L393 164L406 170L416 177L423 180L434 195L450 198L461 212L473 218L475 226L486 231L489 243L498 247L510 258L525 267L535 280L546 286L559 300L578 314L591 326L599 332L610 335L609 324L603 292L601 289L563 256L553 244L543 234L537 227L529 226L523 217L509 207L499 196L491 193L462 160L444 148L438 141L429 137L411 117L401 110L396 109L379 114L374 113L375 100L367 97L362 85L343 70L335 63L327 60L318 55L299 45L288 39L280 42L277 45L268 31L263 26L262 25L231 15L210 5L201 7L188 4L176 5L164 3L157 6L139 12L130 15L126 18L125 22H120L118 28L108 33L98 40L96 43L93 52L76 68L70 85L68 92L72 99L67 104L71 119ZM433 748L460 772L485 795L513 828L528 837L538 851L547 857L557 859L573 857L589 841L595 827L607 811L611 798L620 785L625 771L640 748L635 736H620L609 733L589 739L582 747L562 767L539 797L527 788L523 778L508 768L495 764L489 756L478 752L470 741L449 728L437 727L432 724L427 727L423 732L424 742L433 748Z"  />
<glyph unicode="&#xCB;" horiz-adv-x="565" d="M71 119L67 124V126V130L69 134L70 141L79 152L74 157L79 168L83 184L93 192V207L94 212L95 214L109 226L139 268L157 279L161 288L173 296L190 314L196 320L204 323L216 325L222 336L230 342L238 347L257 355L270 364L289 374L297 382L307 383L322 389L325 396L319 392L301 389L293 383H289H283L272 384L265 388L243 400L241 402L239 404L237 416L238 421L240 442L241 452L251 465L264 491L280 508L286 521L295 526L304 540L317 547L318 553L332 563L340 569L350 583L360 584L367 590L374 599L407 621L417 633L423 634L432 631L452 650L456 652H459L469 649V655L480 661L489 666L502 667L511 672L524 676L534 675L539 678L547 681L552 680L563 674L574 676L589 667L599 665L606 657L615 643L616 638L618 612V603V602L612 588V578L604 563L599 550L591 541L588 532L585 527L582 525L574 524H569L560 526L554 536L548 554L549 560L557 570L571 579L581 581V590L589 595L591 605L592 614L587 628L583 637L579 641L576 642L575 641L568 639H553L541 635L530 633L512 623L496 621L492 616L488 614L474 599L439 579L419 559L398 542L382 522L365 504L353 482L345 473L337 468L321 433L314 425L313 419L324 422L335 428L372 442L420 468L433 471L474 486L497 490L516 485L524 477L527 468L526 464L524 459L518 449L509 437L491 420L485 416L480 413L477 412L470 413L444 407L430 404L400 385L393 384L376 370L362 365L342 350L332 348L323 334L314 328L309 332L305 325L292 308L276 303L275 293L273 289L272 287L259 286V275L245 268L240 263H239L231 267L233 257L221 237L214 234L206 219L201 218L195 207L194 199L193 193L189 189L183 185L178 177L175 166L171 158L167 133L162 121L161 116L166 94L170 83L177 80L182 74H192L196 77L206 74L214 75L222 73L233 78L238 74L248 80L258 81L265 90L275 88L283 94L339 120L347 129L369 145L393 164L406 170L416 177L423 180L434 195L450 198L461 212L473 218L475 226L486 231L489 243L498 247L510 258L525 267L535 280L546 286L559 300L578 314L591 326L599 332L610 335L609 324L603 292L601 289L563 256L553 244L543 234L537 227L529 226L523 217L509 207L499 196L491 193L462 160L444 148L438 141L429 137L411 117L401 110L396 109L379 114L374 113L375 100L367 97L362 85L343 70L335 63L327 60L318 55L299 45L288 39L280 42L277 45L268 31L263 26L262 25L231 15L210 5L201 7L188 4L176 5L164 3L157 6L139 12L130 15L126 18L125 22H120L118 28L108 33L98 40L96 43L93 52L76 68L70 85L68 92L72 99L67 104L71 119ZM521 762L511 756L503 750H501H499L492 754L476 763L469 771L462 783L460 793L463 805L476 819L490 831L497 833L507 830L512 825L523 809L534 796L535 791L534 785L527 777L521 762ZM597 827L602 832L611 830L624 821L642 798L644 788L643 782L642 780L630 771L626 764L614 761L610 753L600 747L584 752L574 769L566 775L563 780L561 788L562 791L568 803L576 815L597 827Z"  />
<glyph unicode="&#xCC;" horiz-adv-x="349" d="M271 682L282 681L285 689L294 690L333 697H335L354 695L375 690L385 687L394 678L402 676L406 669L429 645L441 628L445 608L444 597L449 594L447 584L445 552L440 536V528L434 515V502L427 491L419 464L399 432L374 373L364 363L358 353L355 337L350 331L343 327L332 318L331 303L320 289L304 252L298 247L290 245L289 235L287 229L286 227L268 205L259 181L246 161V155L240 144L231 146L232 131L231 121L219 97L216 83L209 74L206 67L203 62L201 61L194 58L197 53L194 43L196 19L192 9L206 -13L207 -18L204 -30L196 -38L177 -43L156 -38L147 -33L136 -22L120 -4L116 3L111 28L110 39L115 44V49L119 69L122 81L137 109L149 137L156 145L161 162L175 186L179 196L187 199V211L200 230L208 247L214 252L221 268L237 275L234 287L239 300L244 311L262 335L267 348L273 352L276 364L284 378L297 395L301 407L308 417L315 418L316 430L318 440L326 449L335 457L332 466L342 474L349 483L350 498L366 525L369 539L377 552L380 559L381 562V563L380 578L385 583L388 589L389 595L388 600L386 607L384 619L377 628L362 634L352 641L336 642H326L315 643L314 641L302 642L275 632L258 629L248 626L246 624L238 615L236 613L234 612L228 615L223 612L221 600L200 586L182 568L176 563L165 552L149 533L140 518L132 510L125 502L124 497L121 477L111 466L116 450V447L115 441L110 430L123 418L125 407L121 392L106 378L92 374L77 377L70 384L67 400L66 410L68 428L71 439L73 456L89 487L95 503L106 521L113 532L121 541L128 559L141 572L145 582L161 592L163 599L165 603L168 606L189 622L199 635L218 647L225 655L234 659L246 669L262 672L271 682ZM410 744L411 740L410 735L407 733L392 730L381 731H367L358 741L346 753V763L337 777L333 785L330 790V803L318 828V830L320 840L330 850L346 854L351 853L362 850H378L383 846L386 838L393 797L401 770L399 759L401 755L410 744Z"  />
<glyph unicode="&#xCD;" horiz-adv-x="349" d="M271 682L282 681L285 689L294 690L333 697H335L354 695L375 690L385 687L394 678L402 676L406 669L429 645L441 628L445 608L444 597L449 594L447 584L445 552L440 536V528L434 515V502L427 491L419 464L399 432L374 373L364 363L358 353L355 337L350 331L343 327L332 318L331 303L320 289L304 252L298 247L290 245L289 235L287 229L286 227L268 205L259 181L246 161V155L240 144L231 146L232 131L231 121L219 97L216 83L209 74L206 67L203 62L201 61L194 58L197 53L194 43L196 19L192 9L206 -13L207 -18L204 -30L196 -38L177 -43L156 -38L147 -33L136 -22L120 -4L116 3L111 28L110 39L115 44V49L119 69L122 81L137 109L149 137L156 145L161 162L175 186L179 196L187 199V211L200 230L208 247L214 252L221 268L237 275L234 287L239 300L244 311L262 335L267 348L273 352L276 364L284 378L297 395L301 407L308 417L315 418L316 430L318 440L326 449L335 457L332 466L342 474L349 483L350 498L366 525L369 539L377 552L380 559L381 562V563L380 578L385 583L388 589L389 595L388 600L386 607L384 619L377 628L362 634L352 641L336 642H326L315 643L314 641L302 642L275 632L258 629L248 626L246 624L238 615L236 613L234 612L228 615L223 612L221 600L200 586L182 568L176 563L165 552L149 533L140 518L132 510L125 502L124 497L121 477L111 466L116 450V447L115 441L110 430L123 418L125 407L121 392L106 378L92 374L77 377L70 384L67 400L66 410L68 428L71 439L73 456L89 487L95 503L106 521L113 532L121 541L128 559L141 572L145 582L161 592L163 599L165 603L168 606L189 622L199 635L218 647L225 655L234 659L246 669L262 672L271 682ZM454 853L474 850L481 844L483 836L482 832L480 829L463 805L456 792L445 783L436 770L407 752L399 743L393 741L384 733L379 730L377 729L368 730L357 729L351 733L342 729L339 732L335 737L334 741L335 746L337 749L350 758L360 773L371 781L378 791L388 799L392 808L399 817L407 839L414 849L422 855L426 856L438 851L454 853Z"  />
</font>
</defs>
</svg>
