<?xml  version="1.0" encoding="UTF-8"?>
<!DOCTYPE svg PUBLIC "-//W3C//DTD SVG 1.0//EN" "http://www.w3.org/TR/2001/REC-SVG-20010904/DTD/svg10.dtd" >
<svg xmlns="http://www.w3.org/2000/svg" >
<metadata>
<version>1.0</version>
<id><![CDATA[Myriad W01 Regular]]></id>
<vendor>Monotype Imaging Inc.</vendor>
<credits>
<name>Fonts.com WebFonts</name>
<URL>http://webfonts.fonts.com</URL>
<role>Home of the Web fonts</role>
</credits>
<license>
<URL>http://webfonts.fonts.com/Legal</URL>
</license>
<copyright><![CDATA[© 1992, 1994, 1997, 2000, 2004 Adobe Systems Incorporated. All rights reserved.]]></copyright>
<trademark><![CDATA[Myriad is either a registered trademark or a trademark of Adobe Systems Incorporated in the United States and/or other countries.]]></trademark>
<licensee>
<name></name>
</licensee>
</metadata>
<defs >
<font horiz-adv-x="485" id="a379413e-a0b8-44dc-b250-1e000e4092a4">
<font-face font-family="" panose-1="2 11 5 3 3 4 3 2 2 4" ascent="878" descent="-250" units-per-em="1000" alphabetic="0">
</font-face>
<missing-glyph horiz-adv-x="212" />

<glyph unicode="&#xA;" horiz-adv-x="0" />
<glyph unicode="&#xD;" horiz-adv-x="212" />
<glyph unicode=" " horiz-adv-x="212" />
<glyph unicode="!" horiz-adv-x="230" d="M81 194L67 674H163L149 194H81ZM115 -11Q89 -11 73 7T56 51Q56 78 72 95T115 113Q142 113 158 96T174 51Q174 25 158 7T115 -11Z"  />
<glyph unicode="&quot;" horiz-adv-x="337" d="M138 685L121 445H67L51 685H138ZM287 685L270 445H217L200 685H287Z"  />
<glyph unicode="#" horiz-adv-x="497" d="M292 255L311 400H207L188 255H292ZM93 0L119 196H37V255H128L147 400H61V459H156L182 650H240L215 459H319L345 650H404L379 459H461V400H370L352 255H438V196H343L317 0H257L283 196H179L153 0H93Z"  />
<glyph unicode="$" horiz-adv-x="513" d="M218 -86V15Q174 16 133 28T65 59L89 126Q116 108 153 96T233 83Q287 83 319 110T352 181Q352 223 324 250T239 300Q162 330 118 369T74 473Q74 535 115 579T225 634V735H287V638Q332 636 363 626T417 603L392 537Q376 546 345 558T266 571Q237 571 217 563T184 543T166 516T160 485Q160 446 189 422T284 371Q362 339 400 297T439 188Q439 158 429 131T399 80T350 41T281 18V-86H218Z"  />
<glyph unicode="%" horiz-adv-x="792" d="M187 661Q256 661 297 611T338 467Q338 416 326 378T292 314T242 275T182 262Q152 262 125 274T76 310T43 372T30 458Q30 507 42 544T76 608T126 647T187 661ZM184 608Q163 608 148 597T122 565T106 519T100 461Q99 430 104 403T120 357T147 326T184 315Q227 315 247 356T268 463Q268 493 264 519T249 565T223 596T184 608ZM176 -11L558 661H614L232 -11H176ZM611 392Q680 392 720 342T761 198Q761 147 749 109T715 45T665 6T606 -7Q576 -7 549 5T500 41T467 102T454 188Q454 237 466 275T500 339T550 378T611 392ZM608 339Q587 339 572 328T545 296T529 250T523 192Q523 161 528 134T545 88T572 57T608 46Q651 46 671 87T692 194Q692 224 688 250T673 296T647 327T608 339Z"  />
<glyph unicode="&amp;" horiz-adv-x="605" d="M498 0Q484 14 470 29T435 66Q391 25 343 7T238 -11Q189 -11 151 4T86 46T45 106T31 178Q31 247 68 295T163 375V378Q137 411 122 447T107 519Q107 550 118 579T150 632T204 670T278 685Q309 685 336 675T384 646T415 601T427 542Q427 488 394 445T279 362V359Q300 334 322 309T366 259T407 212T443 171Q488 240 508 368H588Q574 288 552 226T491 119Q518 90 545 61T602 0H498ZM253 55Q297 55 332 72T392 116Q377 132 356 155T310 206T258 265T202 328Q188 319 173 307T145 278T124 240T115 191Q115 162 125 137T153 94T197 66T253 55ZM272 625Q230 625 209 596T187 527Q187 491 201 462T238 406Q289 435 319 465T350 538Q350 553 346 568T332 596T308 617T272 625Z"  />
<glyph unicode="&apos;" horiz-adv-x="188" d="M138 685L121 445H67L51 685H138Z"  />
<glyph unicode="(" horiz-adv-x="284" d="M264 694Q209 620 174 521T138 285Q138 218 147 161T174 53T214 -40T264 -121H195Q171 -90 148 -50T106 40T76 151T64 285Q64 359 76 420T106 532T148 622T195 694H264Z"  />
<glyph unicode=")" horiz-adv-x="284" d="M20 -121Q47 -84 70 -41T110 53T136 162T146 288Q146 422 110 521T20 694H88Q112 663 135 624T177 534T207 422T219 287Q219 213 208 153T178 42T136 -49T88 -121H20Z"  />
<glyph unicode="*" horiz-adv-x="415" d="M329 651L234 526V524L385 544V476L234 494V492L330 372L267 336L207 476H205L140 335L83 371L178 493V495L30 476V544L177 525V527L83 649L144 684L206 545H208L269 685L329 651Z"  />
<glyph unicode="+" horiz-adv-x="596" d="M330 532V297H556V237H330V0H266V237H40V297H266V532H330Z"  />
<glyph unicode="&#x2c;" horiz-adv-x="207" d="M16 -123Q24 -101 33 -71T50 -9T65 56T76 116L174 126Q165 94 153 59T128 -10T102 -71T79 -117L16 -123Z"  />
<glyph unicode="-" horiz-adv-x="307" d="M277 303V238H30V303H277Z"  />
<glyph unicode="." horiz-adv-x="207" d="M111 -11Q85 -11 69 7T52 52Q52 80 69 97T112 115Q138 115 154 98T171 52Q171 25 155 7T111 -11Z"  />
<glyph unicode="/" horiz-adv-x="343" d="M-1 -40L278 685H346L66 -40H-1Z"  />
<glyph unicode="0" horiz-adv-x="513" d="M262 661Q365 661 421 575T477 332Q477 165 419 77T251 -11Q155 -11 97 75T36 323Q36 405 52 468T99 574T170 639T262 661ZM257 593Q199 593 162 525T124 322Q124 194 160 126T256 57Q290 57 315 76T356 130T381 215T389 328Q389 388 381 437T357 520T316 574T257 593Z"  />
<glyph unicode="1" horiz-adv-x="513" d="M236 568H234L121 507L104 574L246 650H321V0H236V568Z"  />
<glyph unicode="2" horiz-adv-x="513" d="M45 0V54L114 121Q176 180 221 227T297 313T341 388T356 461Q356 486 350 509T328 549T288 577T227 588Q182 588 147 570T89 533L61 595Q95 624 141 642T245 661Q297 661 335 645T397 602T432 541T444 472Q444 427 429 386T384 302T313 216T220 123L168 75V73H460V0H45Z"  />
<glyph unicode="3" horiz-adv-x="513" d="M66 101Q85 89 124 75T210 60Q252 60 280 72T326 102T350 143T357 186Q357 220 343 244T305 285T251 308T189 316H140V382H189Q213 382 238 388T285 408T320 442T334 492Q334 531 308 560T220 590Q181 590 146 576T90 547L67 611Q93 630 138 645T237 661Q285 661 320 648T378 613T412 564T423 506Q423 455 393 415T303 353V351Q333 345 359 331T405 296T436 246T448 184Q448 145 433 110T388 48T314 5T211 -11Q156 -11 111 3T42 33L66 101Z"  />
<glyph unicode="4" horiz-adv-x="513" d="M317 0V177H15V235L305 650H400V246H491V177H400V0H317ZM317 246V463Q317 514 320 565H317Q302 536 290 514T263 469L104 248V246H317Z"  />
<glyph unicode="5" horiz-adv-x="513" d="M433 576H185L160 409Q171 411 183 412T213 413Q251 413 287 405T353 378Q391 356 418 315T446 211Q446 163 428 123T378 53T302 6T204 -11Q150 -11 108 1T42 29L64 96Q84 84 121 72T203 60Q234 60 262 70T311 98T344 142T357 201Q357 232 346 258T312 304T254 334T170 345Q142 345 120 343T80 338L122 650H433V576Z"  />
<glyph unicode="6" horiz-adv-x="513" d="M416 588Q402 589 386 588T350 584Q298 575 259 553T191 500T147 431T124 353H127Q150 384 190 406T284 428Q327 428 363 413T425 371T465 305T480 218Q480 173 465 132T423 59T355 8T264 -11Q212 -11 170 8T97 64T51 151T34 266Q34 363 65 437T144 559Q185 599 237 623T352 655Q372 658 388 659T416 660V588ZM264 57Q321 57 356 100T391 213Q391 283 355 322T257 362Q217 362 183 340T131 282Q121 265 121 243Q122 203 131 169T159 110T203 71T264 57Z"  />
<glyph unicode="7" horiz-adv-x="513" d="M467 650V592L184 0H93L375 575V577H57V650H467Z"  />
<glyph unicode="8" horiz-adv-x="513" d="M255 -11Q204 -11 164 3T95 41T52 97T37 165Q37 227 71 270T166 339L165 342Q111 368 87 407T62 488Q62 527 77 558T120 613T183 648T263 661Q310 661 345 648T404 612T440 560T452 501Q452 459 429 419T345 349V346Q406 322 441 280T476 178Q476 136 459 101T412 41T342 3T255 -11ZM257 53Q317 53 352 85T387 169Q387 228 349 260T244 311Q187 294 157 259T127 177Q126 152 134 130T160 90T201 63T257 53ZM258 598Q203 598 174 567T145 494Q145 445 178 417T269 374Q311 388 339 417T368 492Q368 511 362 530T343 564T309 588T258 598Z"  />
<glyph unicode="9" horiz-adv-x="513" d="M96 62Q110 60 127 61T167 65Q205 70 240 86T303 128Q335 157 357 200T389 301H386Q359 268 321 250T233 231Q189 231 154 246T93 289T55 352T41 430Q41 476 57 518T102 591T172 642T263 661Q313 661 353 642T420 586T463 500T478 387Q478 279 446 204T366 82Q328 45 279 23T177 -5Q153 -9 133 -10T96 -10V62ZM256 594Q228 594 205 582T164 549T138 499T128 436Q128 375 162 337T253 298Q298 298 331 317T381 366Q389 379 389 398Q389 440 381 475T357 537T316 579T256 594Z"  />
<glyph unicode=":" horiz-adv-x="207" d="M111 342Q85 342 69 360T52 404Q52 432 69 449T112 467Q138 467 154 450T171 404Q171 378 155 360T111 342ZM111 -11Q85 -11 69 7T52 51Q52 79 69 96T112 114Q138 114 154 97T171 51Q171 25 155 7T111 -11Z"  />
<glyph unicode=";" horiz-adv-x="207" d="M17 -123Q25 -101 34 -71T51 -9T66 56T77 116L174 126Q165 94 153 59T128 -10T101 -71T78 -117L17 -123ZM119 342Q93 342 77 360T60 404Q60 432 76 449T119 467Q146 467 162 450T178 404Q178 378 162 360T119 342Z"  />
<glyph unicode="&lt;" horiz-adv-x="596" d="M66 293L530 532V463L139 267V265L530 69V0L66 239V293Z"  />
<glyph unicode="=" horiz-adv-x="596" d="M40 337V397H556V337H40ZM40 141V201H556V141H40Z"  />
<glyph unicode="&gt;" horiz-adv-x="596" d="M530 238L66 0V69L460 265V267L66 463V532L530 294V238Z"  />
<glyph unicode="?" horiz-adv-x="406" d="M141 191L139 217Q134 258 148 301T201 390Q235 430 253 461T271 527Q271 565 248 588T176 613Q149 613 122 605T75 582L51 645Q76 663 115 674T194 685Q237 685 268 673T320 640T351 593T361 538Q361 487 336 447T275 364Q242 325 229 290T218 217L219 191H141ZM178 -11Q152 -11 136 7T119 51Q119 79 136 96T179 114Q205 114 221 97T238 51Q238 25 222 7T178 -11Z"  />
<glyph unicode="@" horiz-adv-x="737" d="M469 368Q461 370 449 372T419 375Q386 375 357 361T307 322T273 264T260 195Q260 162 276 141T326 119Q348 119 368 131T404 163T432 207T448 255L469 368ZM524 -64Q482 -86 440 -95T346 -104Q284 -104 229 -83T133 -21T68 78T43 208Q43 285 69 355T142 477T257 561T408 592Q473 592 526 571T618 511T678 419T699 303Q699 247 685 203T646 128T589 81T521 65Q491 65 468 86T447 153H443Q391 65 302 65Q280 65 261 73T226 98T203 138T194 191Q194 237 211 280T260 356T335 408T431 428Q463 428 490 422T538 407L504 226Q493 169 501 142T534 114Q553 114 572 126T607 161T632 219T642 297Q642 351 626 397T579 476T503 527T400 546Q339 546 285 523T189 456T124 352T100 214Q100 151 119 101T173 16T254 -37T357 -56Q400 -56 438 -47T508 -21L524 -64Z"  />
<glyph unicode="A" horiz-adv-x="612" d="M185 212L115 0H25L254 674H359L589 0H496L424 212H185ZM406 280L340 474Q329 507 321 537T305 597H303Q295 567 287 537T269 475L203 280H406Z"  />
<glyph unicode="B" horiz-adv-x="542" d="M76 665Q105 671 147 675T235 679Q301 679 344 668T420 630Q446 610 461 581T476 511Q476 462 446 423T362 363V361Q386 355 410 342T455 308T488 258T501 192Q501 148 486 115T444 57Q375 -6 211 -6Q166 -6 132 -4T76 2V665ZM163 389H242Q311 389 349 421T388 502Q388 561 347 586T240 612Q210 612 192 610T163 606V389ZM163 66Q176 64 194 63T236 62Q270 62 301 68T356 90T394 131T409 193Q409 227 395 252T358 292T303 315T235 323H163V66Z"  />
<glyph unicode="C" horiz-adv-x="580" d="M547 22Q523 10 477 0T369 -10Q298 -10 237 12T132 77T62 184T36 331Q36 410 61 475T133 587T245 659T388 685Q451 685 491 675T548 655L527 584Q502 596 468 604T391 612Q332 612 284 594T201 540T147 452T128 334Q128 272 145 222T196 137T277 82T387 63Q427 63 465 70T529 91L547 22Z"  />
<glyph unicode="D" horiz-adv-x="666" d="M76 665Q116 671 162 675T261 679Q355 679 422 658T534 595Q579 553 604 494T629 353Q629 270 605 204T532 91Q484 43 409 19T234 -6Q187 -6 148 -4T76 2V665ZM163 69Q180 66 202 65T251 64Q391 64 464 138T538 350Q538 410 522 458T471 539T386 591T265 610Q231 610 206 608T163 601V69Z"  />
<glyph unicode="E" horiz-adv-x="492" d="M425 316H163V73H455V0H76V674H440V601H163V388H425V316Z"  />
<glyph unicode="F" horiz-adv-x="487" d="M76 674H439V601H163V377H418V305H163V0H76V674Z"  />
<glyph unicode="G" horiz-adv-x="646" d="M589 30Q560 19 506 6T382 -7Q305 -7 243 13T130 82Q86 124 61 189T36 333Q36 408 61 472T134 582T248 655T401 681Q460 681 503 671T569 650L548 579Q521 591 486 599T399 608Q337 608 287 590T202 536T148 451T128 337Q128 273 146 223T199 137T281 84T388 65Q431 65 460 70T504 83V284H367V354H589V30Z"  />
<glyph unicode="H" horiz-adv-x="652" d="M163 674V392H489V674H577V0H489V316H163V0H76V674H163Z"  />
<glyph unicode="I" horiz-adv-x="239" d="M163 674V0H76V674H163Z"  />
<glyph unicode="J" horiz-adv-x="370" d="M214 674H301V223Q301 156 286 111T243 39T178 1T97 -11Q73 -11 47 -7T4 5L17 76Q31 71 49 67T90 63Q119 63 142 70T181 97T205 148T214 230V674Z"  />
<glyph unicode="K" horiz-adv-x="542" d="M76 674H163V349H166Q180 369 193 386T219 421L425 674H533L289 388L552 0H449L227 331L163 257V0H76V674Z"  />
<glyph unicode="L" horiz-adv-x="472" d="M76 674H163V73H451V0H76V674Z"  />
<glyph unicode="M" horiz-adv-x="804" d="M644 296Q642 331 640 369T637 445T635 519T634 587H631Q614 527 593 464T546 331L427 4H361L252 325Q228 397 208 462T174 587H172Q170 524 167 445T159 289L141 0H58L105 674H216L331 348Q352 285 369 230T399 121H402Q415 172 432 228T473 348L593 674H704L746 0H661L644 296Z"  />
<glyph unicode="N" horiz-adv-x="658" d="M76 0V674H171L387 333Q425 273 454 220T508 114L510 115Q504 183 502 248T500 392V674H582V0H494L280 342Q245 399 213 455T154 567L151 566Q155 502 156 437T158 288V0H76Z"  />
<glyph unicode="O" horiz-adv-x="689" d="M349 685Q418 685 474 660T569 590T630 482T652 344Q652 257 628 191T560 80T460 12T339 -11Q272 -11 217 13T121 83T59 191T36 331Q36 411 59 476T125 588T224 660T349 685ZM345 614Q291 614 251 591T183 529T143 439T129 333Q129 279 143 230T185 143T253 83T344 60Q396 60 436 82T503 142T545 232T560 340Q560 390 547 439T507 527T440 590T345 614Z"  />
<glyph unicode="P" horiz-adv-x="532" d="M76 666Q108 671 149 675T243 679Q370 679 432 623Q460 599 475 563T491 482Q491 392 439 338Q404 301 351 283T233 264Q213 264 196 265T163 270V0H76V666ZM163 341Q190 334 235 334Q314 334 359 371T404 478Q404 545 361 577T245 610Q216 610 195 608T163 603V341Z"  />
<glyph unicode="Q" horiz-adv-x="689" d="M632 -99Q563 -81 498 -61T374 -21Q363 -17 353 -14T333 -11Q273 -9 219 14T125 80T60 186T36 330Q36 411 59 476T125 588T224 660T350 685Q419 685 474 660T569 589T630 482T652 344Q652 279 638 226T598 133T537 64T460 21V17Q511 4 562 -7T657 -26L632 -99ZM343 60Q395 60 435 82T503 142T545 231T560 340Q560 391 547 440T508 527T441 590T347 614Q292 614 251 591T183 528T142 438T129 332Q129 278 143 229T184 143T252 83T343 60Z"  />
<glyph unicode="R" horiz-adv-x="538" d="M76 665Q109 672 153 675T243 679Q313 679 359 666T438 624Q464 601 477 568T491 496Q491 463 481 435T454 386T414 349T364 324V321Q403 307 427 273T463 185Q480 114 492 67T515 0H425Q417 14 406 56T380 161Q365 231 335 260T245 292H163V0H76V665ZM163 358H252Q322 358 363 393T404 486Q404 552 361 581T249 612Q217 612 196 610T163 604V358Z"  />
<glyph unicode="S" horiz-adv-x="493" d="M64 106Q93 88 134 75T220 62Q287 62 324 94T361 177Q361 224 332 254T234 311Q151 340 104 385T56 502Q56 541 71 574T115 632T184 671T274 685Q326 685 363 675T423 652L399 581Q382 590 350 601T271 613Q236 613 212 604T173 580T151 547T144 512Q144 465 176 437T278 382Q363 349 406 304T450 184Q450 145 436 110T392 48T318 6T214 -10Q165 -10 117 2T42 33L64 106Z"  />
<glyph unicode="T" horiz-adv-x="497" d="M204 600H-1V674H498V600H292V0H204V600Z"  />
<glyph unicode="U" horiz-adv-x="647" d="M163 674V275Q163 218 175 178T208 111T257 73T320 60Q395 60 439 111T484 275V674H572V281Q572 203 553 148T499 58T419 6T317 -11Q265 -11 221 4T145 54T94 144T75 277V674H163Z"  />
<glyph unicode="V" horiz-adv-x="558" d="M224 0L4 674H98L203 342Q225 273 243 212T275 90H277Q291 149 311 212T354 341L468 674H561L320 0H224Z"  />
<glyph unicode="W" horiz-adv-x="846" d="M186 0L15 674H107L187 333Q202 270 215 210T237 100H239Q247 151 262 209T294 334L384 674H475L557 332Q571 272 583 214T604 101H606Q617 157 630 214T660 334L749 674H838L647 0H556L471 351Q455 416 445 468T427 571H425Q416 520 404 469T373 351L277 0H186Z"  />
<glyph unicode="X" horiz-adv-x="571" d="M445 0L359 149Q333 192 315 222T281 282H279Q265 253 249 223T206 148L125 0H25L231 341L33 674H134L223 516Q242 483 256 456T285 402H288Q302 432 316 458T349 516L441 674H541L336 346L546 0H445Z"  />
<glyph unicode="Y" horiz-adv-x="541" d="M226 0V286L13 674H112L207 488Q227 450 242 417T274 349H276Q290 382 307 416T344 488L441 674H540L314 287V0H226Z"  />
<glyph unicode="Z" horiz-adv-x="553" d="M30 51L404 598V601H62V674H517V621L145 76V73H522V0H30V51Z"  />
<glyph unicode="[" horiz-adv-x="284" d="M82 -112V685H265V630H150V-57H265V-112H82Z"  />
<glyph unicode="\" horiz-adv-x="341" d="M274 -40L2 685H70L342 -40H274Z"  />
<glyph unicode="]" horiz-adv-x="284" d="M202 686V-112H19V-57H134V631H19V686H202Z"  />
<glyph unicode="^" horiz-adv-x="596" d="M466 189L299 577H297L130 189H60L267 650H329L536 189H466Z"  />
<glyph unicode="_" horiz-adv-x="500" d="M500 -75V-125H0V-75H500Z"  />
<glyph unicode="`" horiz-adv-x="300" d="M119 693L206 550H144L22 693H119Z"  />
<glyph unicode="a" horiz-adv-x="482" d="M341 0L334 61H331Q311 32 273 11T183 -11Q146 -11 119 1T73 32T45 77T35 128Q35 216 110 262T326 308V318Q326 333 323 352T308 389T275 418T216 430Q182 430 149 421T90 394L70 452Q100 472 141 483T229 495Q284 495 320 478T376 432T405 369T413 297V116Q413 84 414 55T421 0H341ZM328 247Q292 248 256 244T190 229T142 195T123 138Q123 95 147 75T206 54Q254 54 283 79T323 135Q328 150 328 163V247Z"  />
<glyph unicode="b" horiz-adv-x="569" d="M69 0Q71 25 72 59T73 125V710H160V406H162Q185 447 226 471T327 495Q372 495 409 477T474 427T516 349T531 248Q531 183 513 135T463 54T393 5T314 -11Q261 -11 220 10T152 80H149L145 0H69ZM160 194Q160 186 161 178T164 162Q177 116 212 88T296 59Q330 59 357 72T404 110T433 169T443 245Q443 281 434 314T406 371T361 410T299 425Q254 425 217 397T165 317Q163 309 162 301T160 281V194Z"  />
<glyph unicode="c" horiz-adv-x="448" d="M418 18Q401 9 365 0T279 -10Q224 -10 180 8T104 58T55 135T38 237Q38 293 56 340T109 421T191 475T298 494Q337 494 369 486T420 469L400 401Q384 410 359 417T298 424Q256 424 225 410T171 371T138 313T127 241Q127 199 139 166T174 109T228 73T295 60Q333 60 358 68T403 84L418 18Z"  />
<glyph unicode="d" horiz-adv-x="564" d="M491 710V125Q491 93 492 59T495 0H416L412 84H410Q390 43 348 16T245 -11Q201 -11 163 7T98 57T54 134T38 235Q38 295 55 343T102 425T171 477T255 495Q311 495 347 473T401 421H403V710H491ZM403 287Q403 295 402 305T399 324Q389 366 356 396T272 426Q238 426 211 412T166 373T137 314T127 239Q127 202 136 170T163 113T207 74T270 60Q315 60 351 87T399 165Q403 181 403 203V287Z"  />
<glyph unicode="e" horiz-adv-x="501" d="M122 226Q123 181 136 150T172 98T225 68T288 58Q336 58 366 65T422 83L437 20Q414 9 374 0T276 -10Q220 -10 176 7T101 57T54 134T38 234Q38 289 53 336T98 419T170 474T265 495Q324 495 363 472T424 415T456 340T465 267Q465 253 464 243T462 226H122ZM380 289Q380 310 375 335T357 381T319 417T258 432Q225 432 201 418T160 383T135 337T123 289H380Z"  />
<glyph unicode="f" horiz-adv-x="292" d="M82 0V417H14V484H82V507Q82 558 94 602T138 676Q163 700 194 710T256 721Q279 721 298 717T331 707L319 639Q309 644 296 647T263 650Q235 650 217 639T188 608T173 563T169 510V484H286V417H169V0H82Z"  />
<glyph unicode="g" horiz-adv-x="559" d="M490 484Q488 458 487 427T486 351V70Q486 -14 469 -66T417 -151Q382 -184 335 -196T241 -209Q197 -209 153 -199T80 -169L102 -102Q126 -117 162 -128T244 -140Q278 -140 306 -131T356 -102T388 -49T400 29V83H398Q378 49 340 26T244 2Q199 2 161 20T96 69T54 144T38 238Q38 299 56 347T105 428T175 478T256 495Q287 495 312 488T355 468T386 441T407 411H409L413 484H490ZM399 293Q399 304 398 314T394 333Q382 371 351 398T271 426Q239 426 213 413T168 377T138 319T127 243Q127 207 136 176T163 121T207 83T270 69Q311 69 344 93T392 159Q396 170 397 182T399 206V293Z"  />
<glyph unicode="h" horiz-adv-x="555" d="M73 710H161V408H163Q185 447 226 470Q246 481 268 488T316 495Q340 495 369 486T424 454T467 391T485 288V0H397V278Q397 307 391 333T372 379T338 410T285 422Q242 422 211 396T167 334Q163 325 162 315T161 292V0H73V710Z"  />
<glyph unicode="i" horiz-adv-x="234" d="M73 0V484H161V0H73ZM117 675Q142 675 156 659T171 620Q172 597 157 582T115 566Q92 566 77 581T62 620Q62 643 77 659T117 675Z"  />
<glyph unicode="j" horiz-adv-x="243" d="M-45 -140Q-15 -138 10 -129T51 -103Q60 -93 66 -80T76 -45T82 5T84 79V484H172V45Q172 -26 159 -73T114 -154Q99 -169 81 -179T42 -196T2 -206T-36 -209L-45 -140ZM129 675Q153 675 167 659T182 620Q183 598 168 582T127 566Q102 566 88 582T73 620Q73 643 88 659T129 675Z"  />
<glyph unicode="k" horiz-adv-x="469" d="M160 262H162Q171 275 182 289T205 317L347 484H453L266 285L479 0H372L205 232L160 182V0H73V710H160V262Z"  />
<glyph unicode="l" horiz-adv-x="236" d="M73 710H161V0H73V710Z"  />
<glyph unicode="m" horiz-adv-x="834" d="M73 353Q73 391 72 422T69 484H146L150 406H153Q163 423 177 439T209 467T251 487T305 495Q355 495 390 468T442 398H444Q455 418 469 434T498 461Q520 478 545 486T605 495Q629 495 657 486T708 453T748 389T764 285V0H678V274Q678 344 653 383T573 423Q535 423 508 399T469 343Q466 334 464 323T462 299V0H376V290Q376 348 351 385T275 423Q233 423 205 396T166 335Q159 317 159 292V0H73V353Z"  />
<glyph unicode="n" horiz-adv-x="555" d="M73 353Q73 391 72 422T69 484H147L152 404H154Q163 421 178 437T213 466T258 487T314 495Q339 495 369 486T424 454T467 391T485 289V0H397V279Q397 308 391 334T372 379T338 410T285 422Q241 422 210 396T167 332Q161 315 161 291V0H73V353Z"  />
<glyph unicode="o" horiz-adv-x="549" d="M278 495Q330 495 373 477T446 426T494 347T511 246Q511 179 490 131T435 51T357 4T270 -11Q221 -11 179 6T105 56T56 134T38 238Q38 299 56 346T107 427T184 477T278 495ZM276 429Q237 429 209 413T163 370T136 309T127 241Q127 201 138 167T168 108T215 69T274 55Q305 55 332 69T379 108T410 167T421 243Q421 274 413 307T388 367T343 411T276 429Z"  />
<glyph unicode="p" horiz-adv-x="569" d="M73 326Q73 373 72 411T69 484H148L152 401H154Q181 446 223 470T326 495Q370 495 407 477T472 427T515 350T531 249Q531 184 513 135T464 54T394 5T311 -11Q263 -11 224 9T162 65H160V-198H73V326ZM160 197Q160 187 161 178T164 161Q176 115 212 87T296 58Q331 58 358 71T404 110T433 169T443 245Q443 281 434 314T406 371T361 410T299 425Q254 425 217 396T166 316Q164 308 162 299T160 280V197Z"  />
<glyph unicode="q" horiz-adv-x="563" d="M403 75H401Q381 39 342 14T243 -11Q201 -11 164 6T98 56T54 134T38 234Q38 302 58 351T109 432T180 479T257 495Q314 495 351 471T406 411H408L411 484H494Q492 453 492 421T491 351V-198H403V75ZM403 288Q403 297 402 307T399 325Q389 366 356 395T273 425Q239 425 212 412T166 373T137 314T127 239Q127 203 135 171T162 113T207 74T270 59Q313 59 347 84T396 155Q399 164 401 175T403 197V288Z"  />
<glyph unicode="r" horiz-adv-x="327" d="M73 333Q73 376 72 413T69 484H146L149 389H153Q170 438 206 466T287 495Q300 495 312 492V409Q298 412 282 412Q235 412 204 381T164 299Q162 290 161 280T160 258V0H73V333Z"  />
<glyph unicode="s" horiz-adv-x="396" d="M61 90Q81 77 112 66T177 55Q225 55 248 76T271 127Q271 159 251 178T181 216Q115 239 84 274T53 353Q53 382 64 408T97 453T150 484T220 495Q257 495 288 486T339 465L317 401Q303 410 278 419T218 429Q179 429 158 410T137 363Q137 333 159 316T229 281Q292 257 324 223T356 135Q356 71 309 31T175 -10Q135 -10 100 -1T39 23L61 90Z"  />
<glyph unicode="t" horiz-adv-x="331" d="M179 623V484H305V417H179V156Q179 111 193 87T245 62Q262 62 275 64T296 68L300 2Q287 -3 268 -6T222 -10Q159 -10 127 27Q108 47 101 78T93 153V417H18V484H93V600L179 623Z"  />
<glyph unicode="u" horiz-adv-x="551" d="M478 132Q478 94 479 62T482 0H404L399 79H397Q388 64 374 49T341 20T295 -2T237 -11Q208 -11 179 -2T125 31T86 96T70 201V484H158V216Q158 147 182 105T266 62Q288 62 306 69T340 87T365 113T382 142Q390 163 390 187V484H478V132Z"  />
<glyph unicode="v" horiz-adv-x="481" d="M107 484L202 212Q214 179 223 149T241 88H244Q252 118 262 148T285 212L379 484H471L281 0H197L13 484H107Z"  />
<glyph unicode="w" horiz-adv-x="736" d="M108 484L172 238Q183 197 192 160T208 84H211Q219 121 230 159T254 237L333 484H407L482 242Q496 198 506 160T525 84H528Q534 121 543 159T565 241L634 484H721L565 0H485L411 231Q398 272 388 309T368 390H366Q357 346 346 308T322 230L244 0H164L18 484H108Z"  />
<glyph unicode="x" horiz-adv-x="463" d="M114 484L183 380Q197 360 208 341T232 301H235Q247 323 259 342T283 381L351 484H446L281 250L451 0H351L280 109Q266 130 254 150T228 193H226Q214 171 202 151T175 109L105 0H8L180 247L16 484H114Z"  />
<glyph unicode="y" horiz-adv-x="471" d="M105 484L211 198Q219 174 227 148T242 99H244Q251 121 258 147T275 200L371 484H464L332 139Q308 77 288 29T248 -55T208 -118T166 -164Q134 -193 105 -205T58 -221L36 -147Q53 -142 73 -132T113 -104Q131 -90 151 -65T187 -6Q194 10 194 15Q194 21 188 38L9 484H105Z"  />
<glyph unicode="z" horiz-adv-x="428" d="M18 51L237 336Q253 356 268 373T300 411V413H38V484H407L406 429L190 148Q175 128 160 110T128 72V70H411V0H18V51Z"  />
<glyph unicode="{" horiz-adv-x="284" d="M28 313Q55 313 71 319T95 336T106 360T109 387Q109 408 107 429T101 471Q98 492 96 512T93 554Q93 623 133 654T238 685H259V630H241Q196 630 179 608T162 544Q162 527 164 509T169 473Q172 454 174 436T176 397Q177 349 158 324T104 289V287Q138 279 157 253T176 178Q176 158 174 139T169 102Q166 83 164 66T162 30Q162 -12 180 -34T241 -57H259V-112H238Q207 -112 181 -105T135 -82T104 -39T93 25Q93 45 95 66T101 107Q104 127 106 147T109 188Q109 200 107 213T96 237T71 255T28 262V313Z"  />
<glyph unicode="|" horiz-adv-x="239" d="M153 750V-250H86V750H153Z"  />
<glyph unicode="}" horiz-adv-x="284" d="M256 262Q229 262 213 255T189 237T178 213T175 188Q175 168 177 148T183 107Q186 87 188 66T191 25Q191 -13 180 -39T150 -81T104 -105T46 -112H25V-57H42Q84 -56 103 -34T122 30Q122 48 120 65T115 102Q112 120 110 139T107 178Q107 226 126 252T179 287V289Q146 298 127 323T107 397Q107 417 109 435T115 473Q117 491 119 509T122 544Q122 585 105 607T43 630H25V685H45Q109 685 150 654T191 554Q191 533 189 513T183 471Q180 450 178 429T175 387Q175 374 177 361T188 337T213 320T256 313V262Z"  />
<glyph unicode="~" horiz-adv-x="596" d="M49 210Q46 285 81 323T168 361Q199 361 229 351T309 316Q347 298 376 286T434 274Q486 274 488 358H548Q550 316 541 287T516 241T478 215T433 207Q403 207 372 217T288 251Q253 268 224 281T168 295Q141 295 126 275T108 210H49Z"  />
<glyph unicode="&#xA0;" horiz-adv-x="212" />
<glyph unicode="&#xA1;" horiz-adv-x="230" d="M67 -198L81 279H149L164 -198H67ZM116 488Q142 488 158 471T174 426Q174 400 158 382T115 364Q89 364 73 382T56 426Q56 453 73 470T116 488Z"  />
<glyph unicode="&#xA2;" horiz-adv-x="513" d="M268 -14V87Q220 93 185 110T123 157Q97 186 82 228T67 326Q67 374 81 416T121 490T185 544T268 573V673H330V575Q364 575 393 567T439 550L419 483Q404 492 379 500T315 508Q278 508 249 494T198 456T166 400T155 330Q155 288 167 256T200 201T249 166T311 154Q353 154 380 162T425 179L441 116Q426 108 397 99T330 87V-14H268Z"  />
<glyph unicode="&#xA3;" horiz-adv-x="513" d="M56 0V50Q107 76 138 122T170 225Q170 243 169 259T165 295H62V358H155Q151 381 148 409T144 466Q144 510 158 546T198 607T259 647T336 661Q375 661 402 654T445 636L425 570Q411 578 390 584T336 590Q277 590 252 554T226 465Q226 433 229 408T238 358H382V295H246Q248 266 248 238T242 183Q226 120 173 75V73H471V0H56Z"  />
<glyph unicode="&#xA4;" horiz-adv-x="513" d="M256 534Q291 534 321 523T372 494L443 569L487 523L409 452Q423 432 433 402T444 335Q444 293 434 262T409 212L484 138L439 94L371 171Q348 149 316 139T254 128Q223 128 192 138T140 168L73 94L30 138L102 209Q87 229 76 260T65 329Q65 368 76 399T104 452L29 523L73 569L142 493Q163 512 193 523T256 534ZM255 471Q227 471 205 460T168 430T144 385T136 330Q136 294 147 268T176 224T214 199T254 191Q275 191 296 199T334 224T362 268T373 334Q373 360 366 384T343 428T306 459T255 471Z"  />
<glyph unicode="&#xA5;" horiz-adv-x="513" d="M209 0V175H54V225H209V297H54V347H184L16 650H110L214 444Q226 418 235 397T254 353H257Q265 374 274 397T297 446L405 650H497L318 347H448V297H292V225H448V175H292V0H209Z"  />
<glyph unicode="&#xA6;" horiz-adv-x="239" d="M153 174V-176H86V174H153ZM153 674V324H86V674H153Z"  />
<glyph unicode="&#xA7;" horiz-adv-x="519" d="M130 351Q130 324 153 301T236 256Q274 242 303 231T350 208Q369 222 378 242T388 285Q388 314 368 337T299 378Q269 389 235 402T176 429Q130 396 130 351ZM397 593Q377 605 348 615T277 625Q232 625 203 605T173 551Q173 531 182 518T207 493T247 473T298 455Q332 444 362 431T414 399T448 356T461 297Q461 258 444 229T396 176Q409 165 421 142T434 88Q434 49 418 21T374 -26T313 -53T244 -62Q198 -62 157 -52T87 -20L111 37Q129 24 163 10T243 -4Q291 -4 323 17T355 78Q355 96 349 110T329 136T292 159T233 182Q194 195 162 209T107 242T72 284T59 340Q59 369 75 400T132 457Q117 469 107 492T95 541Q95 574 109 600T149 645T207 673T280 683Q322 683 357 674T418 650L397 593Z"  />
<glyph unicode="&#xA8;" horiz-adv-x="300" d="M58 570Q35 570 21 585T7 621Q7 642 22 657T58 672Q79 672 93 658T107 621Q107 601 94 586T58 570ZM243 570Q220 570 207 585T193 621Q193 642 207 657T243 672Q264 672 278 658T292 621Q292 601 279 586T243 570Z"  />
<glyph unicode="&#xA9;" horiz-adv-x="677" d="M340 648Q403 648 458 624T553 558T617 460T641 340Q641 275 618 219T554 120T458 54T340 30Q276 30 221 54T124 120T60 218T36 340Q36 404 59 460T124 558T220 624T340 648ZM340 607Q286 607 240 586T159 529T106 444T86 337Q86 281 105 233T159 148T239 92T340 71Q393 71 439 91T518 148T571 234T591 340Q591 396 572 444T519 529T439 586T340 607ZM462 454Q452 459 426 468T365 477Q294 477 260 437T225 337Q225 308 234 282T261 237T305 207T366 196Q396 196 423 203T467 222L479 184Q453 167 421 160T356 153Q312 153 278 167T221 205T186 263T173 334Q173 377 188 411T230 470T291 507T364 520Q403 520 433 511T474 493L462 454Z"  />
<glyph unicode="&#xAA;" horiz-adv-x="346" d="M245 266L239 308H237Q223 290 197 276T136 261Q86 261 60 289T33 356Q33 410 85 441T234 470V480Q234 486 232 496T221 517T199 534T160 542Q136 542 114 536T74 515L58 558Q80 574 110 582T172 591Q209 591 234 579T273 548T293 503T299 451V344Q299 302 305 266H245ZM235 427Q211 427 187 425T144 416T112 395T99 360Q99 335 116 322T157 309Q180 309 197 320T225 345Q235 362 235 372V427Z"  />
<glyph unicode="&#xAB;" horiz-adv-x="419" d="M98 252L232 68H161L29 252L161 436H232L98 252ZM262 252L396 68H325L193 252L325 436H396L262 252Z"  />
<glyph unicode="&#xAC;" horiz-adv-x="596" d="M556 399V121H492V339H40V399H556Z"  />
<glyph unicode="&#xAD;" horiz-adv-x="291" d="M277 303V238H30V303H277Z"  />
<glyph unicode="&#xAE;" horiz-adv-x="419" d="M184 435H146V599Q171 604 209 604Q232 604 244 601T266 592Q273 587 277 578T282 556Q282 542 273 533T248 518V516Q271 507 278 476Q282 457 284 449T290 435H249Q245 440 243 450T236 475Q232 501 202 501H184V435ZM185 528H203Q219 528 230 533T241 552Q241 577 206 577Q193 577 185 575V528ZM210 685Q246 685 276 672T329 637T365 585T378 521Q378 486 365 456T330 404T277 368T210 355Q175 355 144 368T90 403T54 456T41 521Q41 555 54 585T90 637T144 672T210 685ZM210 652Q183 652 160 642T119 614T93 572T83 521Q83 494 92 470T119 428T159 400T211 390Q238 390 261 400T300 428T326 469T336 520Q336 547 327 571T301 613T261 641T210 652Z"  />
<glyph unicode="&#xAF;" horiz-adv-x="300" d="M263 643V586H38V643H263Z"  />
<glyph unicode="&#xB0;" horiz-adv-x="318" d="M162 685Q193 685 217 674T259 645T285 604T294 555Q294 525 283 500T253 458T210 431T160 421Q131 421 107 431T65 459T39 500T29 550Q29 579 39 603T67 646T109 674T162 685ZM161 638Q141 638 127 631T103 611T88 582T83 550Q83 515 105 492T161 468Q195 468 217 492T240 554Q240 568 236 583T222 610T197 630T161 638Z"  />
<glyph unicode="&#xB1;" horiz-adv-x="596" d="M330 572V377H556V317H330V117H266V317H40V377H266V572H330ZM556 60V0H40V60H556Z"  />
<glyph unicode="&#xB2;" horiz-adv-x="311" d="M12 480L75 538Q138 595 169 634T201 712Q201 741 183 761T125 781Q99 781 77 771T41 750L20 796Q40 813 72 825T142 838Q177 838 202 828T244 802T267 765T275 725Q275 696 265 671T237 623T195 576T142 528L111 500V498H282V443H12V480Z"  />
<glyph unicode="&#xB3;" horiz-adv-x="305" d="M28 806Q45 817 75 827T143 838Q207 838 236 809T265 743Q265 713 245 690T188 653V651Q230 646 255 620T281 555Q281 532 271 511T240 473T191 448T123 438Q87 438 57 446T9 465L27 515Q39 507 65 498T120 489Q143 489 159 495T186 511T202 532T207 556Q207 575 198 588T174 610T140 623T101 627H74V673H102Q116 673 131 676T160 687T183 707T193 736Q193 755 179 770T130 786Q103 786 80 777T45 759L28 806Z"  />
<glyph unicode="&#xB4;" horiz-adv-x="300" d="M286 693L164 550H101L189 693H286Z"  />
<glyph unicode="&#xB5;" horiz-adv-x="553" d="M400 75Q392 61 380 46T350 19T311 -1T261 -9Q228 -9 200 3T155 44V-16Q155 -36 155 -61T157 -111T160 -160T166 -198H87Q79 -175 76 -127T73 -20V484H160V198Q160 170 166 145T185 102T219 72T269 61Q291 61 309 68T343 86T368 112T385 142Q393 163 393 187V484H480V133Q480 93 490 76T526 57L519 -7Q511 -9 506 -10T489 -11Q457 -11 433 8T403 75H400Z"  />
<glyph unicode="&#xB6;" horiz-adv-x="512" d="M230 -49V264H223Q193 264 160 276T99 312T53 372T34 456Q34 495 46 534T89 604T173 656T309 676Q388 676 426 667V-49H364V615H293V-49H230Z"  />
<glyph unicode="&#xB7;" horiz-adv-x="207" d="M103 200Q77 200 60 218T44 263Q44 290 61 308T104 326Q130 326 146 309T163 263Q163 236 147 218T103 200Z"  />
<glyph unicode="&#xB8;" horiz-adv-x="300" d="M190 2L157 -50Q185 -54 206 -72T227 -119Q227 -141 219 -156T196 -181T163 -195T123 -200Q104 -200 86 -196T55 -183L70 -140Q82 -148 96 -151T124 -155Q141 -155 154 -148T167 -123Q166 -103 145 -94T89 -81L136 2H190Z"  />
<glyph unicode="&#xB9;" horiz-adv-x="244" d="M107 443V771H105L33 737L22 789L116 833H177V443H107Z"  />
<glyph unicode="&#xBA;" horiz-adv-x="355" d="M179 591Q215 591 244 579T294 545T326 493T337 428Q337 385 323 354T286 302T235 271T177 261Q144 261 115 272T65 305T31 356T18 423Q18 462 31 493T66 546T117 579T179 591ZM177 541Q153 541 136 531T107 504T91 466T85 425Q85 375 112 343T178 311Q218 311 244 342T270 426Q270 445 265 465T248 502T220 530T177 541Z"  />
<glyph unicode="&#xBB;" horiz-adv-x="419" d="M23 436H94L227 252L94 68H24L157 252L23 436ZM186 436H257L390 252L257 68H187L320 252L186 436Z"  />
<glyph unicode="&#xBC;" horiz-adv-x="759" d="M128 266V595H126L54 560L43 612L137 656H198V266H128ZM138 -11L518 661H574L195 -11H138ZM597 0V103H397V142L590 395H664V152H724V103H664V0H597ZM597 270Q597 287 598 303T600 333H598Q588 317 581 304T565 278L469 153V152H597V270Z"  />
<glyph unicode="&#xBD;" horiz-adv-x="759" d="M114 266V595H112L40 560L29 612L122 656H184V266H114ZM119 -11L498 661H554L175 -11H119ZM440 37L503 96Q565 152 597 191T629 269Q629 298 611 318T553 339Q527 339 505 329T469 308L448 353Q468 370 500 382T570 395Q606 395 631 385T672 359T695 323T703 282Q703 254 693 229T665 181T623 134T570 85L539 57V55H710V0H440V37Z"  />
<glyph unicode="&#xBE;" horiz-adv-x="759" d="M49 629Q66 641 96 651T163 661Q196 661 219 653T257 632T279 602T286 567Q286 537 266 513T210 477V475Q251 469 276 443T302 378Q302 355 292 334T262 296T213 271T145 261Q108 261 78 269T30 289L48 339Q60 331 86 322T141 313Q164 313 181 319T208 335T224 356T229 380Q229 399 220 412T195 433T161 446T123 450H95V496H123Q137 496 153 499T182 510T205 530T214 560Q214 578 200 593T150 609Q123 609 101 600T66 583L49 629ZM175 -11L555 661H611L232 -11H175ZM608 0V103H408V142L601 395H674V152H735V103H674V0H608ZM608 270Q608 287 609 303T611 333H609Q599 316 592 303T576 278L479 153L480 152H608V270Z"  />
<glyph unicode="&#xBF;" horiz-adv-x="406" d="M237 489Q264 489 280 472T296 427Q296 401 280 383T237 364Q210 364 194 382T178 427Q178 454 194 471T237 489ZM275 285L278 259Q283 218 268 176T215 88Q181 47 164 17T146 -48Q146 -86 169 -109T241 -133Q267 -133 294 -125T342 -102L366 -166Q340 -183 301 -194T222 -206Q179 -206 148 -194T96 -161T65 -115T55 -59Q55 -8 80 31T142 113Q174 153 187 187T198 259L197 285H275Z"  />
<glyph unicode="&#xC0;" horiz-adv-x="612" d="M185 212L115 0H25L254 674H359L589 0H496L424 212H185ZM406 280L340 474Q329 507 321 537T305 597H303Q295 567 287 537T269 475L203 280H406ZM267 827L359 711H288L161 827H267Z"  />
<glyph unicode="&#xC1;" horiz-adv-x="612" d="M185 212L115 0H25L254 674H359L589 0H496L424 212H185ZM406 280L340 474Q329 507 321 537T305 597H303Q295 567 287 537T269 475L203 280H406ZM454 827L327 710H255L348 827H454Z"  />
<glyph unicode="&#xC2;" horiz-adv-x="612" d="M185 212L115 0H25L254 674H359L589 0H496L424 212H185ZM406 280L340 474Q329 507 321 537T305 597H303Q295 567 287 537T269 475L203 280H406ZM343 824L448 710H375L311 779H309L245 710H174L276 824H343Z"  />
<glyph unicode="&#xC3;" horiz-adv-x="612" d="M185 212L115 0H25L254 674H359L589 0H496L424 212H185ZM406 280L340 474Q329 507 321 537T305 597H303Q295 567 287 537T269 475L203 280H406ZM185 715Q184 761 202 789T253 817Q270 817 283 811T313 797Q325 790 337 785T361 779Q372 779 379 786T388 818H434Q436 721 367 721Q350 721 336 726T306 740Q292 748 281 753T258 759Q247 759 241 747T232 715H185Z"  />
<glyph unicode="&#xC4;" horiz-adv-x="612" d="M185 212L115 0H25L254 674H359L589 0H496L424 212H185ZM406 280L340 474Q329 507 321 537T305 597H303Q295 567 287 537T269 475L203 280H406ZM217 719Q195 719 182 734T168 770Q168 791 182 805T218 820Q239 820 252 806T266 770Q266 749 253 734T217 719ZM403 719Q380 719 367 734T354 770Q354 791 368 805T403 820Q424 820 437 806T451 770Q451 749 438 734T403 719Z"  />
<glyph unicode="&#xC5;" horiz-adv-x="612" d="M185 212L115 0H25L254 674H359L589 0H496L424 212H185ZM406 280L340 474Q329 507 321 537T305 597H303Q295 567 287 537T269 475L203 280H406ZM308 878Q355 878 381 852T407 788Q407 750 380 725T308 699Q263 699 236 725T208 787Q208 825 234 851T308 878ZM307 842Q284 842 272 826T259 787Q259 768 272 752T307 736Q329 736 342 751T355 789Q355 811 342 826T307 842Z"  />
<glyph unicode="&#xC6;" horiz-adv-x="788" d="M-1 0L307 674H729V601H442L468 386H719V314H479L509 73H756V0H434L404 238H197L89 0H-1ZM394 308L372 502Q369 526 366 555T360 611H356Q347 587 336 560T313 505L226 308H394Z"  />
<glyph unicode="&#xC7;" horiz-adv-x="585" d="M547 22Q524 10 479 1T371 -10L347 -50Q375 -55 396 -74T417 -125Q417 -147 408 -162T385 -187T352 -201T314 -206Q294 -206 275 -202T243 -189L257 -144Q281 -157 312 -157Q329 -157 342 -150T355 -126Q355 -106 334 -97T277 -84L319 -7Q257 0 206 25T116 93T57 195T36 331Q36 410 61 475T133 587T245 659T388 685Q451 685 491 675T548 655L527 584Q502 596 468 604T391 612Q332 612 284 594T201 540T147 452T128 334Q128 272 145 222T196 137T277 82T387 63Q427 63 465 70T529 91L547 22Z"  />
<glyph unicode="&#xC8;" horiz-adv-x="492" d="M425 316H163V73H455V0H76V674H440V601H163V388H425V316ZM225 827L318 711H246L119 827H225Z"  />
<glyph unicode="&#xC9;" horiz-adv-x="492" d="M425 316H163V73H455V0H76V674H440V601H163V388H425V316ZM408 827L281 710H209L302 827H408Z"  />
<glyph unicode="&#xCA;" horiz-adv-x="492" d="M425 316H163V73H455V0H76V674H440V601H163V388H425V316ZM290 824L395 710H321L258 779H256L192 710H120L223 824H290Z"  />
<glyph unicode="&#xCB;" horiz-adv-x="492" d="M425 316H163V73H455V0H76V674H440V601H163V388H425V316ZM163 721Q140 721 127 736T114 772Q114 792 128 807T163 822Q184 822 197 808T211 772Q211 751 198 736T163 721ZM348 721Q326 721 313 736T299 772Q299 792 313 807T349 822Q370 822 383 808T397 772Q397 751 384 736T348 721Z"  />
<glyph unicode="&#xCC;" horiz-adv-x="239" d="M163 674V0H76V674H163ZM81 827L174 711H102L-25 827H81Z"  />
<glyph unicode="&#xCD;" horiz-adv-x="239" d="M163 674V0H76V674H163ZM266 827L138 710H67L159 827H266Z"  />
<glyph unicode="&#xCE;" horiz-adv-x="239" d="M163 674V0H76V674H163ZM152 824L257 710H184L120 779H118L54 710H-17L85 824H152Z"  />
<glyph unicode="&#xCF;" horiz-adv-x="239" d="M163 674V0H76V674H163ZM28 721Q5 721 -8 736T-22 772Q-22 792 -8 807T28 822Q49 822 62 808T76 772Q76 751 63 736T28 721ZM213 721Q191 721 178 736T164 772Q164 792 178 807T214 822Q235 822 248 808T262 772Q262 751 249 736T213 721Z"  />
<glyph unicode="&#xD0;" horiz-adv-x="671" d="M-2 377H81V667Q121 674 167 678T266 682Q360 682 427 661T539 598Q584 556 609 497T634 353Q634 269 610 204T537 90Q489 42 413 18T239 -7Q191 -7 153 -6T81 0V307H-2V377ZM348 307H168V67Q185 65 207 64T255 63Q397 63 470 137T543 352Q544 473 476 542T270 612Q236 612 211 610T168 603V377H348V307Z"  />
<glyph unicode="&#xD1;" horiz-adv-x="658" d="M76 0V674H171L387 333Q425 273 454 220T508 114L510 115Q504 183 502 248T500 392V674H582V0H494L280 342Q245 399 213 455T154 567L151 566Q155 502 156 437T158 288V0H76ZM210 715Q208 761 226 789T278 817Q295 817 308 811T337 797Q349 790 361 785T385 779Q396 779 403 786T412 818H458Q460 721 391 721Q375 721 361 726T330 740Q316 748 305 753T283 759Q271 759 265 747T257 715H210Z"  />
<glyph unicode="&#xD2;" horiz-adv-x="689" d="M349 685Q418 685 474 660T569 590T630 482T652 344Q652 257 628 191T560 80T460 12T339 -11Q272 -11 217 13T121 83T59 191T36 331Q36 411 59 476T125 588T224 660T349 685ZM345 614Q291 614 251 591T183 529T143 439T129 333Q129 279 143 230T185 143T253 83T344 60Q396 60 436 82T503 142T545 232T560 340Q560 390 547 439T507 527T440 590T345 614ZM306 829L398 713H327L199 829H306Z"  />
<glyph unicode="&#xD3;" horiz-adv-x="689" d="M349 685Q418 685 474 660T569 590T630 482T652 344Q652 257 628 191T560 80T460 12T339 -11Q272 -11 217 13T121 83T59 191T36 331Q36 411 59 476T125 588T224 660T349 685ZM345 614Q291 614 251 591T183 529T143 439T129 333Q129 279 143 230T185 143T253 83T344 60Q396 60 436 82T503 142T545 232T560 340Q560 390 547 439T507 527T440 590T345 614ZM490 829L363 713H291L384 829H490Z"  />
<glyph unicode="&#xD4;" horiz-adv-x="689" d="M349 685Q418 685 474 660T569 590T630 482T652 344Q652 257 628 191T560 80T460 12T339 -11Q272 -11 217 13T121 83T59 191T36 331Q36 411 59 476T125 588T224 660T349 685ZM345 614Q291 614 251 591T183 529T143 439T129 333Q129 279 143 230T185 143T253 83T344 60Q396 60 436 82T503 142T545 232T560 340Q560 390 547 439T507 527T440 590T345 614ZM377 827L482 713H408L344 782H342L279 713H207L310 827H377Z"  />
<glyph unicode="&#xD5;" horiz-adv-x="689" d="M349 685Q418 685 474 660T569 590T630 482T652 344Q652 257 628 191T560 80T460 12T339 -11Q272 -11 217 13T121 83T59 191T36 331Q36 411 59 476T125 588T224 660T349 685ZM345 614Q291 614 251 591T183 529T143 439T129 333Q129 279 143 230T185 143T253 83T344 60Q396 60 436 82T503 142T545 232T560 340Q560 390 547 439T507 527T440 590T345 614ZM220 717Q218 763 236 791T288 819Q305 819 318 814T347 799Q359 792 371 787T395 781Q406 781 413 788T422 820H468Q470 723 401 723Q385 723 371 728T340 742Q326 750 315 755T293 761Q281 761 275 749T267 717H220Z"  />
<glyph unicode="&#xD6;" horiz-adv-x="689" d="M349 685Q418 685 474 660T569 590T630 482T652 344Q652 257 628 191T560 80T460 12T339 -11Q272 -11 217 13T121 83T59 191T36 331Q36 411 59 476T125 588T224 660T349 685ZM345 614Q291 614 251 591T183 529T143 439T129 333Q129 279 143 230T185 143T253 83T344 60Q396 60 436 82T503 142T545 232T560 340Q560 390 547 439T507 527T440 590T345 614ZM252 721Q229 721 216 736T203 772Q203 792 217 807T252 822Q273 822 286 808T300 772Q300 751 287 736T252 721ZM437 721Q415 721 402 736T388 772Q388 792 402 807T438 822Q459 822 472 808T486 772Q486 751 473 736T437 721Z"  />
<glyph unicode="&#xD7;" horiz-adv-x="596" d="M84 526L298 307L512 526L556 482L341 263L556 44L512 0L298 219L84 0L40 44L254 263L40 482L84 526Z"  />
<glyph unicode="&#xD8;" horiz-adv-x="689" d="M63 -4L125 84Q83 129 60 193T36 333Q36 413 60 478T125 589T224 660T347 685Q442 685 515 632L574 713L627 677L565 591Q607 545 629 482T652 343Q652 255 627 189T560 78T462 12T346 -11Q249 -11 175 43L112 -43L63 -4ZM472 568Q446 590 415 602T346 615Q291 615 250 592T181 530T139 441T125 338Q125 281 138 239T175 157L176 158L472 568ZM218 107Q243 84 273 72T344 59Q397 59 438 81T506 142T548 232T563 340Q563 383 553 427T516 515H513L218 107Z"  />
<glyph unicode="&#xD9;" horiz-adv-x="647" d="M163 674V275Q163 218 175 178T208 111T257 73T320 60Q395 60 439 111T484 275V674H572V281Q572 203 553 148T499 58T419 6T317 -11Q265 -11 221 4T145 54T94 144T75 277V674H163ZM289 827L382 711H310L183 827H289Z"  />
<glyph unicode="&#xDA;" horiz-adv-x="647" d="M163 674V275Q163 218 175 178T208 111T257 73T320 60Q395 60 439 111T484 275V674H572V281Q572 203 553 148T499 58T419 6T317 -11Q265 -11 221 4T145 54T94 144T75 277V674H163ZM473 827L345 710H274L366 827H473Z"  />
<glyph unicode="&#xDB;" horiz-adv-x="647" d="M163 674V275Q163 218 175 178T208 111T257 73T320 60Q395 60 439 111T484 275V674H572V281Q572 203 553 148T499 58T419 6T317 -11Q265 -11 221 4T145 54T94 144T75 277V674H163ZM362 824L467 710H393L330 779H328L264 710H193L295 824H362Z"  />
<glyph unicode="&#xDC;" horiz-adv-x="647" d="M163 674V275Q163 218 175 178T208 111T257 73T320 60Q395 60 439 111T484 275V674H572V281Q572 203 553 148T499 58T419 6T317 -11Q265 -11 221 4T145 54T94 144T75 277V674H163ZM233 721Q211 721 198 736T184 772Q184 792 198 807T234 822Q254 822 268 808T282 772Q282 751 269 736T233 721ZM419 721Q396 721 383 736T370 772Q370 792 384 807T419 822Q440 822 453 808T467 772Q467 751 454 736T419 721Z"  />
<glyph unicode="&#xDD;" horiz-adv-x="541" d="M226 0V286L13 674H112L207 488Q227 450 242 417T274 349H276Q290 382 307 416T344 488L441 674H540L314 287V0H226ZM426 821L299 705H227L320 821H426Z"  />
<glyph unicode="&#xDE;" horiz-adv-x="531" d="M76 674H162V542Q205 550 258 550Q318 550 361 536T436 495Q462 470 476 437T491 364Q491 311 472 271T419 205T339 165T238 151Q217 151 198 152T162 156V0H76V674ZM162 227Q179 223 198 222T237 221Q318 221 361 257T404 355Q404 421 362 451T250 481Q220 481 197 479T162 473V227Z"  />
<glyph unicode="&#xDF;" horiz-adv-x="548" d="M73 0V452Q73 538 92 589T144 670Q201 721 291 721Q327 721 359 710T415 678T454 625T469 552Q469 526 462 504T446 470Q412 456 393 436T374 389Q374 363 388 345T425 302Q440 287 454 271T480 237T499 197T506 148Q506 77 459 33T327 -11Q299 -11 271 -6T221 10L237 77Q277 57 321 57Q369 57 394 81T419 141Q419 173 406 196T365 244Q333 274 310 304T287 377Q287 415 310 447T376 500Q380 509 382 519T385 543Q385 595 357 623T281 652Q223 652 192 607T161 456V0H73Z"  />
<glyph unicode="&#xE0;" horiz-adv-x="482" d="M341 0L334 61H331Q311 32 273 11T183 -11Q146 -11 119 1T73 32T45 77T35 128Q35 216 110 262T326 308V318Q326 333 323 352T308 389T275 418T216 430Q182 430 149 421T90 394L70 452Q100 472 141 483T229 495Q284 495 320 478T376 432T405 369T413 297V116Q413 84 414 55T421 0H341ZM328 247Q292 248 256 244T190 229T142 195T123 138Q123 95 147 75T206 54Q254 54 283 79T323 135Q328 150 328 163V247ZM192 693L279 550H217L95 693H192Z"  />
<glyph unicode="&#xE1;" horiz-adv-x="482" d="M341 0L334 61H331Q311 32 273 11T183 -11Q146 -11 119 1T73 32T45 77T35 128Q35 216 110 262T326 308V318Q326 333 323 352T308 389T275 418T216 430Q182 430 149 421T90 394L70 452Q100 472 141 483T229 495Q284 495 320 478T376 432T405 369T413 297V116Q413 84 414 55T421 0H341ZM328 247Q292 248 256 244T190 229T142 195T123 138Q123 95 147 75T206 54Q254 54 283 79T323 135Q328 150 328 163V247ZM372 693L250 550H187L275 693H372Z"  />
<glyph unicode="&#xE2;" horiz-adv-x="482" d="M341 0L334 61H331Q311 32 273 11T183 -11Q146 -11 119 1T73 32T45 77T35 128Q35 216 110 262T326 308V318Q326 333 323 352T308 389T275 418T216 430Q182 430 149 421T90 394L70 452Q100 472 141 483T229 495Q284 495 320 478T376 432T405 369T413 297V116Q413 84 414 55T421 0H341ZM328 247Q292 248 256 244T190 229T142 195T123 138Q123 95 147 75T206 54Q254 54 283 79T323 135Q328 150 328 163V247ZM266 693L362 550H295L237 645H235L177 550H111L205 693H266Z"  />
<glyph unicode="&#xE3;" horiz-adv-x="482" d="M341 0L334 61H331Q311 32 273 11T183 -11Q146 -11 119 1T73 32T45 77T35 128Q35 216 110 262T326 308V318Q326 333 323 352T308 389T275 418T216 430Q182 430 149 421T90 394L70 452Q100 472 141 483T229 495Q284 495 320 478T376 432T405 369T413 297V116Q413 84 414 55T421 0H341ZM328 247Q292 248 256 244T190 229T142 195T123 138Q123 95 147 75T206 54Q254 54 283 79T323 135Q328 150 328 163V247ZM115 567Q113 616 132 643T183 671Q200 671 214 665T245 649Q257 642 267 637T287 632Q299 632 306 640T315 675H361Q364 574 293 574Q277 574 263 580T232 594Q217 603 208 607T189 612Q177 612 171 600T163 567H115Z"  />
<glyph unicode="&#xE4;" horiz-adv-x="482" d="M341 0L334 61H331Q311 32 273 11T183 -11Q146 -11 119 1T73 32T45 77T35 128Q35 216 110 262T326 308V318Q326 333 323 352T308 389T275 418T216 430Q182 430 149 421T90 394L70 452Q100 472 141 483T229 495Q284 495 320 478T376 432T405 369T413 297V116Q413 84 414 55T421 0H341ZM328 247Q292 248 256 244T190 229T142 195T123 138Q123 95 147 75T206 54Q254 54 283 79T323 135Q328 150 328 163V247ZM149 570Q126 570 112 585T98 621Q98 642 113 657T149 672Q170 672 184 658T198 621Q198 601 185 586T149 570ZM334 570Q311 570 298 585T284 621Q284 642 298 657T334 672Q355 672 369 658T383 621Q383 601 370 586T334 570Z"  />
<glyph unicode="&#xE5;" horiz-adv-x="482" d="M341 0L334 61H331Q311 32 273 11T183 -11Q146 -11 119 1T73 32T45 77T35 128Q35 216 110 262T326 308V318Q326 333 323 352T308 389T275 418T216 430Q182 430 149 421T90 394L70 452Q100 472 141 483T229 495Q284 495 320 478T376 432T405 369T413 297V116Q413 84 414 55T421 0H341ZM328 247Q292 248 256 244T190 229T142 195T123 138Q123 95 147 75T206 54Q254 54 283 79T323 135Q328 150 328 163V247ZM240 537Q195 537 167 563T139 628Q139 668 166 695T241 723Q286 723 313 696T340 629Q340 589 312 563T240 537ZM239 574Q263 574 277 590T291 630Q291 653 277 669T239 685Q216 685 203 668T190 628Q190 608 203 591T239 574Z"  />
<glyph unicode="&#xE6;" horiz-adv-x="773" d="M410 233Q409 190 420 157T451 102T501 69T564 57Q615 57 645 66T696 85L712 23Q683 7 642 -2T553 -11Q491 -11 441 17T369 96H367Q344 45 297 17T187 -11Q149 -11 121 0T74 31T46 76T36 127Q36 212 111 258T328 302V322Q328 331 324 349T308 385T274 416T215 430Q180 430 147 419T91 393L70 451Q102 471 143 483T221 495Q287 495 324 467T377 392H379Q404 440 447 467T548 495Q603 495 639 472T698 414T728 341T737 272Q737 261 737 251T734 233H410ZM329 243Q294 244 258 241T191 225T142 192T123 134Q123 96 147 75T207 54Q255 54 284 79T324 137Q327 145 328 154T329 172V243ZM652 296Q653 314 648 337T630 382T595 417T539 432Q506 432 482 419T443 385T419 341T409 296H652Z"  />
<glyph unicode="&#xE7;" horiz-adv-x="447" d="M419 18Q403 10 370 1T292 -10L267 -50Q294 -55 315 -73T337 -123Q337 -146 329 -161T306 -187T272 -201T233 -206Q216 -206 197 -202T163 -189L178 -144Q189 -151 203 -154T233 -157Q250 -157 263 -151T276 -126Q275 -106 254 -97T198 -84L240 -7Q194 -1 157 19T93 70T53 144T38 237Q38 293 56 340T109 421T191 475T298 494Q337 494 369 486T420 469L400 401Q384 410 359 417T298 424Q256 424 225 410T171 371T138 313T127 241Q127 199 139 166T174 109T228 73T295 60Q333 60 359 68T403 84L419 18Z"  />
<glyph unicode="&#xE8;" horiz-adv-x="501" d="M122 226Q123 181 136 150T172 98T225 68T288 58Q336 58 366 65T422 83L437 20Q414 9 374 0T276 -10Q220 -10 176 7T101 57T54 134T38 234Q38 289 53 336T98 419T170 474T265 495Q324 495 363 472T424 415T456 340T465 267Q465 253 464 243T462 226H122ZM380 289Q380 310 375 335T357 381T319 417T258 432Q225 432 201 418T160 383T135 337T123 289H380ZM232 693L320 550H257L135 693H232Z"  />
<glyph unicode="&#xE9;" horiz-adv-x="501" d="M122 226Q123 181 136 150T172 98T225 68T288 58Q336 58 366 65T422 83L437 20Q414 9 374 0T276 -10Q220 -10 176 7T101 57T54 134T38 234Q38 289 53 336T98 419T170 474T265 495Q324 495 363 472T424 415T456 340T465 267Q465 253 464 243T462 226H122ZM380 289Q380 310 375 335T357 381T319 417T258 432Q225 432 201 418T160 383T135 337T123 289H380ZM401 693L279 550H216L304 693H401Z"  />
<glyph unicode="&#xEA;" horiz-adv-x="501" d="M122 226Q123 181 136 150T172 98T225 68T288 58Q336 58 366 65T422 83L437 20Q414 9 374 0T276 -10Q220 -10 176 7T101 57T54 134T38 234Q38 289 53 336T98 419T170 474T265 495Q324 495 363 472T424 415T456 340T465 267Q465 253 464 243T462 226H122ZM380 289Q380 310 375 335T357 381T319 417T258 432Q225 432 201 418T160 383T135 337T123 289H380ZM292 693L388 550H321L263 645H261L203 550H137L232 693H292Z"  />
<glyph unicode="&#xEB;" horiz-adv-x="501" d="M122 226Q123 181 136 150T172 98T225 68T288 58Q336 58 366 65T422 83L437 20Q414 9 374 0T276 -10Q220 -10 176 7T101 57T54 134T38 234Q38 289 53 336T98 419T170 474T265 495Q324 495 363 472T424 415T456 340T465 267Q465 253 464 243T462 226H122ZM380 289Q380 310 375 335T357 381T319 417T258 432Q225 432 201 418T160 383T135 337T123 289H380ZM176 570Q153 570 139 585T125 621Q125 642 140 657T176 672Q197 672 211 658T225 621Q225 601 212 586T176 570ZM361 570Q338 570 325 585T311 621Q311 642 325 657T361 672Q382 672 396 658T410 621Q410 601 397 586T361 570Z"  />
<glyph unicode="&#xEC;" horiz-adv-x="234" d="M73 0V484H161V0H73ZM69 693L157 550H95L-27 693H69Z"  />
<glyph unicode="&#xED;" horiz-adv-x="234" d="M73 0V484H161V0H73ZM252 693L130 550H67L155 693H252Z"  />
<glyph unicode="&#xEE;" horiz-adv-x="234" d="M73 0V484H161V0H73ZM147 693L243 550H175L117 645H115L57 550H-8L86 693H147Z"  />
<glyph unicode="&#xEF;" horiz-adv-x="234" d="M73 0V484H161V0H73ZM25 570Q2 570 -12 585T-26 621Q-26 642 -11 657T25 672Q46 672 60 658T74 621Q74 601 61 586T25 570ZM210 570Q187 570 174 585T160 621Q160 642 174 657T210 672Q231 672 245 658T259 621Q259 601 246 586T210 570Z"  />
<glyph unicode="&#xF0;" horiz-adv-x="541" d="M267 55Q300 55 326 69T372 108T401 167T411 243Q411 291 404 322T377 377Q360 396 335 410T271 424Q232 424 205 406T160 361T135 300T127 237Q127 199 137 166T166 108T211 69T267 55ZM97 550L213 605Q190 622 164 636T109 665L147 720Q183 703 219 683T288 639L416 700L437 656L331 606Q373 572 405 532T459 447Q479 405 490 357T501 253Q501 183 481 133T428 51T353 4T267 -11Q218 -11 176 6T104 56T56 133T38 236Q38 295 57 341T107 419T179 467T263 484Q291 484 318 476T374 441L376 444Q354 480 325 512T258 573L116 507L97 550Z"  />
<glyph unicode="&#xF1;" horiz-adv-x="555" d="M73 353Q73 391 72 422T69 484H147L152 404H154Q163 421 178 437T213 466T258 487T314 495Q339 495 369 486T424 454T467 391T485 289V0H397V279Q397 308 391 334T372 379T338 410T285 422Q241 422 210 396T167 332Q161 315 161 291V0H73V353ZM155 567Q153 616 172 643T223 671Q240 671 254 665T285 649Q297 642 307 637T327 632Q339 632 346 640T355 675H402Q404 574 333 574Q317 574 303 580T272 594Q257 603 248 607T229 612Q217 612 211 600T203 567H155Z"  />
<glyph unicode="&#xF2;" horiz-adv-x="549" d="M278 495Q330 495 373 477T446 426T494 347T511 246Q511 179 490 131T435 51T357 4T270 -11Q221 -11 179 6T105 56T56 134T38 238Q38 299 56 346T107 427T184 477T278 495ZM276 429Q237 429 209 413T163 370T136 309T127 241Q127 201 138 167T168 108T215 69T274 55Q305 55 332 69T379 108T410 167T421 243Q421 274 413 307T388 367T343 411T276 429ZM242 693L329 550H267L145 693H242Z"  />
<glyph unicode="&#xF3;" horiz-adv-x="549" d="M278 495Q330 495 373 477T446 426T494 347T511 246Q511 179 490 131T435 51T357 4T270 -11Q221 -11 179 6T105 56T56 134T38 238Q38 299 56 346T107 427T184 477T278 495ZM276 429Q237 429 209 413T163 370T136 309T127 241Q127 201 138 167T168 108T215 69T274 55Q305 55 332 69T379 108T410 167T421 243Q421 274 413 307T388 367T343 411T276 429ZM406 693L284 550H221L309 693H406Z"  />
<glyph unicode="&#xF4;" horiz-adv-x="549" d="M278 495Q330 495 373 477T446 426T494 347T511 246Q511 179 490 131T435 51T357 4T270 -11Q221 -11 179 6T105 56T56 134T38 238Q38 299 56 346T107 427T184 477T278 495ZM276 429Q237 429 209 413T163 370T136 309T127 241Q127 201 138 167T168 108T215 69T274 55Q305 55 332 69T379 108T410 167T421 243Q421 274 413 307T388 367T343 411T276 429ZM304 693L400 550H332L274 645H272L214 550H149L243 693H304Z"  />
<glyph unicode="&#xF5;" horiz-adv-x="549" d="M278 495Q330 495 373 477T446 426T494 347T511 246Q511 179 490 131T435 51T357 4T270 -11Q221 -11 179 6T105 56T56 134T38 238Q38 299 56 346T107 427T184 477T278 495ZM276 429Q237 429 209 413T163 370T136 309T127 241Q127 201 138 167T168 108T215 69T274 55Q305 55 332 69T379 108T410 167T421 243Q421 274 413 307T388 367T343 411T276 429ZM151 567Q149 616 168 643T219 671Q236 671 250 665T281 649Q293 642 303 637T323 632Q335 632 342 640T351 675H398Q400 574 329 574Q313 574 299 580T268 594Q253 603 244 607T225 612Q213 612 207 600T199 567H151Z"  />
<glyph unicode="&#xF6;" horiz-adv-x="549" d="M278 495Q330 495 373 477T446 426T494 347T511 246Q511 179 490 131T435 51T357 4T270 -11Q221 -11 179 6T105 56T56 134T38 238Q38 299 56 346T107 427T184 477T278 495ZM276 429Q237 429 209 413T163 370T136 309T127 241Q127 201 138 167T168 108T215 69T274 55Q305 55 332 69T379 108T410 167T421 243Q421 274 413 307T388 367T343 411T276 429ZM182 570Q159 570 145 585T131 621Q131 642 146 657T182 672Q203 672 217 658T231 621Q231 601 218 586T182 570ZM367 570Q344 570 331 585T317 621Q317 642 331 657T367 672Q388 672 402 658T416 621Q416 601 403 586T367 570Z"  />
<glyph unicode="&#xF7;" horiz-adv-x="596" d="M298 387Q274 387 260 403T245 442Q245 467 260 482T299 498Q322 498 336 483T351 442Q351 419 337 403T298 387ZM40 237V297H556V237H40ZM298 36Q274 36 260 52T245 91Q245 116 260 131T299 147Q322 147 336 132T351 91Q351 68 337 52T298 36Z"  />
<glyph unicode="&#xF8;" horiz-adv-x="549" d="M276 495Q344 495 399 460L441 520L480 493L438 431Q473 397 492 350T511 246Q511 179 490 131T436 51T360 4T275 -11Q241 -11 209 -3T151 23L108 -38L71 -8L113 52Q78 85 58 132T38 239Q38 299 56 346T107 427T183 477T276 495ZM359 400Q342 414 321 421T274 429Q233 429 205 412T158 368T132 308T123 241Q123 209 131 178T159 120L161 119L359 400ZM191 83Q208 68 228 62T272 55Q306 55 334 69T383 108T414 167T425 243Q425 268 418 300T391 361H389L191 83Z"  />
<glyph unicode="&#xF9;" horiz-adv-x="551" d="M478 132Q478 94 479 62T482 0H404L399 79H397Q388 64 374 49T341 20T295 -2T237 -11Q208 -11 179 -2T125 31T86 96T70 201V484H158V216Q158 147 182 105T266 62Q288 62 306 69T340 87T365 113T382 142Q390 163 390 187V484H478V132ZM237 693L325 550H262L140 693H237Z"  />
<glyph unicode="&#xFA;" horiz-adv-x="551" d="M478 132Q478 94 479 62T482 0H404L399 79H397Q388 64 374 49T341 20T295 -2T237 -11Q208 -11 179 -2T125 31T86 96T70 201V484H158V216Q158 147 182 105T266 62Q288 62 306 69T340 87T365 113T382 142Q390 163 390 187V484H478V132ZM418 693L296 550H233L321 693H418Z"  />
<glyph unicode="&#xFB;" horiz-adv-x="551" d="M478 132Q478 94 479 62T482 0H404L399 79H397Q388 64 374 49T341 20T295 -2T237 -11Q208 -11 179 -2T125 31T86 96T70 201V484H158V216Q158 147 182 105T266 62Q288 62 306 69T340 87T365 113T382 142Q390 163 390 187V484H478V132ZM305 693L401 550H334L276 645H274L216 550H150L244 693H305Z"  />
<glyph unicode="&#xFC;" horiz-adv-x="551" d="M478 132Q478 94 479 62T482 0H404L399 79H397Q388 64 374 49T341 20T295 -2T237 -11Q208 -11 179 -2T125 31T86 96T70 201V484H158V216Q158 147 182 105T266 62Q288 62 306 69T340 87T365 113T382 142Q390 163 390 187V484H478V132ZM186 570Q163 570 149 585T135 621Q135 642 150 657T186 672Q207 672 221 658T235 621Q235 601 222 586T186 570ZM371 570Q348 570 335 585T321 621Q321 642 335 657T371 672Q392 672 406 658T420 621Q420 601 407 586T371 570Z"  />
<glyph unicode="&#xFD;" horiz-adv-x="471" d="M105 484L211 198Q219 174 227 148T242 99H244Q251 121 258 147T275 200L371 484H464L332 139Q308 77 288 29T248 -55T208 -118T166 -164Q134 -193 105 -205T58 -221L36 -147Q53 -142 73 -132T113 -104Q131 -90 151 -65T187 -6Q194 10 194 15Q194 21 188 38L9 484H105ZM382 693L260 550H197L285 693H382Z"  />
<glyph unicode="&#xFE;" horiz-adv-x="569" d="M160 710V407H162Q187 447 227 471T327 495Q370 495 407 478T471 428T515 350T531 248Q531 182 512 133T462 52T392 5T311 -11Q263 -11 224 9T162 65H160V-198H73V710H160ZM160 191Q160 169 170 147Q184 105 219 82T298 58Q364 58 403 108T443 247Q443 283 434 315T406 372T361 410T300 425Q258 425 222 400T170 329Q166 318 163 305T160 280V191Z"  />
<glyph unicode="&#xFF;" horiz-adv-x="471" d="M105 484L211 198Q219 174 227 148T242 99H244Q251 121 258 147T275 200L371 484H464L332 139Q308 77 288 29T248 -55T208 -118T166 -164Q134 -193 105 -205T58 -221L36 -147Q53 -142 73 -132T113 -104Q131 -90 151 -65T187 -6Q194 10 194 15Q194 21 188 38L9 484H105ZM155 570Q132 570 118 585T104 621Q104 642 119 657T155 672Q176 672 190 658T204 621Q204 601 191 586T155 570ZM340 570Q317 570 304 585T290 621Q290 642 304 657T341 672Q361 672 375 658T389 621Q389 601 376 586T340 570Z"  />
<glyph unicode="&#x152;" horiz-adv-x="894" d="M857 0H512Q497 0 481 -2T446 -6Q427 -8 407 -9T363 -11Q285 -11 224 15T121 88T58 197T36 332Q36 415 60 480T129 591T234 661T368 685Q394 685 415 684T456 680Q475 678 490 676T520 674H842V601H565V388H826V315H565V73H857V0ZM477 599Q457 606 432 610T371 614Q314 614 269 594T193 537T146 449T129 336Q129 274 145 224T194 137T273 80T379 60Q407 60 433 63T477 73V599Z"  />
<glyph unicode="&#x153;" horiz-adv-x="863" d="M495 227Q495 186 507 155T541 102T592 69T656 58Q701 58 731 66T786 85L802 22Q787 14 769 8T729 -3T687 -9T645 -11Q582 -11 533 16T454 103H451Q437 74 417 53T372 17T320 -4T264 -11Q216 -11 175 6T103 56T56 135T38 239Q38 298 56 345T105 426T179 477T270 495Q332 495 381 465T453 379H455Q482 437 528 466T631 495Q689 495 727 472T787 414T818 340T827 268Q827 240 824 227H495ZM271 429Q231 429 204 412T159 367T135 306T127 241Q127 202 137 168T167 109T213 70T271 55Q303 55 329 68T374 107T403 166T413 242Q413 276 405 310T380 370T335 412T271 429ZM742 290Q742 310 738 334T720 380T683 416T624 431Q591 431 568 418T529 384T505 338T495 290H742Z"  />
<glyph unicode="&#x160;" horiz-adv-x="493" d="M64 106Q93 88 134 75T220 62Q287 62 324 94T361 177Q361 224 332 254T234 311Q151 340 104 385T56 502Q56 541 71 574T115 632T184 671T274 685Q326 685 363 675T423 652L399 581Q382 590 350 601T271 613Q236 613 212 604T173 580T151 547T144 512Q144 465 176 437T278 382Q363 349 406 304T450 184Q450 145 436 110T392 48T318 6T214 -10Q165 -10 117 2T42 33L64 106ZM225 713L120 827H194L258 757H260L323 827H394L292 713H225Z"  />
<glyph unicode="&#x161;" horiz-adv-x="396" d="M61 90Q81 77 112 66T177 55Q225 55 248 76T271 127Q271 159 251 178T181 216Q115 239 84 274T53 353Q53 382 64 408T97 453T150 484T220 495Q257 495 288 486T339 465L317 401Q303 410 278 419T218 429Q179 429 158 410T137 363Q137 333 159 316T229 281Q292 257 324 223T356 135Q356 71 309 31T175 -10Q135 -10 100 -1T39 23L61 90ZM171 550L75 693H143L202 598H204L263 693H329L235 550H171Z"  />
<glyph unicode="&#x178;" horiz-adv-x="541" d="M226 0V286L13 674H112L207 488Q227 450 242 417T274 349H276Q290 382 307 416T344 488L441 674H540L314 287V0H226ZM187 714Q165 714 152 729T138 765Q138 785 152 800T188 815Q208 815 221 801T235 765Q235 744 222 729T187 714ZM372 714Q350 714 337 729T324 765Q324 785 338 800T373 815Q394 815 407 801T421 765Q421 744 408 729T372 714Z"  />
<glyph unicode="&#x17D;" horiz-adv-x="553" d="M30 51L404 598V601H62V674H517V621L145 76V73H522V0H30V51ZM253 710L149 824H222L286 755H288L352 824H423L320 710H253Z"  />
<glyph unicode="&#x17E;" horiz-adv-x="428" d="M18 51L237 336Q253 356 268 373T300 411V413H38V484H407L406 429L190 148Q175 128 160 110T128 72V70H411V0H18V51ZM195 550L99 693H167L226 598H228L287 693H353L259 550H195Z"  />
<glyph unicode="&#x192;" horiz-adv-x="513" d="M111 401H210L216 447Q220 484 231 522T265 591T321 641T407 661Q430 660 447 656T475 646L459 582Q448 587 435 589T407 592Q381 592 363 581T332 550T312 506T301 453L295 401H415V338H287L263 133Q257 85 246 45T214 -23T164 -68T89 -84Q64 -84 44 -80T11 -68L27 -5Q50 -16 83 -16Q130 -16 150 24T180 141L203 338H111V401Z"  />
<glyph unicode="&#x2C6;" horiz-adv-x="300" d="M180 693L276 550H208L150 645H148L90 550H25L119 693H180Z"  />
<glyph unicode="&#x2DC;" horiz-adv-x="300" d="M27 567Q25 616 44 643T95 671Q112 671 126 665T157 649Q169 642 179 637T199 632Q211 632 218 640T227 675H274Q276 574 205 574Q189 574 175 580T144 594Q129 603 120 607T101 612Q89 612 83 600T75 567H27Z"  />
<glyph unicode="&#x2013;" horiz-adv-x="500" d="M470 284V224H30V284H470Z"  />
<glyph unicode="&#x2014;" horiz-adv-x="1000" d="M970 284V224H30V284H970Z"  />
<glyph unicode="&#x2018;" horiz-adv-x="207" d="M35 441Q44 472 55 507T80 574T105 634T128 679L184 685Q176 663 168 634T151 573T136 510T125 451L35 441Z"  />
<glyph unicode="&#x2019;" horiz-adv-x="207" d="M184 685Q175 653 164 619T139 552T113 493T90 448L34 441Q42 463 51 492T68 553T82 617T93 676L184 685Z"  />
<glyph unicode="&#x201A;" horiz-adv-x="207" d="M21 -118Q29 -96 37 -67T54 -6T68 57T79 116L170 126Q161 94 150 60T125 -7T99 -66T76 -111L21 -118Z"  />
<glyph unicode="&#x201C;" horiz-adv-x="354" d="M34 441Q43 472 54 507T79 574T104 634T128 679L184 685Q176 663 167 634T150 573T136 510T125 451L34 441ZM183 441Q191 472 203 507T227 574T253 634T276 679L332 685Q324 663 315 634T298 573T284 510T273 451L183 441Z"  />
<glyph unicode="&#x201D;" horiz-adv-x="354" d="M183 685Q174 653 163 619T138 552T113 493T90 448L34 441Q42 463 50 492T67 553T82 617T93 676L183 685ZM331 685Q322 653 311 619T286 552T261 493T238 448L182 441Q190 463 199 492T216 553T230 617T241 676L331 685Z"  />
<glyph unicode="&#x201E;" horiz-adv-x="356" d="M20 -118Q28 -96 37 -67T54 -6T68 57T79 116L169 126Q161 94 149 60T125 -7T99 -66T76 -111L20 -118ZM168 -118Q176 -96 185 -67T202 -6T216 57T227 116L318 126Q309 94 298 60T273 -7T247 -66T224 -111L168 -118Z"  />
<glyph unicode="&#x2020;" horiz-adv-x="500" d="M291 674L283 463L457 470V398L283 406L291 -50H209L217 406L43 398V470L217 463L209 674H291Z"  />
<glyph unicode="&#x2021;" horiz-adv-x="500" d="M291 674L284 473L457 481V409L284 416V212L457 220V148L284 155L291 -50H210L215 155L43 148V220L216 212V416L43 409V481L216 473L210 674H291Z"  />
<glyph unicode="&#x2022;" horiz-adv-x="282" d="M141 157Q97 157 67 186T36 261Q36 283 44 302T66 335T100 358T141 366Q163 366 182 358T215 336T237 303T246 262Q246 217 216 187T141 157Z"  />
<glyph unicode="&#x2026;" horiz-adv-x="1000" d="M167 -11Q141 -11 124 7T108 52Q108 80 124 97T167 115Q194 115 210 98T226 52Q226 25 210 7T167 -11ZM500 -11Q474 -11 457 7T441 52Q441 80 458 97T501 115Q527 115 543 98T560 52Q560 25 544 7T500 -11ZM833 -11Q807 -11 791 7T774 52Q774 80 791 97T834 115Q860 115 876 98T893 52Q893 25 877 7T833 -11Z"  />
<glyph unicode="&#x2030;" horiz-adv-x="1156" d="M611 392Q680 392 720 342T761 198Q761 147 749 109T715 45T665 6T606 -7Q576 -7 549 5T500 41T467 102T454 188Q454 237 466 275T500 339T550 378T611 392ZM608 339Q587 339 572 328T545 296T529 250T523 192Q523 161 528 134T544 88T571 57T608 46Q651 46 671 87T692 194Q692 224 688 250T673 296T647 327T608 339ZM975 392Q1044 392 1085 342T1126 198Q1126 147 1114 109T1080 45T1030 6T970 -7Q940 -7 913 5T864 41T831 102T818 188Q818 237 830 275T864 339T914 378T975 392ZM973 339Q952 339 937 328T910 296T894 250T888 192Q887 161 892 134T908 88T935 57T972 46Q1016 46 1036 87T1056 194Q1056 224 1052 250T1038 296T1012 327T973 339ZM187 661Q256 661 297 611T338 467Q338 416 326 378T292 314T242 275T182 262Q152 262 125 274T76 310T43 372T30 458Q30 507 42 544T76 608T126 647T187 661ZM184 608Q163 608 148 597T122 565T106 519T100 461Q99 430 104 403T120 357T147 326T184 315Q227 315 247 356T268 463Q268 493 264 519T249 565T223 596T184 608ZM176 -11L558 661H614L232 -11H176Z"  />
<glyph unicode="&#x2039;" horiz-adv-x="255" d="M98 252L232 68H161L29 252L161 436H232L98 252Z"  />
<glyph unicode="&#x203A;" horiz-adv-x="255" d="M23 436H93L227 252L94 68H23L157 252L23 436Z"  />
<glyph unicode="&#x20AC;" horiz-adv-x="513" d="M496 31Q473 15 435 2T347 -11Q286 -11 234 11T144 78Q115 110 97 153T72 250H10V299H67V314Q67 326 67 337T69 359H10V409H76Q85 462 106 504T158 578Q196 618 245 639T356 661Q401 661 434 651T489 629L469 563Q450 574 421 582T357 591Q277 591 225 536Q202 514 188 482T165 409H444V359H156Q155 349 155 339T154 317V299H444V250H161Q167 206 181 174T216 119Q244 90 280 76T357 61Q397 61 429 72T479 94L496 31Z"  />
<glyph unicode="&#x2122;" horiz-adv-x="619" d="M258 674V629H171V402H117V629H30V674H258ZM552 402L542 562Q541 578 541 597T540 638H537Q532 620 526 598T514 557L465 406H409L360 561Q356 577 351 598T341 638H338Q338 619 338 600T336 562L326 402H274L294 674H375L422 541Q427 525 431 509T440 472H441Q446 491 450 508T460 540L507 674H585L606 402H552Z"  />


</font>
</defs>
</svg>
