<?xml  version="1.0" encoding="UTF-8"?>
<!DOCTYPE svg PUBLIC "-//W3C//DTD SVG 1.0//EN" "http://www.w3.org/TR/2001/REC-SVG-20010904/DTD/svg10.dtd" >
<svg xmlns="http://www.w3.org/2000/svg" >
<metadata>
<version>1.0</version>
<id><![CDATA[Myriad W01 Bd]]></id>
<vendor>Monotype Imaging Inc.</vendor>
<credits>
<name>Fonts.com WebFonts</name>
<URL>http://webfonts.fonts.com</URL>
<role>Home of the Web fonts</role>
</credits>
<license>
<URL>http://webfonts.fonts.com/Legal</URL>
</license>
<copyright><![CDATA[© 1992, 1994, 1997, 2000, 2004 Adobe Systems Incorporated. All rights reserved.]]></copyright>
<trademark><![CDATA[Myriad is either a registered trademark or a trademark of Adobe Systems Incorporated in the United States and/or other countries.]]></trademark>
<licensee>
<name></name>
</licensee>
</metadata>
<defs >
<font horiz-adv-x="521" id="c5dceae7-427a-4765-b06b-ea2eecca3434">
<font-face font-family="" panose-1="2 11 7 3 3 4 3 2 2 4" ascent="898" descent="-250" units-per-em="1000" alphabetic="0">
</font-face>
<missing-glyph horiz-adv-x="202" />

<glyph unicode="&#xA;" horiz-adv-x="0" />
<glyph unicode="&#xD;" horiz-adv-x="202" />
<glyph unicode=" " horiz-adv-x="202" />
<glyph unicode="!" horiz-adv-x="268" d="M77 221L54 674H213L191 221H77ZM134 -11Q93 -11 69 15T44 80Q44 120 69 145T134 171Q174 171 198 146T223 80Q223 41 199 15T134 -11Z"  />
<glyph unicode="&quot;" horiz-adv-x="397" d="M170 685L147 414H58L35 685H170ZM362 685L339 414H250L227 685H362Z"  />
<glyph unicode="#" horiz-adv-x="550" d="M314 271L330 383H239L223 271H314ZM92 0L118 179H37V271H134L150 383H65V476H164L189 650H278L253 476H344L370 650H459L433 476H513V383H419L403 271H486V179H388L363 0H273L298 179H207L182 0H92Z"  />
<glyph unicode="$" horiz-adv-x="555" d="M225 -87V8Q174 10 129 22T55 51L85 168Q117 151 159 138T251 124Q294 124 320 140T347 186Q347 215 322 234T241 273Q201 286 168 303T111 341T74 391T61 456Q61 522 105 570T230 634V729H328V641Q379 639 413 630T473 608L444 495Q424 503 389 516T300 529Q251 529 233 512T214 473Q214 448 242 430T334 387Q423 355 462 311T501 200Q501 167 490 137T456 82T400 40T323 15V-87H225Z"  />
<glyph unicode="%" horiz-adv-x="880" d="M209 661Q251 661 283 647T338 606T372 545T384 468Q384 417 369 379T329 314T272 274T204 261Q167 261 135 274T78 313T41 375T27 457Q27 500 40 537T76 602T133 645T209 661ZM206 578Q172 578 156 544T140 461Q140 410 157 377T207 344Q239 344 255 375T271 461Q271 511 256 544T206 578ZM212 -11L585 661H667L293 -11H212ZM677 391Q719 391 751 377T806 336T840 275T852 198Q852 147 837 109T797 44T740 4T672 -9Q635 -9 603 4T547 43T509 105T495 187Q495 230 508 267T544 332T601 375T677 391ZM675 308Q640 308 625 274T609 191Q608 140 625 107T675 74Q707 74 723 105T739 191Q739 241 725 274T675 308Z"  />
<glyph unicode="&amp;" horiz-adv-x="678" d="M495 0Q484 11 474 22T451 48Q418 22 372 6T266 -11Q205 -11 161 5T88 49T45 110T31 180Q31 247 66 295T159 373V377Q137 401 123 436T108 507Q108 539 120 570T158 627T221 669T310 685Q349 685 382 674T440 643T479 593T493 527Q493 476 462 433T360 354L359 350Q388 318 417 284T472 224Q492 256 507 299T529 388H665Q651 311 625 247T553 132Q582 100 611 67T672 0H495ZM287 99Q317 99 341 109T380 133Q348 165 309 208T228 298Q207 283 191 261T175 205Q175 162 205 131T287 99ZM305 590Q276 590 260 569T244 521Q244 495 255 472T290 424Q327 450 345 472T364 523Q364 547 350 568T305 590Z"  />
<glyph unicode="&apos;" horiz-adv-x="205" d="M170 685L147 414H58L35 685H170Z"  />
<glyph unicode="(" horiz-adv-x="314" d="M280 691Q237 622 208 522T179 286Q179 153 208 54T280 -116H174Q154 -87 134 -48T97 42T70 153T60 287Q60 360 70 421T97 532T133 622T174 691H280Z"  />
<glyph unicode=")" horiz-adv-x="314" d="M35 -116Q76 -47 106 54T136 288Q136 421 107 521T35 691H141Q161 662 181 623T217 534T244 423T255 288Q255 215 245 154T218 42T181 -47T141 -116H35Z"  />
<glyph unicode="*" horiz-adv-x="454" d="M372 635L264 508L265 505L424 537V436L264 464L263 461L372 338L283 286L226 441L224 440L166 286L80 338L187 463V465L30 436V537L185 506L186 508L80 634L169 685L225 532H227L284 685L372 635Z"  />
<glyph unicode="+" horiz-adv-x="596" d="M347 532V314H556V220H347V0H249V220H40V314H249V532H347Z"  />
<glyph unicode="&#x2c;" horiz-adv-x="260" d="M2 -119Q25 -52 44 22T74 165L229 175Q204 98 172 24T103 -110L2 -119Z"  />
<glyph unicode="-" horiz-adv-x="322" d="M292 313V212H30V313H292Z"  />
<glyph unicode="." horiz-adv-x="260" d="M139 -11Q100 -11 75 15T50 81Q50 122 75 148T140 174Q180 174 204 149T229 81Q229 41 205 15T139 -11Z"  />
<glyph unicode="/" horiz-adv-x="331" d="M16 -40L230 685H331L117 -40H16Z"  />
<glyph unicode="0" horiz-adv-x="555" d="M280 661Q345 661 391 634T466 561T508 455T522 328Q522 253 507 191T461 83T384 14T275 -11Q212 -11 167 15T91 87T47 194T32 324Q32 394 47 455T93 563T170 635T280 661ZM278 546Q236 546 210 492T185 324Q184 212 209 158T279 104Q370 104 370 326Q370 435 347 490T278 546Z"  />
<glyph unicode="1" horiz-adv-x="555" d="M236 515H234L110 456L85 570L257 650H383V0H236V515Z"  />
<glyph unicode="2" horiz-adv-x="555" d="M42 0V92L126 168Q179 216 219 254T285 325T324 386T339 444Q339 484 314 511T232 539Q190 539 155 522T93 485L50 594Q87 622 142 641T263 661Q318 661 360 646T432 603T476 539T491 457Q491 416 477 379T440 308T385 241T318 177L258 127V125H503V0H42Z"  />
<glyph unicode="3" horiz-adv-x="555" d="M69 149Q79 144 95 137T131 124T174 114T220 109Q280 109 309 134T339 196Q339 220 328 237T299 266T257 283T208 289H146V398H205Q224 398 244 402T282 415T310 438T321 473Q321 502 297 521T225 541Q205 541 185 537T147 528T114 515T89 502L58 612Q87 631 141 646T259 661Q311 661 351 648T419 613T461 562T475 499Q475 447 446 408T356 348V346Q385 341 411 328T456 294T486 247T497 188Q497 145 479 109T426 46T342 4T231 -11Q168 -11 118 3T38 35L69 149Z"  />
<glyph unicode="4" horiz-adv-x="555" d="M311 0V155H23V254L269 650H455V269H533V155H455V0H311ZM311 269V413Q311 442 312 472T316 534H312Q296 502 283 473T252 413L165 271V269H311Z"  />
<glyph unicode="5" horiz-adv-x="555" d="M476 525H224L210 425Q221 427 230 427T252 427Q299 427 343 416T423 380Q460 355 481 315T502 217Q502 172 483 131T428 58T341 8T223 -11Q163 -11 116 0T42 26L69 140Q91 129 131 119T216 108Q240 108 263 114T304 132T334 162T346 207Q346 258 304 286T163 315Q136 315 116 314T75 309L118 650H476V525Z"  />
<glyph unicode="6" horiz-adv-x="555" d="M457 542Q444 543 430 543T398 540Q347 536 310 522T248 486T207 439T186 384H189Q213 409 247 422T327 436Q368 436 404 422T468 381T512 315T528 224Q528 176 511 133T461 58T385 8T288 -11Q223 -11 175 11T94 73T46 163T30 273Q30 365 61 439T145 562Q242 650 396 658Q417 660 431 660T457 659V542ZM286 101Q327 101 350 133T374 216Q374 261 350 294T277 328Q246 328 222 312T187 270Q181 258 181 232Q182 206 189 183T209 141T241 112T286 101Z"  />
<glyph unicode="7" horiz-adv-x="555" d="M508 650V554L240 0H79L347 523V525H49V650H508Z"  />
<glyph unicode="8" horiz-adv-x="555" d="M273 -11Q211 -11 166 5T91 46T47 104T32 170Q32 229 63 269T148 333V336Q100 360 77 397T54 478Q54 519 71 553T119 611T192 648T283 661Q340 661 380 646T447 607T486 554T498 494Q498 452 475 414T404 351V348Q428 339 449 325T487 290T513 243T523 186Q523 142 505 106T455 43T376 3T273 -11ZM279 94Q320 94 344 117T368 175Q368 218 340 244T266 282Q228 271 208 246T187 185Q187 167 193 151T211 122T240 102T279 94ZM276 558Q237 558 217 536T197 483Q197 450 223 429T289 395Q315 403 335 425T355 478Q355 508 337 533T276 558Z"  />
<glyph unicode="9" horiz-adv-x="555" d="M90 110Q104 108 118 108T156 110Q191 112 224 122T284 150Q347 194 366 270L363 271Q341 248 310 236T233 224Q192 224 155 238T90 278T46 342T30 427Q30 475 48 517T98 592T176 642T275 661Q338 661 384 639T460 578T506 489T521 381Q521 279 491 205T407 82Q313 -3 159 -9Q139 -11 121 -11T90 -9V110ZM271 550Q232 550 207 519T182 436Q182 394 204 363T274 332Q305 332 326 345T358 375Q362 382 364 390T366 413Q366 439 361 463T345 507T315 538T271 550Z"  />
<glyph unicode=":" horiz-adv-x="260" d="M139 312Q100 312 75 338T50 403Q50 444 75 469T140 495Q180 495 204 470T229 403Q229 364 205 338T139 312ZM139 -11Q100 -11 75 15T50 80Q50 120 75 146T140 172Q180 172 204 147T229 80Q229 41 205 15T139 -11Z"  />
<glyph unicode=";" horiz-adv-x="260" d="M2 -119Q25 -52 44 22T75 165L228 175Q203 98 171 24T102 -110L2 -119ZM145 312Q105 312 80 338T56 403Q56 444 80 469T145 495Q185 495 209 470T234 403Q234 364 210 338T145 312Z"  />
<glyph unicode="&lt;" horiz-adv-x="596" d="M58 309L538 532V426L175 267V265L538 106V0L58 223V309Z"  />
<glyph unicode="=" horiz-adv-x="596" d="M40 325V418H556V325H40ZM40 118V211H556V118H40Z"  />
<glyph unicode="&gt;" horiz-adv-x="596" d="M538 220L58 0V106L429 265V267L58 426V532L538 312V220Z"  />
<glyph unicode="?" horiz-adv-x="445" d="M138 218L137 244Q135 282 148 321T196 401Q220 430 237 454T254 505Q254 531 237 547T181 565Q156 565 129 557T82 535L48 644Q75 660 118 672T215 685Q264 685 300 673T360 639T395 589T407 529Q407 500 399 477T379 433T351 395T322 361Q294 330 282 300T271 236V218H138ZM201 -11Q161 -11 137 15T112 80Q112 120 137 145T201 171Q242 171 266 146T291 80Q291 41 267 15T201 -11Z"  />
<glyph unicode="@" horiz-adv-x="770" d="M457 345Q451 347 444 348T426 349Q401 349 380 338T342 307T317 262T308 207Q308 178 320 162T358 145Q372 145 385 153T411 175T431 209T443 250L457 345ZM546 -68Q501 -88 459 -96T363 -104Q301 -104 245 -83T145 -20T77 79T51 211Q51 287 77 356T153 478T271 561T425 592Q491 592 546 571T642 511T704 419T727 303Q727 248 713 204T673 129T612 82T537 65Q502 65 479 83T451 142H449Q402 65 320 65Q271 65 240 99T208 195Q208 241 224 283T271 357T344 408T442 428Q475 428 508 421T561 403L531 218Q516 132 556 131Q572 131 589 141T620 172T644 225T653 300Q653 349 638 391T592 464T517 513T414 531Q357 531 305 510T214 448T151 350T127 220Q127 157 146 109T199 27T280 -24T383 -42Q421 -42 459 -34T528 -10L546 -68Z"  />
<glyph unicode="A" horiz-adv-x="656" d="M223 173L175 0H17L223 674H423L632 0H468L416 173H223ZM394 287L352 430Q343 460 335 495T318 560H316Q308 530 301 495T285 430L245 287H394Z"  />
<glyph unicode="B" horiz-adv-x="604" d="M66 665Q81 668 103 670T151 675T205 678T263 679Q333 679 379 671T462 641Q497 622 520 589T543 509Q543 464 516 425T432 365V363Q490 347 528 305T566 197Q566 151 547 116T496 54Q459 25 396 9T231 -7Q174 -7 133 -4T66 3V665ZM217 407H267Q327 407 358 429T390 490Q390 528 362 548T282 568Q257 568 242 567T217 564V407ZM217 108Q228 106 242 106T276 106Q302 106 325 111T367 127T395 157T406 203Q406 228 396 246T366 276T322 292T269 298H217V108Z"  />
<glyph unicode="C" horiz-adv-x="595" d="M561 19Q540 8 495 -1T388 -10Q301 -10 235 15T124 86T58 193T35 327Q35 413 64 480T142 592T259 661T403 685Q463 685 506 676T569 655L538 534Q515 544 483 551T410 559Q365 559 326 545T257 504T212 434T195 336Q195 234 251 175T411 116Q446 116 480 122T538 138L561 19Z"  />
<glyph unicode="D" horiz-adv-x="696" d="M66 665Q108 672 161 675T272 679Q368 679 433 662T548 607Q601 568 631 506T662 353Q662 256 631 189T550 80Q496 35 418 14T239 -7Q179 -7 137 -4T66 3V665ZM219 115Q229 113 243 113T272 112Q324 112 366 126T438 169T484 243T500 348Q501 453 444 507T288 562Q262 562 246 560T219 556V115Z"  />
<glyph unicode="E" horiz-adv-x="534" d="M467 285H219V125H496V0H66V674H482V549H219V409H467V285Z"  />
<glyph unicode="F" horiz-adv-x="527" d="M66 674H478V549H219V395H461V271H219V0H66V674Z"  />
<glyph unicode="G" horiz-adv-x="682" d="M629 31Q611 25 587 19T533 6T470 -3T404 -7Q311 -7 244 16T130 84Q83 128 59 191T35 329Q35 413 64 478T145 589T266 657T420 681Q486 681 534 671T607 648L575 526Q547 538 511 546T418 555Q370 555 330 542T259 501T212 433T195 337Q195 285 210 244T254 175T321 131T407 116Q462 116 482 126V267H378V386H629V31Z"  />
<glyph unicode="H" horiz-adv-x="689" d="M219 674V415H470V674H622V0H470V282H219V0H66V674H219Z"  />
<glyph unicode="I" horiz-adv-x="285" d="M219 674V0H66V674H219Z"  />
<glyph unicode="J" horiz-adv-x="411" d="M198 674H350V248Q350 176 334 127T286 47T210 3T110 -11Q84 -11 53 -7T-1 5L16 128Q32 123 51 120T94 116Q118 116 137 122T169 143T190 185T198 250V674Z"  />
<glyph unicode="K" horiz-adv-x="614" d="M66 674H217V376H220Q231 396 243 414T266 450L419 674H606L383 387L618 0H440L275 291L217 220V0H66V674Z"  />
<glyph unicode="L" horiz-adv-x="511" d="M66 674H219V128H487V0H66V674Z"  />
<glyph unicode="M" horiz-adv-x="846" d="M636 258Q634 319 632 390T630 535H627Q611 470 592 402T552 274L470 11H351L279 272Q262 332 246 400T218 535H216Q213 466 211 393T204 256L192 0H51L94 674H297L363 449Q379 390 394 329T420 208H423Q437 267 453 330T487 450L559 674H758L795 0H646L636 258Z"  />
<glyph unicode="N" horiz-adv-x="690" d="M66 0V674H244L384 427Q414 373 442 313T494 196H497Q489 263 487 332T484 477V674H624V0H464L320 260Q290 314 259 376T203 498L200 497Q203 430 204 358T206 203V0H66Z"  />
<glyph unicode="O" horiz-adv-x="717" d="M363 685Q441 685 500 658T600 585T662 476T683 344Q683 261 659 195T592 84T487 14T352 -11Q277 -11 218 15T119 88T57 197T35 332Q35 408 58 472T124 584T227 658T363 685ZM359 564Q320 564 290 547T239 499T207 426T196 335Q196 285 207 244T240 173T291 127T360 110Q399 110 429 127T479 175T511 248T522 339Q522 384 512 425T480 497T429 546T359 564Z"  />
<glyph unicode="P" horiz-adv-x="581" d="M66 665Q101 671 151 675T272 679Q343 679 393 666T478 625Q510 599 530 559T550 469Q550 368 488 309Q449 272 393 255T269 238Q238 238 217 241V0H66V665ZM217 359Q234 355 268 355Q329 355 364 384T399 465Q399 512 368 538T280 564Q257 564 241 562T217 558V359Z"  />
<glyph unicode="Q" horiz-adv-x="717" d="M642 -116Q570 -95 507 -73T376 -21Q355 -13 329 -11Q272 -7 219 16T125 81T60 186T35 331Q35 407 58 471T124 583T228 658T364 685Q441 685 500 658T600 584T662 476T683 345Q683 288 671 239T637 152T586 87T523 44V40Q562 29 604 20T686 2L642 -116ZM359 110Q398 110 428 127T479 175T511 247T522 339Q522 385 512 426T480 497T429 546T360 564Q321 564 291 546T239 497T207 425T196 336Q196 288 207 247T239 175T290 128T359 110Z"  />
<glyph unicode="R" horiz-adv-x="593" d="M66 665Q103 671 155 675T269 679Q344 679 397 667T487 626Q549 576 549 485Q549 453 539 426T511 378T473 342T430 319V316Q465 302 486 270T520 190Q528 161 535 132T550 76T564 30T575 0H419Q411 14 399 54T372 157Q365 188 356 209T334 242T304 259T263 265H217V0H66V665ZM217 375H277Q334 375 366 401T398 472Q398 519 369 542T286 566Q258 566 242 565T217 561V375Z"  />
<glyph unicode="S" horiz-adv-x="540" d="M71 157Q102 141 146 128T240 115Q293 115 320 135T347 188Q347 220 321 240T234 283Q150 312 100 360T49 482Q49 525 66 562T117 626T197 669T304 685Q361 685 403 675T476 651L442 528Q422 538 387 549T301 560Q251 560 227 541T203 495Q203 479 210 467T233 444T271 423T328 400Q418 367 460 319T503 199Q503 157 487 119T437 53T352 7T231 -10Q173 -10 121 2T40 31L71 157Z"  />
<glyph unicode="T" horiz-adv-x="548" d="M196 546H15V674H533V546H349V0H196V546Z"  />
<glyph unicode="U" horiz-adv-x="682" d="M218 674V286Q218 198 249 155T340 111Q400 111 432 153T464 286V674H616V296Q616 140 542 65T335 -11Q207 -11 136 63T65 298V674H218Z"  />
<glyph unicode="V" horiz-adv-x="636" d="M225 0L9 674H176L258 389Q275 329 290 270T318 148H321Q334 209 349 268T382 386L468 674H630L403 0H225Z"  />
<glyph unicode="W" horiz-adv-x="888" d="M175 0L15 674H178L229 396Q240 336 250 274T269 161H271Q279 216 290 275T315 398L372 674H534L588 390Q599 330 607 276T624 164H626Q634 221 644 279T665 398L720 674H875L701 0H536L479 290Q469 341 461 390T447 498H445Q436 441 427 391T406 290L342 0H175Z"  />
<glyph unicode="X" horiz-adv-x="613" d="M421 0L360 122Q341 157 328 185T300 243H298Q287 214 275 186T246 122L190 0H16L211 341L23 674H198L257 551Q272 520 284 494T308 439H310Q322 471 332 496T356 551L413 674H587L397 345L597 0H421Z"  />
<glyph unicode="Y" horiz-adv-x="603" d="M222 0V276L9 674H183L252 512Q268 475 279 446T304 383H306Q317 415 329 445T357 512L425 674H596L374 281V0H222Z"  />
<glyph unicode="Z" horiz-adv-x="577" d="M23 82L344 544V548H53V674H542V586L228 130V126H547V0H23V82Z"  />
<glyph unicode="[" horiz-adv-x="314" d="M68 -112V685H273V601H178V-28H273V-112H68Z"  />
<glyph unicode="\" horiz-adv-x="330" d="M214 -40L12 685H113L314 -40H214Z"  />
<glyph unicode="]" horiz-adv-x="314" d="M246 686V-112H42V-28H137V602H42V686H246Z"  />
<glyph unicode="^" horiz-adv-x="596" d="M445 177L299 533H296L149 177H42L252 650H344L554 177H445Z"  />
<glyph unicode="_" horiz-adv-x="500" d="M500 -75V-125H0V-75H500Z"  />
<glyph unicode="`" horiz-adv-x="300" d="M144 702L230 550H126L4 702H144Z"  />
<glyph unicode="a" horiz-adv-x="528" d="M339 0L330 49H327Q303 20 267 5T187 -11Q150 -11 121 1T71 35T40 83T29 139Q29 187 49 222T107 280T198 315T316 326V333Q316 343 313 354T300 374T273 390T227 396Q189 396 153 385T92 359L64 457Q90 471 138 485T254 500Q315 500 356 483T423 438T458 371T469 289V119Q469 84 470 52T476 0H339ZM321 231Q291 231 265 228T220 215T190 191T179 154Q179 125 196 111T239 96Q268 96 289 112T318 152Q321 164 321 178V231Z"  />
<glyph unicode="b" horiz-adv-x="598" d="M57 0Q59 24 60 64T61 146V710H213V431H215Q237 463 274 481T363 500Q407 500 444 483T508 433T550 355T565 253Q565 187 546 138T495 55T423 6T341 -11Q298 -11 259 6T194 68H192L186 0H57ZM213 208Q213 193 216 181Q224 150 248 130T305 109Q354 109 382 145T410 247Q410 304 384 343T305 383Q274 383 249 362T216 308Q213 294 213 280V208Z"  />
<glyph unicode="c" horiz-adv-x="451" d="M428 12Q408 3 372 -3T292 -10Q233 -10 185 7T103 57T51 136T33 240Q33 294 51 341T104 423T192 479T313 500Q343 500 374 495T429 481L405 368Q391 374 371 378T320 383Q290 383 266 373T224 345T198 301T189 246Q189 212 199 187T228 144T270 118T323 109Q350 109 371 113T410 124L428 12Z"  />
<glyph unicode="d" horiz-adv-x="596" d="M535 710V146Q535 104 536 65T539 0H404L397 72H395Q372 30 331 10T242 -11Q198 -11 160 7T94 57T50 136T33 240Q33 302 50 350T98 432T168 482T252 500Q297 500 330 486T381 445H383V710H535ZM383 282Q383 288 383 295T381 309Q374 340 351 362T292 384Q266 384 247 373T214 344T194 300T187 245Q187 182 215 146T291 110Q324 110 348 130T379 183Q383 198 383 218V282Z"  />
<glyph unicode="e" horiz-adv-x="528" d="M178 196Q180 172 191 155T222 126T265 109T316 103Q355 103 387 108T451 123L471 20Q433 5 389 -2T294 -10Q169 -10 101 57T33 239Q33 285 47 332T92 416T169 476T280 500Q339 500 380 479T448 424T486 345T498 256Q498 236 497 220T493 196H178ZM357 300Q357 314 354 331T341 363T314 388T271 399Q247 399 230 390T202 365T184 333T177 300H357Z"  />
<glyph unicode="f" horiz-adv-x="341" d="M78 0V377H14V489H78V508Q78 553 92 597T140 672Q169 699 205 710T275 721Q301 721 320 719T356 711L350 594Q340 597 328 599T301 601Q263 601 247 576T230 514V489H328V377H231V0H78Z"  />
<glyph unicode="g" horiz-adv-x="585" d="M528 489Q526 466 525 433T524 344V71Q524 0 508 -56T450 -149Q409 -184 357 -196T251 -209Q203 -209 156 -200T75 -171L105 -56Q128 -70 166 -81T247 -93Q301 -93 337 -63T374 36V68H372Q350 37 316 21T240 4Q195 4 157 21T92 70T49 146T33 243Q33 302 51 349T99 430T169 482T255 500Q306 500 338 481T389 431H391L396 489H528ZM372 290Q372 306 369 318Q361 348 340 366T287 385Q245 385 216 349T187 246Q187 191 213 154T287 116Q316 116 337 133T367 178Q370 186 371 197T372 218V290Z"  />
<glyph unicode="h" horiz-adv-x="586" d="M61 710H213V431H215Q238 461 275 481Q310 500 354 500Q390 500 421 487T476 448T512 382T525 286V0H373V269Q373 317 355 347T294 377Q264 377 245 361T218 324Q215 316 214 307T213 290V0H61V710Z"  />
<glyph unicode="i" horiz-adv-x="274" d="M61 0V489H213V0H61ZM137 702Q174 702 195 680T218 625Q218 593 196 571T136 549Q100 549 78 571T57 625Q56 658 78 680T137 702Z"  />
<glyph unicode="j" horiz-adv-x="291" d="M-40 -90Q-10 -88 13 -81T50 -58Q58 -49 64 -37T73 -7T78 38T80 101V489H233V65Q233 -16 216 -66T164 -149Q130 -181 80 -195T-25 -209L-40 -90ZM157 702Q194 702 215 680T237 625Q237 593 215 571T155 549Q119 549 98 571T76 625Q76 658 97 680T157 702Z"  />
<glyph unicode="k" horiz-adv-x="542" d="M213 283H215Q223 298 232 313T250 342L349 489H532L357 291L557 0H370L252 201L213 153V0H61V710H213V283Z"  />
<glyph unicode="l" horiz-adv-x="275" d="M61 710H213V0H61V710Z"  />
<glyph unicode="m" horiz-adv-x="860" d="M61 333Q61 379 60 418T57 489H185L192 423H195Q203 435 215 448T245 473T287 492T343 500Q391 500 426 478T477 417H479Q505 454 542 476Q582 500 635 500Q670 500 700 488T753 449T787 383T800 288V0H652V266Q652 320 635 349T580 378Q554 378 536 363T510 325Q507 317 506 306T504 286V0H356V274Q356 321 339 349T286 378Q257 378 240 360T215 323Q211 314 210 304T209 285V0H61V333Z"  />
<glyph unicode="n" horiz-adv-x="586" d="M61 333Q61 379 60 418T57 489H189L196 422H199Q206 434 219 447T251 472T295 492T350 500Q387 500 419 488T475 449T511 384T525 290V0H373V271Q373 319 356 348T296 377Q264 377 246 359T219 320Q216 313 215 303T213 282V0H61V333Z"  />
<glyph unicode="o" horiz-adv-x="577" d="M294 500Q350 500 396 482T475 430T526 351T544 250Q544 183 522 134T464 53T382 5T286 -11Q232 -11 186 6T106 55T53 135T33 241Q33 300 51 348T104 429T187 481T294 500ZM290 392Q263 392 244 379T213 346T196 299T190 245Q190 182 215 140T290 98Q335 98 361 138T387 245Q387 272 382 298T365 346T335 379T290 392Z"  />
<glyph unicode="p" horiz-adv-x="598" d="M61 325Q61 373 60 414T57 489H189L196 421H198Q253 500 361 500Q401 500 438 483T503 434T547 356T564 251Q564 184 545 135T494 54T423 5T342 -11Q297 -11 265 5T215 45H213V-198H61V325ZM213 210Q213 191 216 178Q224 147 248 127T305 106Q355 106 382 143T410 244Q410 303 384 342T307 381Q275 381 250 360T216 304Q213 292 213 277V210Z"  />
<glyph unicode="q" horiz-adv-x="595" d="M383 61H381Q358 26 322 8T236 -11Q196 -11 160 6T95 55T50 133T33 238Q33 304 52 353T102 434T171 483T249 500Q344 500 385 432H387L391 489H538Q537 454 536 417T535 342V-198H383V61ZM383 284Q383 297 380 309Q374 338 351 360T293 382Q240 382 214 343T188 244Q188 182 215 146T291 109Q323 109 347 128T379 178Q381 186 382 194T383 211V284Z"  />
<glyph unicode="r" horiz-adv-x="380" d="M61 328Q61 382 60 419T57 489H188L193 399H197Q206 426 221 445T255 476T292 494T329 500Q340 500 346 500T361 498V355Q353 357 343 358T320 359Q278 359 251 338T216 282Q213 267 213 248V0H61V328Z"  />
<glyph unicode="s" horiz-adv-x="434" d="M60 133Q70 127 85 120T119 108T155 100T191 96Q226 96 241 107T256 137Q256 156 242 167T184 193Q108 219 76 257T45 340Q45 374 59 403T99 454T162 488T244 500Q287 500 323 492T382 472L355 367Q338 376 310 385T249 395Q191 395 191 355Q191 338 208 327T270 299Q340 275 371 239T403 148Q403 114 390 85T350 35T283 2T191 -10Q143 -10 102 -1T33 24L60 133Z"  />
<glyph unicode="t" horiz-adv-x="367" d="M231 629V489H340V377H231V200Q231 155 243 135T291 114Q305 114 316 115T336 118L337 3Q322 -3 296 -6T238 -10Q201 -10 172 1T124 32Q82 75 82 177V377H17V489H82V595L231 629Z"  />
<glyph unicode="u" horiz-adv-x="583" d="M522 157Q522 109 523 70T526 0H394L387 69H384Q377 58 365 44T334 18T290 -2T231 -11Q194 -11 163 1T108 39T72 105T59 202V489H212V226Q212 172 230 142T288 112Q320 112 338 129T364 165Q367 172 368 180T369 198V489H522V157Z"  />
<glyph unicode="v" horiz-adv-x="530" d="M174 489L240 262Q257 203 268 143H271Q277 173 283 201T298 262L361 489H521L339 0H187L9 489H174Z"  />
<glyph unicode="w" horiz-adv-x="759" d="M166 489L205 289Q213 251 220 211T233 128H235Q243 170 252 211T271 288L323 489H443L492 294Q502 252 511 211T528 128H530Q535 170 542 211T558 295L600 489H749L599 0H456L410 172Q401 208 394 243T379 324H377Q370 278 363 243T345 172L296 0H153L11 489H166Z"  />
<glyph unicode="x" horiz-adv-x="519" d="M177 489L225 408Q236 389 245 371T265 335H267Q277 355 286 373T305 410L348 489H513L352 256L515 0H343L294 88Q283 106 274 124T256 162H253Q244 142 235 124T216 88L170 0H3L169 249L7 489H177Z"  />
<glyph unicode="y" horiz-adv-x="523" d="M175 489L248 249Q254 227 260 203T272 158H275Q280 178 286 203T297 249L357 489H520L406 167Q380 94 358 42T315 -47T275 -110T234 -154Q194 -189 155 -203T87 -221L55 -92Q86 -87 121 -66Q138 -57 155 -41T184 -5Q192 6 192 17Q192 21 191 27T185 42L6 489H175Z"  />
<glyph unicode="z" horiz-adv-x="469" d="M22 87L176 280Q197 305 215 324T254 367V369H39V489H439V398L292 213Q272 189 253 166T212 123V121H447V0H22V87Z"  />
<glyph unicode="{" horiz-adv-x="314" d="M30 326Q56 327 71 333T94 349T104 371T106 394Q106 413 104 432T100 472Q98 492 97 512T95 551Q95 622 136 654T247 686H282V601H264Q230 601 217 582T203 530Q203 516 204 503T208 473Q210 458 211 441T213 405Q214 348 192 323T128 289V287Q170 278 192 253T213 170Q213 150 212 133T208 100Q206 85 205 71T203 44Q203 11 216 -8T264 -28H282V-112H246Q213 -112 185 -105T137 -82T106 -40T95 24Q95 43 96 63T100 103Q102 123 104 142T106 181Q106 191 104 203T94 225T71 241T30 249V326Z"  />
<glyph unicode="|" horiz-adv-x="283" d="M194 750V-250H88V750H194Z"  />
<glyph unicode="}" horiz-adv-x="314" d="M284 249Q258 248 243 242T221 225T211 203T208 181Q208 162 210 143T214 103Q216 83 218 63T220 24Q220 -14 209 -39T178 -81T130 -105T68 -112H32V-28H50Q85 -27 98 -8T111 44Q111 57 110 71T106 100Q104 116 103 133T101 170Q100 227 122 252T187 287V289Q145 298 123 323T101 405Q101 424 102 441T106 473Q108 489 109 502T111 530Q111 563 98 581T50 601H32V686H67Q138 686 179 654T220 551Q220 532 218 512T214 472Q212 452 210 433T208 394Q208 383 210 371T220 350T243 334T284 326V249Z"  />
<glyph unicode="~" horiz-adv-x="596" d="M43 192Q43 242 53 277T81 335T126 368T182 379Q219 379 249 367T322 331Q355 313 377 303T417 292Q435 292 445 310T458 373H553Q555 319 546 283T518 225T474 194T420 184Q384 184 353 196T280 232Q247 252 225 263T185 274Q166 274 154 258T138 192H43Z"  />
<glyph unicode="&#xA0;" horiz-adv-x="202" />
<glyph unicode="&#xA1;" horiz-adv-x="268" d="M55 -198L77 257H192L214 -198H55ZM134 495Q174 495 198 470T223 403Q223 364 199 339T134 313Q94 313 70 338T45 403Q45 444 70 469T134 495Z"  />
<glyph unicode="&#xA2;" horiz-adv-x="555" d="M279 -12V86Q186 101 131 163Q104 194 90 235T75 327Q75 372 88 413T128 487T192 543T279 577V673H378V582Q401 580 426 575T473 562L449 450Q432 458 411 463T360 468Q300 468 266 431T231 333Q231 299 241 274T269 233T310 208T361 199Q392 199 416 203T460 216L478 107Q460 98 434 92T377 84V-12H279Z"  />
<glyph unicode="&#xA3;" horiz-adv-x="555" d="M51 0V81Q71 89 91 103T127 137T153 179T163 228Q163 247 160 268H62V371H142Q134 411 134 452Q134 499 150 537T197 603T268 646T360 661Q402 661 431 654T478 637L453 522Q439 530 418 535T369 540Q342 540 325 532T296 511T281 481T276 446Q276 408 285 371H422V268H298Q299 249 297 232T289 197Q282 178 270 160T240 126V124H507V0H51Z"  />
<glyph unicode="&#xA4;" horiz-adv-x="555" d="M278 550Q313 550 342 541T394 515L471 598L537 530L450 452Q461 432 471 405T482 336Q482 293 472 264T448 215L532 134L467 68L393 155Q370 135 338 126T276 116Q246 116 214 125T160 154L88 68L23 134L106 213Q92 233 81 262T70 333Q70 376 81 404T105 452L18 529L85 599L162 513Q208 550 278 550ZM276 448Q237 448 211 417T184 334Q184 304 192 282T214 246T244 224T276 217Q293 217 309 224T339 245T361 282T369 335Q369 384 343 416T276 448Z"  />
<glyph unicode="&#xA5;" horiz-adv-x="555" d="M201 0V160H46V231H201V295H46V366H165L2 650H165L235 490Q249 460 258 434T277 381H279Q289 406 299 434T322 491L393 650H553L382 366H501V295H344V231H501V160H344V0H201Z"  />
<glyph unicode="&#xA6;" horiz-adv-x="283" d="M194 174V-176H88V174H194ZM194 674V324H88V674H194Z"  />
<glyph unicode="&#xA7;" horiz-adv-x="561" d="M163 343Q163 318 184 300T250 265Q285 252 318 242T368 222Q381 230 389 244T397 274Q397 296 381 314T328 346Q296 358 259 371T199 395Q183 387 173 374T163 343ZM440 562Q418 573 386 581T309 590Q264 590 242 577T219 542Q219 519 245 504T326 472Q366 460 401 446T461 411T501 364T516 297Q516 257 496 227T443 175Q457 164 472 141T487 83Q487 37 466 7T412 -42T340 -69T266 -77Q221 -77 171 -68T79 -33L108 59Q119 53 135 46T172 32T214 21T259 17Q299 17 324 30T350 69Q350 94 326 110T244 144Q204 156 168 170T105 204T61 251T45 316Q45 348 65 382T128 438Q112 451 100 476T88 529Q88 567 105 596T151 644T220 674T306 684Q350 684 389 678T464 654L440 562Z"  />
<glyph unicode="&#xA8;" horiz-adv-x="300" d="M46 557Q15 557 -5 577T-26 627Q-26 658 -5 678T46 698Q75 698 94 678T114 627Q114 598 95 578T46 557ZM256 557Q225 557 205 577T185 627Q185 658 205 678T256 698Q285 698 305 678T325 627Q325 598 306 578T256 557Z"  />
<glyph unicode="&#xA9;" horiz-adv-x="677" d="M340 648Q404 648 459 624T556 558T621 460T645 340Q645 275 622 219T557 120T460 54T340 30Q275 30 219 54T122 120T56 218T32 340Q32 404 56 460T121 558T219 624T340 648ZM339 591Q289 591 245 572T168 518T116 437T97 339Q97 286 116 241T168 161T245 107T339 87Q389 87 433 106T509 160T561 240T580 339Q580 391 561 437T510 517T433 571T339 591ZM459 439Q450 444 424 452T364 461Q306 461 273 429T240 337Q240 282 273 247T363 212Q394 212 420 219T463 237L478 185Q452 168 420 161T354 153Q310 153 276 167T218 205T182 263T169 334Q169 377 185 411T228 470T290 507T364 520Q400 520 432 512T474 492L459 439Z"  />
<glyph unicode="&#xAA;" horiz-adv-x="378" d="M247 266L240 299H238Q221 282 196 272T139 261Q89 261 61 289T33 359Q33 417 86 446T230 475V482Q230 485 228 491T220 504T201 515T169 520Q142 520 118 513T77 495L57 559Q76 570 110 580T189 591Q230 591 258 580T303 549T328 504T336 451V344Q336 321 337 301T341 266H247ZM234 416Q193 416 164 405T135 367Q135 350 147 340T179 329Q195 329 209 337T229 359Q234 371 234 381V416Z"  />
<glyph unicode="&#xAB;" horiz-adv-x="465" d="M129 252L248 61H142L26 252L142 443H248L129 252ZM323 252L442 61H336L220 252L336 443H442L323 252Z"  />
<glyph unicode="&#xAC;" horiz-adv-x="596" d="M556 422V106H459V329H40V422H556Z"  />
<glyph unicode="&#xAD;" horiz-adv-x="291" d="M292 313V212H30V313H292Z"  />
<glyph unicode="&#xAE;" horiz-adv-x="459" d="M208 431H159V590Q167 592 185 593T229 595Q256 595 270 592T293 583Q310 571 310 548Q310 536 300 527T273 512V510Q299 501 306 469Q310 452 312 444T317 431H262Q258 436 256 445T251 465Q246 489 224 489H208V431ZM210 522H224Q238 522 246 527T254 541Q254 561 226 561Q221 561 217 561T210 560V522ZM230 685Q267 685 299 672T356 635T393 580T407 513Q407 477 394 446T356 391T300 354T230 340Q193 340 161 353T104 390T66 445T52 513Q52 549 66 580T104 634T160 671T230 685ZM229 642Q202 642 180 632T141 604T115 563T105 512Q105 485 114 462T140 421T180 393T230 383Q257 383 280 393T319 420T345 462T355 513Q355 540 346 563T320 604T280 632T229 642Z"  />
<glyph unicode="&#xAF;" horiz-adv-x="300" d="M276 665V582H25V665H276Z"  />
<glyph unicode="&#xB0;" horiz-adv-x="356" d="M179 685Q213 685 241 674T289 642T320 596T331 539Q331 507 319 480T285 433T237 402T178 391Q145 391 118 402T70 433T38 479T27 536Q27 567 38 594T70 641T119 673T179 685ZM179 615Q146 615 127 592T107 537Q107 505 127 483T179 461Q210 461 230 483T250 538Q250 567 232 591T179 615Z"  />
<glyph unicode="&#xB1;" horiz-adv-x="596" d="M347 579V406H556V313H347V137H249V313H40V406H249V579H347ZM556 93V0H40V93H556Z"  />
<glyph unicode="&#xB2;" horiz-adv-x="352" d="M15 499L76 554Q104 579 126 599T163 635T185 667T193 698Q193 720 178 733T134 747Q109 747 87 739T48 719L18 795Q43 812 80 825T163 838Q238 838 277 803T316 717Q316 690 307 668T281 626T244 588T201 551L177 531V529H323V443H15V499Z"  />
<glyph unicode="&#xB3;" horiz-adv-x="347" d="M25 806Q47 819 84 828T165 838Q237 838 273 810T310 739Q310 707 287 684T227 650V648Q269 643 296 619T324 556Q324 503 276 471T144 438Q103 438 67 445T9 466L32 543Q48 535 75 526T130 517Q162 517 182 530T201 563Q201 588 175 600T115 613H85V681H113Q125 681 139 683T164 690T182 702T190 722Q190 737 178 747T137 758Q111 758 86 750T47 733L25 806Z"  />
<glyph unicode="&#xB4;" horiz-adv-x="300" d="M302 702L180 550H75L161 702H302Z"  />
<glyph unicode="&#xB5;" horiz-adv-x="585" d="M388 67Q382 54 371 41T345 17T311 0T267 -7Q247 -7 229 0T198 22V-20Q198 -40 198 -65T200 -114T204 -161T209 -198H74Q71 -189 69 -171T65 -128T62 -76T61 -21V489H213V216Q213 166 231 139T287 111Q316 111 337 128T366 165Q371 180 371 198V489H523V159Q523 127 533 116T565 103L556 -2Q538 -11 502 -11Q414 -11 391 67H388Z"  />
<glyph unicode="&#xB6;" horiz-adv-x="542" d="M206 -47V264H199Q177 264 148 275T93 310T49 369T31 453Q31 492 43 532T89 605T179 657T327 678Q372 678 409 676T470 667V-47H373V584H302V-47H206Z"  />
<glyph unicode="&#xB7;" horiz-adv-x="260" d="M130 167Q90 167 65 193T40 259Q40 300 65 326T130 352Q170 352 194 327T220 259Q220 219 196 193T130 167Z"  />
<glyph unicode="&#xB8;" horiz-adv-x="300" d="M203 4L176 -44Q205 -47 226 -66T248 -116Q248 -140 238 -157T212 -184T173 -199T127 -204Q103 -204 82 -199T46 -184L66 -127Q80 -135 94 -139T121 -144Q135 -144 146 -138T156 -118Q156 -104 139 -95T79 -82L121 4H203Z"  />
<glyph unicode="&#xB9;" horiz-adv-x="300" d="M118 443V737H116L37 702L21 785L133 833H235V443H118Z"  />
<glyph unicode="&#xBA;" horiz-adv-x="386" d="M194 591Q233 591 263 579T316 545T349 494T361 429Q361 387 347 356T309 303T255 272T191 261Q156 261 126 272T72 305T36 356T23 423Q23 460 35 491T71 544T125 579T194 591ZM192 517Q175 517 164 508T145 486T134 456T131 425Q131 388 147 362T193 335Q222 335 238 360T254 427Q254 443 250 459T239 488T219 509T192 517Z"  />
<glyph unicode="&#xBB;" horiz-adv-x="465" d="M23 443H127L244 252L127 61H23L142 252L23 443ZM214 443H319L436 252L319 61H214L334 252L214 443Z"  />
<glyph unicode="&#xBC;" horiz-adv-x="831" d="M132 266V561H131L51 526L35 608L147 656H249V266H132ZM173 -11L542 661H624L256 -11H173ZM635 0V90H439V153L609 394H743V164H796V90H743V0H635ZM635 238Q635 258 636 276T639 312H636Q627 294 619 278T600 247L544 166L547 164H635V238Z"  />
<glyph unicode="&#xBD;" horiz-adv-x="831" d="M120 266V561H118L39 526L23 608L135 656H237V266H120ZM149 -11L518 661H600L232 -11H149ZM485 56L546 112Q603 162 633 193T663 256Q663 277 648 290T604 304Q579 304 557 296T518 276L487 352Q512 370 550 382T633 395Q708 395 746 360T785 274Q785 247 776 225T750 183T714 145T671 108L647 89V87H793V0H485V56Z"  />
<glyph unicode="&#xBE;" horiz-adv-x="831" d="M42 629Q64 643 101 652T182 661Q255 661 291 633T327 562Q327 530 304 508T245 474V472Q287 467 314 443T342 380Q342 327 293 294T161 261Q120 261 84 269T27 289L49 367Q65 359 92 350T147 341Q179 341 199 353T219 386Q219 412 193 424T132 436H102V504H130Q143 504 156 506T181 513T199 526T207 546Q207 561 195 571T155 581Q128 581 103 573T64 557L42 629ZM205 -11L573 661H656L288 -11H205ZM644 0V90H449V153L619 394H752V164H805V90H752V0H644ZM644 238Q644 258 645 276T648 312H646Q636 294 628 278T610 247L554 166L556 164H644V238Z"  />
<glyph unicode="&#xBF;" horiz-adv-x="445" d="M248 495Q288 495 312 470T337 404Q337 364 313 339T248 313Q208 313 184 338T158 404Q158 444 183 469T248 495ZM311 260L312 235Q314 197 301 160T254 81Q229 52 212 29T195 -21Q195 -47 212 -63T268 -80Q294 -80 321 -73T368 -51L401 -160Q374 -176 331 -188T234 -201Q184 -201 148 -189T89 -155T54 -105T42 -45Q42 -16 50 7T70 51T98 88T128 121Q155 152 167 180T179 243L178 260H311Z"  />
<glyph unicode="&#xC0;" horiz-adv-x="656" d="M223 173L175 0H17L223 674H423L632 0H468L416 173H223ZM394 287L352 430Q343 460 335 495T318 560H316Q308 530 301 495T285 430L245 287H394ZM313 833L397 712H275L153 833H313Z"  />
<glyph unicode="&#xC1;" horiz-adv-x="656" d="M223 173L175 0H17L223 674H423L632 0H468L416 173H223ZM394 287L352 430Q343 460 335 495T318 560H316Q308 530 301 495T285 430L245 287H394ZM497 833L375 710H253L337 833H497Z"  />
<glyph unicode="&#xC2;" horiz-adv-x="656" d="M223 173L175 0H17L223 674H423L632 0H468L416 173H223ZM394 287L352 430Q343 460 335 495T318 560H316Q308 530 301 495T285 430L245 287H394ZM385 833L486 710H379L329 772H327L277 710H171L271 833H385Z"  />
<glyph unicode="&#xC3;" horiz-adv-x="656" d="M223 173L175 0H17L223 674H423L632 0H468L416 173H223ZM394 287L352 430Q343 460 335 495T318 560H316Q308 530 301 495T285 430L245 287H394ZM191 715Q189 778 210 810T268 842Q288 842 303 836T332 822Q344 814 355 809T376 803Q389 803 394 812T403 846H471Q473 778 453 750T392 721Q372 721 357 726T327 740Q314 747 305 752T285 758Q264 758 261 715H191Z"  />
<glyph unicode="&#xC4;" horiz-adv-x="656" d="M223 173L175 0H17L223 674H423L632 0H468L416 173H223ZM394 287L352 430Q343 460 335 495T318 560H316Q308 530 301 495T285 430L245 287H394ZM228 712Q199 712 179 732T159 781Q159 810 179 829T228 849Q256 849 275 830T294 781Q294 753 276 733T228 712ZM435 712Q406 712 387 732T367 781Q367 810 386 829T435 849Q464 849 483 830T502 781Q502 753 483 733T435 712Z"  />
<glyph unicode="&#xC5;" horiz-adv-x="656" d="M223 173L175 0H17L223 674H423L632 0H468L416 173H223ZM394 287L352 430Q343 460 335 495T318 560H316Q308 530 301 495T285 430L245 287H394ZM325 898Q382 898 410 870T439 799Q439 758 409 730T325 702Q270 702 240 730T210 798Q210 839 239 868T325 898ZM324 847Q301 847 291 832T280 798Q280 781 291 767T324 753Q345 753 356 766T368 799Q368 818 357 832T324 847Z"  />
<glyph unicode="&#xC6;" horiz-adv-x="868" d="M2 0L290 674H803V549H526L544 406H799V282H564L584 125H840V0H453L429 184H233L159 0H2ZM412 306L392 469Q389 492 386 517T380 567H377Q369 542 360 516T343 468L278 306H412Z"  />
<glyph unicode="&#xC7;" horiz-adv-x="597" d="M561 19Q541 9 500 0T402 -10L383 -44Q412 -51 434 -71T456 -126Q456 -152 446 -169T418 -198T380 -213T337 -218Q314 -218 291 -214T251 -199L271 -137Q282 -144 297 -147T327 -151Q342 -151 352 -146T363 -126Q363 -111 345 -103T284 -89L323 -6Q252 3 198 32T108 104T54 205T35 327Q35 413 64 480T142 592T259 661T403 685Q463 685 506 676T569 655L538 534Q515 544 483 551T410 559Q365 559 326 545T257 504T212 434T195 336Q195 234 251 175T411 116Q446 116 480 122T538 138L561 19Z"  />
<glyph unicode="&#xC8;" horiz-adv-x="534" d="M467 285H219V125H496V0H66V674H482V549H219V409H467V285ZM271 833L355 712H233L111 833H271Z"  />
<glyph unicode="&#xC9;" horiz-adv-x="534" d="M467 285H219V125H496V0H66V674H482V549H219V409H467V285ZM449 833L326 710H205L289 833H449Z"  />
<glyph unicode="&#xCA;" horiz-adv-x="534" d="M467 285H219V125H496V0H66V674H482V549H219V409H467V285ZM336 833L437 710H330L279 772H277L227 710H121L221 833H336Z"  />
<glyph unicode="&#xCB;" horiz-adv-x="534" d="M467 285H219V125H496V0H66V674H482V549H219V409H467V285ZM169 713Q139 713 119 733T99 781Q99 810 119 830T169 850Q197 850 216 830T235 781Q235 753 216 733T169 713ZM376 713Q346 713 327 733T307 781Q307 810 327 830T376 850Q405 850 424 830T443 781Q443 753 424 733T376 713Z"  />
<glyph unicode="&#xCC;" horiz-adv-x="285" d="M219 674V0H66V674H219ZM133 833L217 712H95L-27 833H133Z"  />
<glyph unicode="&#xCD;" horiz-adv-x="285" d="M219 674V0H66V674H219ZM313 833L190 710H68L153 833H313Z"  />
<glyph unicode="&#xCE;" horiz-adv-x="285" d="M219 674V0H66V674H219ZM199 833L300 710H193L143 772H141L91 710H-15L85 833H199Z"  />
<glyph unicode="&#xCF;" horiz-adv-x="285" d="M219 674V0H66V674H219ZM40 713Q10 713 -9 733T-29 781Q-29 810 -9 830T40 850Q68 850 87 830T106 781Q106 753 87 733T40 713ZM247 713Q217 713 198 733T179 781Q179 810 198 830T247 850Q276 850 295 830T314 781Q314 753 295 733T247 713Z"  />
<glyph unicode="&#xD0;" horiz-adv-x="704" d="M3 403H74V667Q116 674 169 678T280 682Q376 682 441 665T556 611Q609 572 639 508T669 354Q669 255 638 188T558 78Q504 33 426 12T247 -10Q187 -10 145 -7T74 0V284H3V403ZM360 284H226V112Q237 110 251 110T279 110Q384 110 446 167T508 349Q508 459 452 511T295 564Q270 564 254 562T226 558V403H360V284Z"  />
<glyph unicode="&#xD1;" horiz-adv-x="690" d="M66 0V674H244L384 427Q414 373 442 313T494 196H497Q489 263 487 332T484 477V674H624V0H464L320 260Q290 314 259 376T203 498L200 497Q203 430 204 358T206 203V0H66ZM207 715Q205 778 226 810T285 842Q305 842 319 836T348 822Q361 814 372 809T392 803Q405 803 411 812T419 846H488Q490 778 469 750T409 721Q389 721 374 726T344 740Q330 747 321 752T301 758Q282 758 277 715H207Z"  />
<glyph unicode="&#xD2;" horiz-adv-x="717" d="M363 685Q441 685 500 658T600 585T662 476T683 344Q683 261 659 195T592 84T487 14T352 -11Q277 -11 218 15T119 88T57 197T35 332Q35 408 58 472T124 584T227 658T363 685ZM359 564Q320 564 290 547T239 499T207 426T196 335Q196 285 207 244T240 173T291 127T360 110Q399 110 429 127T479 175T511 248T522 339Q522 384 512 425T480 497T429 546T359 564ZM348 834L432 713H311L188 834H348Z"  />
<glyph unicode="&#xD3;" horiz-adv-x="717" d="M363 685Q441 685 500 658T600 585T662 476T683 344Q683 261 659 195T592 84T487 14T352 -11Q277 -11 218 15T119 88T57 197T35 332Q35 408 58 472T124 584T227 658T363 685ZM359 564Q320 564 290 547T239 499T207 426T196 335Q196 285 207 244T240 173T291 127T360 110Q399 110 429 127T479 175T511 248T522 339Q522 384 512 425T480 497T429 546T359 564ZM533 834L411 711H289L373 834H533Z"  />
<glyph unicode="&#xD4;" horiz-adv-x="717" d="M363 685Q441 685 500 658T600 585T662 476T683 344Q683 261 659 195T592 84T487 14T352 -11Q277 -11 218 15T119 88T57 197T35 332Q35 408 58 472T124 584T227 658T363 685ZM359 564Q320 564 290 547T239 499T207 426T196 335Q196 285 207 244T240 173T291 127T360 110Q399 110 429 127T479 175T511 248T522 339Q522 384 512 425T480 497T429 546T359 564ZM416 833L517 711H410L360 773H358L308 711H201L302 833H416Z"  />
<glyph unicode="&#xD5;" horiz-adv-x="717" d="M363 685Q441 685 500 658T600 585T662 476T683 344Q683 261 659 195T592 84T487 14T352 -11Q277 -11 218 15T119 88T57 197T35 332Q35 408 58 472T124 584T227 658T363 685ZM359 564Q320 564 290 547T239 499T207 426T196 335Q196 285 207 244T240 173T291 127T360 110Q399 110 429 127T479 175T511 248T522 339Q522 384 512 425T480 497T429 546T359 564ZM219 714Q217 778 238 810T296 842Q316 842 331 836T360 822Q372 814 383 809T404 803Q416 803 422 811T431 845H499Q501 778 481 750T420 721Q400 721 385 726T355 739Q342 747 333 752T313 757Q292 757 289 714H219Z"  />
<glyph unicode="&#xD6;" horiz-adv-x="717" d="M363 685Q441 685 500 658T600 585T662 476T683 344Q683 261 659 195T592 84T487 14T352 -11Q277 -11 218 15T119 88T57 197T35 332Q35 408 58 472T124 584T227 658T363 685ZM359 564Q320 564 290 547T239 499T207 426T196 335Q196 285 207 244T240 173T291 127T360 110Q399 110 429 127T479 175T511 248T522 339Q522 384 512 425T480 497T429 546T359 564ZM256 713Q227 713 207 733T187 781Q187 810 207 830T256 850Q284 850 303 830T322 781Q322 753 304 733T256 713ZM463 713Q433 713 414 733T395 781Q395 810 414 830T463 850Q492 850 511 830T530 781Q530 753 511 733T463 713Z"  />
<glyph unicode="&#xD7;" horiz-adv-x="596" d="M105 526L298 329L491 526L556 459L364 263L556 67L490 0L298 196L106 0L40 67L232 263L40 459L105 526Z"  />
<glyph unicode="&#xD8;" horiz-adv-x="717" d="M72 -2L128 83Q83 131 59 196T35 336Q35 410 58 474T124 585T227 658T360 685Q444 685 509 650L564 731L651 673L594 589Q639 541 661 477T683 341Q683 258 659 193T591 83T489 13T359 -11Q280 -11 215 23L154 -66L72 -2ZM438 542Q403 566 360 566Q319 566 288 549T234 502T200 429T188 337Q188 302 194 273T214 214H215L438 542ZM285 131Q316 108 359 108Q399 108 430 125T484 172T518 245T530 339Q530 396 508 453L505 454L285 131Z"  />
<glyph unicode="&#xD9;" horiz-adv-x="682" d="M218 674V286Q218 198 249 155T340 111Q400 111 432 153T464 286V674H616V296Q616 140 542 65T335 -11Q207 -11 136 63T65 298V674H218ZM334 833L418 712H296L174 833H334Z"  />
<glyph unicode="&#xDA;" horiz-adv-x="682" d="M218 674V286Q218 198 249 155T340 111Q400 111 432 153T464 286V674H616V296Q616 140 542 65T335 -11Q207 -11 136 63T65 298V674H218ZM508 833L386 710H264L348 833H508Z"  />
<glyph unicode="&#xDB;" horiz-adv-x="682" d="M218 674V286Q218 198 249 155T340 111Q400 111 432 153T464 286V674H616V296Q616 140 542 65T335 -11Q207 -11 136 63T65 298V674H218ZM408 833L509 710H402L352 772H350L300 710H194L294 833H408Z"  />
<glyph unicode="&#xDC;" horiz-adv-x="682" d="M218 674V286Q218 198 249 155T340 111Q400 111 432 153T464 286V674H616V296Q616 140 542 65T335 -11Q207 -11 136 63T65 298V674H218ZM244 713Q214 713 195 733T175 781Q175 810 195 830T244 850Q272 850 291 830T310 781Q310 753 292 733T244 713ZM451 713Q421 713 402 733T383 781Q383 810 402 830T451 850Q480 850 499 830T518 781Q518 753 499 733T451 713Z"  />
<glyph unicode="&#xDD;" horiz-adv-x="603" d="M222 0V276L9 674H183L252 512Q268 475 279 446T304 383H306Q317 415 329 445T357 512L425 674H596L374 281V0H222ZM479 832L357 708H235L319 832H479Z"  />
<glyph unicode="&#xDE;" horiz-adv-x="580" d="M66 674H217V553Q231 555 249 555T299 556Q359 556 404 544T484 503Q515 477 532 440T549 357Q549 295 528 252T471 181T387 141T285 128Q261 128 244 129T217 132V0H66V674ZM217 251Q242 246 279 246Q341 246 370 273T399 345Q399 392 369 416T283 441Q258 441 242 440T217 436V251Z"  />
<glyph unicode="&#xDF;" horiz-adv-x="600" d="M61 0V431Q61 517 81 570T138 658Q204 721 318 721Q363 721 402 708T471 671T516 613T533 536Q533 513 527 491T509 454Q480 440 466 422T452 385Q452 367 460 352T486 318Q499 304 513 289T538 255T557 213T565 161Q565 84 513 37T364 -11Q336 -11 307 -7T257 5L276 117Q290 111 307 107T345 103Q377 103 394 118T412 155Q412 173 404 188T376 223Q364 236 350 250T325 282T307 320T299 365Q299 403 319 435T380 489Q383 497 385 505T387 524Q387 559 366 582T309 605Q288 605 271 597T240 570T220 520T213 444V0H61Z"  />
<glyph unicode="&#xE0;" horiz-adv-x="528" d="M339 0L330 49H327Q303 20 267 5T187 -11Q150 -11 121 1T71 35T40 83T29 139Q29 187 49 222T107 280T198 315T316 326V333Q316 343 313 354T300 374T273 390T227 396Q189 396 153 385T92 359L64 457Q90 471 138 485T254 500Q315 500 356 483T423 438T458 371T469 289V119Q469 84 470 52T476 0H339ZM321 231Q291 231 265 228T220 215T190 191T179 154Q179 125 196 111T239 96Q268 96 289 112T318 152Q321 164 321 178V231ZM241 702L327 550H223L100 702H241Z"  />
<glyph unicode="&#xE1;" horiz-adv-x="528" d="M339 0L330 49H327Q303 20 267 5T187 -11Q150 -11 121 1T71 35T40 83T29 139Q29 187 49 222T107 280T198 315T316 326V333Q316 343 313 354T300 374T273 390T227 396Q189 396 153 385T92 359L64 457Q90 471 138 485T254 500Q315 500 356 483T423 438T458 371T469 289V119Q469 84 470 52T476 0H339ZM321 231Q291 231 265 228T220 215T190 191T179 154Q179 125 196 111T239 96Q268 96 289 112T318 152Q321 164 321 178V231ZM422 702L300 550H195L281 702H422Z"  />
<glyph unicode="&#xE2;" horiz-adv-x="528" d="M339 0L330 49H327Q303 20 267 5T187 -11Q150 -11 121 1T71 35T40 83T29 139Q29 187 49 222T107 280T198 315T316 326V333Q316 343 313 354T300 374T273 390T227 396Q189 396 153 385T92 359L64 457Q90 471 138 485T254 500Q315 500 356 483T423 438T458 371T469 289V119Q469 84 470 52T476 0H339ZM321 231Q291 231 265 228T220 215T190 191T179 154Q179 125 196 111T239 96Q268 96 289 112T318 152Q321 164 321 178V231ZM312 702L411 550H312L262 637H260L209 550H110L210 702H312Z"  />
<glyph unicode="&#xE3;" horiz-adv-x="528" d="M339 0L330 49H327Q303 20 267 5T187 -11Q150 -11 121 1T71 35T40 83T29 139Q29 187 49 222T107 280T198 315T316 326V333Q316 343 313 354T300 374T273 390T227 396Q189 396 153 385T92 359L64 457Q90 471 138 485T254 500Q315 500 356 483T423 438T458 371T469 289V119Q469 84 470 52T476 0H339ZM321 231Q291 231 265 228T220 215T190 191T179 154Q179 125 196 111T239 96Q268 96 289 112T318 152Q321 164 321 178V231ZM113 558Q111 621 134 655T195 689Q214 689 229 683T260 669Q272 661 282 655T302 649Q315 649 320 658T328 694H398Q400 625 378 595T316 565Q295 565 279 572T247 587Q233 595 226 599T209 603Q186 603 185 558H113Z"  />
<glyph unicode="&#xE4;" horiz-adv-x="528" d="M339 0L330 49H327Q303 20 267 5T187 -11Q150 -11 121 1T71 35T40 83T29 139Q29 187 49 222T107 280T198 315T316 326V333Q316 343 313 354T300 374T273 390T227 396Q189 396 153 385T92 359L64 457Q90 471 138 485T254 500Q315 500 356 483T423 438T458 371T469 289V119Q469 84 470 52T476 0H339ZM321 231Q291 231 265 228T220 215T190 191T179 154Q179 125 196 111T239 96Q268 96 289 112T318 152Q321 164 321 178V231ZM160 557Q129 557 109 577T88 627Q88 658 109 678T160 698Q189 698 208 678T228 627Q228 598 209 578T160 557ZM370 557Q339 557 319 577T299 627Q299 658 319 678T370 698Q399 698 419 678T439 627Q439 598 420 578T370 557Z"  />
<glyph unicode="&#xE5;" horiz-adv-x="528" d="M339 0L330 49H327Q303 20 267 5T187 -11Q150 -11 121 1T71 35T40 83T29 139Q29 187 49 222T107 280T198 315T316 326V333Q316 343 313 354T300 374T273 390T227 396Q189 396 153 385T92 359L64 457Q90 471 138 485T254 500Q315 500 356 483T423 438T458 371T469 289V119Q469 84 470 52T476 0H339ZM321 231Q291 231 265 228T220 215T190 191T179 154Q179 125 196 111T239 96Q268 96 289 112T318 152Q321 164 321 178V231ZM266 539Q212 539 181 566T150 635Q150 677 180 706T267 736Q322 736 350 708T379 636Q379 594 349 567T266 539ZM265 589Q288 589 299 603T311 637Q311 656 299 671T264 686Q242 686 231 671T220 636Q220 619 232 604T265 589Z"  />
<glyph unicode="&#xE6;" horiz-adv-x="803" d="M460 203Q462 156 498 129T592 102Q638 102 669 109T729 128L750 26Q709 5 663 -3T570 -11Q509 -11 459 11T384 76H380Q351 37 307 13T198 -11Q158 -11 127 1T74 34T41 83T29 142Q29 187 50 221T109 277T200 311T318 322V336Q318 341 315 351T301 370T272 387T225 395Q187 395 152 384T94 358L64 454Q91 469 136 484T237 500Q297 500 336 480T398 421H401Q430 459 472 479T568 500Q622 500 661 479T725 424T761 346T773 257Q773 243 772 228T770 203H460ZM322 229Q292 229 266 225T220 212T189 189T178 153Q178 124 196 110T241 96Q270 96 289 111T318 147Q321 153 321 161T322 178V229ZM633 305Q633 317 630 333T618 365T593 390T550 401Q526 401 509 391T481 367T465 335T459 305H633Z"  />
<glyph unicode="&#xE7;" horiz-adv-x="451" d="M428 12Q411 4 382 -2T316 -10L297 -44Q326 -51 348 -70T370 -125Q370 -151 360 -169T332 -198T294 -213T250 -218Q228 -218 205 -214T165 -199L185 -137Q196 -144 211 -147T241 -151Q256 -151 266 -146T277 -126Q277 -111 259 -103T198 -89L238 -5Q142 9 88 73T33 240Q33 294 51 341T104 423T192 479T313 500Q343 500 374 495T429 481L405 368Q391 374 371 378T320 383Q290 383 266 373T224 345T198 301T189 246Q189 212 199 187T228 144T270 118T323 109Q350 109 371 113T410 125L428 12Z"  />
<glyph unicode="&#xE8;" horiz-adv-x="528" d="M178 196Q180 172 191 155T222 126T265 109T316 103Q355 103 387 108T451 123L471 20Q433 5 389 -2T294 -10Q169 -10 101 57T33 239Q33 285 47 332T92 416T169 476T280 500Q339 500 380 479T448 424T486 345T498 256Q498 236 497 220T493 196H178ZM357 300Q357 314 354 331T341 363T314 388T271 399Q247 399 230 390T202 365T184 333T177 300H357ZM260 702L346 550H242L120 702H260Z"  />
<glyph unicode="&#xE9;" horiz-adv-x="528" d="M178 196Q180 172 191 155T222 126T265 109T316 103Q355 103 387 108T451 123L471 20Q433 5 389 -2T294 -10Q169 -10 101 57T33 239Q33 285 47 332T92 416T169 476T280 500Q339 500 380 479T448 424T486 345T498 256Q498 236 497 220T493 196H178ZM357 300Q357 314 354 331T341 363T314 388T271 399Q247 399 230 390T202 365T184 333T177 300H357ZM441 702L319 550H214L300 702H441Z"  />
<glyph unicode="&#xEA;" horiz-adv-x="528" d="M178 196Q180 172 191 155T222 126T265 109T316 103Q355 103 387 108T451 123L471 20Q433 5 389 -2T294 -10Q169 -10 101 57T33 239Q33 285 47 332T92 416T169 476T280 500Q339 500 380 479T448 424T486 345T498 256Q498 236 497 220T493 196H178ZM357 300Q357 314 354 331T341 363T314 388T271 399Q247 399 230 390T202 365T184 333T177 300H357ZM326 702L425 550H326L276 637H274L224 550H124L224 702H326Z"  />
<glyph unicode="&#xEB;" horiz-adv-x="528" d="M178 196Q180 172 191 155T222 126T265 109T316 103Q355 103 387 108T451 123L471 20Q433 5 389 -2T294 -10Q169 -10 101 57T33 239Q33 285 47 332T92 416T169 476T280 500Q339 500 380 479T448 424T486 345T498 256Q498 236 497 220T493 196H178ZM357 300Q357 314 354 331T341 363T314 388T271 399Q247 399 230 390T202 365T184 333T177 300H357ZM176 557Q145 557 125 577T104 627Q104 658 125 678T176 698Q205 698 224 678T244 627Q244 598 225 578T176 557ZM386 557Q355 557 335 577T315 627Q315 658 335 678T386 698Q415 698 435 678T455 627Q455 598 436 578T386 557Z"  />
<glyph unicode="&#xEC;" horiz-adv-x="274" d="M61 0V489H213V0H61ZM110 702L196 550H92L-30 702H110Z"  />
<glyph unicode="&#xED;" horiz-adv-x="274" d="M61 0V489H213V0H61ZM299 702L177 550H72L158 702H299Z"  />
<glyph unicode="&#xEE;" horiz-adv-x="274" d="M61 0V489H213V0H61ZM188 702L288 550H189L138 637H136L86 550H-13L86 702H188Z"  />
<glyph unicode="&#xEF;" horiz-adv-x="274" d="M61 0V489H213V0H61ZM33 557Q2 557 -18 577T-39 627Q-39 658 -18 678T33 698Q62 698 81 678T101 627Q101 598 82 578T33 557ZM243 557Q212 557 192 577T172 627Q172 658 192 678T243 698Q272 698 292 678T312 627Q312 598 293 578T243 557Z"  />
<glyph unicode="&#xF0;" horiz-adv-x="574" d="M287 98Q335 98 359 138T384 242Q384 318 360 348Q348 363 331 372T289 381Q261 381 242 367T212 332T195 286T190 238Q190 209 196 184T215 140T245 109T287 98ZM80 538L185 585Q163 599 140 610T91 633L157 718Q238 689 315 638L453 698L483 639L377 594Q457 531 500 443Q521 402 531 356T541 257Q541 188 520 138T462 54T380 5T286 -11Q232 -11 186 6T106 55T53 134T33 237Q33 292 52 336T103 410T179 457T270 474Q287 474 303 470T336 454L338 456Q320 480 299 501T251 540L107 478L80 538Z"  />
<glyph unicode="&#xF1;" horiz-adv-x="586" d="M61 333Q61 379 60 418T57 489H189L196 422H199Q206 434 219 447T251 472T295 492T350 500Q387 500 419 488T475 449T511 384T525 290V0H373V271Q373 319 356 348T296 377Q264 377 246 359T219 320Q216 313 215 303T213 282V0H61V333ZM152 558Q150 621 172 655T234 689Q253 689 268 683T299 669Q311 661 321 655T341 649Q353 649 359 658T367 694H437Q439 625 417 595T355 565Q334 565 318 572T286 587Q272 595 265 599T248 603Q225 603 224 558H152Z"  />
<glyph unicode="&#xF2;" horiz-adv-x="577" d="M294 500Q350 500 396 482T475 430T526 351T544 250Q544 183 522 134T464 53T382 5T286 -11Q232 -11 186 6T106 55T53 135T33 241Q33 300 51 348T104 429T187 481T294 500ZM290 392Q263 392 244 379T213 346T196 299T190 245Q190 182 215 140T290 98Q335 98 361 138T387 245Q387 272 382 298T365 346T335 379T290 392ZM273 702L359 550H255L133 702H273Z"  />
<glyph unicode="&#xF3;" horiz-adv-x="577" d="M294 500Q350 500 396 482T475 430T526 351T544 250Q544 183 522 134T464 53T382 5T286 -11Q232 -11 186 6T106 55T53 135T33 241Q33 300 51 348T104 429T187 481T294 500ZM290 392Q263 392 244 379T213 346T196 299T190 245Q190 182 215 140T290 98Q335 98 361 138T387 245Q387 272 382 298T365 346T335 379T290 392ZM448 702L326 550H221L307 702H448Z"  />
<glyph unicode="&#xF4;" horiz-adv-x="577" d="M294 500Q350 500 396 482T475 430T526 351T544 250Q544 183 522 134T464 53T382 5T286 -11Q232 -11 186 6T106 55T53 135T33 241Q33 300 51 348T104 429T187 481T294 500ZM290 392Q263 392 244 379T213 346T196 299T190 245Q190 182 215 140T290 98Q335 98 361 138T387 245Q387 272 382 298T365 346T335 379T290 392ZM340 702L439 550H340L290 637H288L238 550H138L238 702H340Z"  />
<glyph unicode="&#xF5;" horiz-adv-x="577" d="M294 500Q350 500 396 482T475 430T526 351T544 250Q544 183 522 134T464 53T382 5T286 -11Q232 -11 186 6T106 55T53 135T33 241Q33 300 51 348T104 429T187 481T294 500ZM290 392Q263 392 244 379T213 346T196 299T190 245Q190 182 215 140T290 98Q335 98 361 138T387 245Q387 272 382 298T365 346T335 379T290 392ZM146 558Q144 621 166 655T228 689Q247 689 262 683T293 669Q305 661 315 655T335 649Q347 649 353 658T361 694H431Q433 625 411 595T349 565Q328 565 312 572T280 587Q266 595 259 599T242 603Q219 603 218 558H146Z"  />
<glyph unicode="&#xF6;" horiz-adv-x="577" d="M294 500Q350 500 396 482T475 430T526 351T544 250Q544 183 522 134T464 53T382 5T286 -11Q232 -11 186 6T106 55T53 135T33 241Q33 300 51 348T104 429T187 481T294 500ZM290 392Q263 392 244 379T213 346T196 299T190 245Q190 182 215 140T290 98Q335 98 361 138T387 245Q387 272 382 298T365 346T335 379T290 392ZM184 557Q153 557 133 577T112 627Q112 658 133 678T184 698Q213 698 232 678T252 627Q252 598 233 578T184 557ZM394 557Q363 557 343 577T323 627Q323 658 343 678T394 698Q423 698 443 678T463 627Q463 598 444 578T394 557Z"  />
<glyph unicode="&#xF7;" horiz-adv-x="596" d="M298 369Q265 369 245 389T225 442Q225 477 245 497T298 517Q331 517 350 497T371 442Q371 410 352 390T298 369ZM40 220V314H556V220H40ZM298 17Q265 17 245 37T225 91Q225 125 245 145T298 165Q331 165 350 145T371 91Q371 58 352 38T298 17Z"  />
<glyph unicode="&#xF8;" horiz-adv-x="577" d="M288 500Q321 500 351 494T407 474L454 543L507 506L462 439Q501 405 522 357T544 246Q544 181 522 133T464 52T383 5T289 -11Q257 -11 228 -5T173 15L124 -56L74 -16L118 49Q78 81 56 130T33 244Q33 302 51 349T104 429T184 481T288 500ZM342 374Q331 382 318 387T288 392Q258 392 238 379T204 344T185 297T179 245Q179 225 183 205T197 167L199 166L342 374ZM237 116Q248 106 261 102T288 98Q339 98 368 137T397 242Q397 260 394 280T382 318L379 319L237 116Z"  />
<glyph unicode="&#xF9;" horiz-adv-x="583" d="M522 157Q522 109 523 70T526 0H394L387 69H384Q377 58 365 44T334 18T290 -2T231 -11Q194 -11 163 1T108 39T72 105T59 202V489H212V226Q212 172 230 142T288 112Q320 112 338 129T364 165Q367 172 368 180T369 198V489H522V157ZM272 702L358 550H254L132 702H272Z"  />
<glyph unicode="&#xFA;" horiz-adv-x="583" d="M522 157Q522 109 523 70T526 0H394L387 69H384Q377 58 365 44T334 18T290 -2T231 -11Q194 -11 163 1T108 39T72 105T59 202V489H212V226Q212 172 230 142T288 112Q320 112 338 129T364 165Q367 172 368 180T369 198V489H522V157ZM456 702L334 550H229L315 702H456Z"  />
<glyph unicode="&#xFB;" horiz-adv-x="583" d="M522 157Q522 109 523 70T526 0H394L387 69H384Q377 58 365 44T334 18T290 -2T231 -11Q194 -11 163 1T108 39T72 105T59 202V489H212V226Q212 172 230 142T288 112Q320 112 338 129T364 165Q367 172 368 180T369 198V489H522V157ZM343 702L442 550H343L293 637H291L241 550H142L241 702H343Z"  />
<glyph unicode="&#xFC;" horiz-adv-x="583" d="M522 157Q522 109 523 70T526 0H394L387 69H384Q377 58 365 44T334 18T290 -2T231 -11Q194 -11 163 1T108 39T72 105T59 202V489H212V226Q212 172 230 142T288 112Q320 112 338 129T364 165Q367 172 368 180T369 198V489H522V157ZM191 557Q160 557 140 577T119 627Q119 658 140 678T191 698Q220 698 239 678T259 627Q259 598 240 578T191 557ZM401 557Q370 557 350 577T330 627Q330 658 350 678T401 698Q430 698 450 678T470 627Q470 598 451 578T401 557Z"  />
<glyph unicode="&#xFD;" horiz-adv-x="523" d="M175 489L248 249Q254 227 260 203T272 158H275Q280 178 286 203T297 249L357 489H520L406 167Q380 94 358 42T315 -47T275 -110T234 -154Q194 -189 155 -203T87 -221L55 -92Q86 -87 121 -66Q138 -57 155 -41T184 -5Q192 6 192 17Q192 21 191 27T185 42L6 489H175ZM437 702L315 550H210L296 702H437Z"  />
<glyph unicode="&#xFE;" horiz-adv-x="598" d="M213 710V429H215Q237 461 273 480T361 500Q400 501 437 485T502 437T547 357T564 249Q564 181 544 132T492 51T421 4T344 -11Q299 -11 267 5T215 46H213V-198H61V710H213ZM213 200Q213 189 216 176T227 153Q238 132 259 119T306 106Q354 106 382 143T410 247Q410 304 384 342T310 381Q281 381 258 367T223 325Q219 317 216 306T213 284V200Z"  />
<glyph unicode="&#xFF;" horiz-adv-x="523" d="M175 489L248 249Q254 227 260 203T272 158H275Q280 178 286 203T297 249L357 489H520L406 167Q380 94 358 42T315 -47T275 -110T234 -154Q194 -189 155 -203T87 -221L55 -92Q86 -87 121 -66Q138 -57 155 -41T184 -5Q192 6 192 17Q192 21 191 27T185 42L6 489H175ZM169 557Q138 557 118 577T97 627Q97 658 117 678T169 698Q198 698 217 678T237 627Q237 598 218 578T169 557ZM379 557Q348 557 328 577T308 627Q308 658 328 678T379 698Q408 698 428 678T448 627Q448 598 429 578T379 557Z"  />
<glyph unicode="&#x152;" horiz-adv-x="936" d="M897 0H517Q503 0 488 -2T455 -6Q438 -8 418 -9T373 -11Q286 -11 223 17T118 92T56 201T35 331Q35 412 59 477T129 589T236 660T375 685Q403 685 425 684T466 680Q485 678 500 676T529 674H883V549H620V409H868V285H620V125H897V0ZM468 550Q438 564 389 564Q350 564 315 550T253 506T212 435T196 337Q196 287 209 246T248 174T312 127T399 110Q417 110 435 113T468 122V550Z"  />
<glyph unicode="&#x153;" horiz-adv-x="868" d="M526 199Q527 176 538 159T567 128T608 109T659 102Q704 102 734 109T795 128L816 26Q796 15 772 8T724 -4T678 -9T638 -11Q584 -11 538 8T458 75H455Q424 30 376 10T272 -11Q222 -11 179 6T103 56T52 136T33 244Q33 302 51 349T103 429T182 481T282 500Q335 500 381 479T454 413H456Q485 457 529 478T626 500Q684 500 725 479T791 423T827 345T839 256Q839 239 838 223T835 199H526ZM290 392Q261 392 242 379T212 344T195 297T190 244Q190 213 196 187T215 141T245 110T288 98Q335 98 359 138T384 245Q384 274 379 300T362 347T332 380T290 392ZM698 301Q698 314 696 331T684 363T658 388T613 399Q590 399 573 389T546 365T530 333T524 301H698Z"  />
<glyph unicode="&#x160;" horiz-adv-x="540" d="M71 157Q102 141 146 128T240 115Q293 115 320 135T347 188Q347 220 321 240T234 283Q150 312 100 360T49 482Q49 525 66 562T117 626T197 669T304 685Q361 685 403 675T476 651L442 528Q422 538 387 549T301 560Q251 560 227 541T203 495Q203 479 210 467T233 444T271 423T328 400Q418 367 460 319T503 199Q503 157 487 119T437 53T352 7T231 -10Q173 -10 121 2T40 31L71 157ZM222 711L121 833H228L279 771H281L331 833H437L337 711H222Z"  />
<glyph unicode="&#x161;" horiz-adv-x="434" d="M60 133Q70 127 85 120T119 108T155 100T191 96Q226 96 241 107T256 137Q256 156 242 167T184 193Q108 219 76 257T45 340Q45 374 59 403T99 454T162 488T244 500Q287 500 323 492T382 472L355 367Q338 376 310 385T249 395Q191 395 191 355Q191 338 208 327T270 299Q340 275 371 239T403 148Q403 114 390 85T350 35T283 2T191 -10Q143 -10 102 -1T33 24L60 133ZM168 550L69 702H168L219 615H221L271 702H371L271 550H168Z"  />
<glyph unicode="&#x178;" horiz-adv-x="603" d="M222 0V276L9 674H183L252 512Q268 475 279 446T304 383H306Q317 415 329 445T357 512L425 674H596L374 281V0H222ZM207 711Q178 711 158 731T138 779Q138 808 158 828T208 848Q236 848 254 828T273 779Q273 751 255 731T207 711ZM415 711Q385 711 366 731T346 779Q346 808 365 828T415 848Q444 848 463 828T482 779Q482 751 463 731T415 711Z"  />
<glyph unicode="&#x17D;" horiz-adv-x="577" d="M23 82L344 544V548H53V674H542V586L228 130V126H547V0H23V82ZM238 710L137 833H244L294 770H296L346 833H452L352 710H238Z"  />
<glyph unicode="&#x17E;" horiz-adv-x="469" d="M22 87L176 280Q197 305 215 324T254 367V369H39V489H439V398L292 213Q272 189 253 166T212 123V121H447V0H22V87ZM188 550L89 702H188L239 615H241L291 702H391L291 550H188Z"  />
<glyph unicode="&#x192;" horiz-adv-x="555" d="M114 412H205L208 444Q211 469 221 506T255 577T319 636T425 661Q451 661 472 657T508 645L484 537Q475 541 463 543T437 546Q399 546 381 522T357 456L351 412H453V306H338L316 128Q310 82 299 42T265 -27T207 -74T118 -91Q87 -90 63 -85T27 -74L48 32Q59 27 71 26T95 24Q114 24 127 30T149 52T164 95T176 166L192 306H114V412Z"  />
<glyph unicode="&#x2C6;" horiz-adv-x="300" d="M202 702L301 550H202L151 637H149L99 550H0L99 702H202Z"  />
<glyph unicode="&#x2DC;" horiz-adv-x="300" d="M8 558Q6 621 28 655T90 689Q109 689 124 683T155 669Q167 661 177 655T197 649Q209 649 215 658T223 694H293Q295 625 273 595T211 565Q190 565 174 572T142 587Q128 595 121 599T104 603Q81 603 80 558H8Z"  />
<glyph unicode="&#x2013;" horiz-adv-x="500" d="M470 301V207H30V301H470Z"  />
<glyph unicode="&#x2014;" horiz-adv-x="1000" d="M970 301V207H30V301H970Z"  />
<glyph unicode="&#x2018;" horiz-adv-x="260" d="M27 406Q50 480 81 550T147 677L239 685Q216 621 198 551T169 415L27 406Z"  />
<glyph unicode="&#x2019;" horiz-adv-x="260" d="M238 685Q215 611 184 541T118 414L26 406Q49 470 67 540T95 676L238 685Z"  />
<glyph unicode="&#x201A;" horiz-adv-x="260" d="M16 -104Q39 -40 57 29T86 165L228 175Q205 101 174 31T108 -96L16 -104Z"  />
<glyph unicode="&#x201C;" horiz-adv-x="454" d="M26 406Q49 480 80 550T146 677L238 685Q215 621 197 551T168 415L26 406ZM221 406Q244 480 275 550T341 677L433 685Q410 621 392 551T363 415L221 406Z"  />
<glyph unicode="&#x201D;" horiz-adv-x="454" d="M237 685Q214 611 183 541T117 414L25 406Q48 470 66 540T95 676L237 685ZM432 685Q409 611 378 541T312 414L220 406Q243 470 261 540T290 676L432 685Z"  />
<glyph unicode="&#x201E;" horiz-adv-x="459" d="M15 -104Q38 -40 56 29T85 165L227 175Q204 101 173 31T107 -96L15 -104ZM211 -104Q234 -40 252 29T281 165L423 175Q400 101 369 31T303 -96L211 -104Z"  />
<glyph unicode="&#x2020;" horiz-adv-x="524" d="M331 674L318 473L489 485V367L318 379L331 -50H193L207 379L35 367V485L207 473L193 674H331Z"  />
<glyph unicode="&#x2021;" horiz-adv-x="524" d="M330 674L319 489L489 500V383L319 395V237L489 249V131L319 143L330 -50H194L204 143L34 131V249L204 237V395L34 383V500L204 489L194 674H330Z"  />
<glyph unicode="&#x2022;" horiz-adv-x="338" d="M169 130Q142 130 119 140T77 167T49 209T39 261Q38 288 48 312T76 354T118 382T169 392Q196 392 219 382T261 355T289 313T299 261Q299 233 289 209T262 168T220 140T169 130Z"  />
<glyph unicode="&#x2026;" horiz-adv-x="1000" d="M166 -11Q126 -11 102 15T77 81Q77 122 102 148T167 174Q206 174 231 149T256 81Q256 41 232 15T166 -11ZM500 -11Q460 -11 435 15T410 81Q410 122 435 148T500 174Q540 174 564 149T590 81Q590 41 566 15T500 -11ZM834 -11Q794 -11 769 15T744 81Q744 122 769 148T834 174Q874 174 898 149T924 81Q924 41 900 15T834 -11Z"  />
<glyph unicode="&#x2030;" horiz-adv-x="1285" d="M677 391Q719 391 751 377T806 336T840 275T852 198Q852 147 837 109T797 44T740 4T672 -9Q635 -9 603 4T547 43T509 105T495 187Q495 230 508 267T544 332T601 375T677 391ZM675 308Q640 308 625 274T609 191Q608 140 625 107T675 74Q707 74 723 105T739 191Q739 241 725 274T675 308ZM1081 391Q1123 391 1155 377T1210 336T1244 275T1256 198Q1256 147 1241 109T1201 44T1144 4T1076 -9Q1039 -9 1007 4T951 43T913 105T899 187Q899 230 912 267T948 332T1005 375T1081 391ZM1079 308Q1044 308 1028 274T1012 191Q1012 140 1029 107T1079 74Q1111 74 1127 105T1143 191Q1143 216 1140 237T1129 274T1109 299T1079 308ZM209 661Q251 661 283 647T338 606T372 545T384 468Q384 417 369 379T329 314T272 274T204 261Q167 261 135 274T78 313T41 375T27 457Q27 500 40 537T76 602T133 645T209 661ZM206 578Q172 578 156 544T140 461Q140 410 157 377T207 344Q239 344 255 375T271 461Q271 511 256 544T206 578ZM212 -11L585 661H667L293 -11H212Z"  />
<glyph unicode="&#x2039;" horiz-adv-x="270" d="M129 252L248 61H142L26 252L142 443H248L129 252Z"  />
<glyph unicode="&#x203A;" horiz-adv-x="270" d="M22 443H127L244 252L127 61H22L142 252L22 443Z"  />
<glyph unicode="&#x20AC;" horiz-adv-x="555" d="M526 27Q500 13 459 1T370 -11Q296 -11 232 18T126 103Q106 129 92 161T70 233H5V304H60V321Q60 329 60 336T61 351H5V422H72Q82 463 99 497T141 559Q184 607 242 634T372 661Q418 661 456 652T522 631L494 517Q474 525 445 533T383 541Q347 541 315 529T260 487Q239 463 228 422H477V351H213Q212 343 212 336T212 320V304H477V233H226Q236 189 259 163Q283 136 316 124T388 112Q423 112 454 121T502 138L526 27Z"  />
<glyph unicode="&#x2122;" horiz-adv-x="650" d="M265 674V607H187V401H104V607H27V674H265ZM559 401L554 521Q553 544 553 569T553 627H548Q542 599 536 572T525 521L497 406H418L393 522Q390 542 386 571T376 627H371Q371 599 371 572T369 521L363 401H285L302 674H430L448 607Q452 591 455 572T464 519H465Q470 545 475 566T485 607L505 674H624L639 401H559Z"  />


</font>
</defs>
</svg>
